<?xml version="1.0" encoding="UTF-8" standalone="no"?>
<svg xmlns="http://www.w3.org/2000/svg" 
	xmlns:oryx="http://www.b3mn.org/oryx"
	xmlns:xlink="http://www.w3.org/1999/xlink" version="1.1">
	
	<oryx:magnets>
		<!-- DEFAULT (ONLY IN ORYX) -->
		<oryx:magnet oryx:cx="28" oryx:cy="28" oryx:default="yes"/>
		<!-- WITHOUT DECORATORS -->
		<oryx:magnet oryx:cx="12" oryx:cy="28" />
		<oryx:magnet oryx:cx="28" oryx:cy="12" />
		<oryx:magnet oryx:cx="28" oryx:cy="44"/>
		<oryx:magnet oryx:cx="44" oryx:cy="28"/>
		<!-- TOP -->
		<oryx:magnet oryx:cx="28" oryx:cy="0"/>
		<oryx:magnet oryx:cx="20" oryx:cy="0"/>
		<oryx:magnet oryx:cx="36" oryx:cy="0"/>
		<oryx:magnet oryx:cx="12" oryx:cy="6"/>
		<oryx:magnet oryx:cx="44" oryx:cy="6"/>
		<!-- BOTTOM -->
		<oryx:magnet oryx:cx="28" oryx:cy="56"/>
		<oryx:magnet oryx:cx="20" oryx:cy="56"/>
		<oryx:magnet oryx:cx="36" oryx:cy="56"/>
		<oryx:magnet oryx:cx="12" oryx:cy="50"/>
		<oryx:magnet oryx:cx="44" oryx:cy="50"/>
		<!-- LEFT -->
		<oryx:magnet oryx:cx="0" oryx:cy="28"/>
		<oryx:magnet oryx:cx="0" oryx:cy="20"/>
		<oryx:magnet oryx:cx="0" oryx:cy="36"/>
		<oryx:magnet oryx:cx="6" oryx:cy="12"/>
		<oryx:magnet oryx:cx="6" oryx:cy="44"/>
		<!-- RIGHT -->
		<oryx:magnet oryx:cx="56" oryx:cy="28"/>
		<oryx:magnet oryx:cx="56" oryx:cy="20"/>
		<oryx:magnet oryx:cx="56" oryx:cy="36"/>
		<oryx:magnet oryx:cx="50" oryx:cy="12"/>
		<oryx:magnet oryx:cx="50" oryx:cy="44"/>
	</oryx:magnets>	

  	<g oryx:minimumSize="56 56" oryx:maximumSize="56 56">   
  
  	<!-- BASE -->	
	    <rect id="base" oryx:anchors="top bottom left right" x="19" y="12" 
	    	width="25" height="25" rx="0" 
	    	stroke="black" fill="#FFFFFF" stroke-width="1"/>
	    <rect oryx:anchors="top bottom left right" x="12" y="19" 
	    	width="25" height="25" rx="0" 
	    	stroke="black" fill="#FFFFFF" stroke-width="1"/>   	
    	<g id="none" />

    <!-- JOIN -->   
	    <!-- AND -->
	       <g id="andjoinT">
		    	<rect oryx:anchors="top bottom left right" x="12" y="0" 
	    			width="32" height="12" rx="0" 
	    			stroke="black" fill="#FFFFFF" stroke-width="1"/>
				<line x1="28" y1="12" x2="44" y2="0" stroke="black" stroke-width="1"/>
				<line x1="28" y1="12" x2="12" y2="0" stroke="black" stroke-width="1"/>
		   </g>
		   <g id="andjoinB">
		    	<rect oryx:anchors="top bottom left right" x="12" y="44" 
	    			width="32" height="12" rx="0" 
	    			stroke="black" fill="#FFFFFF" stroke-width="1"/>
				<line x1="44" y1="56" x2="28" y2="44" stroke="black" stroke-width="1"/>
				<line x1="12" y1="56" x2="28" y2="44" stroke="black" stroke-width="1"/>
		   </g>
	       <g id="andjoinR">
		    	<rect oryx:anchors="top bottom left right" x="44" y="12" 
	    			width="12" height="32" rx="0" 
	    			stroke="black" fill="#FFFFFF" stroke-width="1" />
				<line x1="44" y1="28" x2="56" y2="12" stroke="black" stroke-width="1"/>
				<line x1="44" y1="28" x2="56" y2="44" stroke="black" stroke-width="1"/>			
		    </g>
		    <g id="andjoinL">
		    	<rect oryx:anchors="top bottom left right" x="0" y="12" 
	    			width="12" height="32" rx="0" 
	    			stroke="black" fill="#FFFFFF" stroke-width="1"/>
				<line x1="12" y1="28" x2="0" y2="12" stroke="black" stroke-width="1"/>
				<line x1="12" y1="28" x2="0" y2="44" stroke="black" stroke-width="1"/>			
		    </g>		    
	    <!-- OR -->	
	       <g id="orjoinT">
		    	<rect oryx:anchors="top bottom left right" x="12" y="0" 
	    			width="32" height="12" rx="0" 
	    			stroke="black" fill="#FFFFFF" stroke-width="1"/>
				<line x1="12" y1="6" x2="28" y2="0" stroke="black" stroke-width="1"/>
				<line x1="12" y1="6" x2="28" y2="12" stroke="black" stroke-width="1"/>
				<line x1="44" y1="6" x2="28" y2="0" stroke="black" stroke-width="1"/>
				<line x1="44" y1="6" x2="28" y2="12" stroke="black" stroke-width="1"/>
		   </g>
		   <g id="orjoinB">
		    	<rect oryx:anchors="top bottom left right" x="12" y="44" 
	    			width="32" height="12" rx="0" 
	    			stroke="black" fill="#FFFFFF" stroke-width="1"/>
				<line x1="12" y1="50" x2="28" y2="44" stroke="black" stroke-width="1"/>
				<line x1="12" y1="50" x2="28" y2="56" stroke="black" stroke-width="1"/>
				<line x1="44" y1="50" x2="28" y2="44" stroke="black" stroke-width="1"/>
				<line x1="44" y1="50" x2="28" y2="56" stroke="black" stroke-width="1"/>
		   </g>    
	        <g id="orjoinR">
			  	<rect oryx:anchors="top bottom left right" x="44" y="12" 
	    			width="12" height="32" rx="0" 
	    			stroke="black" fill="#FFFFFF" stroke-width="1"/>
				<line x1="50" y1="12" x2="56" y2="28" stroke="black" stroke-width="1"/>
				<line x1="50" y1="12" x2="44" y2="28" stroke="black" stroke-width="1"/>
				<line x1="50" y1="44" x2="56" y2="28" stroke="black" stroke-width="1"/>
				<line x1="50" y1="44" x2="44" y2="28" stroke="black" stroke-width="1"/>							    
		    </g>
		    <g id="orjoinL">
		    	<rect oryx:anchors="top bottom left right" x="0" y="12" 
	    			width="12" height="32" rx="0" 
	    			stroke="black" fill="#FFFFFF" stroke-width="1"/>
				<line x1="6" y1="12" x2="12" y2="28" stroke="black" stroke-width="1"/>
				<line x1="6" y1="12" x2="0" y2="28" stroke="black" stroke-width="1"/>
				<line x1="6" y1="44" x2="12" y2="28" stroke="black" stroke-width="1"/>
				<line x1="6" y1="44" x2="0" y2="28" stroke="black" stroke-width="1"/>
			</g>
			<!-- XOR -->
			<g id="xorjoinT">
		    	<rect oryx:anchors="top bottom left right" x="12" y="0" 
	    			width="32" height="12" rx="0" 
	    			stroke="black" fill="#FFFFFF" stroke-width="1"/>
				<line x1="28" y1="0" x2="44" y2="12" stroke="black" stroke-width="1"/>
				<line x1="28" y1="0" x2="12" y2="12" stroke="black" stroke-width="1"/>
		   </g>
		   <g id="xorjoinB">
		    	<rect oryx:anchors="top bottom left right" x="12" y="44" 
	    			width="32" height="12" rx="0" 
	    			stroke="black" fill="#FFFFFF" stroke-width="1"/>
				<line x1="44" y1="44" x2="28" y2="56" stroke="black" stroke-width="1"/>
				<line x1="12" y1="44" x2="28" y2="56" stroke="black" stroke-width="1"/>
		   </g>
	       <g id="xorjoinR">
		    	<rect oryx:anchors="top bottom left right" x="44" y="12" 
	    			width="12" height="32" rx="0" 
	    			stroke="black" fill="#FFFFFF" stroke-width="1" />
				<line x1="44" y1="12" x2="56" y2="28" stroke="black" stroke-width="1"/>
				<line x1="44" y1="44" x2="56" y2="28" stroke="black" stroke-width="1"/>			
		    </g>
		    <g id="xorjoinL">
		    	<rect oryx:anchors="top bottom left right" x="0" y="12" 
	    			width="12" height="32" rx="0" 
	    			stroke="black" fill="#FFFFFF" stroke-width="1"/>
				<line x1="12" y1="12" x2="0" y2="28" stroke="black" stroke-width="1"/>
				<line x1="12" y1="44" x2="0" y2="28" stroke="black" stroke-width="1"/>			
		    </g>
	<!-- SPLIT -->    		  
	    <!-- AND -->	  
		    <g id="andsplitT">
		    	<rect oryx:anchors="top bottom left right" x="12" y="0" 
	    			width="32" height="12" rx="0" 
	    			stroke="black" fill="#FFFFFF" stroke-width="1"/>
				<line x1="28" y1="12" x2="44" y2="0" stroke="black" stroke-width="1"/>
				<line x1="28" y1="12" x2="12" y2="0" stroke="black" stroke-width="1"/>
		   </g>
		   <g id="andsplitB">
		    	<rect oryx:anchors="top bottom left right" x="12" y="44" 
	    			width="32" height="12" rx="0" 
	    			stroke="black" fill="#FFFFFF" stroke-width="1"/>
				<line x1="44" y1="56" x2="28" y2="44" stroke="black" stroke-width="1"/>
				<line x1="12" y1="56" x2="28" y2="44" stroke="black" stroke-width="1"/>
		   </g>
	       <g id="andsplitR">
		    	<rect oryx:anchors="top bottom left right" x="44" y="12" 
	    			width="12" height="32" rx="0" 
	    			stroke="black" fill="#FFFFFF" stroke-width="1" />
				<line x1="44" y1="28" x2="56" y2="12" stroke="black" stroke-width="1"/>
				<line x1="44" y1="28" x2="56" y2="44" stroke="black" stroke-width="1"/>			
		    </g>
		    <g id="andsplitL">
		    	<rect oryx:anchors="top bottom left right" x="0" y="12" 
	    			width="12" height="32" rx="0" 
	    			stroke="black" fill="#FFFFFF" stroke-width="1"/>
				<line x1="12" y1="28" x2="0" y2="12" stroke="black" stroke-width="1"/>
				<line x1="12" y1="28" x2="0" y2="44" stroke="black" stroke-width="1"/>			
		    </g>		    
	    <!-- OR -->	
	       <g id="orsplitT">
		    	<rect oryx:anchors="top bottom left right" x="12" y="0" 
	    			width="32" height="12" rx="0" 
	    			stroke="black" fill="#FFFFFF" stroke-width="1"/>
				<line x1="12" y1="6" x2="28" y2="0" stroke="black" stroke-width="1"/>
				<line x1="12" y1="6" x2="28" y2="12" stroke="black" stroke-width="1"/>
				<line x1="44" y1="6" x2="28" y2="0" stroke="black" stroke-width="1"/>
				<line x1="44" y1="6" x2="28" y2="12" stroke="black" stroke-width="1"/>
		   </g>
		   <g id="orsplitB">
		    	<rect oryx:anchors="top bottom left right" x="12" y="44" 
	    			width="32" height="12" rx="0" 
	    			stroke="black" fill="#FFFFFF" stroke-width="1"/>
				<line x1="12" y1="50" x2="28" y2="44" stroke="black" stroke-width="1"/>
				<line x1="12" y1="50" x2="28" y2="56" stroke="black" stroke-width="1"/>
				<line x1="44" y1="50" x2="28" y2="44" stroke="black" stroke-width="1"/>
				<line x1="44" y1="50" x2="28" y2="56" stroke="black" stroke-width="1"/>
		   </g>    
	        <g id="orsplitR">
			  	<rect oryx:anchors="top bottom left right" x="44" y="12" 
	    			width="12" height="32" rx="0" 
	    			stroke="black" fill="#FFFFFF" stroke-width="1"/>
				<line x1="50" y1="12" x2="56" y2="28" stroke="black" stroke-width="1"/>
				<line x1="50" y1="12" x2="44" y2="28" stroke="black" stroke-width="1"/>
				<line x1="50" y1="44" x2="56" y2="28" stroke="black" stroke-width="1"/>
				<line x1="50" y1="44" x2="44" y2="28" stroke="black" stroke-width="1"/>							    
		    </g>
		    <g id="orsplitL">
		    	<rect oryx:anchors="top bottom left right" x="0" y="12" 
	    			width="12" height="32" rx="0" 
	    			stroke="black" fill="#FFFFFF" stroke-width="1"/>
				<line x1="6" y1="12" x2="12" y2="28" stroke="black" stroke-width="1"/>
				<line x1="6" y1="12" x2="0" y2="28" stroke="black" stroke-width="1"/>
				<line x1="6" y1="44" x2="12" y2="28" stroke="black" stroke-width="1"/>
				<line x1="6" y1="44" x2="0" y2="28" stroke="black" stroke-width="1"/>
			</g>
			<!-- XOR -->
			<g id="xorsplitT">
		    	<rect oryx:anchors="top bottom left right" x="12" y="0" 
	    			width="32" height="12" rx="0" 
	    			stroke="black" fill="#FFFFFF" stroke-width="1"/>
				<line x1="28" y1="0" x2="44" y2="12" stroke="black" stroke-width="1"/>
				<line x1="28" y1="0" x2="12" y2="12" stroke="black" stroke-width="1"/>
		   </g>
		   <g id="xorsplitB">
		    	<rect oryx:anchors="top bottom left right" x="12" y="44" 
	    			width="32" height="12" rx="0" 
	    			stroke="black" fill="#FFFFFF" stroke-width="1"/>
				<line x1="44" y1="44" x2="28" y2="56" stroke="black" stroke-width="1"/>
				<line x1="12" y1="44" x2="28" y2="56" stroke="black" stroke-width="1"/>
		   </g>
	       <g id="xorsplitR">
		    	<rect oryx:anchors="top bottom left right" x="44" y="12" 
	    			width="12" height="32" rx="0" 
	    			stroke="black" fill="#FFFFFF" stroke-width="1" />
				<line x1="44" y1="12" x2="56" y2="28" stroke="black" stroke-width="1"/>
				<line x1="44" y1="44" x2="56" y2="28" stroke="black" stroke-width="1"/>			
		    </g>
		    <g id="xorsplitL">
		    	<rect oryx:anchors="top bottom left right" x="0" y="12" 
	    			width="12" height="32" rx="0" 
	    			stroke="black" fill="#FFFFFF" stroke-width="1"/>
				<line x1="12" y1="12" x2="0" y2="28" stroke="black" stroke-width="1"/>
				<line x1="12" y1="44" x2="0" y2="28" stroke="black" stroke-width="1"/>			
		    </g>
	<!-- LABEL -->
		<rect id="captionContainer" x="0" y="0" width="56" height="56" stroke="none" fill="none"></rect>		       	 
   		<text id="caption" font-size="12" x="28" y="56" stroke="black" 
   			oryx:align="top center" oryx:fittoelem="captionContainer"></text>	    
   	
   	<!-- ICONS -->		
		<image id="iconmanual" oryx:anchors="top bottom left right" x="16" y="16" 
			height="24" width="24" xlink:href="tasks/icons/Manual.png" />
		<image id="iconautomatic" oryx:anchors="top bottom left right" x="16" y="16"
			 height="24" width="24" xlink:href="tasks/icons/Automatic.png" />
		<image id="iconautomaticone" oryx:anchors="top bottom left right" x="16" y="16"
			 height="24" width="24" xlink:href="tasks/icons/AutomaticOne.png" />
		<image id="iconautomatictwo" oryx:anchors="top bottom left right" x="16" y="16"
			 height="24" width="24" xlink:href="tasks/icons/AutomaticTwo.png" />			 	 
		<image id="icongroup" oryx:anchors="top bottom left right" x="16" y="16"
			 height="24" width="24" xlink:href="tasks/icons/Group.png" />
		<image id="iconinspect" oryx:anchors="top bottom left right" x="16" y="16"
			 height="24" width="24" xlink:href="tasks/icons/Inspect.png" />
		<image id="iconpair" oryx:anchors="top bottom left right" x="16" y="16"
			 height="24" width="24" xlink:href="tasks/icons/Pair.png" />
		<image id="iconprint" oryx:anchors="top bottom left right" x="16" y="16"
			 height="24" width="24" xlink:href="tasks/icons/Print.png" />
		<image id="iconvalidate" oryx:anchors="top bottom left right" x="16" y="16"
			 height="24" width="24" xlink:href="tasks/icons/Validate.png" />
		<image id="iconfile" oryx:anchors="top bottom left right" x="16" y="16"
			 height="24" width="24" xlink:href="tasks/icons/File.png" />
		<image id="iconblackpda" oryx:anchors="top bottom left right" x="16" y="16"
			 height="24" width="24" xlink:href="tasks/icons/BlackPDA.png" />
		<image id="icontimer" oryx:anchors="top bottom left right" x="16" y="16"
			 height="24" width="24" xlink:href="tasks/icons/Timer.png" />
		<image id="iconschedule" oryx:anchors="top bottom left right" x="16" y="16"
			 height="24" width="24" xlink:href="tasks/icons/Schedule.png" />
		<image id="iconquestionone" oryx:anchors="top bottom left right" x="16" y="16"
			 height="24" width="24" xlink:href="tasks/icons/QuestionOne.png" />
		<image id="iconquestiontwo" oryx:anchors="top bottom left right" x="16" y="16"
			 height="24" width="24" xlink:href="tasks/icons/QuestionTwo.png" />
		<image id="iconplugin" oryx:anchors="top bottom left right" x="16" y="16"
			 height="24" width="24" xlink:href="tasks/icons/Plugin.png" />
		<image id="iconexception" oryx:anchors="top bottom left right" x="16" y="16"
			 height="24" width="24" xlink:href="tasks/icons/Exception.png" />
		<image id="icondangerous" oryx:anchors="top bottom left right" x="16" y="16"
			 height="24" width="24" xlink:href="tasks/icons/Dangerous.png" />
		<image id="iconbrokenicon" oryx:anchors="top bottom left right" x="16" y="16"
			 height="24" width="24" xlink:href="tasks/icons/BrokenIcon.png" />			 			 			 			 			 			 			 			 
		<image id="iconroutingtask" oryx:anchors="top bottom left right" x="16" y="16"
			 height="24" width="24" xlink:href="tasks/icons/RoutingTask.png" />   	
   	
   		<!-- CANCELATION SET -->
		<circle id="cancelation" oryx:anchors="top bottom left right" 
			cx="38" cy="18" r="4" fill="#FF0000" visibility="hidden" />
			
		<!-- CODELET -->	
		<g id="automatic">
			<line x1="24" y1="13" x2="32" y2="16" stroke="black" stroke-width="1"/>
			<line x1="32" y1="16" x2="24" y2="19" stroke="black" stroke-width="1"/>
			<line x1="24" y1="19" x2="24" y2="14" stroke="black" stroke-width="1"/>
		</g>	
   	
   	</g>
	   	
</svg>