<?xml version="1.0" encoding="UTF-8" standalone="no"?>
<svg xmlns="http://www.w3.org/2000/svg" 
	xmlns:oryx="http://www.b3mn.org/oryx"
	xmlns:xlink="http://www.w3.org/1999/xlink" version="1.1">
	
	<oryx:magnets>
		<!-- DEFAULT (ONLY IN ORYX) -->
		<oryx:magnet oryx:cx="28" oryx:cy="28" oryx:default="yes"/>
		<!-- WITHOUT DECORATORS -->
		<oryx:magnet oryx:cx="12" oryx:cy="28" />
		<oryx:magnet oryx:cx="28" oryx:cy="12" />
		<oryx:magnet oryx:cx="28" oryx:cy="44"/>
		<oryx:magnet oryx:cx="44" oryx:cy="28"/>
		<!-- TOP -->
		<oryx:magnet oryx:cx="28" oryx:cy="0"/>
		<oryx:magnet oryx:cx="20" oryx:cy="0"/>
		<oryx:magnet oryx:cx="36" oryx:cy="0"/>
		<oryx:magnet oryx:cx="12" oryx:cy="6"/>
		<oryx:magnet oryx:cx="44" oryx:cy="6"/>
		<!-- BOTTOM -->
		<oryx:magnet oryx:cx="28" oryx:cy="56"/>
		<oryx:magnet oryx:cx="20" oryx:cy="56"/>
		<oryx:magnet oryx:cx="36" oryx:cy="56"/>
		<oryx:magnet oryx:cx="12" oryx:cy="50"/>
		<oryx:magnet oryx:cx="44" oryx:cy="50"/>
		<!-- LEFT -->
		<oryx:magnet oryx:cx="0" oryx:cy="28"/>
		<oryx:magnet oryx:cx="0" oryx:cy="20"/>
		<oryx:magnet oryx:cx="0" oryx:cy="36"/>
		<oryx:magnet oryx:cx="6" oryx:cy="12"/>
		<oryx:magnet oryx:cx="6" oryx:cy="44"/>
		<!-- RIGHT -->
		<oryx:magnet oryx:cx="56" oryx:cy="28"/>
		<oryx:magnet oryx:cx="56" oryx:cy="20"/>
		<oryx:magnet oryx:cx="56" oryx:cy="36"/>
		<oryx:magnet oryx:cx="50" oryx:cy="12"/>
		<oryx:magnet oryx:cx="50" oryx:cy="44"/>
	</oryx:magnets>	
	
	<g oryx:minimumSize="56 56" oryx:maximumSize="56 56">
	
	<!-- BASE -->
	    <rect id="base" oryx:anchors="top bottom left right" x="12" y="12" 
	    	width="32" height="32" rx="0" 
	    	stroke="black" fill="#FFFFFF" stroke-width="1"/>
		<a id="decompositionlink" target="_blank">	    	
		    <rect oryx:anchors="top bottom left right" x="17" y="17"
		    	width="22" height="22" rx="0" 
		    	stroke="black" fill="#FFFFFF" stroke-width="1"/>
	   	</a>	    	
	   	
	<!-- CANCELATION SET -->
		<circle id="cancelation" oryx:anchors="top bottom left right" 
			cx="38" cy="18" r="4" fill="#FF0000" visibility="hidden" />
	   	   	
    	<g id="none" />
   <!-- JOIN -->   
	    <!-- AND -->
	       <g id="andjoinT">
		    	<rect oryx:anchors="top bottom left right" x="12" y="0" 
	    			width="32" height="12" rx="0" 
	    			stroke="black" fill="#FFFFFF" stroke-width="1"/>
				<line x1="28" y1="12" x2="44" y2="0" stroke="black" stroke-width="1"/>
				<line x1="28" y1="12" x2="12" y2="0" stroke="black" stroke-width="1"/>
		   </g>
		   <g id="andjoinB">
		    	<rect oryx:anchors="top bottom left right" x="12" y="44" 
	    			width="32" height="12" rx="0" 
	    			stroke="black" fill="#FFFFFF" stroke-width="1"/>
				<line x1="44" y1="56" x2="28" y2="44" stroke="black" stroke-width="1"/>
				<line x1="12" y1="56" x2="28" y2="44" stroke="black" stroke-width="1"/>
		   </g>
	       <g id="andjoinR">
		    	<rect oryx:anchors="top bottom left right" x="44" y="12" 
	    			width="12" height="32" rx="0" 
	    			stroke="black" fill="#FFFFFF" stroke-width="1" />
				<line x1="44" y1="28" x2="56" y2="12" stroke="black" stroke-width="1"/>
				<line x1="44" y1="28" x2="56" y2="44" stroke="black" stroke-width="1"/>			
		    </g>
		    <g id="andjoinL">
		    	<rect oryx:anchors="top bottom left right" x="0" y="12" 
	    			width="12" height="32" rx="0" 
	    			stroke="black" fill="#FFFFFF" stroke-width="1"/>
				<line x1="12" y1="28" x2="0" y2="12" stroke="black" stroke-width="1"/>
				<line x1="12" y1="28" x2="0" y2="44" stroke="black" stroke-width="1"/>			
		    </g>		    
	    <!-- OR -->	
	       <g id="orjoinT">
		    	<rect oryx:anchors="top bottom left right" x="12" y="0" 
	    			width="32" height="12" rx="0" 
	    			stroke="black" fill="#FFFFFF" stroke-width="1"/>
				<line x1="12" y1="6" x2="28" y2="0" stroke="black" stroke-width="1"/>
				<line x1="12" y1="6" x2="28" y2="12" stroke="black" stroke-width="1"/>
				<line x1="44" y1="6" x2="28" y2="0" stroke="black" stroke-width="1"/>
				<line x1="44" y1="6" x2="28" y2="12" stroke="black" stroke-width="1"/>
		   </g>
		   <g id="orjoinB">
		    	<rect oryx:anchors="top bottom left right" x="12" y="44" 
	    			width="32" height="12" rx="0" 
	    			stroke="black" fill="#FFFFFF" stroke-width="1"/>
				<line x1="12" y1="50" x2="28" y2="44" stroke="black" stroke-width="1"/>
				<line x1="12" y1="50" x2="28" y2="56" stroke="black" stroke-width="1"/>
				<line x1="44" y1="50" x2="28" y2="44" stroke="black" stroke-width="1"/>
				<line x1="44" y1="50" x2="28" y2="56" stroke="black" stroke-width="1"/>
		   </g>    
	        <g id="orjoinR">
			  	<rect oryx:anchors="top bottom left right" x="44" y="12" 
	    			width="12" height="32" rx="0" 
	    			stroke="black" fill="#FFFFFF" stroke-width="1"/>
				<line x1="50" y1="12" x2="56" y2="28" stroke="black" stroke-width="1"/>
				<line x1="50" y1="12" x2="44" y2="28" stroke="black" stroke-width="1"/>
				<line x1="50" y1="44" x2="56" y2="28" stroke="black" stroke-width="1"/>
				<line x1="50" y1="44" x2="44" y2="28" stroke="black" stroke-width="1"/>							    
		    </g>
		    <g id="orjoinL">
		    	<rect oryx:anchors="top bottom left right" x="0" y="12" 
	    			width="12" height="32" rx="0" 
	    			stroke="black" fill="#FFFFFF" stroke-width="1"/>
				<line x1="6" y1="12" x2="12" y2="28" stroke="black" stroke-width="1"/>
				<line x1="6" y1="12" x2="0" y2="28" stroke="black" stroke-width="1"/>
				<line x1="6" y1="44" x2="12" y2="28" stroke="black" stroke-width="1"/>
				<line x1="6" y1="44" x2="0" y2="28" stroke="black" stroke-width="1"/>
			</g>
			<!-- XOR -->
			<g id="xorjoinT">
		    	<rect oryx:anchors="top bottom left right" x="12" y="0" 
	    			width="32" height="12" rx="0" 
	    			stroke="black" fill="#FFFFFF" stroke-width="1"/>
				<line x1="28" y1="0" x2="44" y2="12" stroke="black" stroke-width="1"/>
				<line x1="28" y1="0" x2="12" y2="12" stroke="black" stroke-width="1"/>
		   </g>
		   <g id="xorjoinB">
		    	<rect oryx:anchors="top bottom left right" x="12" y="44" 
	    			width="32" height="12" rx="0" 
	    			stroke="black" fill="#FFFFFF" stroke-width="1"/>
				<line x1="44" y1="44" x2="28" y2="56" stroke="black" stroke-width="1"/>
				<line x1="12" y1="44" x2="28" y2="56" stroke="black" stroke-width="1"/>
		   </g>
	       <g id="xorjoinR">
		    	<rect oryx:anchors="top bottom left right" x="44" y="12" 
	    			width="12" height="32" rx="0" 
	    			stroke="black" fill="#FFFFFF" stroke-width="1" />
				<line x1="44" y1="12" x2="56" y2="28" stroke="black" stroke-width="1"/>
				<line x1="44" y1="44" x2="56" y2="28" stroke="black" stroke-width="1"/>			
		    </g>
		    <g id="xorjoinL">
		    	<rect oryx:anchors="top bottom left right" x="0" y="12" 
	    			width="12" height="32" rx="0" 
	    			stroke="black" fill="#FFFFFF" stroke-width="1"/>
				<line x1="12" y1="12" x2="0" y2="28" stroke="black" stroke-width="1"/>
				<line x1="12" y1="44" x2="0" y2="28" stroke="black" stroke-width="1"/>			
		    </g>
	<!-- SPLIT -->    		  
	    <!-- AND -->	  
		    <g id="andsplitT">
		    	<rect oryx:anchors="top bottom left right" x="12" y="0" 
	    			width="32" height="12" rx="0" 
	    			stroke="black" fill="#FFFFFF" stroke-width="1"/>
				<line x1="28" y1="12" x2="44" y2="0" stroke="black" stroke-width="1"/>
				<line x1="28" y1="12" x2="12" y2="0" stroke="black" stroke-width="1"/>
		   </g>
		   <g id="andsplitB">
		    	<rect oryx:anchors="top bottom left right" x="12" y="44" 
	    			width="32" height="12" rx="0" 
	    			stroke="black" fill="#FFFFFF" stroke-width="1"/>
				<line x1="44" y1="56" x2="28" y2="44" stroke="black" stroke-width="1"/>
				<line x1="12" y1="56" x2="28" y2="44" stroke="black" stroke-width="1"/>
		   </g>
	       <g id="andsplitR">
		    	<rect oryx:anchors="top bottom left right" x="44" y="12" 
	    			width="12" height="32" rx="0" 
	    			stroke="black" fill="#FFFFFF" stroke-width="1" />
				<line x1="44" y1="28" x2="56" y2="12" stroke="black" stroke-width="1"/>
				<line x1="44" y1="28" x2="56" y2="44" stroke="black" stroke-width="1"/>			
		    </g>
		    <g id="andsplitL">
		    	<rect oryx:anchors="top bottom left right" x="0" y="12" 
	    			width="12" height="32" rx="0" 
	    			stroke="black" fill="#FFFFFF" stroke-width="1"/>
				<line x1="12" y1="28" x2="0" y2="12" stroke="black" stroke-width="1"/>
				<line x1="12" y1="28" x2="0" y2="44" stroke="black" stroke-width="1"/>			
		    </g>		    
	    <!-- OR -->	
	       <g id="orsplitT">
		    	<rect oryx:anchors="top bottom left right" x="12" y="0" 
	    			width="32" height="12" rx="0" 
	    			stroke="black" fill="#FFFFFF" stroke-width="1"/>
				<line x1="12" y1="6" x2="28" y2="0" stroke="black" stroke-width="1"/>
				<line x1="12" y1="6" x2="28" y2="12" stroke="black" stroke-width="1"/>
				<line x1="44" y1="6" x2="28" y2="0" stroke="black" stroke-width="1"/>
				<line x1="44" y1="6" x2="28" y2="12" stroke="black" stroke-width="1"/>
		   </g>
		   <g id="orsplitB">
		    	<rect oryx:anchors="top bottom left right" x="12" y="44" 
	    			width="32" height="12" rx="0" 
	    			stroke="black" fill="#FFFFFF" stroke-width="1"/>
				<line x1="12" y1="50" x2="28" y2="44" stroke="black" stroke-width="1"/>
				<line x1="12" y1="50" x2="28" y2="56" stroke="black" stroke-width="1"/>
				<line x1="44" y1="50" x2="28" y2="44" stroke="black" stroke-width="1"/>
				<line x1="44" y1="50" x2="28" y2="56" stroke="black" stroke-width="1"/>
		   </g>    
	        <g id="orsplitR">
			  	<rect oryx:anchors="top bottom left right" x="44" y="12" 
	    			width="12" height="32" rx="0" 
	    			stroke="black" fill="#FFFFFF" stroke-width="1"/>
				<line x1="50" y1="12" x2="56" y2="28" stroke="black" stroke-width="1"/>
				<line x1="50" y1="12" x2="44" y2="28" stroke="black" stroke-width="1"/>
				<line x1="50" y1="44" x2="56" y2="28" stroke="black" stroke-width="1"/>
				<line x1="50" y1="44" x2="44" y2="28" stroke="black" stroke-width="1"/>							    
		    </g>
		    <g id="orsplitL">
		    	<rect oryx:anchors="top bottom left right" x="0" y="12" 
	    			width="12" height="32" rx="0" 
	    			stroke="black" fill="#FFFFFF" stroke-width="1"/>
				<line x1="6" y1="12" x2="12" y2="28" stroke="black" stroke-width="1"/>
				<line x1="6" y1="12" x2="0" y2="28" stroke="black" stroke-width="1"/>
				<line x1="6" y1="44" x2="12" y2="28" stroke="black" stroke-width="1"/>
				<line x1="6" y1="44" x2="0" y2="28" stroke="black" stroke-width="1"/>
			</g>
			<!-- XOR -->
			<g id="xorsplitT">
		    	<rect oryx:anchors="top bottom left right" x="12" y="0" 
	    			width="32" height="12" rx="0" 
	    			stroke="black" fill="#FFFFFF" stroke-width="1"/>
				<line x1="28" y1="0" x2="44" y2="12" stroke="black" stroke-width="1"/>
				<line x1="28" y1="0" x2="12" y2="12" stroke="black" stroke-width="1"/>
		   </g>
		   <g id="xorsplitB">
		    	<rect oryx:anchors="top bottom left right" x="12" y="44" 
	    			width="32" height="12" rx="0" 
	    			stroke="black" fill="#FFFFFF" stroke-width="1"/>
				<line x1="44" y1="44" x2="28" y2="56" stroke="black" stroke-width="1"/>
				<line x1="12" y1="44" x2="28" y2="56" stroke="black" stroke-width="1"/>
		   </g>
	       <g id="xorsplitR">
		    	<rect oryx:anchors="top bottom left right" x="44" y="12" 
	    			width="12" height="32" rx="0" 
	    			stroke="black" fill="#FFFFFF" stroke-width="1" />
				<line x1="44" y1="12" x2="56" y2="28" stroke="black" stroke-width="1"/>
				<line x1="44" y1="44" x2="56" y2="28" stroke="black" stroke-width="1"/>			
		    </g>
		    <g id="xorsplitL">
		    	<rect oryx:anchors="top bottom left right" x="0" y="12" 
	    			width="12" height="32" rx="0" 
	    			stroke="black" fill="#FFFFFF" stroke-width="1"/>
				<line x1="12" y1="12" x2="0" y2="28" stroke="black" stroke-width="1"/>
				<line x1="12" y1="44" x2="0" y2="28" stroke="black" stroke-width="1"/>			
		    </g>
	<!-- LABEL -->
		<rect id="captionContainer" x="0" y="0" width="56" height="56" stroke="none" fill="none"></rect>		       	 
   		<text id="caption" font-size="12" x="28" y="56" stroke="black" 
   			oryx:align="top center" oryx:fittoelem="captionContainer"></text>
   		
	</g>	
</svg>