<svg xmlns="http://www.w3.org/2000/svg" viewBox="0 0 576 512" x="0" y="0" aria-hidden="true" focusable="false" role="img">
    <g id="merge-model" transform="translate(-2248.956 -5111.049)">
        <path id="merge" d="M365,233.46a136.43,136.43,0,0,1-21.58-7.14c-26.16-11.18-49.41-31.23-69.11-59.59C258.68,144.26,243,128,225,115.46a152.47,152.47,0,0,0-39.86-19.82c-6.721-9.659-13.012-13.928-21.085-22.59-16.654-17.872-36.632-37.734-47.1-48-9-9.506-31.382-30.112-57.187,0-17.247,16.972-31.226,31.207-55.132,55-13.122,11.14-26.521,30.514-7.468,53.427,20.909,20.756,46.819,47.068,59,59.051,7.38,6.665,27.339,37.421,63.209,2.506C133.882,179.3,168.053,146.1,180.7,132.28c24.57,9.7,44.76,27.29,64,55,22,31.73,48.27,55,78.07,69.23-29.8,14.24-56,37.5-78.07,69.23-17.93,25.817-36.691,42.855-59.27,52.962,0,0,.08-11.439,0-23.512-.644-16.657-9.282-31.032-33.523-30.45H29.1c-16.607-.961-35.484,3.422-34.151,37.143V462.351c0,24.2,15.214,33.626,34.151,32.792H151.906c32.484.885,33.5-24.171,33.3-32.792V417.31A152.659,152.659,0,0,0,225,397.54c18-12.51,33.66-28.8,49.26-51.27,19.7-28.36,43-48.41,69.11-59.59,7.066-3.009,21.84-7.21,21.84-7.21h0c37.984-10.614,35.079-35.2-.21-46.01ZM142.862,110.4l-54.8,54.13L33.719,110.4,88.066,56.005ZM36.769,453.685V366.347H144.09v87.338Z" transform="translate(2261.278 5101.756)"/>
        <path id="bpmn-model" d="M169.278,74.49,106.23,13.477a24.745,24.745,0,0,0-34.174,0L7.967,75.491a22.849,22.849,0,0,0,0,33.064l63.047,61v51.222H30.986c-13.347,0-24.168,10.469-24.168,23.382v96.453c0,12.914,10.82,23.382,24.168,23.382H147.293c13.347,0,24.168-10.469,24.168-23.382V244.159l-2.183-135.6h0c10.768-10.734,10.942-21.643,0-34.065ZM89.139,46.555l47.021,45.472-47,45.464L42.149,92.027Zm46.07,282.365H43.07V255.85h92.139Zm36.251-84.761c0-12.914-10.82-23.382-24.168-23.382H107.265V169.554l62.013-61Z" transform="translate(2633.581 5168.687)"/>
    </g>
</svg>
