<svg xmlns="http://www.w3.org/2000/svg" viewBox="0 0 75.47 23.25"><defs><style>.cls-1,.cls-2{fill:#fff;}.cls-2{fill-rule:evenodd;}</style></defs><title>Asset 1</title><g id="Layer_2" data-name="Layer 2"><g id="svg2759"><path id="path6374" class="cls-1" d="M37.73.06A11.62,11.62,0,0,1,46,3.39a11,11,0,0,1,3.33,8.25A11.14,11.14,0,0,1,46,19.78a11.43,11.43,0,0,1-8.26,3.45,11.18,11.18,0,0,1-8.14-3.45,11.19,11.19,0,0,1-3.44-8.14,11.25,11.25,0,0,1,3.44-8.25A10.71,10.71,0,0,1,37.73.06ZM28.79,8.55a9.64,9.64,0,0,0-.58,3.09,8.84,8.84,0,0,0,2.87,6.65,9.29,9.29,0,0,0,6.65,2.87,9.12,9.12,0,0,0,6.77-2.87,6.92,6.92,0,0,0,1.6-2.06l-4.35-2a3.34,3.34,0,0,1-3.21,2.52v1.84H37.16V16.8a6,6,0,0,1-3.56-1.37l1.61-1.61a3.62,3.62,0,0,0,2.64,1c.69,0,1.49-.23,1.49-1.14A.69.69,0,0,0,39,13l-1.14-.46L36.47,12c-.69-.35-1.26-.58-1.83-.81Zm8.94-6.43a9,9,0,0,0-6.65,2.76,8.24,8.24,0,0,0-1.26,1.6l4.47,1.95a3.15,3.15,0,0,1,3-2.06V4.53h1.38V6.37a4.88,4.88,0,0,1,2.87,1L40,9a4.08,4.08,0,0,0-2-.68c-.58,0-1.38.23-1.38.91a.42.42,0,0,0,.12.35l1.49.69,1,.45c.69.35,1.26.58,1.83.81l6,2.64a9,9,0,0,0,.34-2.53,9.25,9.25,0,0,0-2.75-6.76A10.18,10.18,0,0,0,37.73,2.12Z"/><g id="g6398"><path id="path6400" class="cls-1" d="M63.85,0a11.18,11.18,0,0,0-8.19,3.37,11.27,11.27,0,0,0-3.44,8.25,11.11,11.11,0,0,0,3.44,8.19,11.34,11.34,0,0,0,8.19,3.44,11.51,11.51,0,0,0,8.31-3.44,11,11,0,0,0,3.31-8.12A11.22,11.22,0,0,0,72.1,3.44,11,11,0,0,0,63.85,0Zm0,2.12a9,9,0,0,1,6.68,2.82,9,9,0,0,1,2.82,6.75,8.82,8.82,0,0,1-2.75,6.62,9.4,9.4,0,0,1-6.75,2.81,9.13,9.13,0,0,1-6.69-2.81,9.13,9.13,0,0,1-2.81-6.69,9.22,9.22,0,0,1,2.87-6.75A8.92,8.92,0,0,1,63.85,2.12Z"/><g id="g6402"><path id="path6404" class="cls-1" d="M68.22,8.87H59.78v2h8.44Zm0,3.75H59.78v2h8.44Z"/></g></g><g id="g402"><path id="path404" class="cls-1" d="M14.8,8.74a.68.68,0,0,0-.7-.7H9.4a.68.68,0,0,0-.7.7v4.7H9.9V19h3.6v-5.6h1.3V8.74Z"/><circle id="circle406" class="cls-1" cx="11.7" cy="5.74" r="1.6"/></g><path id="path408" class="cls-2" d="M11.6,0a11.1,11.1,0,0,0-8.2,3.4A11.26,11.26,0,0,0,0,11.64a11.26,11.26,0,0,0,3.4,8.2,11.1,11.1,0,0,0,8.2,3.4,11.32,11.32,0,0,0,8.3-3.4,11,11,0,0,0,3.3-8.1,11.87,11.87,0,0,0-3.3-8.4A11.47,11.47,0,0,0,11.6,0Zm.1,2.1a8.91,8.91,0,0,1,6.7,2.8,8.91,8.91,0,0,1,2.8,6.7,8.67,8.67,0,0,1-2.7,6.6A9.29,9.29,0,0,1,11.7,21,9.07,9.07,0,0,1,5,18.24a9.07,9.07,0,0,1-2.8-6.7A9.07,9.07,0,0,1,5,4.84,9,9,0,0,1,11.7,2.14Z"/></g></g></svg>