<svg id="Layer_1" width="800" height="600" data-name="Layer 1" xmlns="http://www.w3.org/2000/svg" viewBox="0 0 629.8 126.72"><defs><style>.cls-1{fill:#4d4e4e;}.cls-2{fill:#83c6e1;}.cls-3{fill:#f16323;}.cls-4{fill:#c6e0ec;}.cls-5{fill:#bb3a50;}.cls-6{fill:#f9a423;}</style></defs><title>Logo Original Colour</title><path class="cls-1" d="M206.53,36.38V89.29H195.1V81.67c-4,5.61-10.26,9-18.52,9-14.39,0-26.34-12.17-26.34-27.83S162.19,35,176.58,35c8.26,0,14.5,3.38,18.52,8.89V36.38ZM195.1,62.83c0-9.83-7.2-16.92-16.72-16.92S161.66,53,161.66,62.83s7.2,16.93,16.72,16.93S195.1,72.67,195.1,62.83Z"/><path class="cls-1" d="M276.15,62.83c0,15.77-12,27.83-26.35,27.83-8.25,0-14.49-3.38-18.51-8.89v28.68H219.86V36.38h11.43V44c4-5.61,10.26-9,18.51-9C264.19,35,276.15,47.18,276.15,62.83Zm-11.43,0c0-9.83-7.19-16.92-16.72-16.92S231.29,53,231.29,62.83,238.48,79.76,248,79.76,264.72,72.67,264.72,62.83Z"/><path class="cls-1" d="M314.24,35.43V47.81c-7.51-.53-16.29,3-16.29,14.81V89.29H286.52V36.38H298v8.89C301.12,38.08,307.57,35.43,314.24,35.43Z"/><path class="cls-1" d="M317.31,62.83a27.93,27.93,0,1,1,27.93,27.83A27.61,27.61,0,0,1,317.31,62.83Zm44.44,0a16.51,16.51,0,1,0-33,0c0,9.63,7.19,16.72,16.5,16.72A16.25,16.25,0,0,0,361.75,62.83Z"/><path class="cls-1" d="M461.31,56.49v32.8H449.88V57.23c0-7.41-4-11.54-10.26-11.54-6.77,0-11.53,4.34-11.53,14V89.29H416.66V57.23c0-7.41-3.7-11.54-10-11.54-6.45,0-11.74,4.34-11.74,14V89.29H383.54V36.38H395v6.35c3.39-5.18,8.57-7.72,15.13-7.72,6.88,0,12,3.07,15,8.36,3.5-5.5,9.1-8.36,16.19-8.36C453.27,35,461.31,43.26,461.31,56.49Z"/><path class="cls-1" d="M470.62,62.83a27.94,27.94,0,1,1,27.94,27.83A27.62,27.62,0,0,1,470.62,62.83Zm44.44,0a16.51,16.51,0,1,0-33,0,16.25,16.25,0,0,0,16.51,16.72C507.87,79.55,515.06,72.46,515.06,62.83Z"/><path class="cls-1" d="M564.58,35.43V47.81c-7.51-.53-16.29,3-16.29,14.81V89.29H536.86V36.38h11.43v8.89C551.46,38.08,557.91,35.43,564.58,35.43Z"/><path class="cls-1" d="M596.54,80.19c6.34,0,11.1-2.86,13.64-6.56l9.42,5.5c-4.87,7.19-12.8,11.53-23.17,11.53-17.46,0-28.78-12-28.78-27.83C567.65,47.18,579,35,595.58,35c15.77,0,26.56,12.7,26.56,27.93a34.81,34.81,0,0,1-.42,4.76H579.61C581.41,76,588.07,80.19,596.54,80.19Zm14.07-21.8c-1.59-9.1-8.26-13-15.13-13-8.57,0-14.39,5.08-16,13Z"/><path class="cls-2" d="M64.48,108.21v-3.78a40.69,40.69,0,0,0,40.65-40.64h3.77A44.47,44.47,0,0,1,64.48,108.21Z"/><circle class="cls-3" cx="64.42" cy="107.98" r="13.87"/><path class="cls-4" d="M23.83,63.79H20.06A44.47,44.47,0,0,1,64.48,19.37v3.77A40.7,40.7,0,0,0,23.83,63.79Z"/><circle class="cls-5" cx="64.35" cy="63.79" r="20.04"/><circle class="cls-6" cx="64.42" cy="19.65" r="13.87"/><circle class="cls-2" cx="108.58" cy="63.79" r="13.87"/><circle class="cls-4" cx="20.25" cy="63.79" r="13.87"/><path class="cls-3" d="M64.46,106.28h0a1.88,1.88,0,0,0-1.8-1.87A40.68,40.68,0,0,1,29.12,83.84a1.87,1.87,0,0,0-2.51-.72h0a1.89,1.89,0,0,0-.76,2.6,44.49,44.49,0,0,0,36.63,22.45A1.91,1.91,0,0,0,64.46,106.28Z"/><path class="cls-6" d="M64.48,21.3h0a1.88,1.88,0,0,0,1.79,1.88A40.66,40.66,0,0,1,99.16,42.63a1.89,1.89,0,0,0,2.49.67h0a1.89,1.89,0,0,0,.72-2.66A44.44,44.44,0,0,0,66.46,19.41,1.89,1.89,0,0,0,64.48,21.3Z"/></svg>