<svg xmlns="http://www.w3.org/2000/svg" viewBox="0 0 576 512" x="0" y="0" aria-hidden="true" focusable="false" role="img">
    <g id="model-similar-search-dg" transform="translate(478.131 1253.538)">
        <path id="Path_2" data-name="Path 2" d="M195.15,295.1v74.52A33.17,33.17,0,0,1,162,402.75H40.76A33.17,33.17,0,0,1,7.63,369.62V268.08A33.16,33.16,0,0,1,40.76,235H80.39V194.82c-.55-.48-1.1-1-1.63-1.51h0L10,124.57A32.07,32.07,0,0,1,10,79.3L78.76,10.56a32,32,0,0,1,45.26,0L192.77,79.3a32,32,0,0,1,0,45.27L124,193.31c-.52.53-1.07,1-1.63,1.51V235H162a32.9,32.9,0,0,1,6.08.57l.83,29.15a31.85,31.85,0,0,0,26.21,30.43ZM101.39,156.55,156,101.93,101.39,47.32,46.78,101.93ZM153.15,277H49.63v83.8H153.15ZM198,154.25a11.85,11.85,0,0,0-11.83,11.51v.67l2.79,97.66a11.85,11.85,0,0,0,11.83,11.51h.35a11.87,11.87,0,0,0,8-3.45L237,244.23,299.82,307l-27.9,27.9a11.84,11.84,0,0,0,8,20.2l97.67,2.79h.66a11.84,11.84,0,0,0,11.51-12.17L387,248.08a11.84,11.84,0,0,0-20.22-8L338.89,268,276.1,205.17,304,177.26a11.84,11.84,0,0,0-8-20.21l-97.67-2.79H198" transform="translate(-478.78 -1254.723)"/>
        <path id="question-mark" d="M381.145,238.815c0,95.754-78.771,97.225-78.771,132.614v9.054c0,9.465-5.844,17.137-13.052,17.137H250.867c-7.209,0-13.052-7.673-13.052-17.137V368.116c0-51.04,29.476-71.405,51.752-87.843,19.1-14.067,30.8-23.635,30.8-42.243-.2-37.615-24.353-56.447-55.869-57.039-25.224,0-42.223,24.135-58.647,51.269-4.4,7.32-12.457,8.672-18.121,3.042L164.227,212.8c-5.563-5.532-6.828-15.831-2.872-23.378C187.112,139.834,219.841,112,270.8,112,324.172,112,381.145,166.7,381.145,238.815ZM310,467.594c-.925,17.3-12.077,47.634-39.2,46.528s-40.4-26.971-40.149-46.528,11.2-47.648,40.149-47.446S310.927,450.295,310,467.594Z" transform="translate(-288.161 -1281.552)"/>
    </g>
</svg>
