<svg xmlns="http://www.w3.org/2000/svg" viewBox="0 0 576 512" x="0" y="0" aria-hidden="true" focusable="false" role="img"><path d="M368.67,302.07c-28.7,0-72.5,16-119.6,16s-90.8-16-119.6-16c-74.2,0-124.4,60.2-124.4,134.4v37.6c0,26.5,11.5,36,38,36h412c26.5,0,38-11.5,38-38v-35.6C493.07,362.27,442.87,302.07,368.67,302.07Zm76.4,160h-392v-25.6c0-47.6,28.8-86.4,76.4-86.4,14.6,0,68.3,16,119.6,16,51.7,0,104.9-16,119.6-16,47.6,0,76.4,38.8,76.4,86.4Z" fill="currentColor"/><path d="M249.07,291.07a144,144,0,1,0-144-144A144,144,0,0,0,249.07,291.07Zm0-240a96,96,0,1,1-96,96A96.15,96.15,0,0,1,249.07,51.07Z" fill="currentColor"/><path d="M451.67,273.07a242.31,242.31,0,0,0-25.6,3s33.62,16.86,52,31c39,30,51,75,50,100.4v73.6h10c26.5,0,38-11.5,38-38v-35.6C576.07,333.27,525.87,273.07,451.67,273.07Z" fill="currentColor"/><path d="M397.31,48.19a188.53,188.53,0,0,1,21.9,48A63.06,63.06,0,0,1,417.32,211a188.59,188.59,0,0,1-23.51,47.24,105.09,105.09,0,0,0,3.5-210Z" fill="currentColor"/></svg>