<?xml version="1.0" encoding="UTF-8" standalone="no"?>
<svg
   xmlns:dc="http://purl.org/dc/elements/1.1/"
   xmlns:cc="http://creativecommons.org/ns#"
   xmlns:rdf="http://www.w3.org/1999/02/22-rdf-syntax-ns#"
   xmlns:svg="http://www.w3.org/2000/svg"
   xmlns="http://www.w3.org/2000/svg"
   xmlns:sodipodi="http://sodipodi.sourceforge.net/DTD/sodipodi-0.dtd"
   xmlns:inkscape="http://www.inkscape.org/namespaces/inkscape"
   width="22.000004"
   height="21.296181"
   overflow="hidden"
   version="1.1"
   id="svg17"
   sodipodi:docname="mine_stage_based.svg"
   style="overflow:hidden"
   inkscape:version="0.92.4 (5da689c313, 2019-01-14)">
  <metadata
     id="metadata21">
    <rdf:RDF>
      <cc:Work
         rdf:about="">
        <dc:format>image/svg+xml</dc:format>
        <dc:type
           rdf:resource="http://purl.org/dc/dcmitype/StillImage" />
      </cc:Work>
    </rdf:RDF>
  </metadata>
  <sodipodi:namedview
     pagecolor="#ffffff"
     bordercolor="#666666"
     borderopacity="1"
     objecttolerance="10"
     gridtolerance="10"
     guidetolerance="10"
     inkscape:pageopacity="0"
     inkscape:pageshadow="2"
     inkscape:window-width="3840"
     inkscape:window-height="1973"
     id="namedview19"
     showgrid="false"
     inkscape:zoom="1.3403791"
     inkscape:cx="423.9999"
     inkscape:cy="412.49991"
     inkscape:window-x="-18"
     inkscape:window-y="-18"
     inkscape:window-maximized="1"
     inkscape:current-layer="svg17" />
  <defs
     id="defs5">
    <clipPath
       id="clip0">
      <path
         d="M 200,-86 H 1221 V 910 H 200 Z"
         id="path2"
         inkscape:connector-curvature="0"
         style="clip-rule:evenodd;fill-rule:evenodd" />
    </clipPath>
  </defs>
  <g
     clip-path="url(#clip0)"
     transform="matrix(0.02872041,0,0,0.02872041,-8.2284003,-2.383794)"
     id="g15">
    <path
       d="M 41.5,-9.19533e-6 41.5001,615.848 h -83 L -41.5,9.19533e-6 Z M 83.0001,574.348 1.64042e-4,740.348 -82.9999,574.348 Z"
       transform="matrix(1,0,0,-1,369.5,823.848)"
       id="path7"
       inkscape:connector-curvature="0"
       style="fill:#595959" />
    <path
       d="M 9.02877e-6,-41.5 629.506,-41.4999 v 83 L -9.02877e-6,41.5 Z M 588.006,-82.9999 754.006,1.64042e-4 588.006,83.0001 Z"
       transform="matrix(1,0,0,-1,298.5,741.5)"
       id="path9"
       inkscape:connector-curvature="0"
       style="fill:#595959" />
    <path
       d="m 567.953,447.736 c 75.843,-10.299 67.214,78.314 131.512,68.525 C 763.763,506.471 755.97,395.017 953.74,389 L 957,627 H 440 c 43.416,-65.771 52.109,-168.965 127.953,-179.264 z"
       id="path11"
       inkscape:connector-curvature="0"
       style="fill:#595959;fill-rule:evenodd" />
    <path
       d="m 546.002,227.646 c 74.115,-73.811 94.564,35.192 162.564,11.084 C 776.565,214.623 756.13,96.7033 954,83 l -1.631,114.353 c -25.956,34.433 -124.483,49.325 -154.109,92.246 -29.627,42.921 -83.443,99.071 -153.295,46.395 -69.853,-52.677 -79.18,7.883 -119.048,59.442 C 486.048,446.995 446.437,648.907 440,625.05 483.438,475.254 471.886,301.456 546.002,227.646 Z"
       id="path13"
       inkscape:connector-curvature="0"
       style="fill:#595959;fill-rule:evenodd" />
  </g>
</svg>
