<svg id="Layer_1" data-name="Layer 1" xmlns="http://www.w3.org/2000/svg" viewBox="0 0 522 512"><defs><style>.cls-1{fill:#b0b0b0;}.cls-2{fill:#4d4d4d;}</style></defs><title>folder-collapse-solid</title><path class="cls-1" d="M474.5,103.5h-195L217.87,28.87a32,32,0,0,0-22.63-9.37H48.5a48,48,0,0,0-48,48v379c0,26.51,21.49,47,48,47h426c26.51,0,48-20.49,48-47v-295A48,48,0,0,0,474.5,103.5Z"/><path class="cls-2" d="M474,104H279L217.37,29.37A32,32,0,0,0,194.74,20H48A48,48,0,0,0,0,68V447c0,26.51,21.49,47,48,47H474c26.51,0,48-20.49,48-47V152A48,48,0,0,0,474,104ZM188.12,68l29.73,36H48V68ZM474,447H48V152H268a15.74,15.74,0,0,0,1.82-.11c.85.07,1.7.11,2.56.11H474Z"/><rect class="cls-2" x="186" y="273" width="160" height="48" rx="16"/></svg>