<svg id="Layer_1" data-name="Layer 1" xmlns="http://www.w3.org/2000/svg" viewBox="0 0 576 512"><defs><style>.cls-1{fill:#b0b0b0;}.cls-2{fill:#4d4d4d;}</style></defs><title>folder-expand-solid</title><path class="cls-1" d="M522,152.82V132a48,48,0,0,0-48-46H279L217.37,31.37A32,32,0,0,0,194.74,22H48A48,48,0,0,0,0,70V448a48,48,0,0,0,48,48H474c21.22,0,39.2-13.13,45.55-32H520l53.67-245.9C581.7,182.34,557.5,154.77,522,152.82Z"/><path class="cls-2" d="M251,348h40v40a16,16,0,0,0,16,16h16a16,16,0,0,0,16-16V348h40a16,16,0,0,0,16-16V316a16,16,0,0,0-16-16H339V260a16,16,0,0,0-16-16H307a16,16,0,0,0-16,16v40H251a16,16,0,0,0-16,16v16A16,16,0,0,0,251,348Z"/><path class="cls-2" d="M522,152.82V132a48,48,0,0,0-48-46H279L217.37,31.37A32,32,0,0,0,194.74,22H48A48,48,0,0,0,0,70V448a48,48,0,0,0,48,48H474c21.22,0,39.2-13.13,45.55-32H520l53.67-245.9C581.7,182.34,557.5,154.77,522,152.82ZM188.12,70l61.63,54.63A32,32,0,0,0,272.38,134H465v18.7H128c-16.8,0-33.4,8.8-42.1,23.2L48,354V70ZM473.47,449H80.91l54.33-248.3H528Z"/></svg>