<svg id="final" xmlns="http://www.w3.org/2000/svg" viewBox="0 0 522 512"><defs><style>.cls-1{fill:#b0b0b0;}.cls-2{fill:#4d4d4d;}</style></defs><title>folder-solid</title><path class="cls-1" d="M474,103H279L217.37,28.37A32,32,0,0,0,194.74,19H48A48,48,0,0,0,0,67V446c0,26.51,21.49,47,48,47H474c26.51,0,48-20.49,48-47V151A48,48,0,0,0,474,103Z"/><path class="cls-2" d="M474,103H279L217.37,28.37A32,32,0,0,0,194.74,19H48A48,48,0,0,0,0,67V446c0,26.51,21.49,47,48,47H474c26.51,0,48-20.49,48-47V151A48,48,0,0,0,474,103ZM188.12,67l29.73,36H48V67ZM474,446H48V151H268a15.74,15.74,0,0,0,1.82-.11c.85.07,1.7.11,2.56.11H474Z"/></svg>