<svg xmlns="http://www.w3.org/2000/svg" viewBox="0 0 580 512" x="0" y="0" aria-hidden="true" focusable="false" role="img"><path d="M396.09,235.52a138.2,138.2,0,1,0,138.19,138.2A138.19,138.19,0,0,0,396.09,235.52ZM477,393.93a6.74,6.74,0,0,1-6.74,6.74H423v47.18a6.74,6.74,0,0,1-6.74,6.74H375.87a6.74,6.74,0,0,1-6.74-6.74V400.67H322a6.74,6.74,0,0,1-6.74-6.74V353.5a6.74,6.74,0,0,1,6.74-6.74h47.18V299.58a6.74,6.74,0,0,1,6.74-6.74H416.3a6.74,6.74,0,0,1,6.74,6.74v47.18h47.18A6.74,6.74,0,0,1,477,353.5Z" fill="currentColor"/><path d="M195.32,301.35h-53v-75.1l82.1-82.11h68.06v37a32,32,0,0,0,32,32h154a32,32,0,0,0,32-32v-124a32,32,0,0,0-32-32h-154a32,32,0,0,0-32,32v39H224.42L140.94,12.66a32,32,0,0,0-45.25,0L10.84,97.51a32,32,0,0,0,0,45.26l83.48,83.48v75.1h-53a32,32,0,0,0-32,32v124a32,32,0,0,0,32,32h154a32,32,0,0,0,32-32v-124A32,32,0,0,0,195.32,301.35ZM340.48,73.14h122v92h-122Zm-284.39,47,62.23-62.22,62.22,62.22-62.22,62.23ZM179.32,441.35h-122v-92h122Z" fill="currentColor"/></svg>