<svg xmlns="http://www.w3.org/2000/svg" viewBox="0 0 556 512" x="0" y="0" aria-hidden="true" focusable="false" role="img"><path d="M524,125.5H405V104c0-51.51,62.3-55.8,92.09-56A12,12,0,0,0,509,36v-24a12,12,0,0,0-11.82-12c-31.53-.46-80,0-116.18,41.45C344.87.05,296.4-.38,264.82.08a12,12,0,0,0-11.82,12v23.6a12,12,0,0,0,12,12c27.43-.15,92,4.58,92,56.32v21.5H32a32,32,0,0,0-32,32v197a32,32,0,0,0,32,32H357V408c0,51.49-62.34,55.8-92.09,56A12,12,0,0,0,253,476v23.95a12,12,0,0,0,11.82,12c31.53.46,80,.05,116.18-41.45,36.13,41.47,84.6,41.9,116.18,41.44a12,12,0,0,0,11.82-12v-23.6a12,12,0,0,0-12-12c-27.43.15-92-4.59-92-56.32V386.5H524a32,32,0,0,0,32-32v-197A32,32,0,0,0,524,125.5ZM48,338.5v-165H357V232H321a12,12,0,0,0-12,12v24a12,12,0,0,0,12,12h36v58.5Zm460,0H405V280h36a12,12,0,0,0,12-12V244a12,12,0,0,0-12-12H405V173.5H508Z" fill="currentColor"/><rect width="133.78" height="86" x="95.11" y="213" fill="currentColor"/></svg>