<svg xmlns="http://www.w3.org/2000/svg" viewBox="0 0 512 512" x="0" y="0" aria-hidden="true" focusable="false" role="img">
    <path id="parameters" d="M587.684,232H558.869l-62.933-8.012c17.661.192,29.753,14.96,30.1,32.025s-13.47,32.121-30.129,31.971S465.84,273.323,466.046,256s12.658-31.722,29.89-32.008L558.852,232c-8.662-23.659-31.57-45.02-62.974-45.02S441.341,208.965,433.237,232H180.366C169.118,232,160,239.163,160,248v16c0,8.837,9.118,16,20.366,16H433.237c8.924,23.964,31.219,45.01,62.628,45.01s54.233-20.894,63-45.01h28.815c11.248,0,20.366-7.163,20.366-16V248C608.05,239.163,598.932,232,587.684,232Zm0,160H398.868l-64.274-10.99c18.491.022,30.46,15.488,30.414,32.874s-14,31.293-30.4,31.107-29.354-14.888-29.569-31.125,10.87-32.154,29.553-32.856L398.868,392c-7.115-24.658-32.371-48.013-64.277-48.013S277.7,368.579,271.243,392H180.366C169.118,392,160,399.163,160,408v16c0,8.837,9.118,16,20.366,16h93.026c6.711,18.413,30.4,41.986,61.224,41.986S387.527,462.108,396.7,440H587.684c11.248,0,20.366-7.163,20.366-16V408C608.05,399.163,598.932,392,587.684,392Zm0-320H332.173L268.59,60c16.608.209,29.3,15.1,29.476,31.173s-11.181,32.531-29.475,32.845-31.036-16.106-30.55-32.768S251.2,59.815,268.59,60l63.583,12c-6.759-24.826-31.475-49.019-63.541-49.019S212.087,44.787,203.91,72H180.366C169.118,72,160,79.163,160,88v16c0,8.837,9.118,16,20.366,16h26.5a66.961,66.961,0,0,0,61.717,41.017c30.6,0,53.48-22.2,60.678-41.017H587.684c11.248,0,20.366-7.163,20.366-16V88C608.05,79.163,598.932,72,587.684,72Z" transform="translate(-125 5)"/>
</svg>

