<svg xmlns="http://www.w3.org/2000/svg" viewBox="0 0 559 512" x="0" y="0" aria-hidden="true" focusable="false" role="img"><path d="M415.55,142,488,212.93,316.58,388l-60.83,7.44A15.93,15.93,0,0,1,238,378L244.13,317Zm135.92-28h0l-38.3-37.5a24,24,0,0,0-33.8.35L438,119.05,510.56,190l41.36-42.23A24.06,24.06,0,0,0,551.47,114ZM435,314l48-48V455a48,48,0,0,1-48,48H52A48,48,0,0,1,4,455V61A48,48,0,0,1,52,13H320.12a48,48,0,0,1,33.94,14.06l68.26,61.72-34,34L324,64.88V165a24,24,0,0,1-24,24H124a24,24,0,0,1-24-24V61H58a6,6,0,0,0-6,6V449a6,6,0,0,0,6,6H429a6,6,0,0,0,6-6ZM148,141H276V61H148Zm69.49,149.65v-.15l53.19-53.19a88,88,0,0,0-63.57,163.81L212.29,346a39.9,39.9,0,0,1,5.2-55.33Z" fill="currentColor"/></svg>