<svg xmlns="http://www.w3.org/2000/svg" viewBox="0 0 512 512" x="0" y="0" aria-hidden="true" focusable="false" role="img"><path d="M64.3,168.3a24,24,0,0,1-24,24.7H25A23.94,23.94,0,0,1,1,169V33A32,32,0,0,1,33,1H169a23.94,23.94,0,0,1,24,24V40.3a24,24,0,0,1-24.7,24l-103.83.08Z" fill="currentColor"/><path d="M64.38,447.53,64.3,343.7a24,24,0,0,0-24-24.7H25A23.94,23.94,0,0,0,1,343V479a32,32,0,0,0,32,32H169a23.94,23.94,0,0,0,24-24V471.7a24,24,0,0,0-24.7-24Z" fill="currentColor"/><path d="M447.53,447.62l-103.83.08a24,24,0,0,0-24.7,24V487a23.94,23.94,0,0,0,24,24H479a32,32,0,0,0,32-32V343a23.94,23.94,0,0,0-24-24H471.7a24,24,0,0,0-24,24.7Z" fill="currentColor"/><path d="M447.62,64.47l.08,103.83a24,24,0,0,0,24,24.7H487a23.94,23.94,0,0,0,24-24V33A32,32,0,0,0,479,1H343a23.94,23.94,0,0,0-24,24V40.3a24,24,0,0,0,24.7,24Z" fill="currentColor"/></svg>