<svg xmlns="http://www.w3.org/2000/svg" viewBox="0 0 512 512" x="0" y="0" aria-hidden="true" focusable="false" role="img"><path d="M485,101.48,286.34,241.3a17,17,0,0,0-6.2,6.15V116.17a17,17,0,0,0-25.45-14.69L56,241.3A16.8,16.8,0,0,0,49.5,248V112.62A13.11,13.11,0,0,0,36.38,99.5H14.62A13.11,13.11,0,0,0,1.5,112.62V399.38A13.11,13.11,0,0,0,14.62,412.5H36.38A13.11,13.11,0,0,0,49.5,399.38V264A16.8,16.8,0,0,0,56,270.7l198.7,139.82a17,17,0,0,0,25.45-14.69V264.55a17,17,0,0,0,6.2,6.15L485,410.52a17,17,0,0,0,25.46-14.69V116.17A17,17,0,0,0,485,101.48Z" fill="currentColor"/></svg>