<?xml version="1.0" encoding="UTF-8" standalone="no"?>
<!--
  ~ Copyright © 2009-2017 The Apromore Initiative.
  ~
  ~ This file is part of "Apromore".
  ~
  ~ "Apromore" is free software; you can redistribute it and/or modify
  ~ it under the terms of the GNU Lesser General Public License as
  ~ published by the Free Software Foundation; either version 3 of the
  ~ License, or (at your option) any later version.
  ~
  ~ "Apromore" is distributed in the hope that it will be useful, but
  ~ WITHOUT ANY WARRANTY; without even the implied warranty
  ~ of MERCHANTABILITY or FITNESS FOR A PARTICULAR PURPOSE.
  ~ See the GNU Lesser General Public License for more details.
  ~
  ~ You should have received a copy of the GNU Lesser General Public
  ~ License along with this program.
  ~ If not, see <http://www.gnu.org/licenses/lgpl-3.0.html>.
  -->

<svg
   xmlns="http://www.w3.org/2000/svg"
   xmlns:oryx="http://www.b3mn.org/oryx"
   width="40"
   height="40"
   version="1.0">
  <defs></defs>
  <oryx:magnets>
  	<oryx:magnet oryx:cx="16" oryx:cy="16" oryx:default="yes" />
  </oryx:magnets>
  <g pointer-events="fill">
    <circle id="frame" cx="16" cy="16" r="15" stroke="black" fill="white" stroke-width="1"/>
    
    <circle cx="16" cy="16" r="10" stroke="black" fill="none" stroke-width="1"/>
    <path d="	M 16 6 L 16 9
    		M 21 7 L 19.5 10
    		M 25 11 L 22 12.5
    		M 26 16 L 23 16
    		M 25 21 L 22 19.5
    		M 21 25 L 19.5 22
    		M 16 26 L 16 23
    		M 11 25 L 12.5 22
    		M 7 21 L 10 19.5
    		M 6 16 L 9 16
    		M 7 11 L 10 12.5
    		M 11 7 L 12.5 10
    		M 18 9 L 16 16 L 20 16" fill="none" stroke="black" />
	<text font-size="11" 
		id="text_name" 
		x="16" y="33" 
		oryx:align="top center" 
		stroke="black"
	></text>
  </g>
</svg>