<?xml version="1.0" encoding="UTF-8" standalone="no"?>
<svg
   xmlns:dc="http://purl.org/dc/elements/1.1/"
   xmlns:cc="http://creativecommons.org/ns#"
   xmlns:rdf="http://www.w3.org/1999/02/22-rdf-syntax-ns#"
   xmlns:svg="http://www.w3.org/2000/svg"
   xmlns="http://www.w3.org/2000/svg"
   xmlns:sodipodi="http://sodipodi.sourceforge.net/DTD/sodipodi-0.dtd"
   xmlns:inkscape="http://www.inkscape.org/namespaces/inkscape"
   width="21.999998"
   height="21.999998"
   overflow="hidden"
   version="1.1"
   id="svg15"
   sodipodi:docname="puzzle_in_folder.svg"
   style="overflow:hidden"
   inkscape:version="0.92.4 (5da689c313, 2019-01-14)">
  <metadata
     id="metadata19">
    <rdf:RDF>
      <cc:Work
         rdf:about="">
        <dc:format>image/svg+xml</dc:format>
        <dc:type
           rdf:resource="http://purl.org/dc/dcmitype/StillImage" />
      </cc:Work>
    </rdf:RDF>
  </metadata>
  <sodipodi:namedview
     pagecolor="#ffffff"
     bordercolor="#666666"
     borderopacity="1"
     objecttolerance="10"
     gridtolerance="10"
     guidetolerance="10"
     inkscape:pageopacity="0"
     inkscape:pageshadow="2"
     inkscape:window-width="3840"
     inkscape:window-height="1973"
     id="namedview17"
     showgrid="false"
     inkscape:zoom="0.78929766"
     inkscape:cx="148.50001"
     inkscape:cy="148.49999"
     inkscape:window-x="-18"
     inkscape:window-y="-18"
     inkscape:window-maximized="1"
     inkscape:current-layer="svg15" />
  <defs
     id="defs5">
    <clipPath
       id="clip0">
      <path
         d="m 1996,2368 h 299 v 299 h -299 z"
         id="path2"
         inkscape:connector-curvature="0"
         style="clip-rule:evenodd;fill-rule:evenodd" />
    </clipPath>
  </defs>
  <g
     clip-path="url(#clip0)"
     transform="matrix(0.07407407,0,0,0.07407407,-147.92592,-175.48147)"
     id="g13">
    <rect
       x="1998"
       y="2370"
       width="295"
       height="295"
       stroke-miterlimit="8"
       id="rect7"
       style="fill:none;stroke:#ffffff;stroke-width:2;stroke-miterlimit:8" />
    <path
       d="m 2049.71,2468.33 v 124.36 h 190.58 v -124.36 z m 6.73,-28.68 c -3.55,0 -6.44,2.88 -6.44,6.42 v 6.43 h 25.29 c 0,-2.14 0,-4.29 0,-6.43 0,-3.54 -2.88,-6.42 -6.43,-6.42 z m -5.05,-15.65 h 21.38 c 7.62,0 14.15,4.62 16.95,11.21 l 0.33,1.64 h 147.75 c 10.61,0 19.2,8.58 19.2,19.16 v 135.83 c 0,10.58 -8.59,19.16 -19.2,19.16 h -185.6 c -10.61,0 -19.2,-8.58 -19.2,-19.16 v -131.13 -4.7 -13.65 c 0,-10.14 8.23,-18.36 18.39,-18.36 z"
       id="path9"
       inkscape:connector-curvature="0"
       style="fill:#4d4d4d;fill-rule:evenodd" />
    <path
       d="m 2162.73,2561.22 c -9.15,0.28 -12.48,-11.51 -5.96,-18.31 l 0.97,-0.97 c 6.8,-6.53 18.87,-3.47 18.59,5.68 -0.14,5.28 6.11,11.66 9.85,7.91 l 15.82,-15.81 -23.59,-23.59 c -3.74,-3.75 2.64,-9.99 7.91,-9.85 9.16,0.27 12.21,-11.8 5.69,-18.6 l -0.97,-0.97 c -6.8,-6.52 -18.59,-3.19 -18.32,5.97 0.14,5.27 -6.1,11.65 -9.85,7.91 l -23.59,-23.59 -15.95,15.82 c -3.75,3.74 2.64,9.99 7.91,9.85 9.16,-0.28 12.49,11.52 5.96,18.31 l -0.97,0.98 c -6.8,6.52 -18.87,3.46 -18.59,-5.69 0.14,-5.28 -6.11,-11.66 -9.85,-7.91 l -16.79,16.92 23.59,23.59 c 3.74,3.75 -2.64,9.99 -7.91,9.85 -9.16,-0.27 -12.21,11.8 -5.69,18.6 l 0.97,0.97 c 6.8,6.52 18.59,3.19 18.32,-5.97 -0.14,-5.27 6.1,-11.65 9.85,-7.91 l 23.59,23.59 16.92,-16.93 c 3.75,-3.74 -2.49,-9.99 -7.91,-9.85 z"
       id="path11"
       inkscape:connector-curvature="0"
       style="fill:#4d4d4d;fill-rule:evenodd" />
  </g>
</svg>
