<?xml version="1.0" encoding="UTF-8" standalone="no"?>
<svg
   xmlns:dc="http://purl.org/dc/elements/1.1/"
   xmlns:cc="http://creativecommons.org/ns#"
   xmlns:rdf="http://www.w3.org/1999/02/22-rdf-syntax-ns#"
   xmlns:svg="http://www.w3.org/2000/svg"
   xmlns="http://www.w3.org/2000/svg"
   xmlns:sodipodi="http://sodipodi.sourceforge.net/DTD/sodipodi-0.dtd"
   xmlns:inkscape="http://www.inkscape.org/namespaces/inkscape"
   width="21.999998"
   height="21.999998"
   overflow="hidden"
   version="1.1"
   id="svg15"
   sodipodi:docname="puzzle_in_folder.svg"
   style="overflow:hidden"
   inkscape:version="0.92.4 (5da689c313, 2019-01-14)">
  <metadata
     id="metadata19">
    <rdf:RDF>
      <cc:Work
         rdf:about="">
        <dc:format>image/svg+xml</dc:format>
        <dc:type
           rdf:resource="http://purl.org/dc/dcmitype/StillImage" />
      </cc:Work>
    </rdf:RDF>
  </metadata>
  <sodipodi:namedview
     pagecolor="#ffffff"
     bordercolor="#666666"
     borderopacity="1"
     objecttolerance="10"
     gridtolerance="10"
     guidetolerance="10"
     inkscape:pageopacity="0"
     inkscape:pageshadow="2"
     inkscape:window-width="3840"
     inkscape:window-height="1973"
     id="namedview17"
     showgrid="false"
     inkscape:zoom="0.78929766"
     inkscape:cx="148.5"
     inkscape:cy="148.5"
     inkscape:window-x="-18"
     inkscape:window-y="-18"
     inkscape:window-maximized="1"
     inkscape:current-layer="svg15" />
  <defs
     id="defs5">
    <clipPath
       id="clip0">
      <path
         d="m 1273,854 h 299 v 299 h -299 z"
         id="path2"
         inkscape:connector-curvature="0"
         style="clip-rule:evenodd;fill-rule:evenodd" />
    </clipPath>
  </defs>
  <g
     clip-path="url(#clip0)"
     transform="matrix(0.07407407,0,0,0.07407407,-94.370365,-63.33333)"
     id="g13">
    <rect
       x="1275"
       y="856"
       width="295"
       height="295"
       stroke-miterlimit="8"
       id="rect7"
       style="fill:none;stroke:#ffffff;stroke-width:2;stroke-miterlimit:8" />
    <path
       d="m 1464.1,1011.62 h -7.15 v -19.048 c 0,-5.239 -4.28,-9.524 -9.52,-9.524 h -19.05 v -7.143 c 0,-6.572 -5.33,-11.905 -11.9,-11.905 -6.58,0 -11.91,5.333 -11.91,11.905 v 7.143 h -19.05 c -5.23,0 -9.47,4.285 -9.47,9.524 v 18.098 h 7.09 c 7.1,0 12.86,5.76 12.86,12.85 0,7.1 -5.76,12.86 -12.86,12.86 H 1376 v 18.1 c 0,5.23 4.29,9.52 9.52,9.52 h 18.1 v -7.14 c 0,-7.1 5.76,-12.86 12.86,-12.86 7.09,0 12.85,5.76 12.85,12.86 v 7.14 h 18.1 c 5.24,0 9.52,-4.29 9.52,-9.52 v -19.05 h 7.15 c 6.57,0 11.9,-5.33 11.9,-11.91 0,-6.57 -5.33,-11.9 -11.9,-11.9 z"
       id="path9"
       inkscape:connector-curvature="0"
       style="fill:#4d4d4d;fill-rule:evenodd" />
    <path
       d="m 1365.46,953.731 c -11.73,0 -21.23,9.544 -21.23,21.316 v 85.263 c 0,11.77 9.5,21.31 21.23,21.31 h 113.08 c 11.73,0 21.23,-9.54 21.23,-21.31 v -85.263 c 0,-11.772 -9.5,-21.316 -21.23,-21.316 z m 74.37,-44.462 v 23.684 h 23.59 v -23.684 z m 48.17,-2.77 -8.26,8.29 6.3,6.322 -6.3,6.322 8.26,8.29 6.3,-6.323 6.3,6.323 8.26,-8.29 -6.3,-6.322 6.3,-6.322 -8.26,-8.29 -6.3,6.322 z M 1347.33,891 h 149.34 c 20.62,0 37.33,16.776 37.33,37.471 v 150.059 c 0,20.69 -16.71,37.47 -37.33,37.47 h -149.34 c -20.62,0 -37.33,-16.78 -37.33,-37.47 V 928.471 C 1310,907.776 1326.71,891 1347.33,891 Z"
       id="path11"
       inkscape:connector-curvature="0"
       style="fill:#4d4d4d;fill-rule:evenodd" />
  </g>
</svg>
