<?xml version="1.0" encoding="UTF-8" standalone="no"?>
<svg
   xmlns:dc="http://purl.org/dc/elements/1.1/"
   xmlns:cc="http://creativecommons.org/ns#"
   xmlns:rdf="http://www.w3.org/1999/02/22-rdf-syntax-ns#"
   xmlns:svg="http://www.w3.org/2000/svg"
   xmlns="http://www.w3.org/2000/svg"
   xmlns:sodipodi="http://sodipodi.sourceforge.net/DTD/sodipodi-0.dtd"
   xmlns:inkscape="http://www.inkscape.org/namespaces/inkscape"
   width="21.999998"
   height="21.999998"
   overflow="hidden"
   version="1.1"
   id="svg13"
   sodipodi:docname="puzzle.svg"
   style="overflow:hidden"
   inkscape:version="0.92.4 (5da689c313, 2019-01-14)">
  <metadata
     id="metadata17">
    <rdf:RDF>
      <cc:Work
         rdf:about="">
        <dc:format>image/svg+xml</dc:format>
        <dc:type
           rdf:resource="http://purl.org/dc/dcmitype/StillImage" />
      </cc:Work>
    </rdf:RDF>
  </metadata>
  <sodipodi:namedview
     pagecolor="#ffffff"
     bordercolor="#666666"
     borderopacity="1"
     objecttolerance="10"
     gridtolerance="10"
     guidetolerance="10"
     inkscape:pageopacity="0"
     inkscape:pageshadow="2"
     inkscape:window-width="3840"
     inkscape:window-height="1973"
     id="namedview15"
     showgrid="false"
     inkscape:zoom="0.78929766"
     inkscape:cx="148.50001"
     inkscape:cy="148.49999"
     inkscape:window-x="-18"
     inkscape:window-y="-18"
     inkscape:window-maximized="1"
     inkscape:current-layer="svg13" />
  <defs
     id="defs5">
    <clipPath
       id="clip0">
      <path
         d="m 1968,2665 h 299 v 299 h -299 z"
         id="path2"
         inkscape:connector-curvature="0"
         style="clip-rule:evenodd;fill-rule:evenodd" />
    </clipPath>
  </defs>
  <g
     clip-path="url(#clip0)"
     transform="matrix(0.07407407,0,0,0.07407407,-145.85184,-197.48147)"
     id="g11">
    <rect
       x="1970"
       y="2667"
       width="295"
       height="295"
       stroke-miterlimit="8"
       id="rect7"
       style="fill:none;stroke:#ffffff;stroke-width:2;stroke-miterlimit:8" />
    <path
       d="m 2150.41,2872.96 c -18.57,0.56 -25.32,-23.24 -12.1,-36.96 l 1.97,-1.96 c 13.78,-13.16 38.25,-7 37.69,11.48 -0.28,10.64 12.37,23.52 19.97,15.96 l 32.06,-31.92 -47.81,-47.6 c -7.6,-7.56 5.34,-20.16 16.03,-19.88 18.56,0.56 24.75,-23.8 11.53,-37.52 l -1.97,-1.96 c -13.78,-13.16 -37.69,-6.44 -37.12,12.04 0.28,10.64 -12.38,23.52 -19.97,15.96 l -47.81,-47.6 -32.35,31.92 c -7.59,7.56 5.35,20.16 16.03,19.88 18.57,-0.56 25.32,23.24 12.1,36.96 l -1.97,1.96 c -13.78,13.16 -38.25,7 -37.69,-11.48 0.28,-10.64 -12.37,-23.52 -19.97,-15.96 l -34.03,34.16 47.81,47.6 c 7.6,7.56 -5.34,20.16 -16.03,19.88 -18.56,-0.56 -24.75,23.8 -11.53,37.52 l 1.97,1.96 c 13.78,13.16 37.69,6.44 37.12,-12.04 -0.28,-10.64 12.38,-23.52 19.97,-15.96 l 47.82,47.6 34.31,-34.16 c 7.59,-7.56 -5.06,-20.16 -16.03,-19.88 z"
       id="path9"
       inkscape:connector-curvature="0"
       style="fill:#4d4d4d;fill-rule:evenodd" />
  </g>
</svg>
