<?xml version="1.0" encoding="UTF-8" standalone="no"?>
<svg
   xmlns:dc="http://purl.org/dc/elements/1.1/"
   xmlns:cc="http://creativecommons.org/ns#"
   xmlns:rdf="http://www.w3.org/1999/02/22-rdf-syntax-ns#"
   xmlns:svg="http://www.w3.org/2000/svg"
   xmlns="http://www.w3.org/2000/svg"
   xmlns:sodipodi="http://sodipodi.sourceforge.net/DTD/sodipodi-0.dtd"
   xmlns:inkscape="http://www.inkscape.org/namespaces/inkscape"
   width="21.999998"
   height="21.999998"
   overflow="hidden"
   version="1.1"
   id="svg11"
   sodipodi:docname="puzzle.svg"
   style="overflow:hidden"
   inkscape:version="0.92.4 (5da689c313, 2019-01-14)">
  <metadata
     id="metadata15">
    <rdf:RDF>
      <cc:Work
         rdf:about="">
        <dc:format>image/svg+xml</dc:format>
        <dc:type
           rdf:resource="http://purl.org/dc/dcmitype/StillImage" />
      </cc:Work>
    </rdf:RDF>
  </metadata>
  <sodipodi:namedview
     pagecolor="#ffffff"
     bordercolor="#666666"
     borderopacity="1"
     objecttolerance="10"
     gridtolerance="10"
     guidetolerance="10"
     inkscape:pageopacity="0"
     inkscape:pageshadow="2"
     inkscape:window-width="3840"
     inkscape:window-height="1973"
     id="namedview13"
     showgrid="false"
     inkscape:zoom="0.79194631"
     inkscape:cx="148.00001"
     inkscape:cy="147.99999"
     inkscape:window-x="-18"
     inkscape:window-y="-18"
     inkscape:window-maximized="1"
     inkscape:current-layer="svg11" />
  <defs
     id="defs5">
    <clipPath
       id="clip0">
      <path
         d="m 1553,2397 h 298 v 298 h -298 z"
         id="path2"
         inkscape:connector-curvature="0"
         style="clip-rule:evenodd;fill-rule:evenodd" />
    </clipPath>
  </defs>
  <g
     clip-path="url(#clip0)"
     transform="matrix(0.07432432,0,0,0.07432432,-115.49999,-178.22972)"
     id="g9">
    <path
       d="m 1745.29,2622.59 c -24.42,0.74 -33.3,-30.71 -15.91,-48.84 l 2.59,-2.59 c 18.13,-17.39 50.32,-9.25 49.58,15.17 -0.37,14.06 16.28,31.08 26.27,21.09 l 42.18,-42.18 -62.9,-62.9 c -9.99,-9.99 7.03,-26.64 21.09,-26.27 24.42,0.74 32.56,-31.45 15.17,-49.58 l -2.59,-2.59 c -18.13,-17.39 -49.58,-8.51 -48.84,15.91 0.37,14.06 -16.28,31.08 -26.27,21.09 l -62.9,-62.9 -42.55,42.18 c -9.99,9.99 7.03,26.64 21.09,26.27 24.42,-0.74 33.3,30.71 15.91,48.84 l -2.59,2.59 c -18.13,17.39 -50.32,9.25 -49.58,-15.17 0.37,-14.06 -16.28,-31.08 -26.27,-21.09 l -44.77,45.14 62.9,62.9 c 9.99,9.99 -7.03,26.64 -21.09,26.27 -24.42,-0.74 -32.56,31.45 -15.17,49.58 l 2.59,2.59 c 18.13,17.39 49.58,8.51 48.84,-15.91 -0.37,-14.06 16.28,-31.08 26.27,-21.09 l 62.9,62.9 45.14,-45.14 c 9.99,-9.99 -6.66,-26.64 -21.09,-26.27 z"
       id="path7"
       inkscape:connector-curvature="0"
       style="fill:#4d4d4d;fill-rule:evenodd" />
  </g>
</svg>
