<?xml version="1.0" encoding="UTF-8" standalone="no"?>
<svg
   xmlns:dc="http://purl.org/dc/elements/1.1/"
   xmlns:cc="http://creativecommons.org/ns#"
   xmlns:rdf="http://www.w3.org/1999/02/22-rdf-syntax-ns#"
   xmlns:svg="http://www.w3.org/2000/svg"
   xmlns="http://www.w3.org/2000/svg"
   xmlns:sodipodi="http://sodipodi.sourceforge.net/DTD/sodipodi-0.dtd"
   xmlns:inkscape="http://www.inkscape.org/namespaces/inkscape"
   width="21.999998"
   height="21.999998"
   overflow="hidden"
   version="1.1"
   id="svg25"
   sodipodi:docname="change_theme.svg"
   style="overflow:hidden"
   inkscape:version="0.92.4 (5da689c313, 2019-01-14)">
  <metadata
     id="metadata29">
    <rdf:RDF>
      <cc:Work
         rdf:about="">
        <dc:format>image/svg+xml</dc:format>
        <dc:type
           rdf:resource="http://purl.org/dc/dcmitype/StillImage" />
      </cc:Work>
    </rdf:RDF>
  </metadata>
  <sodipodi:namedview
     pagecolor="#ffffff"
     bordercolor="#666666"
     borderopacity="1"
     objecttolerance="10"
     gridtolerance="10"
     guidetolerance="10"
     inkscape:pageopacity="0"
     inkscape:pageshadow="2"
     inkscape:window-width="3840"
     inkscape:window-height="1973"
     id="namedview27"
     showgrid="false"
     inkscape:zoom="0.78929766"
     inkscape:cx="148.50001"
     inkscape:cy="148.49999"
     inkscape:window-x="-18"
     inkscape:window-y="-18"
     inkscape:window-maximized="1"
     inkscape:current-layer="svg25" />
  <defs
     id="defs5">
    <clipPath
       id="clip0">
      <path
         d="m 2484,1859 h 299 v 299 h -299 z"
         id="path2"
         inkscape:connector-curvature="0"
         style="clip-rule:evenodd;fill-rule:evenodd" />
    </clipPath>
  </defs>
  <g
     clip-path="url(#clip0)"
     transform="matrix(0.07407407,0,0,0.07407407,-184.07406,-137.77777)"
     id="g23">
    <rect
       x="2486"
       y="1861"
       width="295"
       height="295"
       stroke-miterlimit="8"
       id="rect7"
       style="fill:none;stroke:#ffffff;stroke-width:2;stroke-miterlimit:8" />
    <path
       d="m 2542.35,1951.09 v 137.95 h 182.15 v -137.95 z m 11.19,-49.09 h 160.92 c 17.42,0 31.54,14.08 31.54,31.44 v 150.12 c 0,17.36 -14.12,31.44 -31.54,31.44 h -160.92 c -17.42,0 -31.54,-14.08 -31.54,-31.44 v -150.12 c 0,-17.36 14.12,-31.44 31.54,-31.44 z"
       id="path9"
       inkscape:connector-curvature="0"
       style="fill:#4d4d4d;fill-rule:evenodd" />
    <rect
       x="2557"
       y="1972"
       width="42"
       height="41"
       id="rect11"
       style="fill:#4d4d4d" />
    <path
       d="m 2566,2033.79 v 23.42 h 24 v -23.42 z m -9,-8.79 h 42 v 41 h -42 z"
       id="path13"
       inkscape:connector-curvature="0"
       style="fill:#4d4d4d;fill-rule:evenodd" />
    <rect
       x="2613"
       y="2025"
       width="41"
       height="41"
       id="rect15"
       style="fill:#4d4d4d" />
    <path
       d="m 2676.79,2033.79 v 23.42 h 23.42 v -23.42 z M 2668,2025 h 41 v 41 h -41 z"
       id="path17"
       inkscape:connector-curvature="0"
       style="fill:#4d4d4d;fill-rule:evenodd" />
    <path
       d="m 2621.79,1980.79 v 23.42 h 23.42 v -23.42 z M 2613,1972 h 41 v 41 h -41 z"
       id="path19"
       inkscape:connector-curvature="0"
       style="fill:#4d4d4d;fill-rule:evenodd" />
    <rect
       x="2668"
       y="1972"
       width="41"
       height="41"
       id="rect21"
       style="fill:#4d4d4d" />
  </g>
</svg>
