<svg xmlns="http://www.w3.org/2000/svg" viewBox="0 0 512 512" x="0" y="0" aria-hidden="true" focusable="false" role="img"><path d="M320,48a144,144,0,1,1-53.66,277.66L219,368H187v48H124v48H48V388L182.18,254.82C178.07,241.26,176,206.17,176,192A144,144,0,0,1,320,48m0-48C214,0,128,86,128,192c0,8.83.6,35.62,1.8,44.32L7,358.09a24,24,0,0,0-7,17V488a24,24,0,0,0,24,24H148c13.26,0,22-10.74,22-24V464h41a24,24,0,0,0,24-24V420l45.05-40.17A192.26,192.26,0,0,0,320,384c106,0,192-85.95,192-192S426.05,0,320,0ZM309,154a48,48,0,1,0,48-48A48,48,0,0,0,309,154Z" fill="currentColor"/></svg>