<?xml version="1.0" encoding="UTF-8" standalone="no"?>
<svg
   xmlns:dc="http://purl.org/dc/elements/1.1/"
   xmlns:cc="http://creativecommons.org/ns#"
   xmlns:rdf="http://www.w3.org/1999/02/22-rdf-syntax-ns#"
   xmlns:svg="http://www.w3.org/2000/svg"
   xmlns="http://www.w3.org/2000/svg"
   xmlns:sodipodi="http://sodipodi.sourceforge.net/DTD/sodipodi-0.dtd"
   xmlns:inkscape="http://www.inkscape.org/namespaces/inkscape"
   width="21.999998"
   height="21.926174"
   overflow="hidden"
   version="1.1"
   id="svg15"
   sodipodi:docname="sign_out.svg"
   style="overflow:hidden"
   inkscape:version="0.92.4 (5da689c313, 2019-01-14)">
  <metadata
     id="metadata19">
    <rdf:RDF>
      <cc:Work
         rdf:about="">
        <dc:format>image/svg+xml</dc:format>
        <dc:type
           rdf:resource="http://purl.org/dc/dcmitype/StillImage" />
      </cc:Work>
    </rdf:RDF>
  </metadata>
  <sodipodi:namedview
     pagecolor="#ffffff"
     bordercolor="#666666"
     borderopacity="1"
     objecttolerance="10"
     gridtolerance="10"
     guidetolerance="10"
     inkscape:pageopacity="0"
     inkscape:pageshadow="2"
     inkscape:window-width="3840"
     inkscape:window-height="1973"
     id="namedview17"
     showgrid="false"
     inkscape:zoom="0.78929766"
     inkscape:cx="149"
     inkscape:cy="148.5"
     inkscape:window-x="-18"
     inkscape:window-y="-18"
     inkscape:window-maximized="1"
     inkscape:current-layer="svg15" />
  <defs
     id="defs5">
    <clipPath
       id="clip0">
      <path
         d="m 1646,831 h 300 v 299 h -300 z"
         id="path2"
         inkscape:connector-curvature="0"
         style="clip-rule:evenodd;fill-rule:evenodd" />
    </clipPath>
  </defs>
  <g
     clip-path="url(#clip0)"
     transform="matrix(0.0738255,0,0,0.0738255,-121.5906,-61.422816)"
     id="g13">
    <rect
       x="1648"
       y="833"
       width="296"
       height="295"
       stroke-miterlimit="8"
       id="rect7"
       style="fill:none;stroke:#ffffff;stroke-width:2;stroke-miterlimit:8" />
    <path
       d="m 1712.87,849 h 129.89 c 15.95,0 28.87,12.903 28.87,28.82 0.12,13.209 0.25,26.417 0.37,39.625 l -42.53,-29.552 -94.38,0.192 c -8.3,0 -15.03,6.718 -15.03,15.004 v 158.091 c 0,8.29 6.73,15.01 15.03,15.01 l 92.91,0.16 44,-31.36 -0.37,38.19 c 0,15.92 -12.92,28.82 -28.87,28.82 h -129.89 c -15.94,0 -28.87,-12.9 -28.87,-28.82 V 877.82 c 0,-15.917 12.93,-28.82 28.87,-28.82 z"
       id="path9"
       inkscape:connector-curvature="0"
       style="fill:#4d4d4d;fill-rule:evenodd" />
    <path
       d="m 1758,951.5 h 69.99 V 923 l 79.01,57 -79.01,57 v -28.5 H 1758 Z"
       id="path11"
       inkscape:connector-curvature="0"
       style="fill:#4d4d4d;fill-rule:evenodd" />
  </g>
</svg>
