<?xml version="1.0" encoding="UTF-8" standalone="no"?>
<svg
   xmlns="http://www.w3.org/2000/svg"
   xmlns:svg="http://www.w3.org/2000/svg"
   xmlns:oryx="http://www.b3mn.org/oryx"
   xmlns:xlink="http://www.w3.org/1999/xlink"
   width="200"
   height="160"
   version="1.0">
  <defs></defs>
  <oryx:magnets>
  	<oryx:magnet oryx:cx="0" oryx:cy="80" oryx:anchors="left" />
  	<oryx:magnet oryx:cx="100" oryx:cy="160" oryx:anchors="bottom" />
  	<oryx:magnet oryx:cx="200" oryx:cy="80" oryx:anchors="right" />
  	<oryx:magnet oryx:cx="100" oryx:cy="0" oryx:anchors="top" />
  	<oryx:magnet oryx:cx="100" oryx:cy="80" oryx:default="yes" />
  </oryx:magnets>
  <g pointer-events="fill" oryx:minimumSize="120 100" oryx:maximumSize="" >
  	<defs>
		<radialGradient id="background" cx="10%" cy="10%" r="100%" fx="10%" fy="10%">
			<stop offset="0%" stop-color="#ffffff" stop-opacity="1"/>
			<stop id="fill_el" offset="100%" stop-color="#ffffff" stop-opacity="1"/>
		</radialGradient>
	</defs>
	
	<rect id="text_frame" oryx:anchors="bottom top right left" x="0" y="0" width="190" height="160" rx="10" ry="10" stroke="none" stroke-width="0" fill="none" />
	<rect id="bg_frame" oryx:anchors="bottom top right left" oryx:resize="vertical horizontal" x="0" y="0" width="200" height="160" rx="10" ry="10" stroke="black" stroke-width="1" stroke-dasharray="2,2,2" fill="url(#background) white" />
    	<text 
			font-size="12" 
			id="text_name" 
			x="8" 
			y="10" 
			oryx:align="top left"
			oryx:fittoelem="text_frame"
			oryx:anchors="left top" 
			stroke="black"></text>
    	
	<g id="none"></g>
	<g 	id="loop"
		transform="translate(1)">
		<path
	        oryx:anchors="bottom"
	       	style="opacity:1;fill:none;fill-opacity:1;stroke-width:1.5;stroke-linecap:round;stroke-linejoin:round;stroke-miterlimit:2.0999999;stroke-dasharray:none;stroke-opacity:1"
	        id="path2396"
	        stroke="#000000"
	        d="M 99.5,152 L 99.5,155 L 96.5,155 M 99.5,155 A 4.875,4.875 0 1 1 103.5,155"
	         />
	</g>
	
	
	<g 	id="parallel"
		transform="translate(1)">
		<path 
			id="parallelpath"
			oryx:anchors="bottom" 
			fill="none" stroke="black" d="M96 145 v10 M100 145 v10 M104 145 v10" 
			stroke-width="2"
		/>
	</g>
	<g 	id="sequential"
		transform="translate(1)">
		<path 
			id="sequentialpath"
			oryx:anchors="bottom" 
			fill="none" stroke="#000000" stroke-width="2" d="M95,154h10 M95,150h10 M95,146h10"
		/>
	</g>
	
	
	<g id="adhoc" transform="translate(16)">
		<path
			id="adhocpath"
			d="m 105,150 0,2.0343 c -0.54305,0.60192 -1.04853,1.0324 -1.51647,1.29142 -0.46216,0.25908 -0.94744,0.38857 -1.4558,0.38857 -0.57194,0 -1.23628,-0.22473 -1.99307,-0.67428 -0.0577,-0.0306 -0.10111,-0.0534 -0.12999,-0.0687 -0.0346,-0.0228 -0.0896,-0.0533 -0.16464,-0.0915 -0.80878,-0.47234 -1.4558,-0.70857 -1.94107,-0.70857 -0.46217,0 -0.91566,0.14858 -1.36047,0.44576 -0.44485,0.2895 -0.92434,0.75046 -1.43849,1.38285 l 0,-2.03429 c 0.54881,-0.60194 1.05431,-1.0324 1.51647,-1.29147 0.46793,-0.26666 0.9532,-0.39999 1.45581,-0.39999 0.57191,0 1.24205,0.22856 2.01039,0.68574 0.0461,0.0308 0.0838,0.0533 0.11266,0.0687 0.0404,0.0228 0.0982,0.0533 0.1733,0.0913 0.803,0.4724 1.45002,0.70861 1.94108,0.70857 0.44481,4e-5 0.88676,-0.14475 1.32581,-0.43429 0.43905,-0.2895 0.9272,-0.75425 1.46448,-1.39428"
			oryx:anchors="bottom"
			stroke="#000000" 
			stroke-width="1"
		/>
	</g>
	<g id="compensation">
		<path
			id="compensationpath" 
			oryx:anchors="bottom" fill="none" stroke="black" d="M 100 150 L 105 145 L 105 155z M94.7 150 L 99.7 155 L 99.7 145z" stroke-width="1"
			transform="translate(-13)"
		/>
	</g>
  </g>
</svg>