<svg xmlns="http://www.w3.org/2000/svg" viewBox="0 0 512 512" x="0" y="0" aria-hidden="true" focusable="false" role="img"><path d="M497.88,99.5H476.12A13.11,13.11,0,0,0,463,112.62V248a16.8,16.8,0,0,0-6.49-6.67L257.81,101.48a17,17,0,0,0-25.45,14.69V247.45a17,17,0,0,0-6.2-6.15L27.46,101.48A17,17,0,0,0,2,116.17V395.83a17,17,0,0,0,25.46,14.69L226.16,270.7a17,17,0,0,0,6.2-6.15V395.83a17,17,0,0,0,25.45,14.69L456.51,270.7A16.8,16.8,0,0,0,463,264V399.38a13.11,13.11,0,0,0,13.12,13.12h21.76A13.11,13.11,0,0,0,511,399.38V112.62A13.11,13.11,0,0,0,497.88,99.5Z" fill="currentColor"/></svg>