<svg id="source-1" xmlns="http://www.w3.org/2000/svg" xmlns:xlink="http://www.w3.org/1999/xlink" viewBox="0 0 512 512"><defs><style>.cls-1{fill:url(#linear-gradient);}.cls-2{fill:#fff;fill-opacity:0.68;}</style><linearGradient id="linear-gradient" x1="52.82" y1="125.61" x2="483.75" y2="402.18" gradientUnits="userSpaceOnUse"><stop offset="0.21" stop-color="#0071bc"/><stop offset="0.35" stop-color="#117cc1"/><stop offset="0.62" stop-color="#3c98ce"/><stop offset="0.98" stop-color="#81c5e2"/><stop offset="1" stop-color="#84c7e3"/></linearGradient></defs><title>info</title><circle class="cls-1" cx="256" cy="256" r="256"/><path class="cls-2" d="M256,113.55a43.36,43.36,0,1,1-43.35,43.35A43.35,43.35,0,0,1,256,113.55Zm57.81,262.19a12.39,12.39,0,0,1-12.39,12.39H210.58a12.39,12.39,0,0,1-12.39-12.39V351a12.39,12.39,0,0,1,12.39-12.39H223V272.52H210.58a12.39,12.39,0,0,1-12.39-12.39V235.35A12.39,12.39,0,0,1,210.58,223h66.07A12.38,12.38,0,0,1,289,235.35V338.58h12.39A12.39,12.39,0,0,1,313.81,351Z"/></svg>