<svg id="source-1" xmlns="http://www.w3.org/2000/svg" xmlns:xlink="http://www.w3.org/1999/xlink" viewBox="0 0 512 512"><defs><style>.cls-1{fill:url(#linear-gradient);}.cls-2{fill:#fff;fill-opacity:0.68;}</style><linearGradient id="linear-gradient" x1="76.61" y1="144.48" x2="512.15" y2="413.76" gradientUnits="userSpaceOnUse"><stop offset="0.44" stop-color="#8cc63f"/><stop offset="1" stop-color="#3ac16d"/></linearGradient></defs><title>question</title><circle class="cls-1" cx="257" cy="256" r="256"/><path class="cls-2" d="M262.87,84.65c-56.26,0-92.13,23.69-120.31,65.81a12.4,12.4,0,0,0,2.8,16.78l35.82,27.16a12.37,12.37,0,0,0,17.2-2.19c18.44-23.39,31.09-37,59.16-37,21.08,0,47.17,13.57,47.17,34,0,15.46-12.76,23.4-33.59,35.07-24.28,13.61-56.41,30.56-56.41,72.94v4.13a12.39,12.39,0,0,0,12.39,12.39h57.8a12.39,12.39,0,0,0,12.39-12.39V300c0-29.38,85.87-30.6,85.87-110.1C383.16,130.06,321.05,84.65,262.87,84.65Zm-6.87,256a47.48,47.48,0,1,0,47.48,47.48A47.53,47.53,0,0,0,256,340.65Z"/></svg>