<svg id="source-1" xmlns="http://www.w3.org/2000/svg" xmlns:xlink="http://www.w3.org/1999/xlink" viewBox="0 0 512 512"><defs><style>.cls-1{fill:url(#linear-gradient);}.cls-2{fill:#fff;fill-opacity:0.68;}</style><linearGradient id="linear-gradient" x1="41.95" y1="161.19" x2="510.17" y2="368.58" gradientUnits="userSpaceOnUse"><stop offset="0.14" stop-color="#e94b3f"/><stop offset="0.49" stop-color="#d84545"/><stop offset="0.97" stop-color="#bb3a50"/></linearGradient></defs><title>stop</title><path class="cls-1" d="M361.45,14.1A48,48,0,0,0,327.55,0H184.45a48,48,0,0,0-33.9,14.1L14.05,150.5A48,48,0,0,0,0,184.4V327.5a48,48,0,0,0,14.1,33.9l136.5,136.5a48,48,0,0,0,33.9,14.1h143.1a48,48,0,0,0,33.9-14.1L498,361.4a48,48,0,0,0,14.1-33.9v-143A48,48,0,0,0,498,150.6Z"/><rect class="cls-2" x="131" y="212" width="250" height="88" rx="22.33"/></svg>