<svg id="source-1" xmlns="http://www.w3.org/2000/svg" xmlns:xlink="http://www.w3.org/1999/xlink" viewBox="0 0 576 512"><defs><style>.cls-1{fill:url(#linear-gradient);}.cls-2{fill:#fff;fill-opacity:0.68;}</style><linearGradient id="linear-gradient" x1="23.02" y1="184.7" x2="579.11" y2="458.62" gradientUnits="userSpaceOnUse"><stop offset="0.11" stop-color="#f15a24"/><stop offset="0.35" stop-color="#f36b24"/><stop offset="0.82" stop-color="#f99625"/><stop offset="0.97" stop-color="#fba525"/></linearGradient></defs><title>warning</title><path class="cls-1" d="M569.25,440c18.46,32-4.71,72-41.57,72H47.79c-36.94,0-60-40.05-41.58-72l240-416c18.47-32,64.72-32,83.15,0L569.25,440Z"/><path class="cls-2" d="M287.74,354a46,46,0,1,0,46,46A46,46,0,0,0,287.74,354ZM244.06,188.65l7.42,136a12,12,0,0,0,12,11.35H312a12,12,0,0,0,12-11.35l7.42-136a12,12,0,0,0-12-12.65H256a12,12,0,0,0-12,12.65Z"/></svg>