<?xml version="1.0" encoding="UTF-8" standalone="no"?>
<svg
   xmlns:dc="http://purl.org/dc/elements/1.1/"
   xmlns:cc="http://creativecommons.org/ns#"
   xmlns:rdf="http://www.w3.org/1999/02/22-rdf-syntax-ns#"
   xmlns:svg="http://www.w3.org/2000/svg"
   xmlns="http://www.w3.org/2000/svg"
   xmlns:sodipodi="http://sodipodi.sourceforge.net/DTD/sodipodi-0.dtd"
   xmlns:inkscape="http://www.inkscape.org/namespaces/inkscape"
   width="21.999998"
   height="21.631392"
   overflow="hidden"
   version="1.1"
   id="svg21"
   sodipodi:docname="add_process.svg"
   style="overflow:hidden"
   inkscape:version="0.92.4 (5da689c313, 2019-01-14)">
  <metadata
     id="metadata25">
    <rdf:RDF>
      <cc:Work
         rdf:about="">
        <dc:format>image/svg+xml</dc:format>
        <dc:type
           rdf:resource="http://purl.org/dc/dcmitype/StillImage" />
      </cc:Work>
    </rdf:RDF>
  </metadata>
  <sodipodi:namedview
     pagecolor="#ffffff"
     bordercolor="#666666"
     borderopacity="1"
     objecttolerance="10"
     gridtolerance="10"
     guidetolerance="10"
     inkscape:pageopacity="0"
     inkscape:pageshadow="2"
     inkscape:window-width="3840"
     inkscape:window-height="1973"
     id="namedview23"
     showgrid="false"
     inkscape:zoom="0.7972973"
     inkscape:cx="148.42031"
     inkscape:cy="147"
     inkscape:window-x="-18"
     inkscape:window-y="-18"
     inkscape:window-maximized="1"
     inkscape:current-layer="svg21" />
  <defs
     id="defs5">
    <clipPath
       id="clip0">
      <path
         d="m 908,640 h 302 V 936 H 908 Z"
         id="path2"
         inkscape:connector-curvature="0"
         style="clip-rule:evenodd;fill-rule:evenodd" />
    </clipPath>
  </defs>
  <g
     clip-path="url(#clip0)"
     transform="matrix(0.07372152,0,0,0.07372152,-67.129319,-47.29823)"
     id="g19">
    <path
       d="m 932.5,711.5 48,-48 48,48 -48,48 z"
       stroke-miterlimit="8"
       id="path7"
       inkscape:connector-curvature="0"
       style="fill:none;fill-rule:evenodd;stroke:#4d4d4d;stroke-width:31;stroke-miterlimit:8" />
    <path
       d="M 0,0 1.64042e-4,51.5996"
       stroke-miterlimit="8"
       transform="matrix(-1,-8.74228e-8,-8.74228e-8,1,980.5,759.5)"
       id="path9"
       inkscape:connector-curvature="0"
       style="fill:none;fill-rule:evenodd;stroke:#4d4d4d;stroke-width:25;stroke-miterlimit:8" />
    <path
       d="m 1084.5,686.167 c 0,-6.996 5.67,-12.667 12.67,-12.667 h 68.66 c 7,0 12.67,5.671 12.67,12.667 v 50.666 c 0,6.996 -5.67,12.667 -12.67,12.667 h -68.66 c -7,0 -12.67,-5.671 -12.67,-12.667 z"
       stroke-miterlimit="8"
       id="path11"
       inkscape:connector-curvature="0"
       style="fill:none;fill-rule:evenodd;stroke:#4d4d4d;stroke-width:31;stroke-miterlimit:8" />
    <path
       d="m 932.5,824.167 c 0,-6.996 5.671,-12.667 12.667,-12.667 h 69.663 c 7,0 12.67,5.671 12.67,12.667 v 50.666 c 0,6.996 -5.67,12.667 -12.67,12.667 h -69.663 c -6.996,0 -12.667,-5.671 -12.667,-12.667 z"
       stroke-miterlimit="8"
       id="path13"
       inkscape:connector-curvature="0"
       style="fill:none;fill-rule:evenodd;stroke:#4d4d4d;stroke-width:31;stroke-miterlimit:8" />
    <path
       d="M 0,0 56.0697,1.64042e-4"
       stroke-miterlimit="8"
       transform="matrix(-1,-8.74228e-8,-8.74228e-8,1,1084.57,711.5)"
       id="path15"
       inkscape:connector-curvature="0"
       style="fill:none;fill-rule:evenodd;stroke:#4d4d4d;stroke-width:25;stroke-miterlimit:8" />
    <path
       d="m 1098.79,782.05 v 42.744 h -42.74 v 34.412 h 42.74 v 42.744 h 34.42 v -42.744 h 42.74 v -34.412 h -42.74 V 782.05 Z M 1116,749 c 51.36,0 93,41.638 93,93 0,51.362 -41.64,93 -93,93 -51.36,0 -93,-41.638 -93,-93 0,-51.362 41.64,-93 93,-93 z"
       id="path17"
       inkscape:connector-curvature="0"
       style="fill:#70ad47;fill-rule:evenodd" />
  </g>
</svg>
