<svg xmlns="http://www.w3.org/2000/svg" viewBox="0 0 576 512" x="0" y="0" aria-hidden="true" focusable="false" role="img"><path d="M201.11,275.59a11.84,11.84,0,0,1-12.18-11.5l-2.79-97.66v-.67a11.85,11.85,0,0,1,12.17-11.5L296,157.05a11.84,11.84,0,0,1,8,20.21L276.1,205.17,338.89,268l27.9-27.9a11.84,11.84,0,0,1,20.22,8l2.79,97.66a11.84,11.84,0,0,1-11.51,12.17h-.66L280,355.12a11.84,11.84,0,0,1-8-20.2l27.9-27.9L237,244.23l-27.91,27.91A11.87,11.87,0,0,1,201.11,275.59Z" fill="currentColor"/><path d="M195.15,295.1v74.52A33.17,33.17,0,0,1,162,402.75H40.76A33.17,33.17,0,0,1,7.63,369.62V268.08A33.16,33.16,0,0,1,40.76,235H80.39V194.82c-.55-.48-1.1-1-1.63-1.51h0L10,124.57A32.07,32.07,0,0,1,10,79.3L78.76,10.56a32,32,0,0,1,45.26,0L192.77,79.3a32,32,0,0,1,0,45.27L124,193.31c-.52.53-1.07,1-1.63,1.51V235H162a32.9,32.9,0,0,1,6.08.57l.83,29.15a31.85,31.85,0,0,0,26.21,30.43ZM101.39,156.55,156,101.93,101.39,47.32,46.78,101.93ZM153.15,277H49.63v83.8H153.15Zm423,133a31.76,31.76,0,0,1-9.37,22.63L498,501.37a32,32,0,0,1-45.26,0L384,432.62a32,32,0,0,1,0-45.26l68.75-68.75c.53-.52,1.07-1,1.63-1.51V277H414.76a33.08,33.08,0,0,1-6.94-.73L407,247.51a31.87,31.87,0,0,0-25.37-30.28V142.31a33.16,33.16,0,0,1,33.13-33.13H536a33.16,33.16,0,0,1,33.12,33.13V243.85A33.16,33.16,0,0,1,536,277H496.39V317.1c.56.49,1.11,1,1.63,1.51l68.75,68.75A31.8,31.8,0,0,1,576.14,410Zm-49-175V151.18H423.63V235ZM530,410l-54.62-54.61L420.78,410l54.61,54.62ZM198,154.25a11.85,11.85,0,0,0-11.83,11.51v.67l2.79,97.66a11.85,11.85,0,0,0,11.83,11.51h.35a11.87,11.87,0,0,0,8-3.45L237,244.23,299.82,307l-27.9,27.9a11.84,11.84,0,0,0,8,20.2l97.67,2.79h.66a11.84,11.84,0,0,0,11.51-12.17L387,248.08a11.84,11.84,0,0,0-20.22-8L338.89,268,276.1,205.17,304,177.26a11.84,11.84,0,0,0-8-20.21l-97.67-2.79H198" fill="currentColor"/></svg>