<?xml version="1.0" encoding="UTF-8" standalone="no"?>
<svg
   xmlns:dc="http://purl.org/dc/elements/1.1/"
   xmlns:cc="http://creativecommons.org/ns#"
   xmlns:rdf="http://www.w3.org/1999/02/22-rdf-syntax-ns#"
   xmlns:svg="http://www.w3.org/2000/svg"
   xmlns="http://www.w3.org/2000/svg"
   xmlns:sodipodi="http://sodipodi.sourceforge.net/DTD/sodipodi-0.dtd"
   xmlns:inkscape="http://www.inkscape.org/namespaces/inkscape"
   width="18.655405"
   height="21.999998"
   overflow="hidden"
   version="1.1"
   id="svg13"
   sodipodi:docname="delete2.svg"
   style="overflow:hidden"
   inkscape:version="0.92.4 (5da689c313, 2019-01-14)">
  <metadata
     id="metadata17">
    <rdf:RDF>
      <cc:Work
         rdf:about="">
        <dc:format>image/svg+xml</dc:format>
        <dc:type
           rdf:resource="http://purl.org/dc/dcmitype/StillImage" />
      </cc:Work>
    </rdf:RDF>
  </metadata>
  <sodipodi:namedview
     pagecolor="#ffffff"
     bordercolor="#666666"
     borderopacity="1"
     objecttolerance="10"
     gridtolerance="10"
     guidetolerance="10"
     inkscape:pageopacity="0"
     inkscape:pageshadow="2"
     inkscape:window-width="3840"
     inkscape:window-height="1973"
     id="namedview15"
     showgrid="false"
     inkscape:zoom="0.79194631"
     inkscape:cx="125.5"
     inkscape:cy="148"
     inkscape:window-x="-18"
     inkscape:window-y="-18"
     inkscape:window-maximized="1"
     inkscape:current-layer="svg13" />
  <defs
     id="defs5">
    <clipPath
       id="clip0">
      <path
         d="M 425,418 H 678 V 716 H 425 Z"
         id="path2"
         inkscape:connector-curvature="0"
         style="clip-rule:evenodd;fill-rule:evenodd" />
    </clipPath>
  </defs>
  <g
     clip-path="url(#clip0)"
     transform="matrix(0.07432432,0,0,0.07432432,-31.66216,-31.14189)"
     id="g11">
    <path
       d="m 662.235,463.4 h -62.75 v -18.5 c 0,-14.43 -11.442,-25.9 -25.838,-25.9 h -44.294 c -14.396,0 -25.838,11.47 -25.838,25.9 v 18.5 h -62.75 C 432.644,463.4 426,470.06 426,478.2 V 493 h 251 v -14.8 c 0,-8.14 -6.644,-14.8 -14.765,-14.8 z M 525.662,444.9 c 0,-2.22 1.476,-3.7 3.691,-3.7 h 44.294 c 2.215,0 3.691,1.48 3.691,3.7 v 18.5 h -51.676 z"
       id="path7"
       inkscape:connector-curvature="0"
       style="fill:#4d4d4d;fill-rule:evenodd" />
    <path
       d="m 448,700.214 c 0,8.132 6.654,14.786 14.786,14.786 H 640.214 C 648.346,715 655,708.346 655,700.214 V 508 H 448 Z M 599.554,530.179 h 22.178 v 162.642 h -22.178 z m -59.143,0 h 22.178 v 162.642 h -22.178 z m -59.143,0 h 22.178 v 162.642 h -22.178 z"
       id="path9"
       inkscape:connector-curvature="0"
       style="fill:#4d4d4d;fill-rule:evenodd" />
  </g>
</svg>
