<?xml version="1.0" encoding="UTF-8" standalone="no"?>
<svg
   xmlns:dc="http://purl.org/dc/elements/1.1/"
   xmlns:cc="http://creativecommons.org/ns#"
   xmlns:rdf="http://www.w3.org/1999/02/22-rdf-syntax-ns#"
   xmlns:svg="http://www.w3.org/2000/svg"
   xmlns="http://www.w3.org/2000/svg"
   xmlns:sodipodi="http://sodipodi.sourceforge.net/DTD/sodipodi-0.dtd"
   xmlns:inkscape="http://www.inkscape.org/namespaces/inkscape"
   width="22"
   height="22.223728"
   overflow="hidden"
   version="1.1"
   id="svg13"
   sodipodi:docname="delete.svg"
   style="overflow:hidden"
   inkscape:version="0.92.4 (5da689c313, 2019-01-14)">
  <metadata
     id="metadata17">
    <rdf:RDF>
      <cc:Work
         rdf:about="">
        <dc:format>image/svg+xml</dc:format>
        <dc:type
           rdf:resource="http://purl.org/dc/dcmitype/StillImage" />
      </cc:Work>
    </rdf:RDF>
  </metadata>
  <sodipodi:namedview
     pagecolor="#ffffff"
     bordercolor="#666666"
     borderopacity="1"
     objecttolerance="10"
     gridtolerance="10"
     guidetolerance="10"
     inkscape:pageopacity="0"
     inkscape:pageshadow="2"
     inkscape:window-width="3840"
     inkscape:window-height="1973"
     id="namedview15"
     showgrid="false"
     inkscape:zoom="0.78666667"
     inkscape:cx="148"
     inkscape:cy="148.99999"
     inkscape:window-x="-18"
     inkscape:window-y="-18"
     inkscape:window-maximized="1"
     inkscape:current-layer="svg13" />
  <defs
     id="defs5">
    <clipPath
       id="clip0">
      <path
         d="m 834,649 h 298 V 949 H 834 Z"
         id="path2"
         inkscape:connector-curvature="0"
         style="clip-rule:evenodd;fill-rule:evenodd" />
    </clipPath>
  </defs>
  <g
     clip-path="url(#clip0)"
     transform="matrix(0.07457627,0,0,0.07457627,-62.271185,-48.474576)"
     id="g11">
    <path
       d="M 835,650 H 966.613 L 1039,722.325 v 22.398 l -15.36,-1.547 -4.38,0.441 v -4.854 h -72.389 v -69.038 h -92.129 v 223.55 h 79.541 l 4.777,8.794 9.026,10.931 H 835 Z m 131.613,27.944 v 41.094 h 41.127 z"
       id="path7"
       inkscape:connector-curvature="0"
       style="fill:#4d4d4d;fill-rule:evenodd" />
    <path
       d="m 977.04,832.211 v 45.578 h 119.92 V 832.211 Z M 1037,762 c 51.36,0 93,41.638 93,93 0,51.362 -41.64,93 -93,93 -51.362,0 -93,-41.638 -93,-93 0,-51.362 41.638,-93 93,-93 z"
       id="path9"
       inkscape:connector-curvature="0"
       style="fill:#c00000;fill-rule:evenodd" />
  </g>
</svg>
