<?xml version="1.0" encoding="UTF-8" standalone="no"?>
<svg
   xmlns:dc="http://purl.org/dc/elements/1.1/"
   xmlns:cc="http://creativecommons.org/ns#"
   xmlns:rdf="http://www.w3.org/1999/02/22-rdf-syntax-ns#"
   xmlns:svg="http://www.w3.org/2000/svg"
   xmlns="http://www.w3.org/2000/svg"
   xmlns:sodipodi="http://sodipodi.sourceforge.net/DTD/sodipodi-0.dtd"
   xmlns:inkscape="http://www.inkscape.org/namespaces/inkscape"
   width="18.718643"
   height="22"
   overflow="hidden"
   version="1.1"
   id="svg13"
   sodipodi:docname="delete.svg"
   style="overflow:hidden"
   inkscape:version="0.92.4 (5da689c313, 2019-01-14)">
  <metadata
     id="metadata17">
    <rdf:RDF>
      <cc:Work
         rdf:about="">
        <dc:format>image/svg+xml</dc:format>
        <dc:type
           rdf:resource="http://purl.org/dc/dcmitype/StillImage" />
      </cc:Work>
    </rdf:RDF>
  </metadata>
  <sodipodi:namedview
     pagecolor="#ffffff"
     bordercolor="#666666"
     borderopacity="1"
     objecttolerance="10"
     gridtolerance="10"
     guidetolerance="10"
     inkscape:pageopacity="0"
     inkscape:pageshadow="2"
     inkscape:window-width="3840"
     inkscape:window-height="1973"
     id="namedview15"
     showgrid="false"
     inkscape:zoom="0.79461279"
     inkscape:cx="125.5"
     inkscape:cy="147.5"
     inkscape:window-x="-18"
     inkscape:window-y="-18"
     inkscape:window-maximized="1"
     inkscape:current-layer="svg13" />
  <defs
     id="defs5">
    <clipPath
       id="clip0">
      <path
         d="m 968,748 h 253 v 297 H 968 Z"
         id="path2"
         inkscape:connector-curvature="0"
         style="clip-rule:evenodd;fill-rule:evenodd" />
    </clipPath>
  </defs>
  <g
     clip-path="url(#clip0)"
     transform="matrix(0.07457627,0,0,0.07457627,-72.264406,-55.857626)"
     id="g11">
    <path
       d="m 1205.24,793.4 h -62.75 v -18.5 c 0,-14.43 -11.45,-25.9 -25.84,-25.9 h -44.3 c -14.39,0 -25.84,11.47 -25.84,25.9 v 18.5 H 983.765 C 975.644,793.4 969,800.06 969,808.2 V 823 h 251 v -14.8 c 0,-8.14 -6.64,-14.8 -14.76,-14.8 z m -136.58,-18.5 c 0,-2.22 1.48,-3.7 3.69,-3.7 h 44.3 c 2.21,0 3.69,1.48 3.69,3.7 v 18.5 h -51.68 z"
       id="path7"
       inkscape:connector-curvature="0"
       style="fill:#4d4d4d;fill-rule:evenodd" />
    <path
       d="m 1024.27,859.179 v 162.641 h 9.41 v 0 h 127.06 v 0 h 3.99 V 859.179 h -22.18 v 0.132 h -36.96 v -0.132 h -22.18 v 0.132 h -36.96 v -0.132 z M 991,837 h 207 v 192.21 c 0,8.14 -6.65,14.79 -14.79,14.79 h -177.42 c -8.136,0 -14.79,-6.65 -14.79,-14.79 z"
       id="path9"
       inkscape:connector-curvature="0"
       style="fill:#4d4d4d;fill-rule:evenodd" />
  </g>
</svg>
