<?xml version="1.0" encoding="UTF-8" standalone="no"?>
<svg
   xmlns:dc="http://purl.org/dc/elements/1.1/"
   xmlns:cc="http://creativecommons.org/ns#"
   xmlns:rdf="http://www.w3.org/1999/02/22-rdf-syntax-ns#"
   xmlns:svg="http://www.w3.org/2000/svg"
   xmlns="http://www.w3.org/2000/svg"
   xmlns:sodipodi="http://sodipodi.sourceforge.net/DTD/sodipodi-0.dtd"
   xmlns:inkscape="http://www.inkscape.org/namespaces/inkscape"
   width="22"
   height="21.951469"
   overflow="hidden"
   version="1.1"
   id="svg21"
   sodipodi:docname="edit_model_signavio.svg"
   style="overflow:hidden"
   inkscape:version="0.92.4 (5da689c313, 2019-01-14)">
  <metadata
     id="metadata25">
    <rdf:RDF>
      <cc:Work
         rdf:about="">
        <dc:format>image/svg+xml</dc:format>
        <dc:type
           rdf:resource="http://purl.org/dc/dcmitype/StillImage" />
      </cc:Work>
    </rdf:RDF>
  </metadata>
  <sodipodi:namedview
     pagecolor="#ffffff"
     bordercolor="#666666"
     borderopacity="1"
     objecttolerance="10"
     gridtolerance="10"
     guidetolerance="10"
     inkscape:pageopacity="0"
     inkscape:pageshadow="2"
     inkscape:window-width="3840"
     inkscape:window-height="1973"
     id="namedview23"
     showgrid="false"
     inkscape:zoom="0.7972973"
     inkscape:cx="147"
     inkscape:cy="147"
     inkscape:window-x="-18"
     inkscape:window-y="-18"
     inkscape:window-maximized="1"
     inkscape:current-layer="svg21" />
  <defs
     id="defs5">
    <clipPath
       id="clip0">
      <path
         d="M 48,51 H 346 V 347 H 48 Z"
         id="path2"
         inkscape:connector-curvature="0"
         style="clip-rule:evenodd;fill-rule:evenodd" />
    </clipPath>
  </defs>
  <g
     clip-path="url(#clip0)"
     transform="matrix(0.07457627,0,0,0.07457627,-3.7288135,-3.8519208)"
     id="g19">
    <path
       d="M 65.5,114 113,66.5 160.5,114 113,161.5 Z"
       stroke-miterlimit="8"
       id="path7"
       inkscape:connector-curvature="0"
       style="fill:none;fill-rule:evenodd;stroke:#4d4d4d;stroke-width:21;stroke-miterlimit:8" />
    <path
       d="M 200.5,86.3336 C 200.5,78.6935 206.693,72.5 214.334,72.5 h 78.332 c 7.641,0 13.834,6.1935 13.834,13.8336 v 55.3324 c 0,7.641 -6.193,13.834 -13.834,13.834 h -78.332 c -7.641,0 -13.834,-6.193 -13.834,-13.834 z"
       stroke-miterlimit="8"
       id="path9"
       inkscape:connector-curvature="0"
       style="fill:none;fill-rule:evenodd;stroke:#4d4d4d;stroke-width:21;stroke-miterlimit:8" />
    <path
       d="m 60.5,210.334 c 0,-7.641 6.1935,-13.834 13.8336,-13.834 h 78.3324 c 7.641,0 13.834,6.193 13.834,13.834 v 55.332 c 0,7.641 -6.193,13.834 -13.834,13.834 H 74.3336 C 66.6935,279.5 60.5,273.307 60.5,265.666 Z"
       stroke-miterlimit="8"
       id="path11"
       inkscape:connector-curvature="0"
       style="fill:none;fill-rule:evenodd;stroke:#4d4d4d;stroke-width:21;stroke-miterlimit:8" />
    <path
       d="m 160.5,114.5 h 39.862"
       stroke-miterlimit="8"
       id="path13"
       inkscape:connector-curvature="0"
       style="fill:none;fill-rule:evenodd;stroke:#4d4d4d;stroke-width:21;stroke-miterlimit:8" />
    <path
       d="M 0,0 1.64042e-4,35.4331"
       stroke-miterlimit="8"
       transform="matrix(1,0,0,-1,113.5,196.933)"
       id="path15"
       inkscape:connector-curvature="0"
       style="fill:none;fill-rule:evenodd;stroke:#4d4d4d;stroke-width:21;stroke-miterlimit:8" />
    <path
       d="m 252,226.632 c 14.503,0 26.369,11.865 26.369,26.368 0,14.503 -11.866,26.369 -26.369,26.369 -14.503,0 -26.368,-11.866 -26.368,-26.369 0,-14.503 11.865,-26.368 26.368,-26.368 z m -8.789,-48.343 -7.691,15.382 c -4.834,1.318 -9.449,3.296 -13.624,5.713 l -16.48,-5.493 -12.525,12.525 5.493,16.48 c -2.417,4.395 -4.395,9.009 -5.713,13.843 l -15.382,7.472 v 17.579 l 15.382,7.691 c 1.318,4.834 3.296,9.448 5.713,13.623 l -5.493,16.48 12.525,12.525 16.48,-5.493 c 4.395,2.417 9.009,4.395 13.843,5.713 l 7.691,15.382 h 17.579 l 7.691,-15.382 c 4.834,-1.318 9.449,-3.296 13.624,-5.713 l 16.48,5.493 12.525,-12.525 -5.493,-16.48 c 2.417,-4.395 4.394,-9.009 5.713,-13.843 l 15.382,-7.691 v -17.579 l -15.602,-7.471 c -1.318,-4.834 -3.296,-9.449 -5.713,-13.624 l 5.493,-16.48 -12.525,-12.525 -16.48,5.493 c -4.395,-2.417 -9.009,-4.395 -13.843,-5.713 L 260.79,178.289 Z M 252,160 c 51.362,0 93,41.638 93,93 0,51.362 -41.638,93 -93,93 -51.362,0 -93,-41.638 -93,-93 0,-51.362 41.638,-93 93,-93 z"
       id="path17"
       inkscape:connector-curvature="0"
       style="fill:#4d4d4d;fill-rule:evenodd" />
  </g>
</svg>
