<?xml version="1.0" encoding="UTF-8" standalone="no"?>
<svg
   xmlns:dc="http://purl.org/dc/elements/1.1/"
   xmlns:cc="http://creativecommons.org/ns#"
   xmlns:rdf="http://www.w3.org/1999/02/22-rdf-syntax-ns#"
   xmlns:svg="http://www.w3.org/2000/svg"
   xmlns="http://www.w3.org/2000/svg"
   xmlns:sodipodi="http://sodipodi.sourceforge.net/DTD/sodipodi-0.dtd"
   xmlns:inkscape="http://www.inkscape.org/namespaces/inkscape"
   width="22"
   height="21.904217"
   overflow="hidden"
   version="1.1"
   id="svg15"
   sodipodi:docname="edit_metadata.svg"
   style="overflow:hidden"
   inkscape:version="0.92.4 (5da689c313, 2019-01-14)">
  <metadata
     id="metadata19">
    <rdf:RDF>
      <cc:Work
         rdf:about="">
        <dc:format>image/svg+xml</dc:format>
        <dc:type
           rdf:resource="http://purl.org/dc/dcmitype/StillImage" />
      </cc:Work>
    </rdf:RDF>
  </metadata>
  <sodipodi:namedview
     pagecolor="#ffffff"
     bordercolor="#666666"
     borderopacity="1"
     objecttolerance="10"
     gridtolerance="10"
     guidetolerance="10"
     inkscape:pageopacity="0"
     inkscape:pageshadow="2"
     inkscape:window-width="3840"
     inkscape:window-height="1973"
     id="namedview17"
     showgrid="false"
     inkscape:zoom="0.79194631"
     inkscape:cx="139.5"
     inkscape:cy="147"
     inkscape:window-x="-18"
     inkscape:window-y="-18"
     inkscape:window-maximized="1"
     inkscape:current-layer="svg15" />
  <defs
     id="defs5">
    <clipPath
       id="clip0">
      <path
         d="m 2154,1490 h 317 v 298 h -317 z"
         id="path2"
         inkscape:connector-curvature="0"
         style="clip-rule:evenodd;fill-rule:evenodd" />
    </clipPath>
  </defs>
  <g
     clip-path="url(#clip0)"
     transform="matrix(0.07425158,0,0,0.07425158,-161.34868,-110.70911)"
     id="g13">
    <path
       d="m 2305.26,1519.05 v 41.25 h 41.33 z M 2173,1491 h 132.26 l 72.74,72.6 v 19.32 h -19.84 v -2.82 h -72.74 v -69.3 h -92.58 v 224.4 h 82.66 V 1755 H 2173 Z"
       id="path7"
       inkscape:connector-curvature="0"
       style="fill:#4d4d4d;fill-rule:evenodd" />
    <text
       font-weight="700"
       font-stretch="condensed"
       font-size="75"
       transform="translate(2200.35,1637)"
       id="text9"
       style="font-weight:700;font-stretch:condensed;font-size:75px;font-family:'Agency FB', 'Agency FB_MSFontService', sans-serif;fill:#4d4d4d">&lt;/&gt;</text>
    <path
       d="m 2372,1723.24 c -18.83,0 -34.24,-15.41 -34.24,-34.24 0,-18.83 15.41,-34.24 34.24,-34.24 18.83,0 34.24,15.41 34.24,34.24 0,18.83 -15.41,34.24 -34.24,34.24 z m 77.03,-55.64 c -1.71,-6.27 -4.28,-12.26 -7.42,-17.69 l 7.13,-21.39 -16.26,-16.26 -21.39,7.13 c -5.71,-3.14 -11.7,-5.71 -17.98,-7.42 l -9.7,-19.97 h -22.82 l -9.99,19.97 c -6.27,1.71 -12.26,4.28 -17.69,7.42 l -21.39,-7.13 -16.26,16.26 7.13,21.39 c -3.14,5.71 -5.71,11.7 -7.42,17.98 l -19.97,9.7 v 22.82 l 19.97,9.99 c 1.71,6.27 4.28,12.26 7.42,17.69 l -7.13,21.39 16.26,16.26 21.39,-7.13 c 5.71,3.14 11.7,5.71 17.98,7.42 l 9.98,19.97 h 22.83 l 9.98,-19.97 c 6.28,-1.71 12.27,-4.28 17.69,-7.42 l 21.4,7.13 16.26,-16.26 -7.13,-21.39 c 3.14,-5.71 5.7,-11.7 7.41,-17.98 l 19.98,-9.98 v -22.83 z"
       id="path11"
       inkscape:connector-curvature="0"
       style="fill:#4d4d4d;fill-rule:evenodd" />
  </g>
</svg>
