<?xml version="1.0" encoding="UTF-8" standalone="no"?>
<svg
   xmlns:dc="http://purl.org/dc/elements/1.1/"
   xmlns:cc="http://creativecommons.org/ns#"
   xmlns:rdf="http://www.w3.org/1999/02/22-rdf-syntax-ns#"
   xmlns:svg="http://www.w3.org/2000/svg"
   xmlns="http://www.w3.org/2000/svg"
   xmlns:sodipodi="http://sodipodi.sourceforge.net/DTD/sodipodi-0.dtd"
   xmlns:inkscape="http://www.inkscape.org/namespaces/inkscape"
   width="21.999998"
   height="22.277159"
   overflow="hidden"
   version="1.1"
   id="svg13"
   sodipodi:docname="edit_model.svg"
   style="overflow:hidden"
   inkscape:version="0.92.4 (5da689c313, 2019-01-14)">
  <metadata
     id="metadata17">
    <rdf:RDF>
      <cc:Work
         rdf:about="">
        <dc:format>image/svg+xml</dc:format>
        <dc:type
           rdf:resource="http://purl.org/dc/dcmitype/StillImage" />
      </cc:Work>
    </rdf:RDF>
  </metadata>
  <sodipodi:namedview
     pagecolor="#ffffff"
     bordercolor="#666666"
     borderopacity="1"
     objecttolerance="10"
     gridtolerance="10"
     guidetolerance="10"
     inkscape:pageopacity="0"
     inkscape:pageshadow="2"
     inkscape:window-width="3840"
     inkscape:window-height="1973"
     id="namedview15"
     showgrid="false"
     inkscape:zoom="0.78405316"
     inkscape:cx="147.50001"
     inkscape:cy="149.49999"
     inkscape:window-x="-18"
     inkscape:window-y="-18"
     inkscape:window-maximized="1"
     inkscape:current-layer="svg13" />
  <defs
     id="defs5">
    <clipPath
       id="clip0">
      <path
         d="m 1633,1992 h 297 v 301 h -297 z"
         id="path2"
         inkscape:connector-curvature="0"
         style="clip-rule:evenodd;fill-rule:evenodd" />
    </clipPath>
  </defs>
  <g
     clip-path="url(#clip0)"
     transform="matrix(0.07450555,0,0,0.07450555,-121.74207,-148.48956)"
     id="g11">
    <path
       d="m 1833.5,2230.21 c -18.54,0 -33.71,-15.17 -33.71,-33.71 0,-18.54 15.17,-33.71 33.71,-33.71 18.54,0 33.71,15.17 33.71,33.71 0,18.54 -15.17,33.71 -33.71,33.71 z m 75.84,-54.78 c -1.69,-6.18 -4.21,-12.07 -7.3,-17.41 l 7.02,-21.07 -16.01,-16.01 -21.07,7.02 c -5.62,-3.08 -11.52,-5.61 -17.69,-7.3 l -9.55,-19.66 h -22.48 l -9.83,19.66 c -6.18,1.69 -12.07,4.22 -17.41,7.3 l -21.07,-7.02 -16.01,16.01 7.02,21.07 c -3.08,5.62 -5.61,11.52 -7.3,17.69 l -19.66,9.55 v 22.48 l 19.66,9.83 c 1.69,6.18 4.22,12.07 7.3,17.41 l -7.02,21.07 16.01,16.01 21.07,-7.02 c 5.62,3.09 11.52,5.61 17.69,7.3 l 9.84,19.66 h 22.47 l 9.83,-19.66 c 6.18,-1.69 12.08,-4.21 17.41,-7.3 l 21.07,7.02 16.01,-16.01 -7.02,-21.07 c 3.09,-5.62 5.61,-11.52 7.3,-17.69 l 19.66,-9.84 v -22.47 z"
       id="path7"
       inkscape:connector-curvature="0"
       style="fill:#4d4d4d;fill-rule:evenodd" />
    <path
       d="m 1704.96,2029.08 -34.95,35 34.95,35.01 34.94,-35.01 z m 0,-36.08 59.06,59.17 h 35.28 v -22.45 c 0,-10.03 8.12,-18.17 18.14,-18.17 h 93.42 c 10.02,0 18.14,8.14 18.14,18.17 v 72.68 c 0,5.02 -2.03,9.56 -5.31,12.85 l -5.16,3.49 -1.85,-2.25 c -5.1,-5.11 -10.69,-9.73 -16.68,-13.79 l -14.82,-8.06 h 8.06 c 3.87,0 7.01,-3.14 7.01,-7.01 v -43.13 c 0,-3.88 -3.14,-7.02 -7.01,-7.02 h -58.18 c -3.87,0 -7.01,3.14 -7.01,7.02 v 39.83 l -13.77,1.39 -14.98,4.66 v -8.66 h -41 l -38.59,38.67 v 27.59 h 15.83 l -2.38,4.39 -6.4,20.64 h -52.63 c -3.87,0 -7.01,3.14 -7.01,7.02 v 43.13 c 0,3.87 3.14,7.02 7.01,7.02 h 55.91 l 3.12,10.08 9.07,16.74 h -83.99 c -10.01,0 -18.14,-8.14 -18.14,-18.17 v -72.68 c 0,-10.04 8.13,-18.17 18.14,-18.17 h 31.97 v -27.59 L 1634,2064.08 Z"
       id="path9"
       inkscape:connector-curvature="0"
       style="fill:#4d4d4d;fill-rule:evenodd" />
  </g>
</svg>
