<?xml version="1.0" encoding="UTF-8" standalone="no"?>
<svg
   xmlns:dc="http://purl.org/dc/elements/1.1/"
   xmlns:cc="http://creativecommons.org/ns#"
   xmlns:rdf="http://www.w3.org/1999/02/22-rdf-syntax-ns#"
   xmlns:svg="http://www.w3.org/2000/svg"
   xmlns="http://www.w3.org/2000/svg"
   xmlns:sodipodi="http://sodipodi.sourceforge.net/DTD/sodipodi-0.dtd"
   xmlns:inkscape="http://www.inkscape.org/namespaces/inkscape"
   width="22"
   height="21.832197"
   overflow="hidden"
   version="1.1"
   id="svg15"
   sodipodi:docname="edit_metadata.svg"
   style="overflow:hidden"
   inkscape:version="0.92.4 (5da689c313, 2019-01-14)">
  <metadata
     id="metadata19">
    <rdf:RDF>
      <cc:Work
         rdf:about="">
        <dc:format>image/svg+xml</dc:format>
        <dc:type
           rdf:resource="http://purl.org/dc/dcmitype/StillImage" />
      </cc:Work>
    </rdf:RDF>
  </metadata>
  <sodipodi:namedview
     pagecolor="#ffffff"
     bordercolor="#666666"
     borderopacity="1"
     objecttolerance="10"
     gridtolerance="10"
     guidetolerance="10"
     inkscape:pageopacity="0"
     inkscape:pageshadow="2"
     inkscape:window-width="3840"
     inkscape:window-height="1973"
     id="namedview17"
     showgrid="false"
     inkscape:zoom="0.8"
     inkscape:cx="127"
     inkscape:cy="146.5"
     inkscape:window-x="-18"
     inkscape:window-y="-18"
     inkscape:window-maximized="1"
     inkscape:current-layer="svg15" />
  <defs
     id="defs5">
    <clipPath
       id="clip0">
      <path
         d="M 382,234 H 720 V 529 H 382 Z"
         id="path2"
         inkscape:connector-curvature="0"
         style="clip-rule:evenodd;fill-rule:evenodd" />
    </clipPath>
  </defs>
  <g
     clip-path="url(#clip0)"
     transform="matrix(0.07451262,0,0,0.07451262,-31.593351,-17.510466)"
     id="g13">
    <path
       d="M 424,235 H 555.613 L 628,307.6 v 35.885 h -13.776 l -5.966,11.968 V 324.1 H 535.871 V 254.8 H 443.742 V 479.2 H 556.81 l -5.223,15.715 4.073,4.085 H 424 Z m 131.613,28.05 v 41.25 h 41.129 z"
       id="path7"
       inkscape:connector-curvature="0"
       style="fill:#4d4d4d;fill-rule:evenodd" />
    <path
       d="m 633.5,473 c -16.597,0 -30.176,-13.5 -30.176,-30 0,-16.5 13.579,-30 30.176,-30 16.597,0 30.176,13.5 30.176,30 0,16.5 -13.579,30 -30.176,30 z m 67.897,-48.75 c -1.509,-5.5 -3.772,-10.75 -6.538,-15.5 L 701.146,390 686.812,375.75 667.952,382 c -5.03,-2.75 -10.311,-5 -15.843,-6.5 l -8.55,-17.5 h -20.118 l -8.801,17.5 c -5.533,1.5 -10.814,3.75 -15.591,6.5 l -18.861,-6.25 -14.333,14.25 6.286,18.75 c -2.766,5 -5.029,10.25 -6.538,15.75 L 548,433 v 20 l 17.603,8.75 c 1.509,5.5 3.772,10.75 6.538,15.5 l -6.286,18.75 14.333,14.25 18.861,-6.25 c 5.029,2.75 10.31,5 15.842,6.5 l 8.802,17.5 h 20.117 l 8.802,-17.5 c 5.532,-1.5 10.813,-3.75 15.591,-6.5 l 18.86,6.25 14.334,-14.25 -6.287,-18.75 c 2.766,-5 5.03,-10.25 6.539,-15.75 l 17.603,-8.75 v -20 z"
       id="path9"
       inkscape:connector-curvature="0"
       style="fill:#4d4d4d;fill-rule:evenodd" />
    <text
       font-weight="700"
       font-stretch="condensed"
       font-size="100"
       transform="translate(443.404,405)"
       id="text11"
       style="font-weight:700;font-stretch:condensed;font-size:100px;font-family:'Agency FB', 'Agency FB_MSFontService', sans-serif;fill:#4d4d4d">&lt;/&gt;</text>
  </g>
</svg>
