<?xml version="1.0" encoding="UTF-8" standalone="no"?>
<svg
   xmlns:dc="http://purl.org/dc/elements/1.1/"
   xmlns:cc="http://creativecommons.org/ns#"
   xmlns:rdf="http://www.w3.org/1999/02/22-rdf-syntax-ns#"
   xmlns:svg="http://www.w3.org/2000/svg"
   xmlns="http://www.w3.org/2000/svg"
   xmlns:sodipodi="http://sodipodi.sourceforge.net/DTD/sodipodi-0.dtd"
   xmlns:inkscape="http://www.inkscape.org/namespaces/inkscape"
   width="22.000002"
   height="21.951328"
   overflow="hidden"
   version="1.1"
   id="svg13"
   sodipodi:docname="download.svg"
   style="overflow:hidden"
   inkscape:version="0.92.4 (5da689c313, 2019-01-14)">
  <metadata
     id="metadata17">
    <rdf:RDF>
      <cc:Work
         rdf:about="">
        <dc:format>image/svg+xml</dc:format>
        <dc:type
           rdf:resource="http://purl.org/dc/dcmitype/StillImage" />
      </cc:Work>
    </rdf:RDF>
  </metadata>
  <sodipodi:namedview
     pagecolor="#ffffff"
     bordercolor="#666666"
     borderopacity="1"
     objecttolerance="10"
     gridtolerance="10"
     guidetolerance="10"
     inkscape:pageopacity="0"
     inkscape:pageshadow="2"
     inkscape:window-width="3840"
     inkscape:window-height="1973"
     id="namedview15"
     showgrid="false"
     inkscape:zoom="0.5209713"
     inkscape:cx="226"
     inkscape:cy="225.5"
     inkscape:window-x="-18"
     inkscape:window-y="-18"
     inkscape:window-maximized="1"
     inkscape:current-layer="svg13" />
  <defs
     id="defs5">
    <clipPath
       id="clip0">
      <path
         d="m 948,595 h 454 v 453 H 948 Z"
         id="path2"
         inkscape:connector-curvature="0"
         style="clip-rule:evenodd;fill-rule:evenodd" />
    </clipPath>
  </defs>
  <g
     clip-path="url(#clip0)"
     transform="matrix(0.04867257,0,0,0.04867257,-46.190269,-29.008852)"
     id="g11">
    <path
       d="m 949,596 h 452 v 451 H 949 Z"
       id="path7"
       inkscape:connector-curvature="0"
       style="fill:#000000;fill-opacity:0;fill-rule:evenodd" />
    <path
       d="m 1142.85,761.629 h 64.3 v 66.441 h 56.54 L 1175,916.659 1086.31,828.07 h 56.54 z M 1175,708.625 c -38.8,0 -73.83,21.446 -91.72,55.873 l -9.42,17.872 -20.15,2.069 c -38.23,3.951 -67.043,36.12 -67.043,74.686 0,41.576 33.713,75.25 75.333,75.25 h 244.83 c 31.08,0 56.5,-25.397 56.5,-56.437 0,-29.16 -22.97,-53.804 -52.35,-55.685 l -28.82,-2.07 -5.65,-28.219 c -9.6,-48.348 -52.17,-83.339 -101.51,-83.339 z M 1175,671 c 68.55,0 125.62,48.724 138.42,113.628 48.97,3.386 87.58,43.645 87.58,93.31 0,51.922 -42.19,94.062 -94.17,94.062 H 1062 C 999.662,972 949,921.394 949,859.125 949,800.994 993.07,753.023 1049.76,747.002 1073.3,701.852 1120.57,671 1175,671 Z"
       id="path9"
       inkscape:connector-curvature="0"
       style="fill:#4d4d4d;fill-rule:evenodd" />
  </g>
</svg>
