<?xml version="1.0" encoding="UTF-8" standalone="no"?>
<svg
   xmlns:dc="http://purl.org/dc/elements/1.1/"
   xmlns:cc="http://creativecommons.org/ns#"
   xmlns:rdf="http://www.w3.org/1999/02/22-rdf-syntax-ns#"
   xmlns:svg="http://www.w3.org/2000/svg"
   xmlns="http://www.w3.org/2000/svg"
   xmlns:sodipodi="http://sodipodi.sourceforge.net/DTD/sodipodi-0.dtd"
   xmlns:inkscape="http://www.inkscape.org/namespaces/inkscape"
   width="22"
   height="21.957998"
   overflow="hidden"
   version="1.1"
   id="svg13"
   sodipodi:docname="export.svg"
   style="overflow:hidden"
   inkscape:version="0.92.4 (5da689c313, 2019-01-14)">
  <metadata
     id="metadata17">
    <rdf:RDF>
      <cc:Work
         rdf:about="">
        <dc:format>image/svg+xml</dc:format>
        <dc:type
           rdf:resource="http://purl.org/dc/dcmitype/StillImage" />
      </cc:Work>
    </rdf:RDF>
  </metadata>
  <sodipodi:namedview
     pagecolor="#ffffff"
     bordercolor="#666666"
     borderopacity="1"
     objecttolerance="10"
     gridtolerance="10"
     guidetolerance="10"
     inkscape:pageopacity="0"
     inkscape:pageshadow="2"
     inkscape:window-width="3840"
     inkscape:window-height="1973"
     id="namedview15"
     showgrid="false"
     inkscape:zoom="0.78666667"
     inkscape:cx="149.50001"
     inkscape:cy="149"
     inkscape:window-x="-18"
     inkscape:window-y="-18"
     inkscape:window-maximized="1"
     inkscape:current-layer="svg13" />
  <defs
     id="defs5">
    <clipPath
       id="clip0">
      <path
         d="m 2026,1385 h 301 v 300 h -301 z"
         id="path2"
         inkscape:connector-curvature="0"
         style="clip-rule:evenodd;fill-rule:evenodd" />
    </clipPath>
  </defs>
  <g
     clip-path="url(#clip0)"
     transform="matrix(0.07368456,0,0,0.07368456,-149.3586,-102.1268)"
     id="g11">
    <rect
       x="2029"
       y="1387"
       width="295"
       height="296"
       stroke-miterlimit="8"
       id="rect7"
       style="fill:none;stroke:#ffffff;stroke-width:2;stroke-miterlimit:8" />
    <path
       d="m 2267.73,1515.23 c -8.46,-42.97 -46.16,-75.23 -91.44,-75.23 -35.96,0 -67.19,20.43 -82.74,50.32 -37.44,3.98 -66.55,35.74 -66.55,74.23 0,41.22 33.46,74.73 74.64,74.73 h 161.73 c 34.34,0 62.2,-27.9 62.2,-62.28 0,-32.88 -25.5,-59.53 -57.84,-61.77 z m -29.24,36.86 -62.2,62.28 -62.21,-62.28 h 37.33 v -49.82 h 49.75 v 49.82 z"
       id="path9"
       inkscape:connector-curvature="0"
       style="fill:#4d4d4d;fill-rule:evenodd" />
  </g>
</svg>
