<?xml version="1.0" encoding="UTF-8" standalone="no"?>
<svg
   xmlns:dc="http://purl.org/dc/elements/1.1/"
   xmlns:cc="http://creativecommons.org/ns#"
   xmlns:rdf="http://www.w3.org/1999/02/22-rdf-syntax-ns#"
   xmlns:svg="http://www.w3.org/2000/svg"
   xmlns="http://www.w3.org/2000/svg"
   xmlns:sodipodi="http://sodipodi.sourceforge.net/DTD/sodipodi-0.dtd"
   xmlns:inkscape="http://www.inkscape.org/namespaces/inkscape"
   width="21.999998"
   height="14.683601"
   overflow="hidden"
   version="1.1"
   id="svg11"
   sodipodi:docname="export.svg"
   style="overflow:hidden"
   inkscape:version="0.92.4 (5da689c313, 2019-01-14)">
  <metadata
     id="metadata15">
    <rdf:RDF>
      <cc:Work
         rdf:about="">
        <dc:format>image/svg+xml</dc:format>
        <dc:type
           rdf:resource="http://purl.org/dc/dcmitype/StillImage" />
      </cc:Work>
    </rdf:RDF>
  </metadata>
  <sodipodi:namedview
     pagecolor="#ffffff"
     bordercolor="#666666"
     borderopacity="1"
     objecttolerance="10"
     gridtolerance="10"
     guidetolerance="10"
     inkscape:pageopacity="0"
     inkscape:pageshadow="2"
     inkscape:window-width="3840"
     inkscape:window-height="1973"
     id="namedview13"
     showgrid="false"
     inkscape:zoom="0.81099656"
     inkscape:cx="216.50001"
     inkscape:cy="144.49999"
     inkscape:window-x="-18"
     inkscape:window-y="-18"
     inkscape:window-maximized="1"
     inkscape:current-layer="svg11" />
  <defs
     id="defs5">
    <clipPath
       id="clip0">
      <path
         d="m 1176,715 h 435 v 291 h -435 z"
         id="path2"
         inkscape:connector-curvature="0"
         style="clip-rule:evenodd;fill-rule:evenodd" />
    </clipPath>
  </defs>
  <g
     clip-path="url(#clip0)"
     transform="matrix(0.05080831,0,0,0.05080831,-59.801381,-36.37875)"
     id="g9">
    <path
       d="M 1526.11,825.098 C 1513.84,762.782 1459.17,716 1393.5,716 c -52.14,0 -97.43,29.622 -119.98,72.972 -54.3,5.781 -96.52,51.84 -96.52,107.653 0,59.787 48.53,108.375 108.25,108.375 h 234.54 c 49.8,0 90.21,-40.46 90.21,-90.312 0,-47.685 -36.99,-86.339 -83.89,-89.59 z m -42.4,53.465 -90.21,90.312 -90.21,-90.312 h 54.13 v -72.25 h 72.16 v 72.25 z"
       id="path7"
       inkscape:connector-curvature="0"
       style="fill:#4d4d4d;fill-rule:evenodd" />
  </g>
</svg>
