<?xml version="1.0" encoding="UTF-8" standalone="no"?>
<svg
   xmlns:dc="http://purl.org/dc/elements/1.1/"
   xmlns:cc="http://creativecommons.org/ns#"
   xmlns:rdf="http://www.w3.org/1999/02/22-rdf-syntax-ns#"
   xmlns:svg="http://www.w3.org/2000/svg"
   xmlns="http://www.w3.org/2000/svg"
   xmlns:sodipodi="http://sodipodi.sourceforge.net/DTD/sodipodi-0.dtd"
   xmlns:inkscape="http://www.inkscape.org/namespaces/inkscape"
   width="22"
   height="22.14966"
   overflow="hidden"
   version="1.1"
   id="svg13"
   sodipodi:docname="add_folder.svg"
   style="overflow:hidden"
   inkscape:version="0.92.4 (5da689c313, 2019-01-14)">
  <metadata
     id="metadata17">
    <rdf:RDF>
      <cc:Work
         rdf:about="">
        <dc:format>image/svg+xml</dc:format>
        <dc:type
           rdf:resource="http://purl.org/dc/dcmitype/StillImage" />
      </cc:Work>
    </rdf:RDF>
  </metadata>
  <sodipodi:namedview
     pagecolor="#ffffff"
     bordercolor="#666666"
     borderopacity="1"
     objecttolerance="10"
     gridtolerance="10"
     guidetolerance="10"
     inkscape:pageopacity="0"
     inkscape:pageshadow="2"
     inkscape:window-width="3840"
     inkscape:window-height="1973"
     id="namedview15"
     showgrid="false"
     inkscape:zoom="0.79194631"
     inkscape:cx="147"
     inkscape:cy="148"
     inkscape:window-x="-18"
     inkscape:window-y="-18"
     inkscape:window-maximized="1"
     inkscape:current-layer="svg13" />
  <defs
     id="defs5">
    <clipPath
       id="clip0">
      <path
         d="m 441,1562 h 296 v 298 H 441 Z"
         id="path2"
         inkscape:connector-curvature="0"
         style="clip-rule:evenodd;fill-rule:evenodd" />
    </clipPath>
  </defs>
  <g
     clip-path="url(#clip0)"
     transform="matrix(0.07482993,0,0,0.07482993,-33.074829,-116.95918)"
     id="g11">
    <path
       d="m 468.117,1576.48 c -4.696,0 -8.502,3.82 -8.502,8.53 v 8.53 h 34.009 v -8.53 c 0,-4.71 -3.806,-8.53 -8.502,-8.53 z M 459.373,1563 h 36.161 c 7.196,0 13.37,4.39 16.008,10.65 l 0.573,2.85 h 177.348 c 13.552,0 24.537,11.02 24.537,24.62 v 72.15 l -6.145,-5.09 -15.708,-8.55 v -45.02 H 463.853 v 152.86 h 67.166 l 1.843,18.33 1.607,5.2 h -67.497 c -13.551,0 -24.536,-11.02 -24.536,-24.62 v -165.26 l 0.279,-1.39 -0.715,-3.56 v -15.74 c 0,-9.63 7.778,-17.43 17.373,-17.43 z"
       id="path7"
       inkscape:connector-curvature="0"
       style="fill:#4d4d4d;fill-rule:evenodd" />
    <path
       d="m 625.794,1706.05 v 42.74 H 583.05 v 34.42 h 42.744 v 42.74 h 34.412 v -42.74 h 42.744 v -34.42 h -42.744 v -42.74 z M 643,1673 c 51.362,0 93,41.64 93,93 0,51.36 -41.638,93 -93,93 -51.362,0 -93,-41.64 -93,-93 0,-51.36 41.638,-93 93,-93 z"
       id="path9"
       inkscape:connector-curvature="0"
       style="fill:#4d4d4d;fill-rule:evenodd" />
  </g>
</svg>
