<?xml version="1.0" encoding="UTF-8" standalone="no"?>
<svg
   xmlns:dc="http://purl.org/dc/elements/1.1/"
   xmlns:cc="http://creativecommons.org/ns#"
   xmlns:rdf="http://www.w3.org/1999/02/22-rdf-syntax-ns#"
   xmlns:svg="http://www.w3.org/2000/svg"
   xmlns="http://www.w3.org/2000/svg"
   xmlns:sodipodi="http://sodipodi.sourceforge.net/DTD/sodipodi-0.dtd"
   xmlns:inkscape="http://www.inkscape.org/namespaces/inkscape"
   width="15.891891"
   height="15.999999"
   overflow="hidden"
   version="1.1"
   id="svg13"
   sodipodi:docname="add_folder.svg"
   style="overflow:hidden"
   inkscape:version="0.92.4 (5da689c313, 2019-01-14)">
  <metadata
     id="metadata17">
    <rdf:RDF>
      <cc:Work
         rdf:about="">
        <dc:format>image/svg+xml</dc:format>
        <dc:type
           rdf:resource="http://purl.org/dc/dcmitype/StillImage" />
      </cc:Work>
    </rdf:RDF>
  </metadata>
  <sodipodi:namedview
     pagecolor="#ffffff"
     bordercolor="#666666"
     borderopacity="1"
     objecttolerance="10"
     gridtolerance="10"
     guidetolerance="10"
     inkscape:pageopacity="0"
     inkscape:pageshadow="2"
     inkscape:window-width="3840"
     inkscape:window-height="1973"
     id="namedview15"
     showgrid="false"
     inkscape:zoom="0.79194631"
     inkscape:cx="147"
     inkscape:cy="147.99999"
     inkscape:window-x="-18"
     inkscape:window-y="-18"
     inkscape:window-maximized="1"
     inkscape:current-layer="svg13" />
  <defs
     id="defs5">
    <clipPath
       id="clip0">
      <path
         d="m 512,758 h 296 v 298 H 512 Z"
         id="path2"
         inkscape:connector-curvature="0"
         style="clip-rule:evenodd;fill-rule:evenodd" />
    </clipPath>
  </defs>
  <g
     clip-path="url(#clip0)"
     transform="matrix(0.05405405,0,0,0.05405405,-27.729728,-41.027024)"
     id="g11">
    <path
       d="m 527.324,759 h 67.325 c 2.865,0 5.729,0.718 7.878,2.513 l 39.392,26.201 h 121.757 c 7.878,0 14.324,6.461 14.324,14.358 v 100.41 l -8.369,-6.921 c -13.703,-9.279 -30.222,-14.697 -48.005,-14.697 -41.491,0 -76.108,29.499 -84.114,68.713 L 636.464,960 H 527.324 C 519.446,960 513,953.539 513,945.643 V 773.357 C 513,765.461 519.446,759 527.324,759 Z"
       id="path7"
       inkscape:connector-curvature="0"
       style="fill:#4d4d4d;fill-rule:evenodd" />
    <path
       d="m 696.794,902.05 v 42.744 H 654.05 v 34.412 h 42.744 v 42.744 h 34.412 V 979.206 H 773.95 V 944.794 H 731.206 V 902.05 Z M 714,869 c 51.362,0 93,41.638 93,93 0,51.36 -41.638,93 -93,93 -51.362,0 -93,-41.64 -93,-93 0,-51.362 41.638,-93 93,-93 z"
       id="path9"
       inkscape:connector-curvature="0"
       style="fill:#70ad47;fill-rule:evenodd" />
  </g>
</svg>
