<?xml version="1.0" encoding="UTF-8" standalone="no"?>
<svg
   xmlns:dc="http://purl.org/dc/elements/1.1/"
   xmlns:cc="http://creativecommons.org/ns#"
   xmlns:rdf="http://www.w3.org/1999/02/22-rdf-syntax-ns#"
   xmlns:svg="http://www.w3.org/2000/svg"
   xmlns="http://www.w3.org/2000/svg"
   xmlns:sodipodi="http://sodipodi.sourceforge.net/DTD/sodipodi-0.dtd"
   xmlns:inkscape="http://www.inkscape.org/namespaces/inkscape"
   width="22"
   height="21.952789"
   overflow="hidden"
   version="1.1"
   id="svg13"
   sodipodi:docname="upload.svg"
   style="overflow:hidden"
   inkscape:version="0.92.4 (5da689c313, 2019-01-14)">
  <metadata
     id="metadata17">
    <rdf:RDF>
      <cc:Work
         rdf:about="">
        <dc:format>image/svg+xml</dc:format>
        <dc:type
           rdf:resource="http://purl.org/dc/dcmitype/StillImage" />
      </cc:Work>
    </rdf:RDF>
  </metadata>
  <sodipodi:namedview
     pagecolor="#ffffff"
     bordercolor="#666666"
     borderopacity="1"
     objecttolerance="10"
     gridtolerance="10"
     guidetolerance="10"
     inkscape:pageopacity="0"
     inkscape:pageshadow="2"
     inkscape:window-width="3840"
     inkscape:window-height="1973"
     id="namedview15"
     showgrid="false"
     inkscape:zoom="0.5042735"
     inkscape:cx="233"
     inkscape:cy="233"
     inkscape:window-x="-18"
     inkscape:window-y="-18"
     inkscape:window-maximized="1"
     inkscape:current-layer="svg13" />
  <defs
     id="defs5">
    <clipPath
       id="clip0">
      <path
         d="m 1491,579 h 468 v 468 h -468 z"
         id="path2"
         inkscape:connector-curvature="0"
         style="clip-rule:evenodd;fill-rule:evenodd" />
    </clipPath>
  </defs>
  <g
     clip-path="url(#clip0)"
     transform="matrix(0.0472103,0,0,0.0472103,-70.437768,-27.429184)"
     id="g11">
    <path
       d="m 1492,581 h 466 v 465 h -466 z"
       id="path7"
       inkscape:connector-curvature="0"
       style="fill:#000000;fill-opacity:0;fill-rule:evenodd" />
    <path
       d="m 1727.51,735.822 88.68,88.775 h -56.53 v 66.581 h -64.29 v -66.581 h -56.54 z M 1725,696.875 c -40,0 -76.11,22.159 -94.56,57.729 l -9.71,18.466 -20.77,2.138 c -39.42,4.082 -69.13,37.32 -69.13,77.167 0,42.957 34.76,77.75 77.67,77.75 h 252.42 c 32.03,0 58.25,-26.241 58.25,-58.312 0,-30.129 -23.69,-55.592 -53.98,-57.535 l -29.71,-2.139 -5.82,-29.156 C 1819.75,733.029 1775.87,696.875 1725,696.875 Z M 1725,658 c 70.68,0 129.51,50.343 142.71,117.403 50.49,3.498 90.29,45.095 90.29,96.41 0,53.647 -43.49,97.187 -97.08,97.187 H 1608.5 C 1544.23,969 1492,916.713 1492,852.375 1492,792.313 1537.44,742.748 1595.88,736.528 1620.15,689.878 1668.89,658 1725,658 Z"
       id="path9"
       inkscape:connector-curvature="0"
       style="fill:#4d4d4d;fill-rule:evenodd" />
  </g>
</svg>
