<?xml version="1.0" encoding="UTF-8" standalone="no"?>
<svg
   xmlns:dc="http://purl.org/dc/elements/1.1/"
   xmlns:cc="http://creativecommons.org/ns#"
   xmlns:rdf="http://www.w3.org/1999/02/22-rdf-syntax-ns#"
   xmlns:svg="http://www.w3.org/2000/svg"
   xmlns="http://www.w3.org/2000/svg"
   xmlns:sodipodi="http://sodipodi.sourceforge.net/DTD/sodipodi-0.dtd"
   xmlns:inkscape="http://www.inkscape.org/namespaces/inkscape"
   width="21.999998"
   height="22.074074"
   overflow="hidden"
   version="1.1"
   id="svg13"
   sodipodi:docname="import.svg"
   style="overflow:hidden"
   inkscape:version="0.92.4 (5da689c313, 2019-01-14)">
  <metadata
     id="metadata17">
    <rdf:RDF>
      <cc:Work
         rdf:about="">
        <dc:format>image/svg+xml</dc:format>
        <dc:type
           rdf:resource="http://purl.org/dc/dcmitype/StillImage" />
      </cc:Work>
    </rdf:RDF>
  </metadata>
  <sodipodi:namedview
     pagecolor="#ffffff"
     bordercolor="#666666"
     borderopacity="1"
     objecttolerance="10"
     gridtolerance="10"
     guidetolerance="10"
     inkscape:pageopacity="0"
     inkscape:pageshadow="2"
     inkscape:window-width="3840"
     inkscape:window-height="1973"
     id="namedview15"
     showgrid="false"
     inkscape:zoom="0.78666667"
     inkscape:cx="148.00001"
     inkscape:cy="148.99999"
     inkscape:window-x="-18"
     inkscape:window-y="-18"
     inkscape:window-maximized="1"
     inkscape:current-layer="svg13" />
  <defs
     id="defs5">
    <clipPath
       id="clip0">
      <path
         d="m 2274,1048 h 300 v 300 h -300 z"
         id="path2"
         inkscape:connector-curvature="0"
         style="clip-rule:evenodd;fill-rule:evenodd" />
    </clipPath>
  </defs>
  <g
     clip-path="url(#clip0)"
     transform="matrix(0.07407407,0,0,0.07407407,-168.59258,-77.703699)"
     id="g11">
    <rect
       x="2277"
       y="1050"
       width="295"
       height="296"
       stroke-miterlimit="8"
       id="rect7"
       style="fill:none;stroke:#ffffff;stroke-width:2;stroke-miterlimit:8" />
    <path
       d="m 2515.84,1173.01 c -8.35,-43.99 -45.6,-77.01 -90.34,-77.01 -35.52,0 -66.37,20.91 -81.74,51.51 -37,4.08 -65.76,36.59 -65.76,75.99 0,42.2 33.06,76.5 73.75,76.5 h 159.79 c 33.93,0 61.46,-28.56 61.46,-63.75 0,-33.66 -25.2,-60.95 -57.16,-63.24 z m -65.76,37.74 v 51 h -49.16 v -51 h -36.88 l 61.46,-63.75 61.46,63.75 z"
       id="path9"
       inkscape:connector-curvature="0"
       style="fill:#4d4d4d;fill-rule:evenodd" />
  </g>
</svg>
