<?xml version="1.0" encoding="UTF-8" standalone="no"?>
<svg
   xmlns:dc="http://purl.org/dc/elements/1.1/"
   xmlns:cc="http://creativecommons.org/ns#"
   xmlns:rdf="http://www.w3.org/1999/02/22-rdf-syntax-ns#"
   xmlns:svg="http://www.w3.org/2000/svg"
   xmlns="http://www.w3.org/2000/svg"
   xmlns:sodipodi="http://sodipodi.sourceforge.net/DTD/sodipodi-0.dtd"
   xmlns:inkscape="http://www.inkscape.org/namespaces/inkscape"
   width="21.999998"
   height="21.979137"
   overflow="hidden"
   version="1.1"
   id="svg11"
   sodipodi:docname="reload_data.svg"
   style="overflow:hidden"
   inkscape:version="0.92.4 (5da689c313, 2019-01-14)">
  <metadata
     id="metadata15">
    <rdf:RDF>
      <cc:Work
         rdf:about="">
        <dc:format>image/svg+xml</dc:format>
        <dc:type
           rdf:resource="http://purl.org/dc/dcmitype/StillImage" />
      </cc:Work>
    </rdf:RDF>
  </metadata>
  <sodipodi:namedview
     pagecolor="#ffffff"
     bordercolor="#666666"
     borderopacity="1"
     objecttolerance="10"
     gridtolerance="10"
     guidetolerance="10"
     inkscape:pageopacity="0"
     inkscape:pageshadow="2"
     inkscape:window-width="3840"
     inkscape:window-height="1973"
     id="namedview13"
     showgrid="false"
     inkscape:zoom="0.79461279"
     inkscape:cx="147.50001"
     inkscape:cy="147.49999"
     inkscape:window-x="-18"
     inkscape:window-y="-18"
     inkscape:window-maximized="1"
     inkscape:current-layer="svg11" />
  <defs
     id="defs5">
    <clipPath
       id="clip0">
      <path
         d="m 1771,2030 h 297 v 297 h -297 z"
         id="path2"
         inkscape:connector-curvature="0"
         style="clip-rule:evenodd;fill-rule:evenodd" />
    </clipPath>
  </defs>
  <g
     clip-path="url(#clip0)"
     transform="matrix(0.07450555,0,0,0.07450555,-132.02383,-151.32077)"
     id="g9">
    <path
       d="m 2023.89,2074.33 c -26.78,-26.74 -63.53,-43.33 -104.34,-43.33 -81.62,0 -147.55,66.01 -147.55,147.5 0,81.49 65.93,147.5 147.55,147.5 68.88,0 126.31,-47.02 142.75,-110.62 h -38.41 c -15.15,42.95 -56.14,73.75 -104.34,73.75 -61.13,0 -110.8,-49.6 -110.8,-110.63 0,-61.03 49.67,-110.62 110.8,-110.62 30.65,0 57.98,12.72 77.93,32.81 l -59.46,59.37 h 129.26 V 2031 Z"
       id="path7"
       inkscape:connector-curvature="0"
       style="fill:#4d4d4d;fill-rule:evenodd" />
  </g>
</svg>
