<?xml version="1.0" encoding="UTF-8" standalone="no"?>
<svg
   xmlns:dc="http://purl.org/dc/elements/1.1/"
   xmlns:cc="http://creativecommons.org/ns#"
   xmlns:rdf="http://www.w3.org/1999/02/22-rdf-syntax-ns#"
   xmlns:svg="http://www.w3.org/2000/svg"
   xmlns="http://www.w3.org/2000/svg"
   xmlns:sodipodi="http://sodipodi.sourceforge.net/DTD/sodipodi-0.dtd"
   xmlns:inkscape="http://www.inkscape.org/namespaces/inkscape"
   width="16"
   height="16"
   overflow="hidden"
   version="1.1"
   id="svg11"
   sodipodi:docname="reload.svg"
   style="overflow:hidden"
   inkscape:version="0.92.4 (5da689c313, 2019-01-14)">
  <metadata
     id="metadata15">
    <rdf:RDF>
      <cc:Work
         rdf:about="">
        <dc:format>image/svg+xml</dc:format>
        <dc:type
           rdf:resource="http://purl.org/dc/dcmitype/StillImage" />
      </cc:Work>
    </rdf:RDF>
  </metadata>
  <sodipodi:namedview
     pagecolor="#ffffff"
     bordercolor="#666666"
     borderopacity="1"
     objecttolerance="10"
     gridtolerance="10"
     guidetolerance="10"
     inkscape:pageopacity="0"
     inkscape:pageshadow="2"
     inkscape:window-width="3840"
     inkscape:window-height="1973"
     id="namedview13"
     showgrid="false"
     inkscape:zoom="0.79461279"
     inkscape:cx="147.5"
     inkscape:cy="147.5"
     inkscape:window-x="-18"
     inkscape:window-y="-18"
     inkscape:window-maximized="1"
     inkscape:current-layer="svg11" />
  <defs
     id="defs5">
    <clipPath
       id="clip0">
      <path
         d="m 1391,762 h 297 v 297 h -297 z"
         id="path2"
         inkscape:connector-curvature="0"
         style="clip-rule:evenodd;fill-rule:evenodd" />
    </clipPath>
  </defs>
  <g
     clip-path="url(#clip0)"
     transform="matrix(0.05423729,0,0,0.05423729,-75.498308,-41.383052)"
     id="g9">
    <path
       d="m 1547.93,803.749 c -59,0 -106.75,47.757 -106.75,106.751 0,58.994 47.75,106.75 106.75,106.75 29.49,0 56.18,-12.08 75.57,-31.182 l -23.88,-23.878 c -13.21,13.203 -31.47,21.35 -51.69,21.35 -40.17,0 -73.04,-32.868 -73.04,-73.04 0,-40.172 32.87,-73.04 73.04,-73.04 17.98,0 34.55,6.461 47.19,17.417 l -16.29,16.294 h 58.99 V 812.177 L 1619,830.999 c -18.82,-16.855 -43.82,-27.25 -71.07,-27.25 z M 1539.5,763 c 81.46,0 147.5,66.038 147.5,147.5 0,81.462 -66.04,147.5 -147.5,147.5 -81.46,0 -147.5,-66.038 -147.5,-147.5 0,-81.462 66.04,-147.5 147.5,-147.5 z"
       id="path7"
       inkscape:connector-curvature="0"
       style="fill:#4d4d4d;fill-rule:evenodd" />
  </g>
</svg>
