<?xml version="1.0" encoding="UTF-8" standalone="no"?>
<svg
   xmlns:dc="http://purl.org/dc/elements/1.1/"
   xmlns:cc="http://creativecommons.org/ns#"
   xmlns:rdf="http://www.w3.org/1999/02/22-rdf-syntax-ns#"
   xmlns:svg="http://www.w3.org/2000/svg"
   xmlns="http://www.w3.org/2000/svg"
   xmlns:sodipodi="http://sodipodi.sourceforge.net/DTD/sodipodi-0.dtd"
   xmlns:inkscape="http://www.inkscape.org/namespaces/inkscape"
   width="22"
   height="22.074575"
   overflow="hidden"
   version="1.1"
   id="svg19"
   sodipodi:docname="rename.svg"
   style="overflow:hidden"
   inkscape:version="0.92.4 (5da689c313, 2019-01-14)">
  <metadata
     id="metadata23">
    <rdf:RDF>
      <cc:Work
         rdf:about="">
        <dc:format>image/svg+xml</dc:format>
        <dc:type
           rdf:resource="http://purl.org/dc/dcmitype/StillImage" />
      </cc:Work>
    </rdf:RDF>
  </metadata>
  <sodipodi:namedview
     pagecolor="#ffffff"
     bordercolor="#666666"
     borderopacity="1"
     objecttolerance="10"
     gridtolerance="10"
     guidetolerance="10"
     inkscape:pageopacity="0"
     inkscape:pageshadow="2"
     inkscape:window-width="3840"
     inkscape:window-height="1973"
     id="namedview21"
     showgrid="false"
     inkscape:zoom="0.79194631"
     inkscape:cx="147.5"
     inkscape:cy="148"
     inkscape:window-x="-18"
     inkscape:window-y="-18"
     inkscape:window-maximized="1"
     inkscape:current-layer="svg19" />
  <defs
     id="defs5">
    <clipPath
       id="clip0">
      <path
         d="m 102,1617 h 297 v 298 H 102 Z"
         id="path2"
         inkscape:connector-curvature="0"
         style="clip-rule:evenodd;fill-rule:evenodd" />
    </clipPath>
  </defs>
  <g
     clip-path="url(#clip0)"
     transform="matrix(0.07457627,0,0,0.07457627,-7.6813558,-120.6644)"
     id="g17">
    <path
       d="m 163.076,1707.41 c -17.553,0 -31.783,14.27 -31.783,31.86 v 61.46 c 0,17.59 14.23,31.86 31.783,31.86 h 174.848 c 17.553,0 31.783,-14.27 31.783,-31.86 v -61.46 c 0,-17.59 -14.23,-31.86 -31.783,-31.86 z M 151.945,1682 h 197.11 c 27.032,0 48.945,21.96 48.945,49.06 v 77.88 c 0,27.1 -21.913,49.06 -48.945,49.06 H 151.945 C 124.913,1858 103,1836.04 103,1808.94 v -77.88 c 0,-27.1 21.913,-49.06 48.945,-49.06 z"
       id="path7"
       inkscape:connector-curvature="0"
       style="fill:#4d4d4d;fill-rule:evenodd" />
    <path
       d="m 158,1757.96 c 0,-14.89 12.068,-26.96 26.955,-26.96 h 39.09 c 14.887,0 26.955,12.07 26.955,26.96 v 23.08 c 0,14.89 -12.068,26.96 -26.955,26.96 h -39.09 C 170.068,1808 158,1795.93 158,1781.04 Z"
       id="path9"
       inkscape:connector-curvature="0"
       style="fill:#4d4d4d;fill-rule:evenodd" />
    <rect
       x="251"
       y="1618"
       width="104"
       height="29"
       id="rect11"
       style="fill:#4d4d4d" />
    <rect
       x="251"
       y="1886"
       width="104"
       height="28"
       id="rect13"
       style="fill:#4d4d4d" />
    <rect
       x="289"
       y="1633"
       width="28"
       height="261"
       id="rect15"
       style="fill:#4d4d4d" />
  </g>
</svg>
