<?xml version="1.0" encoding="UTF-8" standalone="no"?>
<svg
   xmlns:dc="http://purl.org/dc/elements/1.1/"
   xmlns:cc="http://creativecommons.org/ns#"
   xmlns:rdf="http://www.w3.org/1999/02/22-rdf-syntax-ns#"
   xmlns:svg="http://www.w3.org/2000/svg"
   xmlns="http://www.w3.org/2000/svg"
   xmlns:sodipodi="http://sodipodi.sourceforge.net/DTD/sodipodi-0.dtd"
   xmlns:inkscape="http://www.inkscape.org/namespaces/inkscape"
   width="22"
   height="22"
   overflow="hidden"
   version="1.1"
   id="svg11"
   sodipodi:docname="search.svg"
   style="overflow:hidden"
   inkscape:version="0.92.4 (5da689c313, 2019-01-14)">
  <metadata
     id="metadata15">
    <rdf:RDF>
      <cc:Work
         rdf:about="">
        <dc:format>image/svg+xml</dc:format>
        <dc:type
           rdf:resource="http://purl.org/dc/dcmitype/StillImage" />
      </cc:Work>
    </rdf:RDF>
  </metadata>
  <sodipodi:namedview
     pagecolor="#ffffff"
     bordercolor="#666666"
     borderopacity="1"
     objecttolerance="10"
     gridtolerance="10"
     guidetolerance="10"
     inkscape:pageopacity="0"
     inkscape:pageshadow="2"
     inkscape:window-width="3840"
     inkscape:window-height="1973"
     id="namedview13"
     showgrid="false"
     inkscape:zoom="0.79461279"
     inkscape:cx="147.99999"
     inkscape:cy="147.77001"
     inkscape:window-x="-18"
     inkscape:window-y="-18"
     inkscape:window-maximized="1"
     inkscape:current-layer="svg11" />
  <defs
     id="defs5">
    <clipPath
       id="clip0">
      <path
         d="m 2495,2373 h 298 v 297 h -298 z"
         id="path2"
         inkscape:connector-curvature="0"
         style="clip-rule:evenodd;fill-rule:evenodd" />
    </clipPath>
  </defs>
  <g
     clip-path="url(#clip0)"
     transform="matrix(0.07450808,0,0,0.07450808,-185.97217,-176.88218)"
     id="g9">
    <path
       d="m 2707.03,2559.71 h -13.34 l -4.72,-4.56 c 16.54,-19.25 26.5,-44.23 26.5,-71.41 0,-60.61 -49.13,-109.74 -109.73,-109.74 -60.61,0 -109.74,49.13 -109.74,109.74 0,60.6 49.13,109.73 109.74,109.73 27.18,0 52.16,-9.96 71.41,-26.5 l 4.56,4.72 v 13.34 l 84.41,84.24 25.15,-25.15 z m -101.29,0 c -42.04,0 -75.98,-33.94 -75.98,-75.97 0,-42.04 33.94,-75.98 75.98,-75.98 42.03,0 75.97,33.94 75.97,75.98 0,42.03 -33.94,75.97 -75.97,75.97 z"
       id="path7"
       inkscape:connector-curvature="0"
       style="fill:#4d4d4d;fill-rule:evenodd" />
  </g>
</svg>
