<?xml version="1.0" encoding="UTF-8" standalone="no"?>
<svg
   xmlns:dc="http://purl.org/dc/elements/1.1/"
   xmlns:cc="http://creativecommons.org/ns#"
   xmlns:rdf="http://www.w3.org/1999/02/22-rdf-syntax-ns#"
   xmlns:svg="http://www.w3.org/2000/svg"
   xmlns="http://www.w3.org/2000/svg"
   xmlns:sodipodi="http://sodipodi.sourceforge.net/DTD/sodipodi-0.dtd"
   xmlns:inkscape="http://www.inkscape.org/namespaces/inkscape"
   width="16.648647"
   height="21.999998"
   overflow="hidden"
   version="1.1"
   id="svg11"
   sodipodi:docname="security.svg"
   style="overflow:hidden"
   inkscape:version="0.92.4 (5da689c313, 2019-01-14)">
  <metadata
     id="metadata15">
    <rdf:RDF>
      <cc:Work
         rdf:about="">
        <dc:format>image/svg+xml</dc:format>
        <dc:type
           rdf:resource="http://purl.org/dc/dcmitype/StillImage" />
      </cc:Work>
    </rdf:RDF>
  </metadata>
  <sodipodi:namedview
     pagecolor="#ffffff"
     bordercolor="#666666"
     borderopacity="1"
     objecttolerance="10"
     gridtolerance="10"
     guidetolerance="10"
     inkscape:pageopacity="0"
     inkscape:pageshadow="2"
     inkscape:window-width="3840"
     inkscape:window-height="1973"
     id="namedview13"
     showgrid="false"
     inkscape:zoom="0.79194631"
     inkscape:cx="112"
     inkscape:cy="148"
     inkscape:window-x="-18"
     inkscape:window-y="-18"
     inkscape:window-maximized="1"
     inkscape:current-layer="svg11" />
  <defs
     id="defs5">
    <clipPath
       id="clip0">
      <path
         d="m 781,223 h 226 V 521 H 781 Z"
         id="path2"
         inkscape:connector-curvature="0"
         style="clip-rule:evenodd;fill-rule:evenodd" />
    </clipPath>
  </defs>
  <g
     clip-path="url(#clip0)"
     transform="matrix(0.07432432,0,0,0.07432432,-58.121618,-16.648648)"
     id="g9">
    <path
       d="m 902,457.962 v 21.49 h -16 v -21.49 c -9.2,-3.244 -16,-12.165 -16,-23.113 0,-13.38 10.8,-24.328 24,-24.328 13.2,0 24,10.948 24,24.328 0,10.543 -6.8,19.463 -16,23.113 z M 834,309.151 c 0,-33.655 26.8,-60.822 60,-60.822 33.2,0 60,27.167 60,60.822 v 45.008 l -60,-4.46 -60,4.46 z m 144,46.63 v -46.63 C 978,262.115 940.4,224 894,224 c -46.4,0 -84,38.115 -84,85.151 v 46.63 l -28,2.027 V 511.89 l 112,8.11 112,-8.11 V 357.808 Z"
       id="path7"
       inkscape:connector-curvature="0"
       style="fill:#4d4d4d;fill-rule:evenodd" />
  </g>
</svg>
