<?xml version="1.0" encoding="UTF-8" standalone="no"?>
<svg
   xmlns="http://www.w3.org/2000/svg"
   xmlns:svg="http://www.w3.org/2000/svg"
   xmlns:oryx="http://www.b3mn.org/oryx"
   xmlns:xlink="http://www.w3.org/1999/xlink"
   width="100"
   height="80"
   version="1.0">
  <defs></defs>
  <oryx:magnets>
  	<oryx:magnet oryx:cx="1" oryx:cy="20" oryx:anchors="left" />
  	<oryx:magnet oryx:cx="1" oryx:cy="40" oryx:anchors="left" />
  	<oryx:magnet oryx:cx="1" oryx:cy="60" oryx:anchors="left" />
  	
  	<oryx:magnet oryx:cx="25" oryx:cy="79" oryx:anchors="bottom" />
  	<oryx:magnet oryx:cx="50" oryx:cy="79" oryx:anchors="bottom" />
  	<oryx:magnet oryx:cx="75" oryx:cy="79" oryx:anchors="bottom" />
  	
  	<oryx:magnet oryx:cx="99" oryx:cy="20" oryx:anchors="right" />
  	<oryx:magnet oryx:cx="99" oryx:cy="40" oryx:anchors="right" />
  	<oryx:magnet oryx:cx="99" oryx:cy="60" oryx:anchors="right" />
  	
  	<oryx:magnet oryx:cx="25" oryx:cy="1" oryx:anchors="top" />
  	<oryx:magnet oryx:cx="50" oryx:cy="1" oryx:anchors="top" />
  	<oryx:magnet oryx:cx="75" oryx:cy="1" oryx:anchors="top" />
  	
  	<oryx:magnet oryx:cx="50" oryx:cy="40" oryx:default="yes" />
  </oryx:magnets>
  <g pointer-events="fill" oryx:minimumSize="80 60">
  	<defs>
		<radialGradient id="background" cx="10%" cy="10%" r="100%" fx="10%" fy="10%">
			<stop offset="0%" stop-color="#ffffff" stop-opacity="1"/>
			<stop id="fill_el" offset="100%" stop-color="#ffffcc" stop-opacity="1"/>
		</radialGradient>
	</defs>
	
	<rect id="text_frame" oryx:anchors="bottom top right left" x="1" y="1" width="94" height="79" rx="10" ry="10" stroke="none" stroke-width="0" fill="none" />
	<rect id="bg_frame" oryx:anchors="bottom top right left" x="0" y="0" width="100" height="80" rx="10" ry="10" stroke="black" stroke-width="1" fill="url(#background) #ffffcc" />
    <rect id="callActivity" oryx:resize="vertical horizontal" oryx:anchors="bottom top right left" x="0" y="0" width="100" height="80" rx="10" ry="10" stroke="black" stroke-width="4" fill="none" />
	<rect id="border" oryx:anchors="top bottom left right" oryx:resize="vertical horizontal" x="2.5" y="2.5" width="95" height="75" rx="8" ry="8" stroke="black" stroke-width="1" fill="none" />
    	<text 
			font-size="12"
			id="text_name" 
			x="50" 
			y="40" 
			oryx:align="middle center"
			oryx:fittoelem="text_frame"
			stroke="black">
		</text>
    	
 	
	 	<g 	id="b" 
			oryx:anchors="bottom"
			transform="translate(1)">
			
		 	<rect id="plusborder" oryx:anchors="bottom" x="43" y="66" width="14" height="14" fill="none" stroke="black" stroke-width="1" />
			<path id="plus" oryx:anchors="bottom" fill="none" stroke="black" d="M50 68 v10 M 45 73 h10" stroke-width="1"/>
		
		</g>
	
	<g id="none"></g>
	<g id="loop">
		<path
	        oryx:anchors="bottom"
	        stroke="black"
	       	style="opacity:1;fill:none;fill-opacity:1;stroke-width:1.5;stroke-linecap:round;stroke-linejoin:round;stroke-miterlimit:2.0999999;stroke-dasharray:none;stroke-opacity:1"
	        id="path2396"
	        d="M 49.5,72 L 49.5,75 L 46.5,75 M 49.5,75 A 4.875,4.875 0 1 1 53.5,75"
			transform="translate(-15.5)"
	         />
	</g>
	

	<g id="parallel">
		<path id="parallelpath" oryx:anchors="bottom" fill="none" stroke="black" d="M46 65 v10 M50 65 v10 M54 65 v10" stroke-width="2" transform="translate(-14)" />
	</g>
	<g id="sequential">
		<path id="sequentialpath" oryx:anchors="bottom" fill="none" stroke="#000000" stroke-width="2" d="M45,67 h10 M45,71 h10 M45,75 h10" transform="translate(-14)"/>
	</g>
	
	
	<g id="adhoc" transform="translate(16)">
		<path
			id="adhocpath"
			d="m 55,70 0,2.0343 c -0.54305,0.60192 -1.04853,1.0324 -1.51647,1.29142 -0.46216,0.25908 -0.94744,0.38857 -1.4558,0.38857 -0.57194,0 -1.23628,-0.22473 -1.99307,-0.67428 -0.0577,-0.0306 -0.10111,-0.0534 -0.12999,-0.0687 -0.0346,-0.0228 -0.0896,-0.0533 -0.16464,-0.0915 -0.80878,-0.47234 -1.4558,-0.70857 -1.94107,-0.70857 -0.46217,0 -0.91566,0.14858 -1.36047,0.44576 -0.44485,0.2895 -0.92434,0.75046 -1.43849,1.38285 l 0,-2.03429 c 0.54881,-0.60194 1.05431,-1.0324 1.51647,-1.29147 0.46793,-0.26666 0.9532,-0.39999 1.45581,-0.39999 0.57191,0 1.24205,0.22856 2.01039,0.68574 0.0461,0.0308 0.0838,0.0533 0.11266,0.0687 0.0404,0.0228 0.0982,0.0533 0.1733,0.0913 0.803,0.4724 1.45002,0.70861 1.94108,0.70857 0.44481,4e-5 0.88676,-0.14475 1.32581,-0.43429 0.43905,-0.2895 0.9272,-0.75425 1.46448,-1.39428"
			oryx:anchors="bottom"
			stroke="#000000" 
			fill="black"
			stroke-width="1"
		/>
	</g>
	<g id="compensation">
		<path id="compensationpath" oryx:anchors="bottom" fill="none" stroke="black" d="M 50 70 L 55 65 L 55 75z M44.7 70 L49.7 75 L 49.7 65z" stroke-width="1"
		transform="translate(-27,0)" />
	</g>
  </g>
</svg>