<svg xmlns="http://www.w3.org/2000/svg" viewBox="0 0 512 512" x="0" y="0" aria-hidden="true" focusable="false" role="img"><path d="M36.1,275.07a24,24,0,0,0,24-23.73A192.06,192.06,0,0,1,347.84,87.05a193.24,193.24,0,0,1,55.29,48l-24.82,12.41a6.15,6.15,0,0,0,.8,11.35l82.94,53.46a6.17,6.17,0,0,0,7.79-3.89l7.91-98.89a6.17,6.17,0,0,0-8.6-7.45l-22.39,11.19A239.58,239.58,0,0,0,252.08,13.51,240,240,0,0,0,12.1,250.8a24,24,0,0,0,23.73,24.27Z" fill="currentColor"/><path d="M468.34,226.51h-.28a24,24,0,0,0-24,23.73A192,192,0,0,1,155.13,413.83,193.33,193.33,0,0,1,101,366.57l24.81-12.41a6.15,6.15,0,0,0-.8-11.35L42.11,289.35a6.15,6.15,0,0,0-7.78,3.89l-7.91,98.88a6.17,6.17,0,0,0,8.6,7.46L57.38,388.4a239.73,239.73,0,0,0,194.7,99.67,240,240,0,0,0,240-237.29A24,24,0,0,0,468.34,226.51Z" fill="currentColor"/><path d="M377.23,285.84a6.44,6.44,0,0,0,6.34-5.1,134.45,134.45,0,0,0,0-59.38,6.72,6.72,0,0,0-6.46-5.12H350.41a104.43,104.43,0,0,0-19.07-33l13.36-23.16a6.56,6.56,0,0,0-1.21-8.08A135.44,135.44,0,0,0,292,122.31a6.55,6.55,0,0,0-7.59,2.94L271.09,148.4a102.6,102.6,0,0,0-38.15,0L219.6,125.3a6.5,6.5,0,0,0-7.6-3A136.44,136.44,0,0,0,160.61,152a6.52,6.52,0,0,0-1.25,8.06l13.37,23.15a105.74,105.74,0,0,0-19.07,33l-26.69,0a6.45,6.45,0,0,0-6.34,5.1,134.6,134.6,0,0,0,0,59.38,6.51,6.51,0,0,0,6.39,5.1h26.74a104.59,104.59,0,0,0,19.07,33L159.43,342a6.56,6.56,0,0,0,1.21,8.08,135.31,135.31,0,0,0,51.45,29.66,6.55,6.55,0,0,0,7.59-2.94L233,353.66a102.6,102.6,0,0,0,38.15,0l13.37,23.16a6.51,6.51,0,0,0,7.6,2.95,136.65,136.65,0,0,0,51.39-29.67,6.5,6.5,0,0,0,1.24-8.06l-13.36-23.15a105.74,105.74,0,0,0,19.07-33Zm-103.47,2.83a43.47,43.47,0,1,1,15.92-59.39A43.53,43.53,0,0,1,273.76,288.67Z" fill="currentColor"/></svg>