<svg xmlns="http://www.w3.org/2000/svg" id="final" viewBox="0 0 576 512" x="0" y="0" aria-hidden="true" focusable="false" role="img"><defs/><rect width="59.9" height="105.38" x="213.17" y="313.05" fill="currentColor"/><rect width="59.9" height="144.18" x="404.35" y="274.26" fill="currentColor"/><rect width="59.9" height="202.73" x="309.32" y="216.42" fill="currentColor"/><path d="M169.79,127.71v84.5h84.43a84.43,84.43,0,1,1-84.43-84.5Z" class="cls-1" fill="currentColor"/><path d="M196.82,99.57A85.44,85.44,0,0,1,282.26,185H196.83Z" class="cls-1" fill="currentColor"/><path d="M498.42,220.28V423a43.83,43.83,0,0,1-43.83,43.84H95A43.83,43.83,0,0,1,51.19,423V95.68A43.83,43.83,0,0,1,95,51.84h269.2A121.77,121.77,0,0,1,404,3.36H88.11A85.33,85.33,0,0,0,2.79,88.7V430a85.32,85.32,0,0,0,85.32,85.33H461.5A85.32,85.32,0,0,0,546.82,430V198.29A120.07,120.07,0,0,1,498.42,220.28Z" class="cls-1" fill="currentColor"/><path d="M474.16,201a99.29,99.29,0,1,1,99.06-99.29A99.18,99.18,0,0,1,474.16,201Zm-18.22-49a4.56,4.56,0,0,0,4.56,4.56h27.33a4.55,4.55,0,0,0,4.55-4.56V120h31.9a4.55,4.55,0,0,0,4.55-4.56V88.05h0a4.56,4.56,0,0,0-4.55-4.57h-31.9v-32h0A4.55,4.55,0,0,0,487.83,47H460.5a4.56,4.56,0,0,0-4.56,4.56v32H424.05a4.57,4.57,0,0,0-4.56,4.57v27.4a4.56,4.56,0,0,0,4.56,4.56h31.89v32Z" fill="currentColor"/></svg>