<svg xmlns="http://www.w3.org/2000/svg" viewBox="0 0 512 512" x="0" y="0" aria-hidden="true" focusable="false" role="img"><path d="M173.47,188.53H319c9.89,0,16.91,7.17,16.91,16h0c0,8.84-7,16-16.91,16H173.47c-9.89,0-16.91-7.16-16.91-16h0C156.56,195.7,163.58,188.53,173.47,188.53Z" fill="currentColor"/><path d="M411.81,199.73a99.29,99.29,0,1,1,99.05-99.29A99.16,99.16,0,0,1,411.81,199.73Zm-18.22-49a4.56,4.56,0,0,0,4.55,4.56h27.34a4.56,4.56,0,0,0,4.55-4.56v-32h31.9a4.56,4.56,0,0,0,4.55-4.56V86.74h0a4.56,4.56,0,0,0-4.55-4.57H430v-32h0a4.56,4.56,0,0,0-4.55-4.56H398.14a4.56,4.56,0,0,0-4.55,4.56v32h-31.9a4.56,4.56,0,0,0-4.55,4.57v27.4a4.56,4.56,0,0,0,4.55,4.56h31.9v32Z" fill="currentColor"/><path d="M269,347a41.1,41.1,0,0,1-7.75-11.13H173.47c-9.89,0-16.91,7.16-16.91,16s7,16,16.91,16h116.4Z" fill="currentColor"/><path d="M259.66,289.58a47.69,47.69,0,0,1,29.72-27.38H173.47c-9.89,0-16.91,7.16-16.91,16s7,16,16.91,16H258C258.51,292.62,259.05,291.07,259.66,289.58Z" fill="currentColor"/><path d="M328,445.87H91.52v-35H103.1a19.42,19.42,0,0,0,19.42-19.42v-9.16a19.41,19.41,0,0,0-19.42-19.42H91.52V323.53H103.1a19.41,19.41,0,0,0,19.42-19.42V295a19.42,19.42,0,0,0-19.42-19.42H91.52V236.2H103.1a19.42,19.42,0,0,0,19.42-19.42v-9.16A19.41,19.41,0,0,0,103.1,188.2H91.52V148.87H103.1a19.42,19.42,0,0,0,19.42-19.42v-9.16a19.41,19.41,0,0,0-19.42-19.42H91.52v-34H295.85a121,121,0,0,1,26.9-48H75.52a32,32,0,0,0-32,32v50H31.94a19.42,19.42,0,0,0-19.42,19.42v9.16a19.43,19.43,0,0,0,19.42,19.42H43.52V188.2H31.94a19.42,19.42,0,0,0-19.42,19.42v9.16A19.43,19.43,0,0,0,31.94,236.2H43.52v39.33H31.94A19.43,19.43,0,0,0,12.52,295v9.16a19.42,19.42,0,0,0,19.42,19.42H43.52v39.34H31.94a19.42,19.42,0,0,0-19.42,19.42v9.16a19.43,19.43,0,0,0,19.42,19.42H43.52v51a32,32,0,0,0,32,32h262.1C332,486.54,328,478.35,328,470Z" fill="currentColor"/><path d="M411.81,221.42a119.89,119.89,0,0,1-29.29-3.61V260h48V220A121.54,121.54,0,0,1,411.81,221.42Z" fill="currentColor"/><path d="M292,114.87H173.47c-9.89,0-16.91,7.16-16.91,16s7,16,16.91,16H300.36A120.31,120.31,0,0,1,292,114.87Z" fill="currentColor"/><path d="M407.85,511a36.48,36.48,0,0,1-21.31-6.88l-.35-.26L361.55,485.2l-.6-.54A38.11,38.11,0,0,1,348,456.3V396.86l-55.75-57.45a36.12,36.12,0,0,1-7.15-39.83A35.53,35.53,0,0,1,318,278H474a35.51,35.51,0,0,1,32.92,21.57,36.13,36.13,0,0,1-7.14,39.84L444,396.86V475.1a35.56,35.56,0,0,1-19.86,32.08A36.74,36.74,0,0,1,407.85,511Zm-22.8-52.56,22.83,17.29.05,0a2.2,2.2,0,0,0,.07-.6V382.78l65.66-67.65a1,1,0,0,0,.34-.87,2.24,2.24,0,0,0-.3-1H318.3a2.37,2.37,0,0,0-.3,1,1,1,0,0,0,.34.87L384,382.78V456.3A3.41,3.41,0,0,0,385.05,458.45Z" fill="currentColor"/></svg>