<svg xmlns="http://www.w3.org/2000/svg" viewBox="0 0 512 512" x="0" y="0" aria-hidden="true" focusable="false" role="img"><path d="M326.24,185.7l-38,38v240l-64-48v-192l-176-176H306a121.65,121.65,0,0,1,43.87-48H48.31C5.68-.3-15.81,51.43,14.37,81.63l161.89,162V415.7c0,15.1,7.11,29.33,19.2,40l64,47.06c31.27,21.86,76.8,1.54,76.8-38.4V243.63l30-30A121,121,0,0,1,326.24,185.7Z" fill="currentColor"/><path d="M413.66,201.66a99.3,99.3,0,1,1,99.05-99.29A99.17,99.17,0,0,1,413.66,201.66ZM395.44,152.6a4.56,4.56,0,0,0,4.55,4.57h27.34a4.56,4.56,0,0,0,4.55-4.57v-32h31.89a4.56,4.56,0,0,0,4.56-4.56V88.67h0a4.57,4.57,0,0,0-4.56-4.57H431.88v-32h0a4.56,4.56,0,0,0-4.55-4.57H400a4.56,4.56,0,0,0-4.55,4.57v32h-31.9A4.56,4.56,0,0,0,359,88.67v27.4a4.56,4.56,0,0,0,4.55,4.56h31.9v32Z" fill="currentColor"/></svg>