<svg xmlns="http://www.w3.org/2000/svg" id="final" viewBox="0 0 576 512" x="0" y="0" aria-hidden="true"
     focusable="false" role="img">
    <defs/>
    <rect width="48" height="105.38" x="186.12" y="309.05" fill="currentColor"/>
    <rect width="48" height="144.18" x="365.3" y="270.26" fill="currentColor"/>
    <rect width="48" height="202.73" x="276.27" y="212.42" fill="currentColor"/>
    <path d="M158.86,119.19v70.92h70.86a70.86,70.86,0,1,1-70.86-70.92Z" class="cls-1" fill="currentColor"/>
    <path d="M181.55,95.57a71.72,71.72,0,0,1,71.71,71.71h-71.7Z" class="cls-1" fill="currentColor"/>
    <path d="M474.16,222.73a121.53,121.53,0,0,1-14.74-.9V420a43.83,43.83,0,0,1-43.83,43.84H92c-24.21,0-41.83-19.63-41.83-43.84V92.68c0-24.21,17.62-43.84,41.83-43.84H365.64A121.75,121.75,0,0,1,408.38.36H85.11C38,.36,1.79,38.57,1.79,85.7V427c0,47.13,36.2,85.33,83.32,85.33H422.5A85.32,85.32,0,0,0,507.82,427V217.94A119.94,119.94,0,0,1,474.16,222.73Z"
          class="cls-1" fill="currentColor"/>
    <path d="M474.16,201a99.29,99.29,0,1,1,99.06-99.29A99.18,99.18,0,0,1,474.16,201Zm-18.22-49a4.56,4.56,0,0,0,4.56,4.56h27.33a4.55,4.55,0,0,0,4.55-4.56V120h31.9a4.55,4.55,0,0,0,4.55-4.56V88.05h0a4.56,4.56,0,0,0-4.55-4.57h-31.9v-32h0A4.55,4.55,0,0,0,487.83,47H460.5a4.56,4.56,0,0,0-4.56,4.56v32H424.05a4.57,4.57,0,0,0-4.56,4.57v27.4a4.56,4.56,0,0,0,4.56,4.56h31.89v32Z"
          fill="currentColor"/>
</svg>