<svg xmlns="http://www.w3.org/2000/svg" viewBox="0 0 512 512" x="0" y="0" aria-hidden="true" focusable="false" role="img"><rect width="64" height="64" x="320" y="218" rx="12" fill="currentColor"/><rect width="64" height="64" x="320" y="314" rx="12" fill="currentColor"/><path d="M432,221.46V452a6,6,0,0,1-6,6H86a6,6,0,0,1-6-6V154H301.52a121.16,121.16,0,0,1-3.15-96H192V18A12,12,0,0,0,180,6H140a12,12,0,0,0-12,12V58H80a48,48,0,0,0-48,48V458a48,48,0,0,0,48,48H432a48,48,0,0,0,48-48V201.33A120,120,0,0,1,432,221.46Z" fill="currentColor"/><rect width="64" height="64" x="128" y="314" rx="12" fill="currentColor"/><rect width="64" height="64" x="224" y="218" rx="12" fill="currentColor"/><rect width="64" height="64" x="128" y="218" rx="12" fill="currentColor"/><rect width="64" height="64" x="224" y="314" rx="12" fill="currentColor"/><path d="M410.66,201.66a99.3,99.3,0,1,1,99-99.29A99.17,99.17,0,0,1,410.66,201.66ZM392.44,152.6a4.56,4.56,0,0,0,4.55,4.57h27.34a4.56,4.56,0,0,0,4.55-4.57v-32h31.89a4.56,4.56,0,0,0,4.56-4.56V88.67h0a4.57,4.57,0,0,0-4.56-4.57H428.88v-32h0a4.56,4.56,0,0,0-4.55-4.57H397a4.56,4.56,0,0,0-4.55,4.57v32h-31.9A4.56,4.56,0,0,0,356,88.67v27.4a4.56,4.56,0,0,0,4.55,4.56h31.9v32Z" fill="currentColor"/></svg>