<svg xmlns="http://www.w3.org/2000/svg" viewBox="0 0 557 512" x="0" y="0" aria-hidden="true" focusable="false" role="img"><g><rect width="48" height="449" x="255.05" y="4.5" rx="16" transform="translate(50.05 508.05) rotate(-90)" fill="currentColor"/></g><g><path d="M395.48,291.31c-42.8,0-78.69,30.6-87.89,71.32-21.86-9.43-41.88-6.9-57.07-.23-9.43-40.95-45.32-71.09-87.89-71.09-49.93,0-90.66,41.18-90.66,92s40.73,92,90.66,92c45.26,0,82.54-34,89-78.32,14.73-9.58,38.86-9.58,54.78-.12,6.62,44.38,43.6,78.44,89.05,78.44,49.93,0,90.66-41.19,90.66-92s-40.73-92-90.66-92M162.63,434c-27.62,0-49.75-22.66-49.75-50.63s22.31-50.63,49.75-50.63c27.62,0,49.74,22.66,49.74,50.63S190.25,434,162.63,434M397,434c-27.57,0-49.66-22.66-49.66-50.63s22.09-50.63,49.66-50.63,49.83,22.66,49.83,50.63S424.34,434,397,434" fill="currentColor"/><path d="M358.44,44.71A6.48,6.48,0,0,1,358,44c-5.06-9.36-17.45-14.28-29.18-11L282.19,46.59a11.26,11.26,0,0,1-6.25,0l-46.29-13.4a9.63,9.63,0,0,0-1.18-.28l-.52-.09c-11.88-2.93-24.44,2.55-28.92,12.53L149.72,157.26C147.23,162.92,152,169,159,169H399.14c7,0,11.75-6.09,9.24-11.75L359.19,46a8.72,8.72,0,0,0-.75-1.33Z" fill="currentColor"/></g></svg>