<svg xmlns="http://www.w3.org/2000/svg" viewBox="0 0 537 512" x="0" y="0" aria-hidden="true" focusable="false" role="img"><path d="M165.21,38.1l-19.8,19.8a12,12,0,0,0,0,17L326.11,256,145.41,437.13a12,12,0,0,0,0,17l19.8,19.8a12,12,0,0,0,17,0L391.59,264.49a12,12,0,0,0,0-17L182.18,38.1A12,12,0,0,0,165.21,38.1Z" fill="currentColor"/><path d="M307.1,38.1,287.3,57.9a12,12,0,0,0,0,17L468,256,287.3,437.13a12,12,0,0,0,0,17l19.8,19.8a12,12,0,0,0,17,0L533.49,264.49a12,12,0,0,0,0-17L324.07,38.1A12,12,0,0,0,307.1,38.1Z" fill="currentColor"/><path d="M23.31,38.1,3.51,57.9a12,12,0,0,0,0,17L184.21,256,3.51,437.13a12,12,0,0,0,0,17l19.8,19.8a12,12,0,0,0,17,0L249.7,264.49a12,12,0,0,0,0-17L40.28,38.1A12,12,0,0,0,23.31,38.1Z" fill="currentColor"/></svg>