<svg xmlns="http://www.w3.org/2000/svg" viewBox="0 0 512 512" x="0" y="0" aria-hidden="true" focusable="false" role="img"><g><path d="M302.72,496.51c-36,0-68.24-12.64-91.64-36.06Q123,372.25,34.83,284.1a13.31,13.31,0,0,1,0-18.8L50.1,250a13.22,13.22,0,0,1,9.4-3.9h0a13.16,13.16,0,0,1,9.4,3.9Q157,338.2,245.16,426.39c16.14,16.15,39.62,23.84,66.12,21.67,25.34-2.07,49.6-13,66.53-29.92s28-41.32,30.22-66.82c2.35-26.71-5.22-50.28-21.31-66.37L184.26,82.46c-10.3-10.3-26.17-14.68-44.68-12.33-17.27,2.19-34.21,10.13-45.32,21.24a57.42,57.42,0,0,0,0,81.1L264.74,343a26.8,26.8,0,1,0,37.91-37.9L158.26,160.66a13.33,13.33,0,0,1,0-18.81l15.27-15.27a13.3,13.3,0,0,1,18.8,0L336.71,271A75,75,0,0,1,230.67,377L60.19,206.54a105.67,105.67,0,0,1,0-149.25c20.1-20.1,48.85-33,78.88-35.3,31.63-2.46,59.77,6.91,79.26,26.4L420.79,250.87c25.27,25.28,37.85,61.09,35.42,100.83-2.33,38-18.48,74.67-44.33,100.52s-62.37,41.88-100.26,44Q307.14,496.51,302.72,496.51Z" fill="currentColor"/></g><g><path d="M302.72,496.51c-36,0-68.24-12.64-91.64-36.06Q123,372.25,34.83,284.1a13.31,13.31,0,0,1,0-18.8L50.1,250a13.22,13.22,0,0,1,9.4-3.9h0a13.16,13.16,0,0,1,9.4,3.9Q157,338.2,245.16,426.39c16.14,16.15,39.62,23.84,66.12,21.67,25.34-2.07,49.6-13,66.53-29.92s28-41.32,30.22-66.82c2.35-26.71-5.22-50.28-21.31-66.37L184.26,82.46c-10.3-10.3-26.17-14.68-44.68-12.33-17.27,2.19-34.21,10.13-45.32,21.24a57.42,57.42,0,0,0,0,81.1L264.74,343a26.8,26.8,0,1,0,37.91-37.9L158.26,160.66a13.33,13.33,0,0,1,0-18.81l15.27-15.27a13.3,13.3,0,0,1,18.8,0L336.71,271A75,75,0,0,1,230.67,377L60.19,206.54a105.67,105.67,0,0,1,0-149.25c20.1-20.1,48.85-33,78.88-35.3,31.63-2.46,59.77,6.91,79.26,26.4L420.79,250.87c25.27,25.28,37.85,61.09,35.42,100.83-2.33,38-18.48,74.67-44.33,100.52s-62.37,41.88-100.26,44Q307.14,496.51,302.72,496.51Z" fill="currentColor"/></g></svg>