<svg xmlns="http://www.w3.org/2000/svg" viewBox="0 0 512 512" x="0" y="0" aria-hidden="true" focusable="false" role="img"><path d="M469.85,283.43H318.6a25.31,25.31,0,0,0-25.23,25.26V460.21a25.31,25.31,0,0,0,25.23,25.26H469.85a25.32,25.32,0,0,0,25.22-25.26V308.69A25.32,25.32,0,0,0,469.85,283.43ZM129.52,270.79A113.65,113.65,0,1,0,243,384.45,113.56,113.56,0,0,0,129.52,270.79ZM268.17,16.23a24.87,24.87,0,0,0-21.42,12.13L153.21,181.9c-10.34,16.67,1.76,38.38,21.43,38.38H362c19.65,0,31.76-21.71,21.43-38.38L289.6,28.36a25,25,0,0,0-21.43-12.13Z" fill="currentColor"/></svg>