<svg xmlns="http://www.w3.org/2000/svg" viewBox="0 0 512 512" x="0" y="0" aria-hidden="true" focusable="false" role="img"><path d="M511.67,388c-3.46-129.77-61.06-150.16-63.58-244-.48-17.65-14.28-32-31.93-32H416V64a32,32,0,0,0-32-32H304a32,32,0,0,0-32,32v48H240V64a32,32,0,0,0-32-32H128A32,32,0,0,0,96,64v48h-.16c-17.65,0-31.45,14.38-31.93,32C61.39,237.84,3.79,258.23.33,388L0,432a48,48,0,0,0,48,48H176a48,48,0,0,0,48-48V288h64V432a48,48,0,0,0,48,48H464a48,48,0,0,0,48-48ZM320,80h48v32H320ZM144,80h48v32H144Zm32,352-128,.36.31-43.08C49.92,329,64.38,297.81,79.7,264.74c13-28.17,27.67-59.73,31.4-104.74H176V432Zm48-192V160h64v80ZM336,432V160h64.9c3.73,45,18.35,76.58,31.4,104.74,15.32,33.07,29.78,64.3,31.37,123.61L464,432Z" fill="currentColor"/></svg>