<svg xmlns="http://www.w3.org/2000/svg" viewBox="0 0 580 512" x="0" y="0" aria-hidden="true" focusable="false" role="img"><path d="M439.09,509.91A138.2,138.2,0,1,1,577.28,371.72,138.19,138.19,0,0,1,439.09,509.91Zm-27-64.06a6.74,6.74,0,0,0,6.74,6.74H459.3a6.74,6.74,0,0,0,6.74-6.74V398.67h47.18a6.74,6.74,0,0,0,6.74-6.74V351.5h0a6.74,6.74,0,0,0-6.74-6.74H466V297.58h0a6.74,6.74,0,0,0-6.74-6.74H418.87a6.74,6.74,0,0,0-6.74,6.74v47.18H365a6.74,6.74,0,0,0-6.74,6.74v40.43a6.74,6.74,0,0,0,6.74,6.74h47.18v47.18ZM276.89,371.72c0-.46,0-.92,0-1.37H227.32v-42a32,32,0,0,0-32-32h-53v-70.1l82.1-82.11h68.06v42a32,32,0,0,0,32,32l157-.14a32,32,0,0,0,29.05-31.86v-132a32,32,0,0,0-32-32h-154a32,32,0,0,0-32,32v42H224.42L140.94,12.66a32,32,0,0,0-45.25,0L10.84,97.51a32,32,0,0,0,0,45.26l83.48,83.48v70.1h-53a32,32,0,0,0-32,32v132a32,32,0,0,0,32,32h154a32,32,0,0,0,32-32v-42h56.41A161.82,161.82,0,0,1,276.89,371.72ZM340.48,70.14h122v100h-122Zm-284.39,50,62.23-62.22,62.22,62.22-62.22,62.23ZM179.32,444.35h-122v-100h122Z" fill="currentColor"/></svg>