<svg xmlns="http://www.w3.org/2000/svg" viewBox="0 0 512 512" x="0" y="0" aria-hidden="true" focusable="false" role="img"><path d="M477.91,221.5a32,32,0,0,0,32-32V57.5a32,32,0,0,0-32-32h-154a32,32,0,0,0-32,32v42H223.85L140.37,16a32,32,0,0,0-45.25,0L10.26,100.87a32,32,0,0,0,0,45.25L93.74,229.6v70.1h-53a32,32,0,0,0-32,32v132a32,32,0,0,0,32,32h154a32,32,0,0,0,32-32v-42h68.17a108.68,108.68,0,1,0,130-130V221.5Zm-138-148h122v100h-122ZM117.74,61.27,180,123.5l-62.23,62.22L55.52,123.5Zm61,386.43h-122v-100h122Zm282.84-50A60.68,60.68,0,1,1,400.91,337,60.75,60.75,0,0,1,461.58,397.7Zm-84.67-106a109,109,0,0,0-82,82H226.74v-42a32,32,0,0,0-32-32h-53V229.6l82.11-82.1h68.06v42a32,32,0,0,0,32,32h53Z" fill="currentColor"/></svg>