<svg xmlns="http://www.w3.org/2000/svg" viewBox="0 0 512 512" x="0" y="0" aria-hidden="true" focusable="false" role="img"><path d="M227.32,370.35v-42a32,32,0,0,0-32-32h-53v-70.1l82.1-82.11h68.06v42a32,32,0,0,0,32,32h53V261.5a135.92,135.92,0,0,1,48,.38V218.14h53a32,32,0,0,0,32-32v-132a32,32,0,0,0-32-32h-154a32,32,0,0,0-32,32v42H224.42L140.94,12.66a32,32,0,0,0-45.25,0L10.84,97.51a32,32,0,0,0,0,45.26l83.48,83.48v70.1h-53a32,32,0,0,0-32,32v132a32,32,0,0,0,32,32h154a32,32,0,0,0,32-32v-42h39.87a136,136,0,0,1,.17-48ZM340.48,70.14h122v100h-122Zm-284.39,50,62.23-62.22,62.22,62.22-62.22,62.23ZM179.32,444.35h-122v-100h122Z" fill="currentColor"/><path d="M400.41,283.31A111.51,111.51,0,1,0,511.93,394.82,111.5,111.5,0,0,0,400.41,283.31Zm63.36,127.35a5.28,5.28,0,0,1-5.28,5.28h-37v37a5.27,5.27,0,0,1-5.28,5.28H384.57a5.28,5.28,0,0,1-5.28-5.28h0v-37h-37a5.28,5.28,0,0,1-5.28-5.28V379a5.27,5.27,0,0,1,5.28-5.28h37v-37a5.28,5.28,0,0,1,5.28-5.28h31.68a5.27,5.27,0,0,1,5.28,5.28v37h37a5.27,5.27,0,0,1,5.28,5.28Z" fill="currentColor"/></svg>