<svg xmlns="http://www.w3.org/2000/svg" viewBox="0 0 512 512" x="0" y="0" aria-hidden="true" focusable="false" role="img"><path d="M180,288H140a12,12,0,0,1-12-12V236a12,12,0,0,1,12-12h40a12,12,0,0,1,12,12v40A12,12,0,0,1,180,288Zm108-12V236a12,12,0,0,0-12-12H236a12,12,0,0,0-12,12v40a12,12,0,0,0,12,12h40A12,12,0,0,0,288,276Zm96,0V236a12,12,0,0,0-12-12H332a12,12,0,0,0-12,12v40a12,12,0,0,0,12,12h40A12,12,0,0,0,384,276Zm-96,96V332a12,12,0,0,0-12-12H236a12,12,0,0,0-12,12v40a12,12,0,0,0,12,12h40A12,12,0,0,0,288,372Zm-96,0V332a12,12,0,0,0-12-12H140a12,12,0,0,0-12,12v40a12,12,0,0,0,12,12h40A12,12,0,0,0,192,372Zm192,0V332a12,12,0,0,0-12-12H332a12,12,0,0,0-12,12v40a12,12,0,0,0,12,12h40A12,12,0,0,0,384,372Zm96-260V464a48,48,0,0,1-48,48H80a48,48,0,0,1-48-48V112A48,48,0,0,1,80,64h48V24a12,12,0,0,1,12-12h40a12,12,0,0,1,12,12V64H320V24a12,12,0,0,1,12-12h40a12,12,0,0,1,12,12V64h48A48,48,0,0,1,480,112ZM432,458V160H80V458a6,6,0,0,0,6,6H426A6,6,0,0,0,432,458Z" fill="currentColor"/></svg>