<svg xmlns="http://www.w3.org/2000/svg" width="651" height="500" viewBox="0 0 551.997 500">
    <g id="calendar-edit" transform="translate(-1320 -1786)">
        <path id="calendar" d="M180,288H140a12,12,0,0,1-12-12V236a12,12,0,0,1,12-12h40a12,12,0,0,1,12,12v40A12,12,0,0,1,180,288Zm108-12V236a12,12,0,0,0-12-12H236a12,12,0,0,0-12,12v40a12,12,0,0,0,12,12h40A12,12,0,0,0,288,276Zm96-9.157V236a12,12,0,0,0-12-12H332a12,12,0,0,0-12,12v40a12,12,0,0,0,12,12h31.279Zm-96,97.579V332a12,12,0,0,0-12-12H236a12,12,0,0,0-12,12v40a12,12,0,0,0,12,12h32.875ZM192,372V332a12,12,0,0,0-12-12H140a12,12,0,0,0-12,12v40a12,12,0,0,0,12,12h40A12,12,0,0,0,192,372Zm140-52a12,12,0,0,0-12,12ZM480,112h0V464a48,48,0,0,1-48,48H80a48,48,0,0,1-48-48V112A48,48,0,0,1,80,64h48V24a12,12,0,0,1,12-12h40a12,12,0,0,1,12,12V64H320V24a12,12,0,0,1,12-12h40a12,12,0,0,1,12,12V64h48a48,48,0,0,1,48,48ZM432,217.768V160H80V458a6,6,0,0,0,6,6l148.491-.331s-3.62,19.38-2.987,32.912S240.572,512,240.572,512l133.976-.006,46.808-47.769s5.386.18,8.982-1.96,1.379-8.784,1.379-8.784L480,402.187V169.28" transform="translate(1337 1774)"/>
        <path id="pencil-body" d="M414.31,251.53,242.7,426.32l-6.22,61.06a15.91,15.91,0,0,0,17.76,17.43l60.84-7.37,171.6-174.89Z" transform="translate(1363.605 1777.072)"/>
        <path id="pencil-end" d="M550.25,223.64,512,186.1a24,24,0,0,0-33.79.32l-41.41,42.2,72.48,71,41.4-42.2A24.06,24.06,0,0,0,550.25,223.64Z" transform="translate(1363.605 1777.072)"/>
    </g>
</svg>
