<svg xmlns="http://www.w3.org/2000/svg" viewBox="0 0 512 512" x="0" y="0" aria-hidden="true" focusable="false" role="img"><path d="M409.87,372.07h22.4c6.4,0,12.8-6.4,12.8-12.8V128.87c0-6.4-6.4-12.8-12.8-12.8h-22.4c-6.4,0-12.8,6.4-12.8,12.8v230.4C397.07,365.67,403.47,372.07,409.87,372.07Zm-194,0h22.4c6.4,0,12.8-6.4,12.8-12.8V160.87c0-6.4-6.4-12.8-12.8-12.8h-22.4c-6.4,0-12.8,6.4-12.8,12.8v198.4C203.07,365.67,209.47,372.07,215.87,372.07Zm97,0h22.4c6.4,0,12.8-6.4,12.8-12.8V224.87c0-6.4-6.4-12.8-12.8-12.8h-22.4c-6.4,0-12.8,6.4-12.8,12.8v134.4C300.07,365.67,306.47,372.07,312.87,372.07Zm183.2,48h-448v-370a16,16,0,0,0-16-16h-16a16,16,0,0,0-16,16v386a32,32,0,0,0,32,32h464a16,16,0,0,0,16-16v-16A16,16,0,0,0,496.07,420.07Zm-377.2-48h22.4c6.4,0,12.8-6.4,12.8-12.8v-70.4c0-6.4-6.4-12.8-12.8-12.8h-22.4c-6.4,0-12.8,6.4-12.8,12.8v70.4C106.07,365.67,112.47,372.07,118.87,372.07Z" fill="currentColor"/></svg>