<svg xmlns="http://www.w3.org/2000/svg" viewBox="0 0 512 512" x="0" y="0" aria-hidden="true" focusable="false" role="img"><path d="M500,420a12,12,0,0,1,12,12v24a12,12,0,0,1-12,12H12A12,12,0,0,1,0,456V46A12,12,0,0,1,12,34H36A12,12,0,0,1,48,46V420Z" fill="currentColor"/><path d="M433.07,373.07h-308A24,24,0,0,1,104.94,336l74-114a24,24,0,0,1,35.93-5l28.73,25.14L303.52,164a24,24,0,0,1,36.65-1.72L357.5,181l55.61-83.22a24,24,0,0,1,44,13.34v238A24,24,0,0,1,433.07,373.07Zm-263.81-48H409.07V190.18L380.52,232.9a24,24,0,0,1-37.56,3l-18.65-20.13-58.2,75.92a24,24,0,0,1-34.85,3.46l-27.15-23.76Z" fill="currentColor"/></svg>