<svg xmlns="http://www.w3.org/2000/svg" viewBox="0 0 512 512" x="0" y="0" aria-hidden="true" focusable="false" role="img"><path d="M487.35,315.6,444.75,291a192.62,192.62,0,0,0,0-70.2l42.6-24.6a12.09,12.09,0,0,0,5.5-14,249.06,249.06,0,0,0-54.7-94.6,12,12,0,0,0-14.8-2.3l-42.6,24.6A188.72,188.72,0,0,0,320,74.8V25.7a12,12,0,0,0-9.4-11.7,251.39,251.39,0,0,0-109.2,0A12,12,0,0,0,192,25.7V74.9a194.68,194.68,0,0,0-60.8,35.1L88.65,85.4a11.88,11.88,0,0,0-14.8,2.3,247.56,247.56,0,0,0-54.7,94.6,12,12,0,0,0,5.5,14l42.6,24.6a192.62,192.62,0,0,0,0,70.2l-42.6,24.6a12.09,12.09,0,0,0-5.5,14,249.06,249.06,0,0,0,54.7,94.6,12,12,0,0,0,14.8,2.3l42.6-24.6a188.72,188.72,0,0,0,60.8,35.1v49.2a12,12,0,0,0,9.4,11.7,251.39,251.39,0,0,0,109.2,0,12,12,0,0,0,9.4-11.7V437.1a194.68,194.68,0,0,0,60.8-35.1l42.6,24.6a11.88,11.88,0,0,0,14.8-2.3A247.56,247.56,0,0,0,493,329.7,12.35,12.35,0,0,0,487.35,315.6ZM256,335.9a80,80,0,1,1,80-80A80.11,80.11,0,0,1,256,335.9Z" fill="currentColor"/></svg>