<svg xmlns="http://www.w3.org/2000/svg" viewBox="0 0 512 512" x="0" y="0" aria-hidden="true" focusable="false" role="img"><path d="M452.52,237l31.84-18.38a24.06,24.06,0,0,0,11.18-27.06A247.67,247.67,0,0,0,431.48,80.77a24,24,0,0,0-29-3.81L370.71,95.31a198,198,0,0,0-32.9-19V39.54A24,24,0,0,0,320,16.34a249.57,249.57,0,0,0-127.93,0,24,24,0,0,0-17.85,23.21V76.29a196.58,196.58,0,0,0-32.9,19L109.51,77a24,24,0,0,0-29,3.81,247.56,247.56,0,0,0-64,110.79,24,24,0,0,0,11.17,27.06L59.48,237a198.54,198.54,0,0,0,0,38L27.64,293.38a24.06,24.06,0,0,0-11.18,27.06A247.67,247.67,0,0,0,80.52,431.23a24,24,0,0,0,29,3.81l31.78-18.35a196.52,196.52,0,0,0,32.9,19v36.76A24,24,0,0,0,192,495.66a249.47,249.47,0,0,0,127.93,0,24,24,0,0,0,17.85-23.2V435.71a197.27,197.27,0,0,0,32.9-19L402.49,435a24,24,0,0,0,29-3.81,247.56,247.56,0,0,0,64-110.79,24,24,0,0,0-11.17-27.06L452.52,275A197.73,197.73,0,0,0,452.52,237Zm-52.68,63,43.81,25.29a200.08,200.08,0,0,1-33.84,58.53L366,358.53c-32,27.39-36.66,30.07-76.17,44v50.6a200.93,200.93,0,0,1-67.62,0v-50.6c-39.5-13.95-44.2-16.65-76.17-44l-43.83,25.31a200.33,200.33,0,0,1-33.85-58.53L112.16,300c-7.63-41.3-7.63-46.72,0-88L68.34,186.69a200.15,200.15,0,0,1,33.85-58.53L146,153.47c32-27.39,36.66-30.08,76.17-44V58.85a200.93,200.93,0,0,1,67.62,0v50.59c39.5,14,44.2,16.65,76.17,44l43.83-25.31a200.21,200.21,0,0,1,33.84,58.53L399.84,212c7.63,41.3,7.63,46.72,0,88ZM256,160a96,96,0,1,0,96,96A96.11,96.11,0,0,0,256,160Zm0,144a48,48,0,1,1,48-48A48.05,48.05,0,0,1,256,304Z" fill="currentColor"/></svg>