<svg xmlns="http://www.w3.org/2000/svg" viewBox="0 0 576 512" x="0" y="0" aria-hidden="true" focusable="false" role="img"><path d="M374.45,284.35,351,269.78a157.39,157.39,0,0,0,0-27.46l23.49-14.57a21.2,21.2,0,0,0,9.63-22.17C376.66,168.67,357,141.65,333.92,117a21.48,21.48,0,0,0-15.58-6.71,21.08,21.08,0,0,0-10.56,2.83l-23.57,13.6A155.91,155.91,0,0,0,260.45,113V86.11a21.16,21.16,0,0,0-16.24-20.58c-19.56-4.63-35-7-50.5-7s-30.92,2.32-50.43,7A21.09,21.09,0,0,0,127,86.11v26.67a155,155,0,0,0-23.76,13.77L79.7,113a21.18,21.18,0,0,0-26.05,3.8c-31.17,33.2-38.94,51.66-50.51,87a21.13,21.13,0,0,0,9.71,25.08l23.67,13.33a157.39,157.39,0,0,0,0,27.46L12.85,282.85a21.27,21.27,0,0,0-9.71,25.08c11.48,35.23,19.25,53.77,50.51,87a21.18,21.18,0,0,0,26.05,3.8l23.57-13.6A155.91,155.91,0,0,0,127,398.88v28a21.25,21.25,0,0,0,16,20.57,197.12,197.12,0,0,0,50.78,6.63,205.77,205.77,0,0,0,50.68-6.36,21.16,21.16,0,0,0,16-20.58v-28a155.86,155.86,0,0,0,23.76-13.77L307.78,399a21.34,21.34,0,0,0,10.65,2.86,21.09,21.09,0,0,0,15.4-6.66c24.11-25.87,43.1-53.07,50.25-88.83A21.08,21.08,0,0,0,374.45,284.35Zm-71.3-37.86a110.34,110.34,0,0,1,0,19.15L300.6,295l25.06,15.55,6.18,3.83c-4.2,10.49-10.39,20.78-19.21,32l-4.44-2.56L281.6,328.45l-25.07,17.7a107.08,107.08,0,0,1-16.43,9.52l-27.65,12.94V405a150.35,150.35,0,0,1-18.66,1.11A143.25,143.25,0,0,1,175,404.9V368.35l-27.65-13A107.75,107.75,0,0,1,131,345.89l-25.08-17.7L79.29,343.52l-4.6,2.66A114.47,114.47,0,0,1,56,313.73l4-2.24L87,296.33l-2.7-30.91a110.22,110.22,0,0,1,0-19.14L87,215.49,60.08,200.32,56,198a115.71,115.71,0,0,1,18.76-32.51l4.57,2.64,26.59,15.34L131,165.77a107,107,0,0,1,16.42-9.52L175,143.31V108.09a116.29,116.29,0,0,1,37.42,0v35.38l27.65,12.94a108.74,108.74,0,0,1,16.43,9.52l25.07,17.7,26.59-15.33,4.49-2.59c8.81,11.13,15,21.43,19.2,31.95l-6.22,3.86-25.08,15.56Z" fill="currentColor"/><path d="M193.32,188.06h0a68.28,68.28,0,1,0,48.33,20.11A67.89,67.89,0,0,0,193.32,188.06Zm22.78,91.09a32.27,32.27,0,1,1-22.78-55.09h0a31.9,31.9,0,0,1,22.78,9.46A32.3,32.3,0,0,1,216.1,279.15Z" fill="currentColor"/><path d="M574.58,385.65a11.35,11.35,0,0,0-11.23-9.44h-15.2a79.56,79.56,0,0,0-14.64-25.3l7.56-13.13a11.42,11.42,0,0,0-2.55-14.44A102.65,102.65,0,0,0,509,306.16a11.29,11.29,0,0,0-13.88,5l-7.55,13.12a79.9,79.9,0,0,0-29.17,0l-7.55-13.12a11.55,11.55,0,0,0-13.88-5,103.12,103.12,0,0,0-29.64,17.18,11.3,11.3,0,0,0-2.55,14.44l7.55,13.13a79.34,79.34,0,0,0-14.63,25.3h-15.2a11.37,11.37,0,0,0-11.24,9.63,106.73,106.73,0,0,0,0,34.17,11.36,11.36,0,0,0,11.24,9.44h15.2a79.34,79.34,0,0,0,14.63,25.3l-7.55,13.12a11.42,11.42,0,0,0,2.55,14.45,103.12,103.12,0,0,0,29.64,17.18,11.3,11.3,0,0,0,13.88-5l7.55-13.13a79.46,79.46,0,0,0,29.17,0l7.55,13.13a11.55,11.55,0,0,0,13.88,5,103.12,103.12,0,0,0,29.64-17.18,11.32,11.32,0,0,0,2.55-14.45l-7.55-13.12a79.53,79.53,0,0,0,14.63-25.3h15.2a11.36,11.36,0,0,0,11.23-9.63,106.13,106.13,0,0,0-.09-34.17ZM472.93,435.17a32.34,32.34,0,1,1,32.34-32.34A32.3,32.3,0,0,1,472.93,435.17Z" fill="currentColor"/><path d="M382.47,133.45h15.2a79.34,79.34,0,0,0,14.63,25.3l-7.55,13.12a11.42,11.42,0,0,0,2.55,14.45,103.12,103.12,0,0,0,29.64,17.18,11.3,11.3,0,0,0,13.88-5l7.55-13.13a79.46,79.46,0,0,0,29.17,0l7.55,13.13a11.55,11.55,0,0,0,13.88,5,103.12,103.12,0,0,0,29.64-17.18,11.32,11.32,0,0,0,2.55-14.45l-7.55-13.12a79.53,79.53,0,0,0,14.63-25.3h15.2a11.36,11.36,0,0,0,11.23-9.63,106.13,106.13,0,0,0-.09-34.17h0a11.35,11.35,0,0,0-11.23-9.44h-15.2a79.56,79.56,0,0,0-14.64-25.3l7.56-13.13a11.42,11.42,0,0,0-2.55-14.44A102.65,102.65,0,0,0,509,10.16a11.29,11.29,0,0,0-13.88,5l-7.55,13.12a79.9,79.9,0,0,0-29.17,0l-7.55-13.12a11.55,11.55,0,0,0-13.88-5A103.12,103.12,0,0,0,407.3,27.34a11.3,11.3,0,0,0-2.55,14.44l7.55,13.13a79.34,79.34,0,0,0-14.63,25.3h-15.2a11.37,11.37,0,0,0-11.24,9.63,106.73,106.73,0,0,0,0,34.17A11.36,11.36,0,0,0,382.47,133.45Zm90.46-59a32.34,32.34,0,1,1-32.34,32.34A32.3,32.3,0,0,1,472.93,74.49Z" fill="currentColor"/></svg>