<svg xmlns="http://www.w3.org/2000/svg" viewBox="0 0 512 512" x="0" y="0" aria-hidden="true" focusable="false" role="img"><path d="M434.15,12H74.35a54.16,54.16,0,0,0-54.1,54.1V357.92a54.2,54.2,0,0,0,33,49.82V479a24,24,0,0,0,24,24H433.07a24,24,0,0,0,24-24V406.92a54.18,54.18,0,0,0,31.18-49V66.1A54.16,54.16,0,0,0,434.15,12ZM74.35,60h359.8a6.11,6.11,0,0,1,6.1,6.1V357.61H69.55l-1.3,0V66.1A6.11,6.11,0,0,1,74.35,60ZM409.07,455H101.26V388a23.81,23.81,0,0,0-.88-6.42H409.94a24.21,24.21,0,0,0-.87,6.42Z" fill="currentColor"/><circle cx="135.94" cy="417.6" r="16" fill="currentColor"/><path d="M393.75,328h-279a16,16,0,0,1-16-16V101a16,16,0,0,1,16-16h279a16,16,0,0,1,16,16V312A16,16,0,0,1,393.75,328Zm-263-32h247V117h-247Z" fill="currentColor"/><path d="M240.83,402h132c9,0,15.34,7.16,15.34,16h0c0,8.84-6.37,16-15.34,16h-132c-9,0-15.34-7.16-15.34-16h0C225.49,409.16,231.86,402,240.83,402Z" fill="currentColor"/></svg>