<svg xmlns="http://www.w3.org/2000/svg" viewBox="0 0 562 512" x="0" y="0" aria-hidden="true" focusable="false" role="img"><g><path d="M538.4,314.51a59.68,59.68,0,0,0-17.69-19.27V279.53c0-15.63-6.19-29.28-18.4-40.58-11.75-10.86-29.25-19.38-52.11-25.37-8.44-2-17.58-4-27.19-5.9a239.31,239.31,0,0,0-25.48-3.51v-4A52.92,52.92,0,0,0,390.78,174a59.78,59.78,0,0,0-17.69-19.27V108.49c0-15.63-6.19-29.28-18.4-40.57-11.75-10.86-29.25-19.39-51.94-25.33a320.25,320.25,0,0,0-49.39-9.31,502.58,502.58,0,0,0-56.81-3.09c-12.89,0-29.27.69-48.71,2.05a288.22,288.22,0,0,0-57.76,9.84c-18.66,5.23-35,13-48.7,23.19C27.19,75.72,20,90.26,20,108.49v61.09a52.93,52.93,0,0,0,6.74,26.1A59.83,59.83,0,0,0,44.43,215v6.5a65.25,65.25,0,0,0-17.06,18.28C22.48,247.63,20,256.91,20,267.31V328.4C20,344,26.19,357.69,38.4,369c11.76,10.87,29.26,19.4,51.94,25.33a321,321,0,0,0,49.39,9.31,499.88,499.88,0,0,0,52,3.07c1.19,13.57,7.29,25.53,18.19,35.59,11.75,10.87,29.25,19.4,51.91,25.32A304.88,304.88,0,0,0,311,476.91,509.06,509.06,0,0,0,368.09,480c13,0,29.38-.69,48.71-2.05a291.54,291.54,0,0,0,57.49-9.84c18.86-5.24,35.19-13.06,48.41-23.15,14.56-10.45,21.94-25,21.94-43.26V340.81A49.16,49.16,0,0,0,538.4,314.51Zm-142.69-67a264.84,264.84,0,0,1,42.76,7.63q18.31,5.1,29,11.71t10.69,14.26q0,7.63-10.69,14.25t-29,11.71a262.66,262.66,0,0,1-42.76,7.63,422.89,422.89,0,0,1-52.43,3.06,422.82,422.82,0,0,1-52.44-3.06q-24.94-2.54-43-7.63t-28.76-11.71q-10.69-6.62-10.69-14.25t10.69-14.26q10.69-6.6,28.76-11.71t43-7.63a452.25,452.25,0,0,1,104.87,0ZM208.38,207.8V183.37q5.6,0,12-.51c4.24-.33,8.4-.51,12.47-.51v24.44q-5.59,0-11.7.25T208.38,207.8Zm48.87-4.07V179.81q6.11-1,12.47-2c4.24-.68,8.4-1.18,12.47-1.53v22.91a114.13,114.13,0,0,1-12,2.55Q263.86,202.72,257.25,203.73ZM306.63,192V170.14c4.07-1.36,8.22-2.88,12.47-4.59a110.85,110.85,0,0,0,12-5.6v11.2q0,6.12-6.62,11.46T306.63,192ZM61.27,160A90.78,90.78,0,0,0,73,165.3a93.2,93.2,0,0,0,13.23,3.82V192q-11.71-4.58-18.32-9.92c-4.42-3.57-6.62-7.21-6.62-10.95ZM86.21,350.84q-11.71-4.57-18.32-9.92c-4.42-3.57-6.62-7.21-6.62-10.95v-11.2A90.78,90.78,0,0,0,73,324.12a93.2,93.2,0,0,0,13.23,3.82Zm0-88.06v-11.2a68.28,68.28,0,0,0,11.2,5.35,93.21,93.21,0,0,0,13.23,3.81v22.91q-11.72-4.06-18.07-9.42T86.21,262.78Zm48.87,99.77q-6.63-1-13-2A88.47,88.47,0,0,1,110.64,358V334.05q5.61,1,11.71,2.29a99.82,99.82,0,0,0,12.73,1.78ZM110.64,199.66V176.24c3.74.35,7.64.85,11.71,1.53s8.31,1.36,12.73,2v24.43c-4.42-.68-8.74-1.35-13-2A86.91,86.91,0,0,1,110.64,199.66Zm24.44,91.63V267.87a105.88,105.88,0,0,1,11.71,1.78,97.91,97.91,0,0,0,12.72,1.78v24.44c-4.41-.68-8.65-1.35-12.72-2A117.79,117.79,0,0,1,135.08,291.29Zm33.6,74.32a82.89,82.89,0,0,0-9.17-.51V341.17c2,0,4.07.09,6.11.26s4.07.25,6.11.25v.51a52.27,52.27,0,0,0,1.53,12.73,40.34,40.34,0,0,0,4.58,11.19A82.56,82.56,0,0,1,168.68,365.61ZM184,207.8q-6.63-.5-12.47-.76t-12-.25V182.35c4.07,0,8.06.18,12,.51s8.05.51,12.47.51Zm-40.22-64.13A262.59,262.59,0,0,1,101,136q-18.31-5.09-29-11.71T61.27,110.07q0-7.63,10.69-14.25t29-11.71a263.68,263.68,0,0,1,42.76-7.64,424.79,424.79,0,0,1,52.43-3,424.79,424.79,0,0,1,52.43,3q24.95,2.55,43,7.64t28.76,11.71q10.68,6.62,10.69,14.25t-10.69,14.25Q309.68,131,291.61,136t-43,7.64a424.79,424.79,0,0,1-52.43,3.05A424.79,424.79,0,0,1,143.73,143.67Zm64.65,198.52V331a91.41,91.41,0,0,0,11.71,5.35,100.37,100.37,0,0,0,12.72,3.81v22.91q-11.19-4.57-17.81-9.92C210.58,349.57,208.38,345.93,208.38,342.19Zm48.87,82q-11.2-4.59-17.82-9.93t-6.62-11v-1h.51c1,.34,1.86.59,2.55.76a10.17,10.17,0,0,0,2.54.25,92.24,92.24,0,0,0,9.17,2.55q4.57,1,9.67,2Zm0-54V346.26q6.11,1,12.21,2.29a98.31,98.31,0,0,0,12.73,1.78v24.44c-4.41-.68-8.74-1.35-13-2A110.65,110.65,0,0,1,257.25,370.19Zm49.38,65.66q-6.63-1-13-2a88.67,88.67,0,0,1-11.45-2.55V411.93q5.6,1,11.71,1.53t12.73,1Zm0-58V353.39c3.72.34,7.63.6,11.7.76s8.31.26,12.73.26v24.43q-6.63,0-12.73-.25C314.26,378.42,310.35,378.16,306.63,377.82Zm48.86,62.11q-6.62,0-12.47-.26t-12-.76V415.49h24.43ZM368,378.33c-3.9,0-8.06.18-12.47.51V354.41c3.73,0,7.64-.08,11.71-.26s8.31-.42,12.73-.76v24.43Q373.81,378.33,368,378.33Zm36.4,60.58c-4.07.34-8.07.59-12,.76s-8.07.26-12.47.26V415.49q5.6,0,12-.25t12.47-.77Zm0-64.14V350.84q6.11-1,12.47-2t12-1.53v22.91a116,116,0,0,1-11.7,2.54C413,373.42,408.77,374.09,404.36,374.77Zm48.87,56.5a89.22,89.22,0,0,1-11.46,2.55q-6.36,1-13,2V411.93c4.08-.68,8.23-1.27,12.48-1.78s8.22-1.1,12-1.78Zm18.32-77.63q-6.62,5.36-18.32,9.42V341.17q6.6-2,13-4.58a110,110,0,0,0,12-5.6v11.2Q478.17,348.29,471.55,353.64Zm31.05,49.63q0,6.12-6.61,11.46t-17.82,9.42V402.26q6.1-2,12.47-4.58c4.24-1.7,8.23-3.39,12-5.1Z" fill="currentColor"/></g></svg>