<!-- Generated by IcoMoon.io -->
<svg version="1.1" xmlns="http://www.w3.org/2000/svg" width="28" height="32" viewBox="0 0 28 32">
<title>create_filtered_log</title>
<path d="M8.555 22.189h5.91l1.687 1.688h-7.597c-0.525 0-0.892-0.378-0.892-0.844s0.37-0.844 0.892-0.844zM16.855 20.4l3.437 3.066v1.424h-0.001v2.778c0 0 0 0 0.001 0v1.344l0.94 0.705v-0.353l0.001 0.001v-4.327h-0.001v-1.573l3.252-3.066zM15.065 18.303h11.128c1.144 0 1.715 1.386 0.91 2.192l-4.333 4.334v5.905c0 1.069-1.218 1.612-2.055 1.027l-1.713-1.259c-0.323-0.286-0.514-0.666-0.514-1.070v-4.603l-4.332-4.334c-0.807-0.808-0.232-2.192 0.908-2.192zM8.555 18.303l4.556 0.021c-0.54 0.021-0.825 0.758-0.699 1.488l0.060 0.18h-3.917c-0.525 0-0.892-0.378-0.892-0.844s0.37-0.844 0.892-0.844zM19.523 14.745l0.448 0.068c0.273 0.028 0.549 0.042 0.829 0.042s0.556-0.014 0.829-0.042l0.428-0.065v2.863h-2.533zM8.495 14.471h7.677c0.523 0 0.892 0.378 0.892 0.844s-0.37 0.844-0.892 0.844h-7.677c-0.525 0-0.892-0.378-0.892-0.844s0.37-0.844 0.892-0.844zM8.495 10.585h5.205l0.379 0.698 0.817 0.99h-6.401c-0.525 0-0.892-0.378-0.892-0.844s0.37-0.844 0.892-0.844zM3.324 5.52h9.474l-0.062 0.404c-0.028 0.273-0.042 0.549-0.042 0.829s0.014 0.556 0.042 0.829l0.072 0.472h-8.64v1.793h0.611c0 0 0.001 0 0.001 0 0.566 0 1.024 0.459 1.024 1.025v0.483c0 0 0 0.001 0 0.001-0 0.566-0.459 1.024-1.025 1.024h-0.611v2.075h0.611c0.566 0 1.025 0.459 1.025 1.024v0.483c0 0 0 0.001 0 0.001-0 0.566-0.459 1.024-1.025 1.023h-0.611v2.076h0.611c0 0 0.001 0 0.001 0 0.566 0 1.024 0.459 1.024 1.024v0.483c0 0.566-0.459 1.025-1.025 1.025h-0.611v2.075h0.611c0 0 0.001 0 0.001 0 0.566 0 1.024 0.459 1.024 1.025v0.483c0 0 0 0.001 0 0.001-0 0.566-0.459 1.024-1.025 1.023h-0.611v1.847h13.072v2.532h-13.916c-0.932 0-1.688-0.756-1.688-1.688v-2.691h-0.611c-0 0-0.001 0-0.001 0-0.566-0-1.024-0.459-1.024-1.024v-0.483c0-0.001 0-0.001 0-0.001 0-0.566 0.459-1.024 1.025-1.024h0.611v-2.075h-0.611c-0.566 0-1.025-0.459-1.025-1.025v-0.483c0-0 0-0.001 0-0.001 0-0.566 0.459-1.024 1.025-1.023h0.611v-2.075h-0.611c-0 0-0.001 0-0.001 0-0.566-0-1.024-0.459-1.024-1.024v-0.483c0-0.566 0.459-1.024 1.025-1.024h0.611v-2.075h-0.611c-0 0-0.001 0-0.001 0-0.566-0.001-1.024-0.459-1.024-1.025v-0.483c0-0.001 0-0.001 0-0.001 0-0.566 0.459-1.024 1.025-1.024h0.611v-2.637c0-0.932 0.756-1.688 1.688-1.688zM19.811 2.801c-0.181 0-0.329 0.147-0.329 0.329v2.306h-2.306c-0.182 0-0.329 0.147-0.329 0.329v1.976c0 0.182 0.147 0.329 0.329 0.329h2.306v2.306h-0.002c0 0.182 0.147 0.329 0.329 0.329h1.976c0.182 0 0.329-0.147 0.329-0.329v-2.306h2.308c0.182 0 0.329-0.147 0.329-0.329v-1.976c0-0.182-0.147-0.329-0.329-0.329h-2.306v-2.306c0-0.181-0.147-0.329-0.329-0.329zM20.799 0c3.73 0 6.754 3.023 6.754 6.752s-3.024 6.752-6.754 6.753c-3.73 0-6.754-3.023-6.754-6.753s3.024-6.752 6.754-6.752z"></path>
</svg>
