<!-- Generated by IcoMoon.io -->
<svg version="1.1" xmlns="http://www.w3.org/2000/svg" width="28" height="32" viewBox="0 0 28 32">
<title>create_dashboard</title>
<path d="M8.642 21.866h2.535v4.933h-2.535zM16.735 20.049l2.535 1.257v5.492h-2.535zM12.712 17.342h2.535v9.49h-2.535zM6.805 13.189v3.955h3.574c0 2.185-1.6 3.955-3.574 3.955s-3.574-1.771-3.574-3.955c0-2.185 1.6-3.955 3.574-3.955zM7.95 11.872c0.959-0 1.879 0.421 2.557 1.171s1.060 1.767 1.060 2.828h-3.616c-0-1.333-0-2.666-0-3.999zM20.879 9.294c-0.154 0-0.279 0.138-0.279 0.308v2.163h-1.955c-0.154 0-0.279 0.138-0.279 0.308v1.853c0 0.17 0.125 0.308 0.279 0.308h1.955v2.163h-0.002c0 0.17 0.125 0.308 0.279 0.308h1.675c0.154 0 0.279-0.138 0.279-0.308v-2.163h1.958c0.154 0 0.279-0.138 0.279-0.308v-1.853c0-0.17-0.125-0.308-0.279-0.308h-1.955v-2.163c0-0.17-0.125-0.308-0.279-0.308zM21.716 6.667c3.163 0 5.726 2.835 5.726 6.333s-2.564 6.333-5.726 6.333c-3.162 0-5.726-2.835-5.726-6.333s2.564-6.333 5.726-6.333zM12.377 6.667h2v2.287h-10.388c-1.061 0-1.922 0.952-1.922 2.126v16.508c0 1.174 0.861 2.126 1.922 2.126h14.926c1.061 0 1.922-0.951 1.922-2.126v-5.813l0.313 0.053c0.231 0.026 0.466 0.039 0.703 0.039s0.472-0.013 0.702-0.039l0.35-0.059v6.009c0 2.332-1.709 4.222-3.818 4.222h-15.27c-2.109 0-3.818-1.89-3.818-4.222v-16.889c0-2.332 1.709-4.222 3.818-4.222h8.559z"></path>
</svg>
