<svg width="1010" height="1173" xmlns="http://www.w3.org/2000/svg" xmlns:xlink="http://www.w3.org/1999/xlink" overflow="hidden"><defs><clipPath id="clip0"><rect x="5376" y="2686" width="1010" height="1173"/></clipPath></defs><g clip-path="url(#clip0)" transform="translate(-5376 -2686)"><path d="M5689.6 3499.37 5906.23 3499.37 5968.08 3561.25 5689.6 3561.25C5670.37 3561.25 5656.89 3547.41 5656.89 3530.31 5656.89 3513.22 5670.47 3499.37 5689.6 3499.37ZM5993.85 3433.78 6119.82 3546.17 6119.82 3592.13 6119.82 3598.38 6119.77 3598.38 6119.77 3605.04 6119.77 3700.22C6119.78 3700.22 6119.78 3700.23 6119.79 3700.23L6119.79 3749.51 6154.25 3775.35 6154.25 3762.4 6154.3 3762.44 6154.3 3724.67 6154.3 3724.67 6154.3 3603.83 6154.28 3603.83 6154.28 3546.17 6273.49 3433.78ZM5928.21 3356.91 6336.13 3356.91C6378.05 3356.91 6399.01 3407.7 6369.47 3437.26L6210.65 3596.12 6210.65 3812.58C6210.65 3851.75 6165.99 3871.67 6135.32 3850.24L6072.54 3804.09C6060.69 3793.62 6053.71 3779.67 6053.71 3764.86L6053.71 3596.12 5894.92 3437.26C5865.32 3407.64 5886.4 3356.91 5928.21 3356.91ZM5689.6 3356.91 5856.6 3357.68C5836.81 3358.45 5826.37 3385.45 5830.97 3412.21L5833.18 3418.79 5689.6 3418.79C5670.37 3418.79 5656.89 3404.95 5656.89 3387.85 5656.89 3370.76 5670.47 3356.91 5689.6 3356.91ZM6091.64 3226.51 6108.05 3229.02C6118.04 3230.03 6128.17 3230.55 6138.43 3230.55 6148.68 3230.55 6158.81 3230.03 6168.8 3229.02L6184.48 3226.62 6184.48 3331.55 6091.64 3331.55ZM5687.4 3216.46 5968.82 3216.46C5987.99 3216.46 6001.53 3230.32 6001.53 3247.4 6001.53 3264.47 5987.97 3278.34 5968.82 3278.34L5687.4 3278.34C5668.17 3278.34 5654.69 3264.49 5654.69 3247.4 5654.69 3230.3 5668.27 3216.46 5687.4 3216.46ZM5687.4 3074 5878.18 3074 5892.08 3099.59 5922.02 3135.88 5687.4 3135.88C5668.17 3135.88 5654.69 3122.03 5654.69 3104.94 5654.69 3087.84 5668.27 3074 5687.4 3074ZM5497.85 2888.35 5845.13 2888.35 5842.87 2903.15C5841.86 2913.14 5841.34 2923.27 5841.34 2933.52 5841.34 2943.78 5841.86 2953.91 5842.87 2963.89L5845.51 2981.18 5528.8 2981.18 5528.8 3046.92 5551.2 3046.92C5551.21 3046.92 5551.22 3046.92 5551.24 3046.92 5571.97 3046.93 5588.77 3063.75 5588.76 3084.48L5588.76 3102.19C5588.76 3102.2 5588.76 3102.22 5588.76 3102.23 5588.75 3122.96 5571.93 3139.76 5551.2 3139.75L5528.8 3139.75 5528.8 3215.8 5551.2 3215.8C5571.94 3215.8 5588.76 3232.61 5588.76 3253.35L5588.76 3271.07C5588.76 3271.08 5588.76 3271.09 5588.76 3271.11 5588.75 3291.84 5571.93 3308.63 5551.2 3308.62L5528.8 3308.62 5528.8 3384.7 5551.2 3384.7C5551.21 3384.7 5551.22 3384.7 5551.24 3384.7 5571.97 3384.71 5588.77 3401.52 5588.76 3422.25L5588.76 3439.96C5588.76 3460.7 5571.94 3477.52 5551.2 3477.52L5528.8 3477.52 5528.8 3553.57 5551.2 3553.57C5551.21 3553.57 5551.22 3553.57 5551.24 3553.57 5571.97 3553.58 5588.77 3570.4 5588.76 3591.13L5588.76 3608.84C5588.76 3608.85 5588.76 3608.86 5588.76 3608.88 5588.75 3629.61 5571.93 3646.41 5551.2 3646.39L5528.8 3646.39 5528.8 3714.08 5801.38 3714.08 5824.09 3714.08 6007.96 3714.08 6007.96 3806.9 5824.09 3806.9 5801.38 3806.9 5497.85 3806.9C5463.67 3806.9 5435.96 3779.19 5435.96 3745.02L5435.96 3646.39 5413.56 3646.39C5413.55 3646.39 5413.54 3646.39 5413.52 3646.39 5392.79 3646.38 5375.99 3629.57 5376 3608.84L5376 3591.13C5376 3591.11 5376 3591.1 5376 3591.09 5376.01 3570.36 5392.83 3553.56 5413.56 3553.57L5435.96 3553.57 5435.96 3477.52 5413.56 3477.52C5392.82 3477.52 5376 3460.7 5376 3439.96L5376 3422.25C5376 3422.24 5376 3422.22 5376 3422.21 5376.01 3401.48 5392.83 3384.68 5413.56 3384.7L5435.96 3384.7 5435.96 3308.62 5413.56 3308.62C5413.55 3308.62 5413.54 3308.62 5413.52 3308.62 5392.79 3308.61 5375.99 3291.8 5376 3271.07L5376 3253.35C5376 3232.61 5392.82 3215.8 5413.56 3215.8L5435.96 3215.8 5435.96 3139.75 5413.56 3139.75C5413.55 3139.75 5413.54 3139.75 5413.52 3139.75 5392.79 3139.73 5375.99 3122.92 5376 3102.19L5376 3084.48C5376 3084.46 5376 3084.45 5376 3084.44 5376.01 3063.71 5392.83 3046.91 5413.56 3046.92L5435.96 3046.92 5435.96 2950.24C5435.96 2916.06 5463.67 2888.35 5497.85 2888.35ZM6102.2 2788.68C6095.55 2788.68 6090.15 2794.08 6090.15 2800.73L6090.15 2885.25 6005.61 2885.25C5998.95 2885.25 5993.56 2890.65 5993.56 2897.31L5993.56 2969.74C5993.56 2976.4 5998.95 2981.79 6005.61 2981.79L6090.15 2981.79 6090.15 3066.31 6090.06 3066.31C6090.06 3072.97 6095.46 3078.36 6102.11 3078.36L6174.56 3078.36C6181.22 3078.36 6186.62 3072.97 6186.62 3066.31L6186.62 2981.79 6271.24 2981.79C6277.9 2981.79 6283.3 2976.4 6283.3 2969.74L6283.3 2897.31C6283.3 2890.65 6277.9 2885.25 6271.24 2885.25L6186.71 2885.25 6186.71 2800.73C6186.71 2794.08 6181.31 2788.68 6174.65 2788.68ZM6138.43 2686C6275.16 2686 6386 2796.82 6386 2933.52 6385.99 3070.22 6275.15 3181.04 6138.43 3181.05 6001.7 3181.05 5890.85 3070.23 5890.85 2933.52 5890.85 2796.82 6001.7 2686 6138.43 2686Z" fill-rule="evenodd"/></g></svg>