<svg width="1086" height="1107" xmlns="http://www.w3.org/2000/svg" xmlns:xlink="http://www.w3.org/1999/xlink" overflow="hidden"><defs><clipPath id="clip0"><rect x="4453" y="5095" width="1086" height="1107"/></clipPath></defs><g clip-path="url(#clip0)" transform="translate(-4453 -5095)"><path d="M5046.88 5821.58 5126.07 5821.58C5139.19 5821.58 5149.82 5832.22 5149.82 5845.35L5149.82 5924.61C5149.82 5937.74 5139.19 5948.38 5126.07 5948.38L5046.88 5948.38C5033.76 5948.38 5023.13 5937.74 5023.13 5924.61L5023.13 5845.35C5023.13 5832.22 5033.76 5821.58 5046.88 5821.58ZM4856.84 5821.58 4936.02 5821.58C4949.14 5821.58 4959.78 5832.22 4959.78 5845.35L4959.78 5924.61C4959.78 5937.74 4949.14 5948.38 4936.02 5948.38L4856.84 5948.38C4843.72 5948.38 4833.08 5937.74 4833.08 5924.61L4833.08 5845.35C4833.08 5832.22 4843.72 5821.58 4856.84 5821.58ZM4666.8 5821.58 4745.98 5821.58C4759.1 5821.58 4769.74 5832.22 4769.74 5845.35L4769.74 5924.61C4769.74 5937.74 4759.1 5948.38 4745.98 5948.38L4666.8 5948.38C4653.68 5948.38 4643.04 5937.74 4643.04 5924.61L4643.04 5845.35C4643.04 5832.22 4653.68 5821.58 4666.8 5821.58ZM5046.88 5631.36 5126.07 5631.36C5139.19 5631.36 5149.82 5642.01 5149.82 5655.14L5149.82 5734.4C5149.82 5747.53 5139.19 5758.17 5126.07 5758.17L5046.88 5758.17C5033.76 5758.17 5023.13 5747.53 5023.13 5734.4L5023.13 5655.14C5023.13 5642.01 5033.76 5631.36 5046.88 5631.36ZM4856.84 5631.36 4936.02 5631.36C4949.14 5631.36 4959.78 5642.01 4959.78 5655.14L4959.78 5734.4C4959.78 5747.53 4949.14 5758.17 4936.02 5758.17L4856.84 5758.17C4843.72 5758.17 4833.08 5747.53 4833.08 5734.4L4833.08 5655.14C4833.08 5642.01 4843.72 5631.36 4856.84 5631.36ZM4666.8 5631.36 4745.98 5631.36C4759.1 5631.36 4769.74 5642.01 4769.74 5655.14L4769.74 5734.4C4769.74 5747.53 4759.1 5758.17 4745.98 5758.17L4666.8 5758.17C4653.68 5758.17 4643.04 5747.53 4643.04 5734.4L4643.04 5655.14C4643.04 5642.01 4653.68 5631.36 4666.8 5631.36ZM4666.8 5211.31 4745.98 5211.31C4759.1 5211.31 4769.74 5221.96 4769.74 5235.09L4769.74 5314.34 4996.04 5314.34 4994.61 5342.67C4994.61 5383.71 5002.92 5422.8 5017.94 5458.36L5043 5504.56 4548.02 5504.56 4548.02 6095.01C4548.02 6101.57 4553.34 6106.89 4559.9 6106.89L5232.97 6106.89C5239.53 6106.89 5244.84 6101.57 5244.84 6095.01L5244.84 5635.85 5261.19 5638.34C5271.17 5639.36 5281.3 5639.88 5291.55 5639.88 5301.8 5639.88 5311.93 5639.36 5321.91 5638.34L5339.86 5635.6 5339.86 6106.89C5339.86 6159.42 5297.32 6202 5244.84 6202L4548.02 6202C4495.54 6202 4453 6159.42 4453 6106.89L4453 5409.45C4453 5356.92 4495.54 5314.34 4548.02 5314.34L4643.04 5314.34 4643.04 5235.09C4643.04 5221.96 4653.68 5211.31 4666.8 5211.31ZM5255.34 5197.74C5248.69 5197.74 5243.29 5203.14 5243.29 5209.8L5243.29 5294.37 5158.8 5294.37C5152.14 5294.37 5146.75 5299.77 5146.75 5306.44L5146.75 5378.91C5146.75 5385.57 5152.14 5390.97 5158.8 5390.97L5243.29 5390.97 5243.29 5475.54 5243.2 5475.54C5243.2 5482.2 5248.6 5487.6 5255.25 5487.6L5327.66 5487.6C5334.32 5487.6 5339.71 5482.2 5339.71 5475.54L5339.71 5390.97 5424.3 5390.97C5430.95 5390.97 5436.35 5385.57 5436.35 5378.91L5436.35 5306.44C5436.35 5299.77 5430.95 5294.37 5424.3 5294.37L5339.8 5294.37 5339.8 5209.8C5339.8 5203.14 5334.41 5197.74 5327.75 5197.74ZM5291.55 5095C5428.21 5095 5539 5205.89 5539 5342.67 5538.99 5479.45 5428.21 5590.33 5291.55 5590.34 5154.88 5590.34 5044.1 5479.46 5044.1 5342.67 5044.1 5205.89 5154.88 5095 5291.55 5095Z" fill-rule="evenodd"/></g></svg>