<svg width="1032" height="1190" xmlns="http://www.w3.org/2000/svg" xmlns:xlink="http://www.w3.org/1999/xlink" overflow="hidden"><defs><clipPath id="clip0"><rect x="5314" y="4112" width="1032" height="1190"/></clipPath></defs><g clip-path="url(#clip0)" transform="translate(-5314 -4112)"><path d="M5406.97 4311.94 5805.21 4311.94 5802.59 4329.15C5801.57 4339.13 5801.05 4349.26 5801.05 4359.51 5801.05 4369.77 5801.57 4379.9 5802.59 4389.88L5804.86 4404.76 5406.83 4404.76 5747.43 4745.1 5747.43 5116.37 5871.28 5209.19 5871.28 4745.1 5983.11 4633.35 6038.39 4650.5C6048.07 4652.48 6057.91 4653.98 6067.9 4655L6091.69 4656.2 5964.21 4783.63 5964.21 5210.46C5964.21 5287.7 5876.1 5326.99 5815.59 5284.72L5691.73 5193.72C5668.34 5173.08 5654.58 5145.57 5654.58 5116.37L5654.58 4783.63 5341.29 4470.37C5282.88 4411.97 5324.47 4311.94 5406.97 4311.94ZM6062.05 4214.68C6055.39 4214.68 6049.99 4220.07 6049.99 4226.73L6049.99 4311.25 5965.41 4311.25C5958.75 4311.25 5953.35 4316.64 5953.35 4323.3L5953.35 4395.73C5953.35 4402.38 5958.75 4407.78 5965.41 4407.78L6049.99 4407.78 6049.99 4492.3 6049.9 4492.3C6049.9 4498.95 6055.3 4504.35 6061.96 4504.35L6134.45 4504.35C6141.11 4504.35 6146.51 4498.95 6146.51 4492.3L6146.51 4407.78 6231.18 4407.78C6237.84 4407.78 6243.24 4402.38 6243.24 4395.73L6243.24 4323.3C6243.24 4316.64 6237.84 4311.25 6231.18 4311.25L6146.6 4311.25 6146.6 4226.73C6146.6 4220.07 6141.2 4214.68 6134.54 4214.68ZM6098.3 4112C6235.1 4112 6346 4222.82 6346 4359.51 6345.99 4496.21 6235.09 4607.02 6098.3 4607.03 5961.49 4607.03 5850.59 4496.21 5850.59 4359.51 5850.59 4222.82 5961.49 4112 6098.3 4112Z" fill-rule="evenodd"/></g></svg>