<!-- Generated by IcoMoon.io -->
<svg version="1.1" xmlns="http://www.w3.org/2000/svg" width="38" height="32" viewBox="0 0 38 32">
<title>create-dashboard</title>
<path d="M12.072 19.199h3.542v6.231h-3.542zM23.377 16.905l3.542 1.588v6.937h-3.542zM17.758 13.485h3.542v11.988h-3.542zM9.507 8.239v4.996h4.993c0 2.759-2.235 4.996-4.993 4.996s-4.993-2.237-4.993-4.996c0-2.759 2.235-4.996 4.993-4.996zM11.105 6.576c1.34-0 2.625 0.532 3.572 1.479s1.48 2.233 1.48 3.572h-5.051c-0-1.684-0.001-3.368-0.001-5.052zM29.166 3.319c-0.215 0-0.39 0.175-0.39 0.389v2.732h-2.731c-0.215 0-0.39 0.174-0.39 0.389v2.341c0 0.215 0.174 0.389 0.39 0.389h2.731v2.732h-0.003c0 0.215 0.175 0.389 0.39 0.389h2.341c0.215 0 0.39-0.175 0.39-0.389v-2.732h2.735c0.215 0 0.389-0.174 0.389-0.389v-2.341c0-0.215-0.175-0.389-0.389-0.389h-2.732v-2.732c0-0.215-0.174-0.389-0.39-0.389zM30.336 0c4.418 0 7.999 3.582 7.999 8s-3.581 8-7.999 8c-4.418 0-7.999-3.582-7.999-8s3.581-8 7.999-8zM17.29 0h2.794v2.889h-14.511c-1.483 0-2.685 1.202-2.685 2.685v20.852c0 1.483 1.202 2.685 2.685 2.685h20.85c1.483 0 2.685-1.202 2.685-2.685v-7.342l0.437 0.067c0.323 0.033 0.65 0.049 0.982 0.049s0.659-0.017 0.981-0.049l0.489-0.075v7.591c0 2.946-2.388 5.333-5.333 5.333h-21.331c-2.945 0-5.333-2.388-5.333-5.333v-21.333c0-2.945 2.388-5.333 5.333-5.333h11.957z"></path>
</svg>
