<!-- Generated by IcoMoon.io -->
<svg version="1.1" xmlns="http://www.w3.org/2000/svg" width="31" height="32" viewBox="0 0 31 32">
<title>create_calendar</title>
<path d="M17.167 21.003h2.289c0.379 0 0.687 0.308 0.687 0.687v2.291c0 0.38-0.307 0.687-0.687 0.687h-2.289c-0.379 0-0.687-0.308-0.687-0.687v-2.291c0-0.38 0.307-0.687 0.687-0.687zM11.674 21.003h2.289c0.379 0 0.687 0.308 0.687 0.687v2.291c0 0.38-0.308 0.687-0.687 0.687h-2.289c-0.379 0-0.687-0.308-0.687-0.687v-2.291c0-0.38 0.308-0.687 0.687-0.687zM6.18 21.003h2.289c0.379 0 0.687 0.308 0.687 0.687v2.291c0 0.38-0.308 0.687-0.687 0.687h-2.289c-0.379 0-0.687-0.308-0.687-0.687v-2.291c0-0.38 0.308-0.687 0.687-0.687zM17.167 15.505h2.289c0.379 0 0.687 0.308 0.687 0.687v2.291c0 0.38-0.307 0.687-0.687 0.687h-2.289c-0.379 0-0.687-0.308-0.687-0.687v-2.291c0-0.38 0.307-0.687 0.687-0.687zM11.674 15.505h2.289c0.379 0 0.687 0.308 0.687 0.687v2.291c0 0.38-0.308 0.687-0.687 0.687h-2.289c-0.379 0-0.687-0.308-0.687-0.687v-2.291c0-0.38 0.308-0.687 0.687-0.687zM6.18 15.505h2.289c0.379 0 0.687 0.308 0.687 0.687v2.291c0 0.38-0.308 0.687-0.687 0.687h-2.289c-0.379 0-0.687-0.308-0.687-0.687v-2.291c0-0.38 0.308-0.687 0.687-0.687zM6.18 3.362h2.289c0.379 0 0.687 0.308 0.687 0.687v2.291h6.542l-0.041 0.819c0 1.186 0.24 2.316 0.674 3.344l0.724 1.335h-14.308v17.068c0 0.19 0.154 0.343 0.343 0.343h19.456c0.19 0 0.343-0.154 0.343-0.343v-13.273l0.473 0.072c0.288 0.030 0.581 0.045 0.878 0.045s0.589-0.015 0.878-0.045l0.519-0.079v13.624c0 1.518-1.23 2.749-2.747 2.749h-20.143c-1.517 0-2.747-1.231-2.747-2.749v-20.161c0-1.518 1.23-2.749 2.747-2.749h2.747v-2.291c0-0.38 0.308-0.687 0.687-0.687zM23.193 2.97c-0.192 0-0.348 0.156-0.348 0.349v2.445h-2.442c-0.193 0-0.348 0.156-0.348 0.349v2.095c0 0.193 0.156 0.349 0.348 0.349h2.442v2.445h-0.003c0 0.193 0.156 0.349 0.348 0.349h2.093c0.193 0 0.348-0.156 0.348-0.349v-2.445h2.445c0.192 0 0.348-0.156 0.348-0.349v-2.095c0-0.193-0.156-0.349-0.348-0.349h-2.443v-2.445c0-0.193-0.156-0.349-0.348-0.349zM24.24 0c3.95 0 7.153 3.205 7.153 7.159s-3.203 7.159-7.153 7.159c-3.951 0-7.153-3.205-7.153-7.159s3.202-7.159 7.153-7.159z"></path>
</svg>
