<!-- Generated by IcoMoon.io -->
<svg version="1.1" xmlns="http://www.w3.org/2000/svg" width="28" height="32" viewBox="0 0 28 32">
<title>create_filter</title>
<path d="M2.5 5.377h10.709l-0.070 0.463c-0.027 0.268-0.041 0.541-0.041 0.816s0.014 0.548 0.041 0.817l0.061 0.4h-10.703l9.159 9.152v9.984l3.33 2.496v-12.48l3.007-3.005 1.487 0.461c0.26 0.053 0.525 0.094 0.794 0.121l0.64 0.032-3.428 3.427v11.478c0 2.077-2.369 3.134-3.997 1.997l-3.331-2.447c-0.629-0.555-0.999-1.295-0.999-2.080v-8.948l-8.425-8.424c-1.571-1.57-0.452-4.26 1.766-4.26zM20.116 2.761c-0.179 0-0.324 0.145-0.324 0.324v2.273h-2.274c-0.179 0-0.324 0.145-0.324 0.324v1.948c0 0.179 0.145 0.324 0.324 0.324h2.274v2.273h-0.002c0 0.179 0.145 0.324 0.324 0.324h1.949c0.179 0 0.324-0.145 0.324-0.324v-2.273h2.277c0.179 0 0.324-0.145 0.324-0.324v-1.948c0-0.179-0.145-0.324-0.324-0.324h-2.274v-2.273c0-0.179-0.145-0.324-0.324-0.324zM21.090 0c3.679 0 6.661 2.98 6.661 6.656s-2.982 6.656-6.661 6.656c-3.679 0-6.661-2.98-6.661-6.656s2.982-6.656 6.661-6.656z"></path>
</svg>
