<svg width="2191" height="2062" xmlns="http://www.w3.org/2000/svg" xmlns:xlink="http://www.w3.org/1999/xlink" overflow="hidden"><defs><clipPath id="clip0"><rect x="3435" y="3103" width="2191" height="2062"/></clipPath></defs><g clip-path="url(#clip0)" transform="translate(-3435 -3103)"><path d="M4282.26 4350.22 4523.49 4350.22 4523.49 4774.63 4282.26 4774.63ZM5052.23 4193.98 5293.46 4193.98 5293.46 4774.63 5052.23 4774.63ZM4669.51 3961.05 4910.74 3961.05 4910.74 4777.53 4669.51 4777.53ZM4107.56 3603.79C4107.56 3717.22 4107.56 3830.65 4107.56 3944.09L4447.58 3944.09C4447.58 4132.03 4295.35 4284.38 4107.56 4284.38 3919.77 4284.38 3767.54 4132.03 3767.54 3944.09 3767.54 3756.15 3919.77 3603.79 4107.56 3603.79ZM4216.43 3490.47C4307.68 3490.46 4395.2 3526.71 4459.73 3591.24 4524.26 3655.77 4560.51 3743.3 4560.51 3834.56L4216.48 3834.56ZM3806.44 3298.25C3708.96 3298.25 3629.93 3377.3 3629.93 3474.8L3629.93 4793.2C3629.93 4890.7 3708.96 4969.75 3806.44 4969.75L5254.56 4969.75C5352.04 4969.75 5431.07 4890.7 5431.07 4793.2L5431.07 3474.8C5431.07 3377.3 5352.04 3298.25 5254.56 3298.25ZM3778.61 3103 5282.39 3103C5472.16 3103 5626 3256.87 5626 3446.67L5626 4821.33C5626 5011.13 5472.16 5165 5282.39 5165L3778.61 5165C3588.84 5165 3435 5011.13 3435 4821.33L3435 3446.67C3435 3256.87 3588.84 3103 3778.61 3103Z" fill-rule="evenodd"/></g></svg>