<svg id="final" xmlns="http://www.w3.org/2000/svg" viewBox="0 0 512 512"><title>dir-tb</title><path d="M455.07,188.07a20,20,0,0,0,20-20v-130a20,20,0,0,0-20-20h-204a20,20,0,0,0-20,20v130a20,20,0,0,0,20,20h84.47v75a5.83,5.83,0,0,1-5.84,5.83H305a5.84,5.84,0,0,0-4.14,10L348,326.07H251.07a20,20,0,0,0-20,20v130a20,20,0,0,0,20,20h204a20,20,0,0,0,20-20v-130a20,20,0,0,0-20-20H358.18l47.18-47.18a5.85,5.85,0,0,0-4.13-10H376.49a5.84,5.84,0,0,1-5.84-5.83v-75Zm-28,260h-148v-74h148Zm-148-382h148v74h-148Z"/><path d="M151.07,392.07h-44v-344a16,16,0,0,0-16-16h-16a16,16,0,0,0-16,16v344h-44a12,12,0,0,0-8.73,20.24l68,72a12,12,0,0,0,17,.47l.48-.47,68-72a12,12,0,0,0-8.71-20.24Z"/></svg>