<svg id="final" xmlns="http://www.w3.org/2000/svg" viewBox="0 0 576 512"><title>dir-lr</title><path d="M547.07,76.07h-184a20,20,0,0,0-20,20V157l0,0-48.14-48.14a5.85,5.85,0,0,0-10,4.13v24.74a5.83,5.83,0,0,1-5.83,5.83h-44V96.07a20,20,0,0,0-20-20h-184a20,20,0,0,0-20,20v130a20,20,0,0,0,20,20h184a20,20,0,0,0,20-20V178.59h44a5.83,5.83,0,0,1,5.83,5.83v24.74a5.84,5.84,0,0,0,10,4.14L343,165.16a.1.1,0,0,1,0,0v61a20,20,0,0,0,20,20h184a20,20,0,0,0,20-20v-130A20,20,0,0,0,547.07,76.07Zm-360,122h-128v-74h128Zm332,0h-128v-74h128Z"/><path d="M512.31,382.35l-72-68a12,12,0,0,0-20.24,8.71v44h-344a16,16,0,0,0-16,16v16a16,16,0,0,0,16,16h344v44a12,12,0,0,0,20.24,8.73l72-68a12,12,0,0,0,.47-17C512.63,382.66,512.47,382.51,512.31,382.35Z"/></svg>