<svg xmlns="http://www.w3.org/2000/svg" viewBox="0 0 576 512" x="0" y="0" aria-hidden="true" focusable="false" role="img"><path d="M436.62,477.52h-274c-40.68,0-78.81-17.17-107.38-48.36-28.1-30.69-43.58-71.39-43.58-114.59A171.83,171.83,0,0,1,37,224a154.73,154.73,0,0,1,57.87-55.14c7.53-39.12,26.05-71.81,54-95,28.51-23.7,64.82-36.23,105-36.23,46.2,0,89.4,20.56,120.39,56.86,29.18-4.34,57.71,3.85,79.9,23.34,23.47,20.63,37.38,51.85,37.67,82.79A153.8,153.8,0,0,1,546,244.84a137.2,137.2,0,0,1,28.49,84C574.52,410.81,512.66,477.52,436.62,477.52Zm-182.7-399c-30.53,0-57.81,9.26-78.87,26.78-22.49,18.69-36.81,46.37-41.4,80l-1.54,11.31-10.43,4.62c-20.24,9-37.48,24.3-49.85,44.28a130.84,130.84,0,0,0-19.31,69c0,67.29,49.37,122,110,122H436.62c53.48,0,97-48.36,97-107.79a96.57,96.57,0,0,0-20.08-59.13,114.76,114.76,0,0,0-50.3-37l-15.3-5.88,2.4-16.21c3.32-22.42-5.75-46.77-23.12-62-10.79-9.48-29.18-19.21-55.48-11.76L358,140.68l-8.4-11.5C326.12,97,291.23,78.52,253.92,78.52Zm114.65,204a12,12,0,0,0,0-17l-16.9-16.9a12,12,0,0,0-17.1.1l-54.5,55.8V165a12,12,0,0,0-12-12h-24a12,12,0,0,0-12,12v139.5l-54.5-55.8a12,12,0,0,0-17.1-.1l-16.9,16.9a12,12,0,0,0,0,17l104,104a12,12,0,0,0,17,0Z" fill="currentColor"/></svg>