<svg xmlns="http://www.w3.org/2000/svg" viewBox="0 0 576 512" x="0" y="0" aria-hidden="true" focusable="false" role="img"><path d="M567.56,271.26a155.91,155.91,0,0,0-24.85-47,146.75,146.75,0,0,0-39.55-35.46q-3.18-2-6.45-3.72a132.18,132.18,0,0,0-1-14.2,129.25,129.25,0,0,0-22.05-57.7c-21.56-30.78-55.4-49-93.45-50.5a160,160,0,0,0-37.76-33C317.22,13.82,288,5.07,260.05,5.07c-3.83,0-7.69.16-11.46.48A163,163,0,0,0,188.14,22.3a144.24,144.24,0,0,0-47,37.86c-17.43,21.45-28.66,47.49-33.24,76.58a165.14,165.14,0,0,0-25.7,14.86,182.66,182.66,0,0,0-44.66,45.21A204.37,204.37,0,0,0,10.52,251.7,195,195,0,0,0,1.07,311c0,51,19.06,98.78,53.67,134.56C90,482,137.66,502.07,188.92,502.07H406c42,0,84.76-18.94,117.45-52a183.84,183.84,0,0,0,37.81-55.34,172.77,172.77,0,0,0,6.28-123.5ZM406,454.07H188.92C109.59,454.07,49.07,390,49.07,311c0-58.67,39.45-126.16,104.61-138.95-1.84-64.82,34.87-113.2,99-118.63,2.47-.21,4.93-.31,7.41-.31,39.57,0,80,26.1,95.58,59.61a95.55,95.55,0,0,1,19.43-2.07c57.7,0,86,58.29,68.59,106.14,50.46,9.13,84.42,53.25,84.42,108.52C528.07,396.38,465.52,454.07,406,454.07Z" fill="currentColor"/><path d="M351.67,248.64a12,12,0,0,0-17.1.1l-54.5,55.8V165a12,12,0,0,0-12-12h-24a12,12,0,0,0-12,12v139.5l-54.5-55.8a12,12,0,0,0-17.1-.1l-16.9,16.9a12,12,0,0,0,0,17l104,104a12,12,0,0,0,17,0l104-104a12,12,0,0,0,0-17Z" fill="currentColor"/></svg>