<svg xmlns="http://www.w3.org/2000/svg" viewBox="0 0 512 512" x="0" y="0" aria-hidden="true" focusable="false" role="img"><path d="M103.46,299.49V274.75a5.85,5.85,0,0,1,5.84-5.84H135A174.57,174.57,0,0,1,152.58,252a165.13,165.13,0,0,1-18.91-18.18H109.3a5.84,5.84,0,0,1-5.84-5.83V203.23a5.84,5.84,0,0,0-10-4.14L48.07,244.53V128.66a12.3,12.3,0,0,0-12.3-12.29H12.36A12.29,12.29,0,0,0,.07,128.66V374.07a12.3,12.3,0,0,0,12.29,12.3H35.77a12.3,12.3,0,0,0,12.3-12.3V258.19L93.5,303.62A5.83,5.83,0,0,0,103.46,299.49Z" fill="currentColor"/><path d="M499.77,116.37H476.36a12.29,12.29,0,0,0-12.29,12.29V244.53l-45.44-45.44a5.84,5.84,0,0,0-10,4.14V228a5.83,5.83,0,0,1-5.84,5.83H360.26a156.67,156.67,0,0,1-18.38,17.74,159.18,159.18,0,0,1,18.17,17.37h42.78a5.84,5.84,0,0,1,5.84,5.84v24.74a5.83,5.83,0,0,0,10,4.13l45.44-45.43V374.07a12.3,12.3,0,0,0,12.29,12.3h23.41a12.3,12.3,0,0,0,12.3-12.3V128.66A12.3,12.3,0,0,0,499.77,116.37Z" fill="currentColor"/><path d="M386.11,404.37h-4c0-80.57-35.17-127.91-97.18-153,62-23.91,97.18-72.9,97.18-153h4a12,12,0,0,0,12-12v-24a12,12,0,0,0-12-12h-280a12,12,0,0,0-12,12v24a12,12,0,0,0,12,12h4c0,80.56,39.83,129.09,97.18,153-55.35,25.09-97.18,72.9-97.18,153h-4a12,12,0,0,0-12,12v24a12,12,0,0,0,12,12h280a12,12,0,0,0,12-12v-24A12,12,0,0,0,386.11,404.37ZM184.81,171.43c-23.87-20-26.87-47-26.7-73.06h176c-.17,24.09,1.83,46.09-20.7,73.06Zm-14,201.94c3.13-48.91,36.13-77.91,75.3-78,39.83-.1,70.83,29.09,75.3,78Z" fill="currentColor"/></svg>