<svg xmlns="http://www.w3.org/2000/svg" viewBox="0 0 512 512" x="0" y="0" aria-hidden="true" focusable="false" role="img"><path d="M399.65,96h-280a12,12,0,0,0-12,12v24a12,12,0,0,0,12,12h4c0,80.56,39.84,129.1,97.18,153-55.34,25.1-97.18,72.9-97.18,153h-4a12,12,0,0,0-12,12v24a12,12,0,0,0,12,12h280a12,12,0,0,0,12-12V462a12,12,0,0,0-12-12h-4c0-80.56-35.16-127.9-97.18-153,62-23.9,97.18-72.9,97.18-153h4a12,12,0,0,0,12-12V108A12,12,0,0,0,399.65,96ZM335,419H184.35c3.14-48.9,36.14-77.9,75.3-78C299.49,340.87,330.49,370.07,335,419ZM327,217H198.35c-23.86-20-26.86-47-26.7-73.07h176C347.49,168.07,349.49,190.07,327,217Z" fill="currentColor"/><rect width="340" height="48" x="89.65" y="5.07" rx="16" fill="currentColor"/></svg>