<svg xmlns="http://www.w3.org/2000/svg" viewBox="0 0 528 512" x="0" y="0" aria-hidden="true" focusable="false" role="img"><path d="M300.14,363.29v-48a16,16,0,0,0-16-16h-16a16,16,0,0,0-16,16v32H55.8L162.07,223.37c11.79-12.36,11.79-27.78,0-40.14L55.8,55.29H252.08v32a16,16,0,0,0,16,16h16a16,16,0,0,0,16-16v-48a32,32,0,0,0-32-32H42.5A42.29,42.29,0,0,0,11.84,78.77L116.77,201.29,11.84,323.81A42.29,42.29,0,0,0,42.5,395.29H268.1A32,32,0,0,0,300.14,363.29Z" fill="currentColor"/><path d="M515.44,224.53h3.17A9.49,9.49,0,0,0,528.1,215v-19a9.49,9.49,0,0,0-9.49-9.49H297.17a9.49,9.49,0,0,0-9.49,9.49v19a9.49,9.49,0,0,0,9.49,9.49h3.16c0,63.71,31.51,102.1,76.86,121-43.77,19.85-76.86,57.65-76.86,121h-3.16a9.49,9.49,0,0,0-9.49,9.49v19a9.49,9.49,0,0,0,9.49,9.49H518.61A9.49,9.49,0,0,0,528.1,495V476a9.49,9.49,0,0,0-9.49-9.49h-3.17c0-63.71-27.8-101.15-76.85-121C487.64,326.63,515.44,287.88,515.44,224.53ZM467.44,442H348.34c2.48-38.67,28.58-61.61,59.55-61.68C439.39,380.25,463.91,403.34,467.44,442Zm-6.33-159.7H359.41c-18.87-15.79-21.25-37.14-21.12-57.78H477.48C477.35,243.59,478.94,261,461.11,282.31Z" fill="currentColor"/></svg>