<svg xmlns="http://www.w3.org/2000/svg" viewBox="0 0 512 512" x="0" y="0" aria-hidden="true" focusable="false" role="img"><rect width="98" height="404" x="404.07" y="88.07" rx="32" fill="currentColor"/><path d="M339.07,216.07h-64a32,32,0,0,0-32,32v212a32,32,0,0,0,32,32h64a32,32,0,0,0,32-32v-212A32,32,0,0,0,339.07,216.07Zm-16,228h-32v-180h32Z" fill="currentColor"/><rect width="98" height="180" x="112.07" y="312.07" rx="32" fill="currentColor"/><path d="M197.63,270.08v-17a6,6,0,0,0-6-6h-2c0-40.19-16.06-77.72-48.48-98.77,32.57-21.14,48.48-58.81,48.48-98.77h2a6,6,0,0,0,6-6v-18a6,6,0,0,0-6-6H12.06a6,6,0,0,0-6,6v18a6,6,0,0,0,6,6h2c0,40.19,16,77.72,48.47,98.77C30,169.49,14.06,207.16,14.06,247.12h-2a6,6,0,0,0-6,6v17a6,6,0,0,0,6,6H191.64A6,6,0,0,0,197.63,270.08ZM47,52.58H156.67c0,19.73-2.55,32.15-15.72,50.56H63.18C51.35,87.72,47.07,69.74,47,52.58Zm7.67,159.49c8.73-27.77,26.39-43.75,47.14-43.75S140.73,184.7,149,212.07Z" fill="currentColor"/></svg>