<svg xmlns="http://www.w3.org/2000/svg" width="589.524" height="518.696" viewBox="0 0 589.524 518.696">
    <g id="manage-pipeline" transform="translate(-639.634 -561.304)">
        <path id="clock" d="M256,8C119,8,8,119,8,256S119,504,256,504c46.749-1.917,62.248-4.875,108.82-25.459-3.744-13.972-2.257-24.1-1.994-53.281C306.885,455.913,292.42,453.34,256,456,145.373,457.444,55.763,366.3,56,256,57.526,147.907,142.294,56.738,256,56c47.429-.513,110.819,19.293,154.216,71.781,30.553,36.955,53.852,92.214,42.294,166.447,21.538-2.69,26.567-2.392,48.563-2.048C522.546,122.574,393.274,8.709,256,8Zm62,344-85-62a12.748,12.748,0,0,1-5-10V116a12,12,0,0,1,12-12h32a12,12,0,0,1,12,12V258l67,48a12.586,12.586,0,0,1,5,8c.488,3.152-1.112,6.429-3,9l-18,26C331.061,354.327,323.365,355.887,318,352Z" transform="translate(631.634 553.304)"/>
        <path id="database" d="M304.024,164.767V64.128c0-49-61.987-59.508-110.762-59.508S82.5,15.135,82.5,64.128V164.762c0,44.579,54.652,64.617,110.762,63.73C248.95,228.89,304.024,209.329,304.024,164.767ZM114.41,64.128c0-19.269,24.376-30.305,78.852-30.305s78.852,11.042,78.852,30.305v2.59c0,19.269-24.376,29.445-78.852,29.445S114.41,85.987,114.41,66.724Zm0,44.713c25.056,13.515,40.168,15.536,78.852,15.536s52.346-1.3,78.852-15.536v13.672c0,19.269-37.547,29.139-78.852,28.839s-78.852-9.571-78.852-28.839Zm0,60.226V155.313c21.2,15.868,40.168,22.236,78.852,22.236s57.654-6.367,78.852-22.236v13.754c0,19.269-40.155,29.032-78.852,28.839S114.41,188.33,114.41,169.067Z" transform="translate(925.134 851.48)"/>
    </g>
</svg>
