<svg xmlns="http://www.w3.org/2000/svg" viewBox="0 0 557 512" x="0" y="0" aria-hidden="true" focusable="false" role="img"><rect width="166.36" height="67" x="10" y="433" rx="18.93" fill="currentColor"/><path d="M342.75,433H302.5V392.06c81.44-3.82,170-28.52,170-107.15V107.33c0-86.47-107-99.71-194-99.71s-194,13.26-194,99.71V284.9c0,78.66,88.54,103.34,170,107.16V433H214.25a18.94,18.94,0,0,0-18.93,18.93v29.14A18.94,18.94,0,0,0,214.25,500h128.5a18.94,18.94,0,0,0,18.93-18.93V451.93A18.94,18.94,0,0,0,342.75,433ZM132.5,107.33c0-34,48.83-51.71,146-51.71s146,17.72,146,51.71v4.57c0,34-48.83,53.72-146,53.72s-146-19.72-146-53.71Zm0,68.31c37.81,28,77,38,146,38s108.19-10,146-38V198c0,34-48.83,59.71-146,59.71S132.5,232,132.5,198Zm0,106.27V257.64c37.81,28,77,41,146,41s108.19-13,146-41v24.27c0,34-48.83,59.71-146,59.71S132.5,315.9,132.5,281.91Z" fill="currentColor"/><rect width="166.36" height="67" x="380.64" y="433" rx="18.93" fill="currentColor"/></svg>