<svg xmlns="http://www.w3.org/2000/svg" viewBox="0 0 557 512" x="0" y="0" aria-hidden="true" focusable="false" role="img"><path d="M545.38,232.91A313.7,313.7,0,0,0,433.43,115.39a298,298,0,0,0-309.86,0A313.7,313.7,0,0,0,11.62,232.91a48,48,0,0,0,0,46.18,313.7,313.7,0,0,0,112,117.52,298,298,0,0,0,309.86,0,313.55,313.55,0,0,0,112-117.52A48,48,0,0,0,545.38,232.91ZM278.5,392.05c-93.21,0-178.66-52-224.8-136,46.14-84.09,131.58-136,224.8-136s178.66,52,224.8,136.05C457.17,340.09,371.72,392.05,278.5,392.05Z" fill="currentColor"/><circle cx="278.5" cy="256" r="102.75" fill="currentColor"/></svg>