<svg xmlns="http://www.w3.org/2000/svg" viewBox="0 0 557 512" x="0" y="0" aria-hidden="true" focusable="false" role="img"><path d="M278.5,153.25a102.68,102.68,0,0,0-33.65,5.64L381.24,255A102.75,102.75,0,0,0,278.5,153.25Z" fill="currentColor"/><path d="M312.15,353.11,175.76,257a102.81,102.81,0,0,0,136.39,96.1Z" fill="currentColor"/><path d="M525.12,400.42,59.53,72.34a17.88,17.88,0,0,0-24.91,4.32l-7.06,10a17.87,17.87,0,0,0,4.32,24.9L497.47,439.66a17.88,17.88,0,0,0,24.91-4.32l7.06-10A17.87,17.87,0,0,0,525.12,400.42Z" fill="currentColor"/><path d="M278.5,392.05c-93.21,0-178.66-52-224.8-136a270.11,270.11,0,0,1,40.94-56.16L55.07,172a318.5,318.5,0,0,0-43.45,60.95,48,48,0,0,0,0,46.18,313.7,313.7,0,0,0,112,117.52,297.74,297.74,0,0,0,275.64,17.84L351.79,381A249.08,249.08,0,0,1,278.5,392.05Z" fill="currentColor"/><path d="M545.38,232.91A313.7,313.7,0,0,0,433.43,115.39,297.74,297.74,0,0,0,157.79,97.55L205.21,131a249.08,249.08,0,0,1,73.29-11c93.22,0,178.66,52,224.8,136.05a270.11,270.11,0,0,1-40.94,56.16L501.93,340a318.06,318.06,0,0,0,43.45-61A48,48,0,0,0,545.38,232.91Z" fill="currentColor"/></svg>