<svg xmlns="http://www.w3.org/2000/svg" viewBox="0 0 576 512" x="0" y="0" aria-hidden="true" focusable="false" role="img"><path d="M236.5,422V230L60.5,54h416l-176,176V347.55l48-49.1V249.88L510.39,87.94C540.54,57.79,519.17,6,476.45,6H60.56C17.92,6-3.59,57.73,26.62,87.94L188.5,249.88V422c0,15.11,7.11,29.33,19.2,40l22.8,18Z" fill="currentColor"/><path d="M431.05,256l72.45,70.94L332.08,502l-60.83,7.44A15.93,15.93,0,0,1,253.47,492L259.63,431ZM567,228h0l-38.3-37.5a24,24,0,0,0-33.8.35l-41.36,42.24L526.06,304l41.36-42.23A24.06,24.06,0,0,0,567,228Z" fill="currentColor"/></svg>