<svg xmlns="http://www.w3.org/2000/svg" viewBox="0 0 551 512" x="0" y="0" aria-hidden="true" focusable="false" role="img"><path d="M465,.07H49.12C6.49.07-15,51.8,15.18,82L177.07,244V416.07c0,15.1,7.11,29.33,19.2,40l64,47.06c31.27,21.86,76.8,1.54,76.8-38.4V244L499,82C529.11,51.86,507.74.07,465,.07Zm-175.95,224v240l-64-48v-192l-176-176h416Z" fill="currentColor"/><path d="M416.51,244.35,464,291.86l47.5-47.51a6.74,6.74,0,0,1,9.53,0L549.64,273a6.73,6.73,0,0,1,0,9.52h0L502.14,330l47.5,47.5a6.74,6.74,0,0,1,0,9.53h0L521.05,415.6a6.74,6.74,0,0,1-9.53,0h0L464,368.09,416.51,415.6a6.73,6.73,0,0,1-9.52,0h0L378.4,387a6.72,6.72,0,0,1,0-9.53L425.9,330l-47.51-47.51a6.73,6.73,0,0,1,0-9.52h0l28.6-28.6a6.73,6.73,0,0,1,9.52,0Z" fill="currentColor"/></svg>