<svg xmlns="http://www.w3.org/2000/svg" viewBox="0 0 512 512" x="0" y="0" aria-hidden="true" focusable="false" role="img"><path d="M464,.07H48.12C5.49.07-16,51.8,14.18,82L176.07,244V416.07c0,15.1,7.11,29.33,19.2,40l64,47.06c31.27,21.86,76.8,1.54,76.8-38.4V244L498,82C528.11,51.86,506.74.07,464,.07Zm-175.95,224v240l-64-48v-192l-176-176h416Z" fill="currentColor"/><path d="M366.65,333.41,400,300.05l-33.36-33.37a6.73,6.73,0,0,1,0-9.52l28.59-28.6a6.73,6.73,0,0,1,9.52,0h0l33.37,33.37,33.36-33.37a6.74,6.74,0,0,1,9.53,0h0l28.59,28.6a6.73,6.73,0,0,1,0,9.52h0l-33.36,33.37,33.36,33.36a6.73,6.73,0,0,1,0,9.52h0L481,371.53a6.74,6.74,0,0,1-9.53,0l-33.36-33.37-33.37,33.37a6.73,6.73,0,0,1-9.52,0h0l-28.59-28.6a6.73,6.73,0,0,1,0-9.52Z" fill="currentColor"/></svg>