<svg xmlns="http://www.w3.org/2000/svg" viewBox="0 0 512 512" x="0" y="0" aria-hidden="true" focusable="false" role="img"><path d="M472.41,0a52,52,0,0,0-21.2,4.6c-50.49,22.7-87.78,30.3-119.07,30.3C266.05,34.9,227.66.4,151.37.4,123,.4,89.18,5.3,46.89,18.4,44.29,7.9,35.29,0,24,0A23.94,23.94,0,0,0,0,24V500a12,12,0,0,0,12,12H36a12,12,0,0,0,12-12V398.1c37.29-11.8,69.59-16.5,98.48-16.5,81.19,0,137.77,34.4,219.06,34.4,35.29,0,75.08-6.5,123.67-25,14-5.4,22.8-17.9,22.8-31.2V33.4C511.9,13,493.3,0,472.41,0Zm-8.5,349.1c-35.29,12.7-67.59,18.9-98.48,18.9-75.49,0-128.48-34.4-219.06-34.4-31.89,0-64.49,4.7-98.48,14.2V68.5C87.68,55,121.68,48.4,151.37,48.4c66.29,0,105.18,34.5,180.77,34.5,40.29,0,82.28-10,131.77-31.5Z" fill="currentColor"/></svg>