<svg xmlns="http://www.w3.org/2000/svg" viewBox="0 0 583 512" x="0" y="0" aria-hidden="true" focusable="false" role="img"><path d="M298.53,446H48V151H268a15.6,15.6,0,0,0,1.82-.11c.85.07,1.7.11,2.56.11H474v61.51a161,161,0,0,1,48,17.73V151a48,48,0,0,0-48-48H279L217.37,28.37A32,32,0,0,0,194.74,19H48A48,48,0,0,0,0,67V446c0,26.51,21.49,47,48,47H335.16A163.24,163.24,0,0,1,298.53,446ZM48,67H188.12l29.73,36H48ZM442.66,509.86a138.2,138.2,0,1,1,138.2-138.2A138.21,138.21,0,0,1,442.66,509.86Zm-27-64.06a6.73,6.73,0,0,0,6.73,6.73h40.44a6.73,6.73,0,0,0,6.73-6.73V398.61H516.8a6.73,6.73,0,0,0,6.73-6.73V351.44h0a6.73,6.73,0,0,0-6.73-6.73H469.61V297.52h0a6.73,6.73,0,0,0-6.73-6.73H422.44a6.73,6.73,0,0,0-6.73,6.73v47.19H368.52a6.73,6.73,0,0,0-6.73,6.73v40.44a6.73,6.73,0,0,0,6.73,6.73h47.19V445.8Z" fill="currentColor"/></svg>