<svg xmlns="http://www.w3.org/2000/svg" viewBox="0 0 522 512" x="0" y="0" aria-hidden="true" focusable="false" role="img"><path d="M474,103H279L217.37,28.37A32,32,0,0,0,194.74,19H48A48,48,0,0,0,0,67V446c0,26.51,21.49,47,48,47H331a136.29,136.29,0,0,1-41.18-47H48V151H268a15.6,15.6,0,0,0,1.82-.11c.85.07,1.7.11,2.56.11H474V264a136.2,136.2,0,0,1,48,43.93V151A48,48,0,0,0,474,103ZM48,103V67H188.12l29.73,36Z" fill="currentColor"/><path d="M409.41,271.31A111.51,111.51,0,1,0,520.93,382.82,111.5,111.5,0,0,0,409.41,271.31Zm63.36,127.35a5.28,5.28,0,0,1-5.28,5.28h-37v37a5.27,5.27,0,0,1-5.28,5.28H393.57a5.28,5.28,0,0,1-5.28-5.28h0v-37h-37a5.28,5.28,0,0,1-5.28-5.28V367a5.27,5.27,0,0,1,5.28-5.28h37v-37a5.28,5.28,0,0,1,5.28-5.28h31.68a5.27,5.27,0,0,1,5.28,5.28v37h37a5.27,5.27,0,0,1,5.28,5.28Z" fill="currentColor"/></svg>