<svg xmlns="http://www.w3.org/2000/svg" viewBox="0 0 522 512" x="0" y="0" aria-hidden="true" focusable="false" role="img"><path d="M474,105H279L217.37,30.37A32,32,0,0,0,194.74,21H48A48,48,0,0,0,0,69V448c0,26.51,21.49,47,48,47H474c26.51,0,48-20.49,48-47V153A48,48,0,0,0,474,105ZM48,69H188.12l29.73,36H48ZM474,448H48V153H268a15.6,15.6,0,0,0,1.82-.11c.85.07,1.7.11,2.56.11H474Z" fill="currentColor"/><path d="M246.74,202.19,128.52,299.55a5.6,5.6,0,0,0-.75,7.89h0l11.91,14.48a5.61,5.61,0,0,0,7.89.77h0l23.75-19.56v95.69a7.47,7.47,0,0,0,7.47,7.47l52.33-.14a7.47,7.47,0,0,0,7.44-7.47V354A7.47,7.47,0,0,1,246,346.5h29.89A7.46,7.46,0,0,1,283.4,354v44.67a7.47,7.47,0,0,0,7.45,7.49h0l52.31.15a7.48,7.48,0,0,0,7.48-7.47V303.1l23.77,19.58a5.61,5.61,0,0,0,7.89-.74h0l11.91-14.47a5.6,5.6,0,0,0-.77-7.89l0,0h0L275.23,202.19A22.42,22.42,0,0,0,246.74,202.19Z" fill="currentColor"/></svg>