<svg xmlns="http://www.w3.org/2000/svg" viewBox="0 0 576 512" x="0" y="0" aria-hidden="true" focusable="false" role="img"><path d="M83.45,151H182a6,6,0,0,0,4.23-10.2L135,89.56a3.22,3.22,0,0,0-4.54,0L79.22,140.8A6,6,0,0,0,83.45,151Z" fill="currentColor"/><path d="M531,32H235a24,24,0,0,0-24,24v50a24,24,0,0,0,48,0V80H359V442H341a24,24,0,0,0,0,48h84a24,24,0,0,0,0-48H407V80H507v26a24,24,0,0,0,48,0V56A24,24,0,0,0,531,32Z" fill="currentColor"/><path d="M250,182H34a24,24,0,0,0-24,24v40a24,24,0,0,0,48,0V230h60V442h-8a24,24,0,0,0,0,48h64a24,24,0,0,0,0-48h-8V230h60v16a24,24,0,0,0,48,0V206A24,24,0,0,0,250,182Z" fill="currentColor"/></svg>