<svg xmlns="http://www.w3.org/2000/svg" viewBox="0 0 576 512" x="0" y="0" aria-hidden="true" focusable="false" role="img"><path d="M194,236.17a112,112,0,1,0-112-112A111.94,111.94,0,0,0,194,236.17Zm0-176a64,64,0,1,1-64,64A64.06,64.06,0,0,1,194,60.17Z" fill="currentColor"/><path d="M373.92,249,391.47,231,408,214.15a48,48,0,1,1,67.85-61.59,56.21,56.21,0,0,1,51.53,6.79A96,96,0,1,0,373.92,249Z" fill="currentColor"/><path d="M509.78,346.73l0-.05-9,9.14A66.65,66.65,0,0,1,502.52,371v44.8H442l-47,48H502.42a48,48,0,0,0,48-48V371a114.65,114.65,0,0,0-12.76-52.74Z" fill="currentColor"/><path d="M50,370.5a67.43,67.43,0,0,1,44.1-63.1,46.75,46.75,0,0,1,31.9,0,201.63,201.63,0,0,0,68,11.9,203.06,203.06,0,0,0,68.1-11.9,46.75,46.75,0,0,1,31.9,0,66.63,66.63,0,0,1,15,7.78l33.35-34c-19.46-14.38-43.61-21.84-68.24-21.84h0a119.49,119.49,0,0,0-35.5,5.31,152.68,152.68,0,0,1-89.4,0,123.16,123.16,0,0,0-35.5-5.31c-36.3,0-71.6,16.2-92.3,46.91A116,116,0,0,0,2,370.5v44.8a48,48,0,0,0,48,48H207.18l4.84-48H50Z" fill="currentColor"/><path d="M554.32,223.71l-38.26-37.54a24,24,0,0,0-33.8.32l-41.4,42.19,72.47,71,41.41-42.19A24.06,24.06,0,0,0,554.32,223.71Z" fill="currentColor"/><path d="M418.38,251.6,246.77,426.39l-6.23,61.06a15.92,15.92,0,0,0,17.77,17.43l60.83-7.38L490.75,322.62Z" fill="currentColor"/></svg>