<svg xmlns="http://www.w3.org/2000/svg" viewBox="0 0 576 512" x="0" y="0" aria-hidden="true" focusable="false" role="img"><path d="M194,236.17a112,112,0,1,0-112-112A111.94,111.94,0,0,0,194,236.17Zm0-176a64,64,0,1,1-64,64A64.06,64.06,0,0,1,194,60.17Z" fill="currentColor"/><path d="M421.27,219.48a48,48,0,1,1,26-1.09,159.09,159.09,0,0,1,60.09,14.25,96,96,0,1,0-144.69,6.18A159,159,0,0,1,421.27,219.48Z" fill="currentColor"/><path d="M50,415.3V370.5a67.41,67.41,0,0,1,44.1-63.09,46.63,46.63,0,0,1,31.9,0,201.63,201.63,0,0,0,68,11.9,203.06,203.06,0,0,0,68.1-11.9,46.63,46.63,0,0,1,31.9,0c1,.35,1.93.74,2.88,1.13a161.83,161.83,0,0,1,26.45-38.62,118,118,0,0,0-49.23-10.61,119.48,119.48,0,0,0-35.5,5.3,152.46,152.46,0,0,1-89.4,0,123.15,123.15,0,0,0-35.5-5.3c-36.3,0-71.6,16.19-92.3,46.9A116,116,0,0,0,2,370.5v44.8a48,48,0,0,0,48,48H304.48a159.93,159.93,0,0,1-19.72-48Z" fill="currentColor"/><path d="M441.07,247.59c-72.44,0-131.16,58.86-131.16,131.48s58.72,131.47,131.16,131.47,131.16-58.86,131.16-131.47S513.5,247.59,441.07,247.59Zm80.79,151.72a6.74,6.74,0,0,1-6.73,6.75H367a6.74,6.74,0,0,1-6.73-6.75V358.82a6.74,6.74,0,0,1,6.73-6.75H515.13a6.74,6.74,0,0,1,6.73,6.75Z" fill="currentColor"/></svg>