<svg xmlns="http://www.w3.org/2000/svg" viewBox="0 0 512 512" x="0" y="0" aria-hidden="true" focusable="false" role="img"><path d="M500.67,255.51C500.92,392.15,389.49,503.88,252.85,504A247.16,247.16,0,0,1,86.45,440a12,12,0,0,1-.44-17.4l17-17a12,12,0,0,1,16.55-.4A200,200,0,1,0,110.74,115l49.1,48.41A12,12,0,0,1,151.41,184H23.08a12,12,0,0,1-12-12V45.42a12,12,0,0,1,20.43-8.54L76.6,81.35A247.18,247.18,0,0,1,252.67,8C389.48,8,500.42,118.76,500.67,255.51ZM333.61,345.68l14.12-19.41a12,12,0,0,0-2.65-16.76l-68.41-49.75V116a12,12,0,0,0-12-12h-24a12,12,0,0,0-12,12V284.2l88.18,64.13A12,12,0,0,0,333.61,345.68Z" fill="currentColor"/></svg>