<svg xmlns="http://www.w3.org/2000/svg" viewBox="0 0 512 512" x="0" y="0" aria-hidden="true" focusable="false" role="img"><path d="M432,58h4a12,12,0,0,0,12-12V22a12,12,0,0,0-12-12H76A12,12,0,0,0,64,22V46A12,12,0,0,0,76,58h4c0,80.56,32.19,155.81,97.18,198C111.9,298.38,80,373.9,80,454H76a12,12,0,0,0-12,12v24a12,12,0,0,0,12,12H436a12,12,0,0,0,12-12V466a12,12,0,0,0-12-12h-4c0-80.56-32.19-155.81-97.18-198C400.1,213.62,432,138.1,432,58Zm-48,0c.07,46.07-5.93,75.07-36.7,118.07H165.7c-27.63-36-37.63-78-37.7-118.07ZM371.3,387H140.7c21.37-67.93,64.55-107,115.3-107S351.07,320.07,371.3,387Z" fill="currentColor"/></svg>