<svg xmlns="http://www.w3.org/2000/svg" viewBox="0 0 576 512" x="0" y="0" aria-hidden="true" focusable="false" role="img"><path d="M506.29,37H69.71A61.78,61.78,0,0,0,8,98.71V412.29A61.78,61.78,0,0,0,69.71,474H506.29A61.78,61.78,0,0,0,568,412.29V98.71A61.78,61.78,0,0,0,506.29,37ZM69.71,85H506.29A13.73,13.73,0,0,1,520,98.71v43.66H56V98.71A13.73,13.73,0,0,1,69.71,85ZM506.29,426H69.71A13.73,13.73,0,0,1,56,412.29V174.37H520V412.29A13.73,13.73,0,0,1,506.29,426Z" fill="currentColor"/><path d="M458.32,223h-132c-9,0-15.34,7.16-15.34,16s6.37,16,15.34,16h132c9,0,15.34-7.16,15.34-16S467.3,223,458.32,223Z" fill="currentColor"/><path d="M458.32,347h-132c-9,0-15.34,7.16-15.34,16s6.37,16,15.34,16h132c9,0,15.34-7.16,15.34-16S467.3,347,458.32,347Z" fill="currentColor"/><path d="M458.32,285h-132c-9,0-15.34,7.16-15.34,16s6.37,16,15.34,16h132c9,0,15.34-7.16,15.34-16S467.3,285,458.32,285Z" fill="currentColor"/><path d="M260.72,242.84l-69-38a16,16,0,0,0-15.44,0l-69,38a16,16,0,0,0-8.28,14V347a16,16,0,0,0,8.28,14l69,38a16,16,0,0,0,15.44,0l69-38A16,16,0,0,0,269,347V256.86A16,16,0,0,0,260.72,242.84ZM184,237.1l39.21,21.61L184,280.32l-39.21-21.61Zm-53,41.42,41,22.59v59l-41-22.59Zm65,81.6v-59l41-22.59v59Z" fill="currentColor"/></svg>