<svg xmlns="http://www.w3.org/2000/svg" viewBox="0 0 512 512" x="0" y="0" aria-hidden="true" focusable="false" role="img">
    <path d="M256,8C119,8,8,119.08,8,256S119,504,256,504,504,393,504,256,393,8,256,8Zm0,448C145.543,456,56,366.457,56,256S145.543,56,256,56s200,89.543,200,200A199.88,199.88,0,0,1,256,456Zm34.82-162.34V300a12,12,0,0,1-12,12H233.18a12,12,0,0,1-12-12v-8.66c0-33.06-.37-130.238-.081-160.562.021-2.153.048-4.148.081-5.631.2-7.522,4.166-13.014,12-13.146,18.909-.114,30.317-.152,45.64,0,8.343-.016,11.468,5.692,11.471,13.146.008,1.561.018,3.361.028,5.576C290.49,166.465,290.82,270.193,290.82,293.66ZM298,368a42,42,0,1,1-42-42A42,42,0,0,1,298,368Z" transform="translate(512 512) rotate(-180)" fill="currentColor"/>
</svg>
