<svg xmlns="http://www.w3.org/2000/svg" viewBox="0 0 577 512" x="0" y="0" aria-hidden="true" focusable="false" role="img"><path d="M529,65H49A48,48,0,0,0,1,113V401a48,48,0,0,0,48,48H529a48,48,0,0,0,48-48V113A48,48,0,0,0,529,65Zm8,336a8,8,0,0,1-8,8H49a8,8,0,0,1-8-8V113a8,8,0,0,1,8-8H529a8,8,0,0,1,8,8ZM171,271V243a12,12,0,0,0-12-12H131a12,12,0,0,0-12,12v28a12,12,0,0,0,12,12h28A12,12,0,0,0,171,271Zm96,0V243a12,12,0,0,0-12-12H227a12,12,0,0,0-12,12v28a12,12,0,0,0,12,12h28A12,12,0,0,0,267,271Zm96,0V243a12,12,0,0,0-12-12H323a12,12,0,0,0-12,12v28a12,12,0,0,0,12,12h28A12,12,0,0,0,363,271Zm96,0V243a12,12,0,0,0-12-12H419a12,12,0,0,0-12,12v28a12,12,0,0,0,12,12h28A12,12,0,0,0,459,271ZM123,353V325a12,12,0,0,0-12-12H83a12,12,0,0,0-12,12v28a12,12,0,0,0,12,12h28A12,12,0,0,0,123,353Zm384,0V325a12,12,0,0,0-12-12H467a12,12,0,0,0-12,12v28a12,12,0,0,0,12,12h28A12,12,0,0,0,507,353ZM123,189V161a12,12,0,0,0-12-12H83a12,12,0,0,0-12,12v28a12,12,0,0,0,12,12h28A12,12,0,0,0,123,189Zm96,0V161a12,12,0,0,0-12-12H179a12,12,0,0,0-12,12v28a12,12,0,0,0,12,12h28A12,12,0,0,0,219,189Zm96,0V161a12,12,0,0,0-12-12H275a12,12,0,0,0-12,12v28a12,12,0,0,0,12,12h28A12,12,0,0,0,315,189Zm96,0V161a12,12,0,0,0-12-12H371a12,12,0,0,0-12,12v28a12,12,0,0,0,12,12h28A12,12,0,0,0,411,189Zm96,0V161a12,12,0,0,0-12-12H467a12,12,0,0,0-12,12v28a12,12,0,0,0,12,12h28A12,12,0,0,0,507,189ZM409,347V331a12,12,0,0,0-12-12H181a12,12,0,0,0-12,12v16a12,12,0,0,0,12,12H397A12,12,0,0,0,409,347Z" fill="currentColor"/></svg>