<svg xmlns="http://www.w3.org/2000/svg" viewBox="0 0 512 512" x="0" y="0" aria-hidden="true" focusable="false" role="img"><path d="M106.14,364.37a24,24,0,0,1-17.77-40.14l93.34-102.79a24,24,0,0,1,37.11,1.92l22.12,30.11,66.3-74.21a24,24,0,0,1,38.49,3.67l19.95,33.36L438.77,141a24,24,0,1,1,34.43,33.45l-94.86,97.66a24,24,0,0,1-37.81-4.41l-19.24-32.16L257,307.52a24,24,0,0,1-37.24-1.78l-22.27-30.31-73.6,81.07A23.91,23.91,0,0,1,106.14,364.37ZM48,420V46A12,12,0,0,0,36,34H12A12,12,0,0,0,0,46V456a12,12,0,0,0,12,12H500a12,12,0,0,0,12-12V432a12,12,0,0,0-12-12Z" fill="currentColor"/></svg>