<svg xmlns="http://www.w3.org/2000/svg" viewBox="0 0 512 512" x="0" y="0" aria-hidden="true" focusable="false" role="img"><path d="M151.73,490.12a129,129,0,0,1-91.82-38c-50.63-50.63-50.63-133,0-183.65,16-16,28.35-28.36,38-38l19-19.05a14.79,14.79,0,0,1,25.25,10.14l0,3.15c.11,9.1.16,13.67,2.47,23.31a14.82,14.82,0,0,1-3.95,13.83L99.51,303C82.57,320,73,341.88,73.18,363.14c.18,18.69,8.11,36.12,22.95,50.4l.07.08c16.41,16.66,35.75,25.47,55.92,25.47,19.85,0,39.19-8.4,54.46-23.65L274,348c30.11-36.93,30-78.73-.44-109.12-5.9-5.91-13.56-13.13-20.46-16.46A14.82,14.82,0,0,1,245,207.17c1.33-10.92,3.65-15.59,11.8-23.74l3.93-3.94a14.66,14.66,0,0,1,10.45-4.34,14.89,14.89,0,0,1,6.52,1.52,129.07,129.07,0,0,1,33.45,24.18l4.53,4.54-.16.06a130,130,0,0,1,4.66,169l-.33.42c-4.17,5.16-4.17,5.16-38.37,39.32l-37.94,37.9A129,129,0,0,1,151.73,490.12Zm88.86-156.83a14.86,14.86,0,0,1-6.52-1.52,129.07,129.07,0,0,1-33.45-24.18c-47-47-50.73-118.51-8.85-170l.33-.41C196.26,132,196.26,132,230.33,98c9.65-9.64,22-22,38.08-38l.1-.11a129.79,129.79,0,0,1,182.8-.62h0l.85.85a129.92,129.92,0,0,1-.11,183.53c-15.95,16-28.29,28.31-37.9,37.93l-19.11,19.12a14.65,14.65,0,0,1-10.4,4.35h0a14.67,14.67,0,0,1-14.84-14.49c-.13-9.09-.72-11.43-2.44-18.38-.36-1.42-.75-3-1.2-4.88a14.8,14.8,0,0,1,3.95-13.83l41.2-41.2c29-29,44.15-77.64,9.11-116-18.31-17-39.27-25.95-60.61-25.95a71.27,71.27,0,0,0-50.68,21.09L241.47,159c-18.62,17.55-28.21,36.3-28.49,55.72-.28,19,8.77,38.67,25.5,55.4a71.27,71.27,0,0,0,19.42,13.81A14.82,14.82,0,0,1,266,299.16c-1.27,10.44-2.49,17.29-11,25.85L251,329A14.66,14.66,0,0,1,240.59,333.29Z" fill="currentColor"/></svg>