<svg xmlns="http://www.w3.org/2000/svg" viewBox="0 0 512 512" x="0" y="0" aria-hidden="true" focusable="false" role="img"><path d="M165,144h145.5c9.9,0,16.91-7.16,16.91-16s-7-16-16.91-16H165c-9.89,0-16.91,7.16-16.91,16S155.06,144,165,144Z" fill="currentColor"/><path d="M165,217.67h145.5c9.9,0,16.91-7.17,16.91-16s-7-16-16.91-16H165c-9.89,0-16.91,7.16-16.91,16S155.06,217.67,165,217.67Z" fill="currentColor"/><path d="M435.93,339.17l-18.67,2.28-31.31,32L368.7,356.63,350,354.74a4.88,4.88,0,0,0-5.35,5.46l2.29,18.67,17.27,16.79-.24.24,22.24,21.78.33-.33h0l7.66-7.83,45.35-46.27,1.89-18.75A4.89,4.89,0,0,0,435.93,339.17Z" fill="currentColor"/><path d="M474.7,296.3A124.52,124.52,0,0,0,422,264.82V48a32,32,0,0,0-32-32H67A32,32,0,0,0,35,48V98H23.42A19.41,19.41,0,0,0,4,117.42v9.16A19.41,19.41,0,0,0,23.42,146H35v39.33H23.42A19.42,19.42,0,0,0,4,204.75v9.16a19.41,19.41,0,0,0,19.42,19.42H35v39.34H23.42A19.41,19.41,0,0,0,4,292.09v9.16a19.42,19.42,0,0,0,19.42,19.42H35V360H23.42A19.41,19.41,0,0,0,4,379.42v9.16A19.41,19.41,0,0,0,23.42,408H35v51a32,32,0,0,0,32,32H319.85A125.19,125.19,0,0,0,474.7,296.3ZM386.18,468A83.16,83.16,0,1,1,445,326h0a83.14,83.14,0,0,1-58.82,142ZM83,408H94.58A19.41,19.41,0,0,0,114,388.58v-9.16A19.41,19.41,0,0,0,94.58,360H83V320.67H94.58A19.42,19.42,0,0,0,114,301.25v-9.16a19.41,19.41,0,0,0-19.42-19.42H83V233.33H94.58A19.41,19.41,0,0,0,114,213.91v-9.16a19.42,19.42,0,0,0-19.42-19.42H83V146H94.58A19.41,19.41,0,0,0,114,126.58v-9.16A19.41,19.41,0,0,0,94.58,98H83V64H374V260.22a124,124,0,0,0-46.69,14.06c-.53-8.34-7.36-14.95-16.86-14.95H165c-9.89,0-16.91,7.17-16.91,16s7,16,16.91,16h138c-1.79,1.61-3.55,3.26-5.27,5A124.81,124.81,0,0,0,272.23,333h-110C154,333,148,340.16,148,349s5.91,16,14.23,16H262.63a125.75,125.75,0,0,0,12.7,78H83Z" fill="currentColor"/></svg>