<svg xmlns="http://www.w3.org/2000/svg" viewBox="0 0 576 512" x="0" y="0" aria-hidden="true" focusable="false" role="img"><path d="M230.36,464H52V48.09H212v104a23.94,23.94,0,0,0,24,24H340V308.19l48-47.47V132a48.23,48.23,0,0,0-14.1-34L290,14.1A48,48,0,0,0,256.1,0H52A48.16,48.16,0,0,0,4,48.09V464a48,48,0,0,0,48,48H226.93ZM260,52l76.1,76.08H260Z" fill="currentColor"/><path d="M429.45,253.39l72.45,70.94L330.47,499.4l-60.82,7.44a15.92,15.92,0,0,1-17.79-17.41L258,428.36Zm135.91-28h0l-38.3-37.5a24,24,0,0,0-33.79.36l-41.36,42.23,72.55,70.94,41.36-42.23A24.06,24.06,0,0,0,565.36,225.36Z" fill="currentColor"/><path d="M133.05,355.35a5.86,5.86,0,0,1-3.8-1l-50.8-33a12.33,12.33,0,0,1-4.8-5.4,12.71,12.71,0,0,1,0-11.6,12.33,12.33,0,0,1,4.8-5.4l50.8-33a5.86,5.86,0,0,1,3.8-1q4.59,0,9.1,4.2a13.66,13.66,0,0,1,4.5,10.4q0,5.59-3.6,7.8l-35.2,22.8,35.2,22.8q3.6,2.21,3.6,7.8a13.66,13.66,0,0,1-4.5,10.4Q137.65,355.35,133.05,355.35Z" fill="currentColor"/><path d="M170.44,374.75a10.48,10.48,0,0,1-8.1-3.4,10.61,10.61,0,0,1-3.1-7.2,8.59,8.59,0,0,1,1-3.8l70.2-144.2q2.4-5,8.4-5a13,13,0,0,1,8,2.9,9.19,9.19,0,0,1,3.8,7.7,8.32,8.32,0,0,1-.8,3.8l-70.4,144.2a7.82,7.82,0,0,1-3.6,3.6A11.26,11.26,0,0,1,170.44,374.75Z" fill="currentColor"/><path d="M256.84,355.35q-4.39,0-9-4.2a13.55,13.55,0,0,1-4.6-10.4q0-5.6,3.6-7.8l35.2-22.8-35.2-22.8q-3.6-2.21-3.6-7.8a13.55,13.55,0,0,1,4.6-10.4q4.6-4.2,9-4.2a5.86,5.86,0,0,1,3.8,1l50.8,33a12.33,12.33,0,0,1,4.8,5.4,12.71,12.71,0,0,1,0,11.6,12.33,12.33,0,0,1-4.8,5.4l-50.8,33A5.86,5.86,0,0,1,256.84,355.35Z" fill="currentColor"/></svg>