<svg xmlns="http://www.w3.org/2000/svg" viewBox="0 0 512 512" x="0" y="0" aria-hidden="true" focusable="false" role="img"><path d="M500,420H48V46A12,12,0,0,0,36,34H12A12,12,0,0,0,0,46V456a12,12,0,0,0,12,12H500a12,12,0,0,0,12-12V432A12,12,0,0,0,500,420Z" fill="currentColor"/><path d="M136.07,373.07h297a24,24,0,0,0,24-24v-258a24,24,0,0,0-24-24h-103a24,24,0,0,0-24,24v56.12l-76.12.38a24,24,0,0,0-23.88,24v56.5h-70a24,24,0,0,0-24,24v97A24,24,0,0,0,136.07,373.07Zm24-97h70a24,24,0,0,0,24-24V195.45l76.12-.38a24,24,0,0,0,23.88-24v-56h55v130h-100v80h-149Z" fill="currentColor"/></svg>