<svg xmlns="http://www.w3.org/2000/svg" viewBox="0 0 576 512" x="0" y="0" aria-hidden="true" focusable="false" role="img"><path d="M493.5,20H82.5a32,32,0,0,0-32,32V395a32,32,0,0,0,32,32H182.59l-20.18,33.64H80a16,16,0,0,0-16,16v16a16,16,0,0,0,16,16H496a16,16,0,0,0,16-16v-16a16,16,0,0,0-16-16H413.59L393.42,427H493.5a32,32,0,0,0,32-32V52A32,32,0,0,0,493.5,20ZM218.39,460.64l17.45-29.09a6,6,0,0,1,5.16-2.91h94a6,6,0,0,1,5.15,2.91l17.46,29.09ZM477.5,263h-260V68h260ZM185.5,68V263h-87V68Zm-87,227h87v81a18.2,18.2,0,0,0,.26,3H98.5Zm118.74,84a18.2,18.2,0,0,0,.26-3V295h260v84Z" fill="currentColor"/><path d="M272,237h21c5.8,0,10.5-5.37,10.5-12V187c0-6.63-4.7-12-10.5-12H272c-5.8,0-10.5,5.37-10.5,12v38C261.5,231.63,266.2,237,272,237Z" fill="currentColor"/><path d="M335.5,237h21c5.8,0,10.5-5.37,10.5-12V103c0-6.63-4.7-12-10.5-12h-21c-5.8,0-10.5,5.37-10.5,12V225C325,231.63,329.7,237,335.5,237Z" fill="currentColor"/><path d="M399,237h21c5.8,0,10.5-5.37,10.5-12V117c0-6.63-4.7-12-10.5-12H399c-5.8,0-10.5,5.37-10.5,12V225C388.5,231.63,393.2,237,399,237Z" fill="currentColor"/></svg>