<svg xmlns="http://www.w3.org/2000/svg" viewBox="0 0 548 512" x="0" y="0" aria-hidden="true" focusable="false" role="img"><path d="M518.54,191.64h0c-35.69-35.26-93.76-35.26-129.45,0A90.05,90.05,0,0,0,365,233.46a136.43,136.43,0,0,1-21.58-7.14c-26.16-11.18-49.41-31.23-69.11-59.59C258.68,144.26,243,128,225,115.46a152.47,152.47,0,0,0-39.86-19.82,89.78,89.78,0,0,0-26.62-56.73c-35.69-35.26-93.76-35.26-129.45,0a90.29,90.29,0,0,0,0,128.71,92.42,92.42,0,0,0,129.45,0,90.34,90.34,0,0,0,22.18-35.34c24.57,9.7,44.76,27.29,64,55,22,31.73,48.27,55,78.07,69.23-29.8,14.24-56,37.5-78.07,69.23-19.28,27.76-39.52,45.37-64.15,55a90.48,90.48,0,0,0-22-34.87c-35.69-35.26-93.76-35.26-129.45,0a90.29,90.29,0,0,0,0,128.71,92.42,92.42,0,0,0,129.45,0,89.75,89.75,0,0,0,26.66-57.27A152.66,152.66,0,0,0,225,397.54c18-12.51,33.66-28.8,49.26-51.27,19.7-28.36,43-48.41,69.11-59.59a137.54,137.54,0,0,1,21.84-7.21,90.07,90.07,0,0,0,23.86,40.89,92.44,92.44,0,0,0,129.45,0,90.3,90.3,0,0,0,0-128.72ZM124.81,133.48a44.27,44.27,0,0,1-62,0,42.32,42.32,0,0,1,0-60.43,44.27,44.27,0,0,1,62,0,42.32,42.32,0,0,1,0,60.43Zm0,307a44.27,44.27,0,0,1-62,0,42.32,42.32,0,0,1,0-60.43,44.27,44.27,0,0,1,62,0,42.32,42.32,0,0,1,0,60.43Zm360-154.27a44.26,44.26,0,0,1-62,0,42.3,42.3,0,0,1,0-60.42,44.25,44.25,0,0,1,62,0h0a42.3,42.3,0,0,1,0,60.42Z" fill="currentColor"/><path d="M518.54,191.64h0c-35.69-35.26-93.76-35.26-129.45,0A90.05,90.05,0,0,0,365,233.46a136.43,136.43,0,0,1-21.58-7.14c-26.16-11.18-49.41-31.23-69.11-59.59C258.68,144.26,243,128,225,115.46a152.47,152.47,0,0,0-39.86-19.82,89.78,89.78,0,0,0-26.62-56.73c-35.69-35.26-93.76-35.26-129.45,0a90.29,90.29,0,0,0,0,128.71,92.42,92.42,0,0,0,129.45,0,90.34,90.34,0,0,0,22.18-35.34c24.57,9.7,44.76,27.29,64,55,22,31.73,48.27,55,78.07,69.23-29.8,14.24-56,37.5-78.07,69.23-19.28,27.76-39.52,45.37-64.15,55a90.48,90.48,0,0,0-22-34.87c-35.69-35.26-93.76-35.26-129.45,0a90.29,90.29,0,0,0,0,128.71,92.42,92.42,0,0,0,129.45,0,89.75,89.75,0,0,0,26.66-57.27A152.66,152.66,0,0,0,225,397.54c18-12.51,33.66-28.8,49.26-51.27,19.7-28.36,43-48.41,69.11-59.59a137.54,137.54,0,0,1,21.84-7.21,90.07,90.07,0,0,0,23.86,40.89,92.44,92.44,0,0,0,129.45,0,90.3,90.3,0,0,0,0-128.72ZM124.81,133.48a44.27,44.27,0,0,1-62,0,42.32,42.32,0,0,1,0-60.43,44.27,44.27,0,0,1,62,0,42.32,42.32,0,0,1,0,60.43Zm0,307a44.27,44.27,0,0,1-62,0,42.32,42.32,0,0,1,0-60.43,44.27,44.27,0,0,1,62,0,42.32,42.32,0,0,1,0,60.43Zm360-154.27a44.26,44.26,0,0,1-62,0,42.3,42.3,0,0,1,0-60.42,44.25,44.25,0,0,1,62,0h0a42.3,42.3,0,0,1,0,60.42Z" fill="currentColor"/></svg>