<svg xmlns="http://www.w3.org/2000/svg" viewBox="0 0 576 512" x="0" y="0" aria-hidden="true" focusable="false" role="img"><path d="M290.74,361.78a49.28,49.28,0,1,1,67.53-65.93l30.72-30a91.51,91.51,0,0,0-53.39-36V185.65h39.63a33.16,33.16,0,0,0,33.13-33.13V51a33.16,33.16,0,0,0-33.13-33.12H254A33.16,33.16,0,0,0,220.84,51V80.75h-26.7c-.48-.55-1-1.1-1.51-1.63L123.89,10.38a32,32,0,0,0-45.27,0L9.88,79.12a32,32,0,0,0,0,45.27l68.74,68.74c.53.53,1.08,1,1.63,1.51v40.13H40.62A33.16,33.16,0,0,0,7.49,267.9V369.44a33.16,33.16,0,0,0,33.13,33.12H161.89A33.16,33.16,0,0,0,195,369.44V339.67h30.74A91.57,91.57,0,0,0,260,391.78ZM262.84,59.86H366.36v83.79H262.84ZM46.64,101.75l54.61-54.61,54.62,54.61-54.62,54.62ZM153,360.56H49.49V276.77H153Zm72.74-62.89H195V267.9a33.16,33.16,0,0,0-33.12-33.13H122.25V194.64c.56-.48,1.11-1,1.64-1.51l68.74-68.75c.53-.52,1-1.07,1.51-1.63h26.7v29.77A33.16,33.16,0,0,0,254,185.65H293.6v44.17A91.62,91.62,0,0,0,225.75,297.67Z" fill="currentColor"/><path d="M567,228l-38.3-37.5a24,24,0,0,0-33.8.35l-41.36,42.24L526.06,304l41.36-42.23A24.06,24.06,0,0,0,567,228Z" fill="currentColor"/><path d="M259.63,431,253.47,492a15.93,15.93,0,0,0,17.78,17.42L332.08,502,503.5,326.93,431.05,256Z" fill="currentColor"/></svg>