<svg xmlns="http://www.w3.org/2000/svg" viewBox="0 0 576 512" x="0" y="0" aria-hidden="true" focusable="false" role="img"><path d="M542.3,183.5c-21.9,4.8-104.7,14.1-246.4-62.8-74.6-40.4-137.5-50.4-186.7-48C121.5,33.7,90.9,0,56,0A55.88,55.88,0,0,0,32,106.4V504a8,8,0,0,0,8,8H72a8,8,0,0,0,8-8V428.4c80.8-54.3,156.4-55.7,165.8-56.2,28.2-1.4,74.5-5.9,135.1-19,4.4-1,109-24.5,188.9-124.7,16.1-20.2-1.5-50.3-27.5-45ZM370.8,306.3c-57.5,12.4-101,16.6-127.4,18A367.72,367.72,0,0,0,80,372.2V124c44.1-8.6,109.6-6.3,193,38.9,101.4,54.9,177,69.8,225.9,71.5C437.1,291,371.5,306.1,370.8,306.3Z" fill="currentColor"/></svg>