<svg xmlns="http://www.w3.org/2000/svg" viewBox="0 0 512 512" x="0" y="0" aria-hidden="true" focusable="false" role="img"><path d="M145.81,224.07a96,96,0,0,0,0-192c-52.86,0-95.74,43-95.74,96S93,224.07,145.81,224.07Zm0-144a48,48,0,1,1-47.87,48A47.95,47.95,0,0,1,145.81,80.07Zm191.49,208c-52.86,0-95.74,43-95.74,96s42.88,96,95.74,96,95.74-43,95.74-96S390.16,288.07,337.3,288.07Zm0,144a48,48,0,1,1,47.87-48A47.95,47.95,0,0,1,337.3,432.07ZM431,50.87,107.12,475.07a12.15,12.15,0,0,1-9.68,5H62a12,12,0,0,1-10-18.7L376.39,37.07a12.15,12.15,0,0,1,9.68-5h35A12,12,0,0,1,431,50.87Z" fill="currentColor"/></svg>