<svg xmlns="http://www.w3.org/2000/svg" viewBox="0 0 576 512" x="0" y="0" aria-hidden="true" focusable="false" role="img"><rect width="52" height="266" x="157.33" y="208" rx="16" fill="currentColor"/><rect width="52" height="170" x="34" y="304" rx="16" fill="currentColor"/><rect width="52" height="202" x="280.67" y="272" rx="16" fill="currentColor"/><path d="M419.68,88.84a36.09,36.09,0,1,0-23.14-27.67L314,139.69a36,36,0,0,0-24.2,3.68L223.86,96c.09-1,.14-2,.14-3a36,36,0,0,0-72,0c0,.13,0,.27,0,.4L69.39,164.76a36,36,0,1,0,26.92,24.32l74.57-64.41a36,36,0,0,0,32.43.91L271,174.2c0,.27,0,.53,0,.8a36,36,0,1,0,70.13-11.44Z" fill="currentColor"/><path d="M420,175a16,16,0,0,0-16,16V296.17a119.47,119.47,0,0,1,52-12.69V191a16,16,0,0,0-16-16Z" fill="currentColor"/><path d="M558,393.15h0a11.37,11.37,0,0,0-11.24-9.44H531.6A79.56,79.56,0,0,0,517,358.41l7.55-13.12A11.41,11.41,0,0,0,522,330.85a102.73,102.73,0,0,0-29.54-17.18,11.28,11.28,0,0,0-13.88,5L471,331.79a79.9,79.9,0,0,0-29.17,0l-7.56-13.12a11.52,11.52,0,0,0-13.87-5,103.18,103.18,0,0,0-29.65,17.18,11.3,11.3,0,0,0-2.55,14.44l7.56,13.12a79.77,79.77,0,0,0-14.64,25.3h-15.2a11.36,11.36,0,0,0-11.23,9.63,106.5,106.5,0,0,0,0,34.18A11.35,11.35,0,0,0,365.92,437h15.2a79.77,79.77,0,0,0,14.64,25.3l-7.56,13.12a11.42,11.42,0,0,0,2.55,14.44A103.2,103.2,0,0,0,420.4,507a11.28,11.28,0,0,0,13.87-5l7.56-13.12a79.9,79.9,0,0,0,29.17,0L478.55,502a11.55,11.55,0,0,0,13.88,5,103.29,103.29,0,0,0,29.64-17.19,11.3,11.3,0,0,0,2.55-14.44l-7.55-13.12A79.94,79.94,0,0,0,531.7,437h15.2a11.36,11.36,0,0,0,11.23-9.63A106.76,106.76,0,0,0,558,393.15ZM456.39,442.68a32.35,32.35,0,1,1,32.34-32.34A32.31,32.31,0,0,1,456.39,442.68Z" fill="currentColor"/></svg>