<svg xmlns="http://www.w3.org/2000/svg" viewBox="0 0 512 512" x="0" y="0" aria-hidden="true" focusable="false" role="img"><rect width="52" height="266" x="171.33" y="212" rx="16" fill="currentColor"/><rect width="52" height="170" x="48" y="308" rx="16" fill="currentColor"/><rect width="52" height="202" x="294.67" y="276" rx="16" fill="currentColor"/><rect width="52" height="299" x="418" y="179" rx="16" fill="currentColor"/><path d="M446,23a36,36,0,0,0-35.46,42.17L328,143.69a36,36,0,0,0-24.2,3.68L237.86,100c.09-1,.14-2,.14-3a36,36,0,0,0-72,0c0,.14,0,.27,0,.4L83.39,168.76a36,36,0,1,0,26.92,24.32l74.57-64.41a36,36,0,0,0,32.43.91L285,178.2c0,.27,0,.53,0,.8a36,36,0,1,0,70.13-11.44l78.55-74.72A36,36,0,1,0,446,23Z" fill="currentColor"/></svg>