<svg xmlns="http://www.w3.org/2000/svg" viewBox="0 0 576 512" x="0" y="0" aria-hidden="true" focusable="false" role="img"><rect width="52" height="266" x="163.33" y="212" rx="16" fill="currentColor"/><rect width="52" height="170" x="40" y="308" rx="16" fill="currentColor"/><rect width="52" height="202" x="286.67" y="276" rx="16" fill="currentColor"/><path d="M344.2,120.66l-24.2,23a36,36,0,0,0-24.2,3.68L229.86,100c.09-1,.14-2,.14-3a36,36,0,0,0-72,0c0,.13,0,.27,0,.4L75.39,168.76a36,36,0,1,0,26.92,24.32l74.57-64.41a36,36,0,0,0,32.43.91L277,178.2c0,.27,0,.53,0,.8a36,36,0,1,0,70.13-11.44l9-8.54A120,120,0,0,1,344.2,120.66Z" fill="currentColor"/><path d="M410,462a16,16,0,0,0,16,16h20a16,16,0,0,0,16-16V225.4a119.61,119.61,0,0,1-52-12.69Z" fill="currentColor"/><path d="M463.81,5.15a99.29,99.29,0,1,0,99.05,99.29A99.16,99.16,0,0,0,463.81,5.15Zm54.67,113a4.56,4.56,0,0,1-4.55,4.56H482v32a4.56,4.56,0,0,1-4.55,4.56H450.14a4.56,4.56,0,0,1-4.55-4.56h0v-32h-31.9a4.56,4.56,0,0,1-4.55-4.56V90.74a4.56,4.56,0,0,1,4.55-4.57h31.9v-32a4.56,4.56,0,0,1,4.55-4.56h27.34A4.56,4.56,0,0,1,482,54.2v32h31.9a4.56,4.56,0,0,1,4.55,4.57Z" fill="currentColor"/></svg>