<svg xmlns="http://www.w3.org/2000/svg" viewBox="0 0 512 512" x="0" y="0" aria-hidden="true" focusable="false" role="img"><rect width="340" height="48" x="87" y="5.07" rx="16" fill="currentColor"/><path d="M409.74,152.39a206,206,0,1,0,60.33,145.68A204.66,204.66,0,0,0,409.74,152.39ZM264.07,456.07c-87.12,0-158-70.88-158-158s70.88-158,158-158,158,70.88,158,158S351.19,456.07,264.07,456.07Z" fill="currentColor"/><path d="M338.37,334l-53.06-38.6V182.86a9.56,9.56,0,0,0-9.53-9.54H250.36a9.56,9.56,0,0,0-9.54,9.54V313.29a9.59,9.59,0,0,0,3.9,7.71l67.44,49a9.6,9.6,0,0,0,13.34-2.07l14.94-20.57A9.54,9.54,0,0,0,338.37,334Z" fill="currentColor"/></svg>