<svg xmlns="http://www.w3.org/2000/svg" viewBox="0 0 512 512" x="0" y="0" aria-hidden="true" focusable="false" role="img"><path d="M426,239c-21,16-35,23-43,20-24.07-.09.94-95.13,6-116-29.61,5.7-115.74,35.35-131,11-5.74-20.65,27-32.76,27-75.72,0-45.37-42-73.59-87-73.59C152.15,4.69,92,23,93,79.75c.72,40.88,28.7,64.65,32,74.56-.73,28.84-95,1.75-123-5.47V490.4c10.46,2.7,31.68,16.29,79,16.29,45.3,0,88-15.74,88-60.85,0-31.78-28-45.66-28-73.84,0-16.52,22.24-27.06,42.36-27.06,21.13,0,43.64,11.41,43.64,25.59,0,24-27,36.88-27,77.92,0,66.84,63.55,58.07,116.44,51.23C348,493,360,488,386,483c-2.8-8.95-24.55-68.35-10.38-87.63,10-13.64,19.37,31.32,64,31.32,47.07,0,74.35-51.51,74.35-96C514,272.9,490,201,426,239Zm13.65,139.69c-24.5,0-17.49-32.76-59.11-32.76-35.29,0-67.23,24.18-53.54,101.07-19,2.23-58.92,18.63-71,8-12-15,19-40.92,19-84.47,0-46.33-46.49-74.58-91.64-73.59C135,298,93,324.36,93,372c0,50.81,37.41,70.4,25.6,79.56-16.85,13.06-46.85,5.12-68.6.93V209.27c63.93,10.95,123,9.33,123-55.43,0-31.8-32-45.78-32-74.09,0-26.75,39.34-27.06,57-27.06,16.2,0,39,7.94,39,25.59,0,23.52-33,36.64-33,77.72,0,60.4,59.39,56.13,119,49-6.59,53.71,3,106,57,106,31.22,0,32-17,58.15-28.31,17.85-8.69,27.85,28,27.85,48C466,352.3,453.84,378.69,439.65,378.69Z" fill="currentColor"/></svg>