<svg xmlns="http://www.w3.org/2000/svg" viewBox="0 0 512 512" x="0" y="0" aria-hidden="true" focusable="false" role="img"><path d="M505,400l-79.2,72.9c-15.1,15.1-41.8,4.4-41.8-17v-40H353a12,12,0,0,1-8.8-3.9l-89.8-97.2,38.1-41.3,79.8,86.3H384v-48c0-21.4,26.7-32.1,41.8-17l79.2,71A24.45,24.45,0,0,1,505,400ZM12,152h91.8l79.8,86.3L221.7,197,131.9,99.8a12,12,0,0,0-8.8-3.9H12a12,12,0,0,0-12,12v32A12.06,12.06,0,0,0,12,152Zm493-41.9-79.2-71C410.7,24,384,34.7,384,56V96H353a12,12,0,0,0-8.8,3.9L103.8,360H12A12,12,0,0,0,0,372v32a12,12,0,0,0,12,12H123a12,12,0,0,0,8.8-3.9L372.2,152H384v48c0,21.4,26.7,32.1,41.8,17L505,144A24.08,24.08,0,0,0,505,110.1Z" fill="currentColor"/></svg>