<svg xmlns="http://www.w3.org/2000/svg" viewBox="0 0 576 512" x="0" y="0" aria-hidden="true" focusable="false" role="img"><path d="M366.12,230.72a96,96,0,1,1,144.67,1.35,160.92,160.92,0,0,0-60.23-17.17,48,48,0,1,0-23.9-.22A161,161,0,0,0,366.12,230.72ZM82,127.31a112,112,0,1,1,112,112A111.94,111.94,0,0,1,82,127.31Zm48,0a64,64,0,1,0,64-64A64.06,64.06,0,0,0,130,127.31Zm149.55,288H50V370.5a67.41,67.41,0,0,1,44.1-63.09,46.63,46.63,0,0,1,31.9,0,201.63,201.63,0,0,0,68,11.9,203.06,203.06,0,0,0,68.1-11.9,46.73,46.73,0,0,1,28.73-1,163.15,163.15,0,0,1,26.4-39.05,118.63,118.63,0,0,0-43.13-8h0a119.48,119.48,0,0,0-35.5,5.3,152.46,152.46,0,0,1-89.4,0,123.15,123.15,0,0,0-35.5-5.3c-36.3,0-71.6,16.19-92.3,46.9A116,116,0,0,0,2,370.5v44.81a48,48,0,0,0,48,48H300.12A161.48,161.48,0,0,1,279.59,415.31Zm292.05-69.14a137.62,137.62,0,0,1,0,60.75,6.62,6.62,0,0,1-6.49,5.22H537.77a108.43,108.43,0,0,1-19.52,33.79l13.68,23.69a6.67,6.67,0,0,1-1.28,8.25,139.72,139.72,0,0,1-52.57,30.35,6.66,6.66,0,0,1-7.78-3l-13.68-23.69a104.92,104.92,0,0,1-39,0L403.92,505.2a6.7,6.7,0,0,1-7.76,3,138.56,138.56,0,0,1-52.63-30.34,6.71,6.71,0,0,1-1.24-8.27L356,445.91a107,107,0,0,1-19.52-33.8H309.1a6.64,6.64,0,0,1-6.54-5.21,137.62,137.62,0,0,1,0-60.75,6.6,6.6,0,0,1,6.48-5.22l27.3,0a108.48,108.48,0,0,1,19.52-33.8l-13.68-23.69a6.65,6.65,0,0,1,1.28-8.24,139.74,139.74,0,0,1,52.57-30.36,6.67,6.67,0,0,1,7.78,3l13.65,23.64a104.92,104.92,0,0,1,39,0l13.68-23.68a6.67,6.67,0,0,1,7.76-3,138.56,138.56,0,0,1,52.63,30.34,6.71,6.71,0,0,1,1.24,8.27l-13.67,23.68a107.24,107.24,0,0,1,19.52,33.8H565A6.88,6.88,0,0,1,571.64,346.17Zm-96.1,8.11A44.47,44.47,0,1,0,459.26,415,44.53,44.53,0,0,0,475.54,354.28Z" fill="currentColor"/></svg>