<svg xmlns="http://www.w3.org/2000/svg" viewBox="0 0 576 512" x="0" y="0" aria-hidden="true" focusable="false" role="img"><path d="M267.73,171.33h40.54c7.13,0,12.68-6.86,11.93-14.74l-4.6-37.46c-.43-4.53-3.87-8-8-8H268.35c-4.09,0-7.53,3.43-8,8l-4.6,37.46C255.05,164.47,260.61,171.33,267.73,171.33Zm-7.37,126.54h55.29c9.5,0,16.91-9.15,15.91-19.65l-5.07-53.38c-.86-9.05-7.72-15.92-15.91-15.92H265.43c-8.19,0-15.05,6.87-15.91,15.92l-5.07,53.38C243.45,288.72,250.86,297.87,260.36,297.87ZM273.42,76.58h29.16c4.75,0,8.45-4.58,8-9.83L308.85,49c-.43-4.53-3.87-8-8-8H275.11c-4.09,0-7.53,3.44-8,8l-1.69,17.79C265,72,268.67,76.58,273.42,76.58Zm49,266.88H253.6c-8.19,0-15,6.87-15.91,15.92l-8.45,89c-1,10.51,6.41,19.66,15.91,19.66h85.69c9.5,0,16.91-9.15,15.91-19.66l-8.45-89C337.45,350.33,330.59,343.46,322.4,343.46ZM173.35,41h-16A8,8,0,0,0,150,46.47L1.25,443.37C-3.14,455.08,4.6,468,16,468H60c7.11,0,13.37-5.22,15.36-12.81L181,52.39C182.52,46.69,178.68,41,173.35,41Zm401.4,402.37L426,46.47A8,8,0,0,0,418.66,41h-16c-5.33,0-9.17,5.69-7.68,11.39l105.65,402.8c2,7.59,8.25,12.81,15.36,12.81h44C571.4,468,579.14,455.08,574.75,443.37Z" fill="currentColor"/></svg>