<svg xmlns="http://www.w3.org/2000/svg" width="512" height="400" viewBox="0 0 512 400"><g transform="translate(-8 -37)"><path d="M420.431,247.52c-59.423,0-107.591,47.526-107.591,106.144s48.168,106.144,107.591,106.144,107.591-47.526,107.591-106.144S479.854,247.52,420.431,247.52ZM486.7,370.011a5.389,5.389,0,0,1-1.614,3.847,5.566,5.566,0,0,1-3.907,1.594H442.522l-44.182.008H359.679a5.566,5.566,0,0,1-3.907-1.594,5.39,5.39,0,0,1-1.614-3.847v-32.7a5.39,5.39,0,0,1,1.614-3.847,5.566,5.566,0,0,1,3.907-1.594H398.34l44.181-.016h38.661a5.566,5.566,0,0,1,3.907,1.594,5.389,5.389,0,0,1,1.614,3.847Z" transform="translate(-8.022 -22.807)"/><path d="M412.647,37H58.621C30.677,37.031,8.032,59.317,8,86.818V339.971c.032,27.5,22.677,49.787,50.621,49.818L305.707,392.2c-8.685-14.092-12.011-25.909-14.846-41.162H58.621c-6.075.015-11.311-5.708-11.246-11.068V147.9h380.62v62.823c12.217,1.933,26.51,5.457,39.375,11.414V86.818c-.032-27.5-26.778-49.787-54.722-49.818ZM58.621,75.75H416.749a11.175,11.175,0,0,1,11.246,11.068v35.247H47.375V86.818A11.175,11.175,0,0,1,58.621,75.75Z"/><path d="M431.843,223H323.563c-7.383,0-12.583,5.78-12.583,12.917s5.225,12.917,12.583,12.917h108.28c7.383,0,12.583-5.78,12.583-12.917S439.21,223,431.843,223Z" transform="translate(-54.445 -35.843)"/><path d="M352.141,347H323.563c-7.383,0-12.583,5.78-12.583,12.917s5.225,12.917,12.583,12.917h21.2A109.9,109.9,0,0,1,352.141,347Z" transform="translate(-54.445 -59.738)"/><path d="M387.953,285H323.563c-7.383,0-12.583,5.78-12.583,12.917s5.225,12.917,12.583,12.917h41.478A190.312,190.312,0,0,1,387.953,285Z" transform="translate(-54.445 -47.79)"/><path d="M171.874,263.334c28.957,0,52.5-23.169,52.5-51.667S200.831,160,171.874,160s-52.5,23.169-52.5,51.667S142.917,263.334,171.874,263.334ZM98.047,366.668H245.7c10.172,0,18.047-6.781,18.047-15.339V335.991c0-25.672-24.527-46.823-54.96-46.823-8.859,0-15.5,6.458-36.914,6.458-22.066,0-27.562-6.458-36.914-6.458-30.433,0-54.96,21.151-54.96,46.823V351.33C80,359.887,87.875,366.668,98.047,366.668Z" transform="translate(-17.04 6.975)"/></g></svg>