<svg xmlns="http://www.w3.org/2000/svg" width="512" height="400" viewBox="0 0 512 400"><g transform="translate(-8 -37)"><g transform="translate(222.285 224.713)"><path d="M300.16,164.777A177.052,177.052,0,0,0,239.078,97,155.143,155.143,0,0,0,70.013,97,177.052,177.052,0,0,0,8.931,164.777a29.07,29.07,0,0,0,0,26.632A177.045,177.045,0,0,0,70.04,259.184a155.143,155.143,0,0,0,169.065,0,176.96,176.96,0,0,0,61.109-67.775A29.07,29.07,0,0,0,300.16,164.777ZM154.545,256.555c-50.857,0-97.48-29.989-122.655-78.432,25.175-48.5,71.792-78.432,122.655-78.432s97.48,29.989,122.655,78.461C252.031,226.589,205.408,256.555,154.545,256.555Z" transform="translate(-5.702 -71.95)"/><ellipse cx="55.412" cy="61.704" rx="55.412" ry="61.704" transform="translate(94.202 46.457)"/></g><path d="M412.578,37H58.612C30.673,37.031,8.032,59.317,8,86.818V339.971c.032,27.5,22.673,49.787,50.612,49.818H235.879c-22.088-20.271-31.157-41.237-34.869-59.942.038-2.389,3.694-14.945,13.289-28.663L58.612,351.039c-6.074.015-11.309-5.708-11.244-11.068V147.9H427.923v71.183c12.215,1.933,26.505,11.522,39.368,17.479V86.818c-.032-27.5-26.774-49.787-54.713-49.818ZM58.612,75.75H416.678a11.174,11.174,0,0,1,11.244,11.068v35.247H47.368V86.818A11.174,11.174,0,0,1,58.612,75.75Z"/><path d="M431.823,223H323.561c-7.381,0-12.581,5.78-12.581,12.917s5.224,12.917,12.581,12.917h66.593c14-2.645,50.272-2.708,50.272-2.708,3.911-3.677,3.977-7,3.977-10.209C444.4,228.78,439.188,223,431.823,223Z" transform="translate(-54.487 -35.843)"/><path d="M333.568,285H318.977c-4.692,0-8,5.78-8,12.917a21.41,21.41,0,0,0,.577,4.944A71.73,71.73,0,0,1,333.568,285Z" transform="translate(-54.487 -47.79)"/><path d="M171.858,263.334c28.952,0,52.49-23.169,52.49-51.667S200.81,160,171.858,160s-52.49,23.169-52.49,51.667S142.906,263.334,171.858,263.334Zm59.808,30.581a56.384,56.384,0,0,0-22.9-4.748c-8.858,0-15.5,6.458-36.907,6.458-22.062,0-27.557-6.458-36.907-6.458C104.523,289.168,80,310.319,80,335.991V351.33C80,359.887,236.344,295.988,231.666,293.915Z" transform="translate(-17.049 6.975)"/></g></svg>