<svg xmlns="http://www.w3.org/2000/svg" width="512" height="400" viewBox="0 0 512 400"><g transform="translate(-8 -37)"><g transform="translate(260.394 174.124)"><path d="M380.284,251.53,241.494,392.638l-5.03,49.294A12.856,12.856,0,0,0,250.827,456l49.2-5.95L438.813,308.864Z" transform="translate(-236.395 -193.222)"/><path d="M528.552,215.1,497.618,184.79a19.435,19.435,0,0,0-27.328.258L436.8,219.117l58.618,57.318L528.9,242.367A19.4,19.4,0,0,0,528.552,215.1Z" transform="translate(-274.723 -179.304)"/></g><path d="M500.672,455.535c27.947-.031,50.594-22.317,50.626-49.818,0-10.324,0-31.537,0-31.537l-80.288,81.356Z" transform="translate(-84.074 -65.746)"/><path d="M412.688,37H58.626C30.679,37.031,8.032,59.317,8,86.818V339.971c.032,27.5,22.679,49.787,50.626,49.818H249.205l2.339-21.462,17.586-17.289H58.626c-6.076.015-11.312-5.708-11.247-11.068V147.9H428.037v40.444l39.379-37.8V86.818c-.032-27.5-26.781-49.787-54.728-49.818ZM58.626,75.75H416.79a11.175,11.175,0,0,1,11.247,11.068v35.247H47.378V86.818A11.175,11.175,0,0,1,58.626,75.75Z" transform="translate(0)"/><path d="M431.856,223H323.565c-7.383,0-12.585,5.78-12.585,12.917s5.226,12.917,12.585,12.917H431.856c7.384,0,12.585-5.78,12.585-12.917S439.223,223,431.856,223Z" transform="translate(-54.42 -35.843)"/><path d="M387.006,347H323.565c-7.383,0-12.585,5.78-12.585,12.917s5.226,12.917,12.585,12.917h36.359Z" transform="translate(-54.611 -59.738)"/><path d="M431.856,285H323.565c-7.383,0-12.585,5.78-12.585,12.917s5.226,12.917,12.585,12.917h84.464l25.036-25.782C432.886,285.029,432.376,285,431.856,285Z" transform="translate(-54.611 -47.79)"/><path d="M171.883,263.334c28.96,0,52.5-23.169,52.5-51.667S200.843,160,171.883,160s-52.5,23.169-52.5,51.667S142.924,263.334,171.883,263.334ZM98.048,366.668H245.718c10.173,0,18.049-6.781,18.049-15.339V335.991c0-25.672-24.53-46.823-54.966-46.823-8.86,0-15.505,6.458-36.917,6.458-22.068,0-27.565-6.458-36.917-6.458C104.53,289.168,80,310.319,80,335.991V351.33C80,359.887,87.876,366.668,98.048,366.668Z" transform="translate(-17.034 6.975)"/></g></svg>