<svg xmlns="http://www.w3.org/2000/svg" viewBox="0 0 512 512" x="0" y="0" aria-hidden="true" focusable="false" role="img"><path d="M424,336H328a40,40,0,0,1,0-80h88s96-107,96-160a96,96,0,0,0-192,0c0,29.8,30.3,76.7,56.9,112H328a88,88,0,0,0,0,176h96a40,40,0,0,1,0,80H135.1c26.6-35.3,56.9-82.2,56.9-112A96,96,0,0,0,0,352c0,53,96,160,96,160H424a88,88,0,0,0,0-176ZM368,96a48,48,0,0,1,96-.1c-.5,13.4-20.8,48.2-48,84.4C388.8,144.1,368.5,109.4,368,96ZM96,436.3C68.8,400.1,48.5,365.4,48,352a48,48,0,0,1,96-.1C143.5,365.3,123.2,400.1,96,436.3ZM96,336a16,16,0,1,0,16,16A16,16,0,0,0,96,336ZM432,96a16,16,0,1,0-16,16A16,16,0,0,0,432,96Z" fill="currentColor"/></svg>