<svg xmlns="http://www.w3.org/2000/svg" viewBox="0 0 545 512" x="0" y="0" aria-hidden="true" focusable="false" role="img"><path d="M492.59,183.61a12.23,12.23,0,0,0,3.91-8.81,9.29,9.29,0,0,0-3.91-7.8l-27.38-28.37a14.27,14.27,0,0,0-8.81-2.94,10.5,10.5,0,0,0-7.81,2.94L347.91,239.68,397.17,279Z" fill="currentColor"/><path d="M191.32,396.86,96.44,302a9.32,9.32,0,0,0-7.83-3.91A12.1,12.1,0,0,0,79.82,302l-27.4,27.38a12.24,12.24,0,0,0-3.92,8.81A9.3,9.3,0,0,0,52.42,346L182.51,477.05a14.28,14.28,0,0,0,8.81,2.95,10.49,10.49,0,0,0,7.81-2.95l118.61-118.6-49.11-39.19Z" fill="currentColor"/><path d="M531.22,427.07,41.14,35.57a15.35,15.35,0,0,0-21.92,2.5L9.48,50.57a16.32,16.32,0,0,0,2.43,22.5l56.51,45.3L109,150.87l393,313.7a15.36,15.36,0,0,0,21.93-2.5l9.74-12.5A16.31,16.31,0,0,0,531.22,427.07Z" fill="currentColor"/></svg>