<svg xmlns="http://www.w3.org/2000/svg" viewBox="0 0 512 512" x="0" y="0" aria-hidden="true" focusable="false" role="img"><path d="M476.09,167,448.7,138.63a14.23,14.23,0,0,0-8.8-2.93,10.59,10.59,0,0,0-7.82,2.93L174.81,396.86,79.93,302a9.3,9.3,0,0,0-7.82-3.91,12.1,12.1,0,0,0-8.8,3.91l-27.4,27.38a12.21,12.21,0,0,0-3.91,8.8A9.31,9.31,0,0,0,35.91,346L166,477.05a14.24,14.24,0,0,0,8.8,2.94,10.53,10.53,0,0,0,7.82-2.94L476.08,183.61a12.21,12.21,0,0,0,3.91-8.8A9.27,9.27,0,0,0,476.09,167ZM163.88,285.05a14.41,14.41,0,0,0,8.88,3,10.65,10.65,0,0,0,7.89-3L385.34,80.36a12.35,12.35,0,0,0,4-8.88,9.41,9.41,0,0,0-4-7.89L357.71,35a14.41,14.41,0,0,0-8.88-3,10.65,10.65,0,0,0-7.89,3L172.76,204.12l-60.41-60.41a9.33,9.33,0,0,0-7.89-4,12.2,12.2,0,0,0-8.88,4L68,171.35a12.35,12.35,0,0,0-4,8.88,9.41,9.41,0,0,0,4,7.89l95.93,96.93Z" fill="currentColor"/></svg>