<svg xmlns="http://www.w3.org/2000/svg" viewBox="0 0 562 512" x="0" y="0" aria-hidden="true" focusable="false" role="img"><path d="M321,376H257a16,16,0,0,0-16,16v16a16,16,0,0,0,16,16h64a16,16,0,0,0,16-16V392A16,16,0,0,0,321,376Zm-140,8H137V48a16,16,0,0,0-16-16H105A16,16,0,0,0,89,48V384H45a12,12,0,0,0-8.73,20.24l68,72a12,12,0,0,0,17,.48l.48-.48,68-72A12,12,0,0,0,181,384ZM449,184H257a16,16,0,0,0-16,16v16a16,16,0,0,0,16,16H449a16,16,0,0,0,16-16V200A16,16,0,0,0,449,184Zm64-96H257a16,16,0,0,0-16,16v16a16,16,0,0,0,16,16H513a16,16,0,0,0,16-16V104A16,16,0,0,0,513,88ZM385,280H257a16,16,0,0,0-16,16v16a16,16,0,0,0,16,16H385a16,16,0,0,0,16-16V296A16,16,0,0,0,385,280Z" fill="currentColor"/></svg>