<svg xmlns="http://www.w3.org/2000/svg" viewBox="0 0 576 512" x="0" y="0" aria-hidden="true" focusable="false" role="img"><path d="M416,323a32,32,0,1,0,32-32A32,32,0,0,0,416,323ZM224,355a63.33,63.33,0,0,0,8.88,32H343.11a62.09,62.09,0,0,0,.07-63.88l75.75-97.39a24,24,0,1,0-37.88-29.47l-75.76,97.4A63.13,63.13,0,0,0,224,355Zm96-192a32,32,0,1,0-32,32A32,32,0,0,0,320,163ZM128,291a32,32,0,1,0,32,32A32,32,0,0,0,128,291Zm48-48a32,32,0,1,0-32-32A32,32,0,0,0,176,243ZM0,323A286.5,286.5,0,0,0,39,467.8c5.61,9.62,16.3,15.2,27.44,15.2h443c11.14,0,21.83-5.58,27.44-15.2A286.5,286.5,0,0,0,576,323C576,163.94,447,35,288,35S0,163.94,0,323Zm48,0C48,190.66,155.64,83,288,83S528,190.66,528,323a239.83,239.83,0,0,1-27.73,112H75.71A239.83,239.83,0,0,1,48,323Z" fill="currentColor"/></svg>