<svg xmlns="http://www.w3.org/2000/svg" viewBox="0 0 512 512" x="0" y="0" aria-hidden="true" focusable="false" role="img"><path d="M435.87,471.62,120.46,14.34a15.35,15.35,0,0,0-21.82-3.28L86,20.61A16.33,16.33,0,0,0,82.49,43L397.9,500.24a15.35,15.35,0,0,0,21.82,3.28L432.38,494A16.33,16.33,0,0,0,435.87,471.62Z" fill="currentColor"/><path d="M463.09,24H156.27l33.11,48H439.09V183.56H266.34l33.1,48H463.09a24,24,0,0,0,24-24V48A24,24,0,0,0,463.09,24Z" fill="currentColor"/><path d="M53.91,231.56H183.42l-33.1-48H77.91v-105L62.83,56.73A40.12,40.12,0,0,1,56.76,24H53.91a24,24,0,0,0-24,24V207.56A24,24,0,0,0,53.91,231.56Z" fill="currentColor"/><path d="M327.89,441h-250V329.44h173l-33.11-48H53.91a24,24,0,0,0-24,24V465a24,24,0,0,0,24,24H361Z" fill="currentColor"/><path d="M463.09,281.44H333.84l33.11,48h72.14V434l16.43,23.83A40,40,0,0,1,462,489h1.13a24,24,0,0,0,24-24V305.44A24,24,0,0,0,463.09,281.44Z" fill="currentColor"/></svg>