<svg xmlns="http://www.w3.org/2000/svg" viewBox="0 0 512 512" x="0" y="0" aria-hidden="true" focusable="false" role="img"><path d="M475.69,144.75c-7.63-8.54-17.94-15.79-30.64-21.56-20.63-9.36-47.26-14.52-75-14.52A213.34,213.34,0,0,0,331,112.22L287.2,83.66a44.67,44.67,0,0,0,6.05-22.09c0-9.12-3.31-31.85-33.93-45.75-13.84-6.28-31.54-9.74-49.83-9.74s-36,3.46-49.82,9.74C129,29.72,125.74,52.45,125.74,61.57s3.3,31.85,33.93,45.75c13.84,6.29,31.53,9.75,49.82,9.75s36-3.46,49.83-9.75c1.11-.5,2.17-1,3.21-1.54l29.17,19c-11.16,5.49-20.32,12.18-27.26,20-10.06,11.26-15.37,24.58-15.37,38.51s5.31,27.24,15.37,38.5c7.63,8.54,17.94,15.8,30.64,21.56a147.17,147.17,0,0,0,23.46,8.18l-25,39.87c-28.36-9.2-61.55-14.18-95.91-14.18-44,0-86,8.11-118.46,22.84C59.7,308.85,44,319.84,32.53,332.7c-14.66,16.42-22.41,35.72-22.41,55.8s7.75,39.39,22.41,55.81C44,457.17,59.7,468.16,79.13,477c32.44,14.73,74.51,22.84,118.46,22.84s86-8.11,118.47-22.84c19.42-8.82,35.1-19.81,46.59-32.67,14.67-16.42,22.42-35.71,22.42-55.81s-7.75-39.38-22.42-55.8a121.87,121.87,0,0,0-25.18-21.1l33.78-53.77c27.3-.15,53.47-5.28,73.8-14.51,12.7-5.76,23-13,30.64-21.56,10.06-11.26,15.38-24.57,15.38-38.5S485.75,156,475.69,144.75ZM209.49,85.07c-13.24,0-26.49-2.3-36.6-6.88-20.21-9.18-20.21-24.06,0-33.23,10.11-4.59,23.36-6.88,36.6-6.88S236,40.37,246.09,45c20.21,9.17,20.21,24.05,0,33.23C236,82.77,222.74,85.07,209.49,85.07Zm86.73,348.2c-27.24,12.37-62.93,18.55-98.63,18.55S126.2,445.64,99,433.27c-54.47-24.72-54.47-64.81,0-89.53,27.23-12.37,62.93-18.55,98.62-18.55s71.39,6.18,98.63,18.55C350.68,368.46,350.68,408.55,296.22,433.27Zm134-222.73c-16.6,7.53-38.35,11.3-60.1,11.3s-43.51-3.77-60.11-11.3c-33.19-15.07-33.19-39.5,0-54.57,16.6-7.53,38.35-11.3,60.11-11.3s43.5,3.77,60.1,11.3C463.37,171,463.37,195.47,430.17,210.54Z" fill="currentColor"/></svg>