<svg xmlns="http://www.w3.org/2000/svg" viewBox="0 0 512 512" x="0" y="0" aria-hidden="true" focusable="false" role="img"><path d="M180.35,182.83H150.63a9.38,9.38,0,0,0-9.35,9.35v57.74a5.75,5.75,0,0,1-5.75,5.75H90.59a9.08,9.08,0,0,0-6.43,15.51l77.26,77.26a5.77,5.77,0,0,0,8.14,0l77.26-77.26a9.1,9.1,0,0,0-6.43-15.51H195.45a5.76,5.76,0,0,1-5.75-5.75V192.18A9.38,9.38,0,0,0,180.35,182.83Z" fill="currentColor"/><path d="M463.09,281.44H404.67v48h34.42V441H77.91V329.44h30.57L67.19,288.15A33.36,33.36,0,0,1,62,281.44H53.91a24,24,0,0,0-24,24V465a24,24,0,0,0,24,24H463.09a24,24,0,0,0,24-24V305.44A24,24,0,0,0,463.09,281.44Z" fill="currentColor"/><path d="M213.7,231.56h39.08a33.16,33.16,0,0,1,5.27-7l41-41H213.7Z" fill="currentColor"/><path d="M463.09,24H53.91a24,24,0,0,0-24,24V207.56a24,24,0,0,0,24,24h63.37v-48H77.91V72H439.09V183.56h-25.2l40.87,40.87a33.55,33.55,0,0,1,5.41,7.13h2.92a24,24,0,0,0,24-24V48A24,24,0,0,0,463.09,24Z" fill="currentColor"/><path d="M263.9,288l-41.4,41.4h85.75v-48H268.94A33.39,33.39,0,0,1,263.9,288Z" fill="currentColor"/><path d="M340.72,330.75h31.47a8.51,8.51,0,0,0,8.48-8.48V261.79a4.87,4.87,0,0,1,4.88-4.88h45.8a9.08,9.08,0,0,0,6.43-15.51l-77.87-77.88a4.89,4.89,0,0,0-6.9,0L275.13,241.4a9.1,9.1,0,0,0,6.43,15.51h45.81a4.88,4.88,0,0,1,4.88,4.88v60.48A8.5,8.5,0,0,0,340.72,330.75Z" fill="currentColor"/></svg>