<svg xmlns="http://www.w3.org/2000/svg" viewBox="0 0 512 512" x="0" y="0" aria-hidden="true" focusable="false" role="img"><path d="M483.52,28.49,431.35,80.65A247.19,247.19,0,0,0,256,8C123.23,8,14.82,112.34,8.31,243.49A12,12,0,0,0,20.3,256H48.35a12,12,0,0,0,12-11.29A196,196,0,0,1,394.61,117.39l-54.12,54.12A12,12,0,0,0,349,192H492a12,12,0,0,0,12-12V37A12,12,0,0,0,483.52,28.49ZM491.7,256H463.65a12,12,0,0,0-12,11.29A196,196,0,0,1,117.39,394.61l54.12-54.12A12,12,0,0,0,163,320H20A12,12,0,0,0,8,332V475a12,12,0,0,0,20.49,8.48l52.16-52.16A247.21,247.21,0,0,0,256,504c132.77,0,241.18-104.34,247.69-235.49a12,12,0,0,0-12-12.51Z" fill="currentColor"/></svg>