<svg xmlns="http://www.w3.org/2000/svg" viewBox="0 0 512 512" x="0" y="0" aria-hidden="true" focusable="false" role="img"><path d="M501.57,116.45l-6.95-11.58A17.24,17.24,0,0,0,471,99l-36,21.58V54.34A16.35,16.35,0,0,0,418.66,38H403.34A16.35,16.35,0,0,0,387,54.34v95l-55.33,33.22V54.34A16.35,16.35,0,0,0,315.33,38H300a16.34,16.34,0,0,0-16.34,16.34V211.4l-55.34,33.22V54.34A16.34,16.34,0,0,0,212,38H196.67a16.35,16.35,0,0,0-16.34,16.34V273.43L125,306.65V54.34A16.35,16.35,0,0,0,108.66,38H93.34A16.35,16.35,0,0,0,77,54.34V335.47L16.34,371.89a17.24,17.24,0,0,0-5.91,23.66l7,11.58A17.24,17.24,0,0,0,41,413l36-21.58v66.2A16.35,16.35,0,0,0,93.34,474h15.32A16.35,16.35,0,0,0,125,457.66v-95l55.33-33.22V457.66A16.35,16.35,0,0,0,196.67,474H212a16.34,16.34,0,0,0,16.34-16.34V300.6l55.34-33.22V457.66A16.34,16.34,0,0,0,300,474h15.32a16.35,16.35,0,0,0,16.34-16.34V238.57L387,205.35V457.66A16.35,16.35,0,0,0,403.34,474h15.32A16.35,16.35,0,0,0,435,457.66V176.53l60.66-36.42A17.24,17.24,0,0,0,501.57,116.45Z" fill="currentColor"/></svg>