<svg xmlns="http://www.w3.org/2000/svg" viewBox="0 0 512 512" x="0" y="0" aria-hidden="true" focusable="false" role="img"><path d="M425.9,184l22.6-22.6a12,12,0,0,0,0-17l-17-17a12,12,0,0,0-17,0l-20.7,20.7A206.61,206.61,0,0,0,280,97.3V48h28a12,12,0,0,0,12-12V12A12,12,0,0,0,308,0H204a12,12,0,0,0-12,12V36a12,12,0,0,0,12,12h28V97.4C128.4,109.3,48,197.2,48,304c0,114.9,93.1,208,208,208s208-93.1,208-208A207,207,0,0,0,425.9,184ZM256,464A160,160,0,1,1,416,304,160,160,0,0,1,256,464Zm12-112H244a12,12,0,0,1-12-12V204a12,12,0,0,1,12-12h24a12,12,0,0,1,12,12V340A12,12,0,0,1,268,352Z" fill="currentColor"/></svg>