<svg xmlns="http://www.w3.org/2000/svg" viewBox="0 0 512 512" x="0" y="0" aria-hidden="true" focusable="false" role="img"><path d="M299.58,415.64h24a12,12,0,0,0,12-12v-216a12,12,0,0,0-12-12h-24a12,12,0,0,0-12,12v216A12,12,0,0,0,299.58,415.64Zm164-336H381.17l-34-56.7A48,48,0,0,0,306-.36H205.17A48,48,0,0,0,164,22.94l-34,56.7H47.58a16,16,0,0,0-16,16v16a16,16,0,0,0,16,16h16v336a48,48,0,0,0,48,48h288a48,48,0,0,0,48-48h0v-336h16a16,16,0,0,0,16-16v-16A16,16,0,0,0,463.58,79.64ZM203.42,50.55a6,6,0,0,1,5.16-2.91h94a6,6,0,0,1,5.15,2.91l17.46,29.09H186ZM399.58,463.64h-288v-336h288Zm-212-48h24a12,12,0,0,0,12-12v-216a12,12,0,0,0-12-12h-24a12,12,0,0,0-12,12v216A12,12,0,0,0,187.58,415.64Z" fill="currentColor"/></svg>