<svg xmlns="http://www.w3.org/2000/svg" viewBox="0 0 557 512" x="0" y="0" aria-hidden="true" focusable="false" role="img"><path d="M403.5,343h16c4.42,0,8-5.37,8-12V185c0-6.63-3.58-12-8-12h-16c-4.42,0-8,5.37-8,12V331C395.5,337.63,399.08,343,403.5,343Z" fill="currentColor"/><path d="M541,91.09H478.59l-34-56.7a48,48,0,0,0-41.18-23.3H332.59a48,48,0,0,0-41.16,23.3l-34,56.7H226.83l.07.08c-.83,0-1.66-.08-2.49-.08H153.59a48,48,0,0,0-41.16,23.3l-34,56.7H16a16,16,0,0,0-16,16v16a16,16,0,0,0,16,16H32v236a48,48,0,0,0,48,48H298a48,48,0,0,0,48-48v-32H477a48,48,0,0,0,48-48v-236h16a16,16,0,0,0,16-16v-16A16,16,0,0,0,541,91.09ZM330.84,62A6,6,0,0,1,336,59.09h64A6,6,0,0,1,405.15,62l17.46,29.09H313.39Zm-179,80a6,6,0,0,1,5.16-2.91h64a6,6,0,0,1,5.15,2.91l17.46,29.09H134.39ZM298,455.09H80v-236H298Zm179-80H346v-156h16a16,16,0,0,0,16-16v-16a16,16,0,0,0-16-16H299.59l-19.19-32H477Z" fill="currentColor"/><path d="M139.5,422h16c4.42,0,8-5.37,8-12V264c0-6.63-3.58-12-8-12h-16c-4.42,0-8,5.37-8,12V410C131.5,416.63,135.08,422,139.5,422Z" fill="currentColor"/><path d="M222.5,422h16c4.42,0,8-5.37,8-12V264c0-6.63-3.58-12-8-12h-16c-4.42,0-8,5.37-8,12V410C214.5,416.63,218.08,422,222.5,422Z" fill="currentColor"/></svg>