<svg xmlns="http://www.w3.org/2000/svg" width="512.001" height="512" viewBox="0 0 512.001 512">
    <path id="unlink" d="M304.083,388.936a12,12,0,0,1,0,16.971l-65.057,65.056A140,140,0,0,1,41.037,272.974l65.056-65.057a12,12,0,0,1,16.971,0l16.627,19.627a12,12,0,0,1,0,16.971L75.386,308.82c-34.341,34.341-38.288,89.638,1.6,127.866,47.952,40.646,94.788,31.337,127.445-1.32l65.057-65.056a12,12,0,0,1,16.971,0l17.627,18.626ZM241.515,140.691l64.3-64.3c36.768-37.806,86.69-46,133.882-3.388,39.549,37.934,30.309,99.785-2.335,132.43L372.31,270.486a12,12,0,0,0,0,16.971l16.627,16.627a12,12,0,0,0,16.971,0l65.056-65.057A140,140,0,1,0,272.975,41.037l-65.057,65.057a12,12,0,0,0,0,16.971l16.627,17.627a12,12,0,0,0,16.97,0ZM486.858,507.485l20.627-20.627a12,12,0,0,0,0-16.971L42.112,4.515a12,12,0,0,0-16.971,0L4.515,25.142a12,12,0,0,0,0,16.971L469.888,507.486a12,12,0,0,0,16.97,0Z"/>
</svg>
