<svg xmlns="http://www.w3.org/2000/svg" viewBox="0 0 576 512" x="0" y="0" aria-hidden="true" focusable="false" role="img"><path d="M245,290A144,144,0,1,0,101,146,144,144,0,0,0,245,290Zm0-240a96,96,0,1,1-96,96A96.15,96.15,0,0,1,245,50Z" fill="currentColor"/><path d="M200.78,486.36,203.34,461H49V435.4c0-47.6,28.8-86.4,76.4-86.4,14.6,0,68.3,16,119.6,16,3.78,0,7.56-.09,11.34-.25l54.44-55.57C290.59,313.12,268.2,317,245,317c-47.1,0-90.8-16-119.6-16C51.2,301,1,361.2,1,435.4V473c0,26.5,11.5,36,38,36H204.06A48.13,48.13,0,0,1,200.78,486.36Z" fill="currentColor"/><path d="M439.07,414.62A111,111,0,0,1,441,435.4V461H393.65l-47,48H451c26.5,0,38-11.5,38-38V435.4a150.87,150.87,0,0,0-11.91-59.61Z" fill="currentColor"/><path d="M414.31,251.53,242.7,426.32l-6.22,61.06a15.91,15.91,0,0,0,17.76,17.43l60.84-7.37,171.6-174.89Z" fill="currentColor"/><path d="M550.25,223.64,512,186.1a24,24,0,0,0-33.79.32l-41.41,42.2,72.48,71,41.4-42.2A24.06,24.06,0,0,0,550.25,223.64Z" fill="currentColor"/></svg>