<svg xmlns="http://www.w3.org/2000/svg" viewBox="0 0 576 512" x="0" y="0" aria-hidden="true" focusable="false" role="img"><path d="M250,290A144,144,0,1,0,106,146,144,144,0,0,0,250,290Zm0-240a96,96,0,1,1-96,96A96.15,96.15,0,0,1,250,50Z" fill="currentColor"/><path d="M308.23,482.49V461H54V435.4c0-47.6,28.8-86.4,76.4-86.4,14.6,0,68.3,16,119.6,16,20,0,40.13-2.39,58.23-5.31v-8.61a50.36,50.36,0,0,1,31.21-46.52C313.86,309.28,282.73,317,250,317c-47.1,0-90.8-16-119.6-16C56.2,301,6,361.2,6,435.4V473c0,26.5,11.5,36,38,36H315.81A50,50,0,0,1,308.23,482.49Z" fill="currentColor"/><path d="M456.5,442.06a26.28,26.28,0,1,0-26.28-26.28A26.27,26.27,0,0,0,456.5,442.06Zm92-118.27H534.15V284.37c0-36.29-41.36-65.71-77.65-65.71s-77.65,29.42-77.65,65.71v39.42H364.51a26.29,26.29,0,0,0-26.28,26.29V481.49a26.29,26.29,0,0,0,26.28,26.28h184a26.29,26.29,0,0,0,26.28-26.28V350.08A26.29,26.29,0,0,0,548.49,323.79ZM418.27,284.37c0-14.52,23.71-26.28,38.23-26.28s38.23,11.76,38.23,26.28v39.42H418.27Zm117.08,184H377.65V363.22h157.7Z" fill="currentColor"/></svg>