<svg xmlns="http://www.w3.org/2000/svg" viewBox="0 0 576 512" x="0" y="0" aria-hidden="true" focusable="false" role="img"><path d="M245,290A144,144,0,1,0,101,146,144,144,0,0,0,245,290Zm0-240a96,96,0,1,1-96,96A96.15,96.15,0,0,1,245,50Z" fill="currentColor"/><path d="M306.06,461H49V435.4c0-47.6,28.8-86.4,76.4-86.4,14.6,0,68.3,16,119.6,16a325.94,325.94,0,0,0,39.43-2.63,160,160,0,0,1,14-50.87c-16.82,3-34.86,5.5-53.42,5.5-47.1,0-90.8-16-119.6-16C51.2,301,1,361.2,1,435.4V473c0,26.5,11.5,36,38,36H349.7A161.79,161.79,0,0,1,306.06,461Z" fill="currentColor"/><path d="M444,247.52c-72.44,0-131.16,58.87-131.16,131.48S371.56,510.48,444,510.48,575.16,451.61,575.16,379,516.44,247.52,444,247.52Zm80.79,151.73a6.73,6.73,0,0,1-6.73,6.74H369.94a6.73,6.73,0,0,1-6.73-6.74v-40.5a6.73,6.73,0,0,1,6.73-6.74H518.06a6.73,6.73,0,0,1,6.73,6.74Z" fill="currentColor"/></svg>