<svg xmlns="http://www.w3.org/2000/svg" viewBox="0 0 512 512" x="0" y="0" aria-hidden="true" focusable="false" role="img"><path d="M375.6,302c-28.7,0-72.5,16-119.6,16s-90.8-16-119.6-16C62.2,302,12,362.2,12,436.4V474c0,26.5,11.5,36,38,36H462c26.5,0,38-11.5,38-38V436.4C500,362.2,449.8,302,375.6,302ZM452,462H60V436.4c0-47.6,28.8-86.4,76.4-86.4,14.6,0,68.3,16,119.6,16,51.7,0,104.9-16,119.6-16,47.6,0,76.4,38.8,76.4,86.4ZM256,291A144,144,0,1,0,112,147,144,144,0,0,0,256,291Zm0-240a96,96,0,1,1-96,96A96.15,96.15,0,0,1,256,51Z" fill="currentColor"/></svg>