<svg xmlns="http://www.w3.org/2000/svg" viewBox="0 0 512 512" x="0" y="0" aria-hidden="true" focusable="false" role="img"><path d="M256,104a96,96,0,1,0,96,96A96,96,0,0,0,256,104Zm0,144a48,48,0,1,1,48-48A48,48,0,0,1,256,248ZM256,8C119,8,8,119,8,256S119,504,256,504,504,393,504,256,393,8,256,8Zm0,448a198.86,198.86,0,0,1-130.1-48.4,86.15,86.15,0,0,1,69.6-39.5c20.8,6.4,40.6,9.6,60.5,9.6a200.29,200.29,0,0,0,60.5-9.6,86.4,86.4,0,0,1,69.6,39.5A198.86,198.86,0,0,1,256,456Zm162.7-84.1C394.3,340.5,356.6,320,313.6,320c-10.2,0-26,9.6-57.6,9.6s-47.4-9.6-57.6-9.6c-42.9,0-80.6,20.5-105.1,51.9A198.57,198.57,0,0,1,56,256C56,145.7,145.7,56,256,56s200,89.7,200,200A198.57,198.57,0,0,1,418.7,371.9Z" fill="currentColor"/></svg>