<svg xmlns="http://www.w3.org/2000/svg" viewBox="0 0 512 512" x="0" y="0" aria-hidden="true" focusable="false" role="img"><rect width="340" height="48" x="87" y="5.07" rx="16" fill="currentColor"/><path d="M161,267.27A85.58,85.58,0,1,0,75.65,181.7,85.48,85.48,0,0,0,161,267.27Zm0-125.54a40,40,0,1,1-39.86,40A39.93,39.93,0,0,1,161,141.73Z" fill="currentColor"/><path d="M353,323.12a85.58,85.58,0,1,0,85.35,85.58A85.49,85.49,0,0,0,353,323.12Zm0,125.54a40,40,0,1,1,39.86-40A39.93,39.93,0,0,1,353,448.66Z" fill="currentColor"/><path d="M420.78,94.71h-41.2A10.82,10.82,0,0,0,371,99.17L81.84,477.4a10.73,10.73,0,0,0,8.89,16.67h41.56a10.81,10.81,0,0,0,8.62-4.46L429.58,111.47A10.73,10.73,0,0,0,420.78,94.71Z" fill="currentColor"/></svg>