<svg xmlns="http://www.w3.org/2000/svg" viewBox="0 0 512 512" x="0" y="0" aria-hidden="true" focusable="false" role="img"><rect width="340" height="48" x="91.86" y="6.07" rx="16" fill="currentColor"/><path d="M162.22,300.8c0-19.45-15-38.6-33.55-38.6H83.94c-18.53,0-33.54,19.15-33.54,38.6s15,38.57,33.54,38.57h44.73C147.2,339.37,162.22,320.22,162.22,300.8Z" fill="currentColor"/><path d="M140,366.2l-31.63,31.63c-13.11,13.1-10.18,37.26,3.57,51s37.9,16.66,51,3.56l31.63-31.63c13.1-13.1,10.17-37.26-3.56-51S153.07,353.09,140,366.2Z" fill="currentColor"/><path d="M163.31,149.34c-13.11-13.11-37.26-10.18-51,3.57s-16.67,37.9-3.57,51l31.63,31.63c13.11,13.1,37.26,10.17,51-3.56s16.68-37.91,3.58-51Z" fill="currentColor"/><path d="M438.19,262.76H393.46c-18.53,0-33.54,19.15-33.54,38.58s15,38.6,33.54,38.6h44.73c18.53,0,33.54-19.15,33.54-38.6S456.72,262.76,438.19,262.76Zm-6.1,50.68H399.58c-6.13,0-11.11-6-11.11-12.1s5-12.09,11.11-12.09h32.51c6.13,0,11.09,6,11.09,12.09S438.22,313.44,432.09,313.44Z" fill="currentColor"/><path d="M382.17,235.94,413.8,204.3c13.1-13.1,10.17-37.25-3.58-51s-37.89-16.67-51-3.57l-31.64,31.63c-13.1,13.11-10.17,37.26,3.57,51S369.06,249,382.17,235.94Zm-31.52-40.17,23-23c4.33-4.33,12.05-3.62,16.38.71s5.05,12.06.72,16.39l-23,23c-4.33,4.33-12.07,3.63-16.41-.71S346.32,200.1,350.65,195.77Z" fill="currentColor"/><path d="M260.8,396.92c-19.45,0-38.6,15-38.6,33.54v44.73c0,18.53,19.15,33.54,38.6,33.54s38.57-15,38.57-33.54V430.46C299.37,411.93,280.22,396.92,260.8,396.92Z" fill="currentColor"/><path d="M261.34,93.4c-19.43,0-38.58,15-38.58,33.54v44.73c0,18.53,19.15,33.55,38.58,33.55s38.6-15,38.6-33.55V126.94C299.94,108.41,280.79,93.4,261.34,93.4Zm12.1,72.16c0,6.12-6,11.1-12.1,11.1s-12.09-5-12.09-11.1V133c0-6.12,6-11.08,12.09-11.08s12.1,5,12.1,11.08Z" fill="currentColor"/></svg>