<svg xmlns="http://www.w3.org/2000/svg" viewBox="0 0 512 512" x="0" y="0" aria-hidden="true" focusable="false" role="img"><path d="M230.06,509.07a24,24,0,0,1-23.62-19.78L163.67,250,144.82,381.47a24,24,0,0,1-46.6,4L64.59,281.07H24.07a24,24,0,0,1,0-48h58a24,24,0,0,1,22.84,16.63l7.14,22.15L137.31,95.66a24,24,0,0,1,23.34-20.59h.42a24,24,0,0,1,23.62,19.77l40.4,226L260.23,20.28a24,24,0,0,1,47.5-1.19L347,252.65l22.42-134.53a24,24,0,0,1,46.92-2l30.44,118.28,42.71.7a24,24,0,0,1-.39,48h-.4l-61-1a24,24,0,0,1-22.85-18l-6.73-26.16L370.74,402a24,24,0,0,1-23.66,20.06h0a24,24,0,0,1-23.67-20L288.33,193.31,253.9,487.85a24,24,0,0,1-23.11,21.21Z" fill="currentColor"/></svg>