<?xml version="1.0" encoding="UTF-8" standalone="no"?>
<svg
   xmlns:dc="http://purl.org/dc/elements/1.1/"
   xmlns:cc="http://creativecommons.org/ns#"
   xmlns:rdf="http://www.w3.org/1999/02/22-rdf-syntax-ns#"
   xmlns:svg="http://www.w3.org/2000/svg"
   xmlns="http://www.w3.org/2000/svg"
   xmlns:sodipodi="http://sodipodi.sourceforge.net/DTD/sodipodi-0.dtd"
   xmlns:inkscape="http://www.inkscape.org/namespaces/inkscape"
   width="22"
   height="22"
   viewBox="0 0 22 22"
   version="1.1"
   id="svg6"
   sodipodi:docname="upload.svg"
   inkscape:version="0.92.4 (5da689c313, 2019-01-14)">
  <metadata
     id="metadata12">
    <rdf:RDF>
      <cc:Work
         rdf:about="">
        <dc:format>image/svg+xml</dc:format>
        <dc:type
           rdf:resource="http://purl.org/dc/dcmitype/StillImage" />
      </cc:Work>
    </rdf:RDF>
  </metadata>
  <defs
     id="defs10" />
  <sodipodi:namedview
     pagecolor="#ffffff"
     bordercolor="#666666"
     borderopacity="1"
     objecttolerance="10"
     gridtolerance="10"
     guidetolerance="10"
     inkscape:pageopacity="0"
     inkscape:pageshadow="2"
     inkscape:window-width="3840"
     inkscape:window-height="1973"
     id="namedview8"
     showgrid="false"
     inkscape:zoom="9.8333333"
     inkscape:cx="12"
     inkscape:cy="12"
     inkscape:window-x="-18"
     inkscape:window-y="-18"
     inkscape:window-maximized="1"
     inkscape:current-layer="svg6" />
  <path
     d="M 0,0 H 22 V 22 H 0 Z"
     id="path2"
     inkscape:connector-curvature="0"
     style="fill:none;stroke-width:0.91666669" />
  <path
     d="M 17.7375,9.203333 C 17.114167,6.0408333 14.336667,3.6666667 11,3.6666667 8.3508333,3.6666667 6.05,5.17 4.9041667,7.37 2.145,7.6633333 0,10.000833 0,12.833333 c 0,3.034167 2.4658333,5.5 5.5,5.5 H 17.416667 C 19.946667,18.333333 22,16.28 22,13.75 22,11.33 20.120833,9.368333 17.7375,9.203333 Z M 17.416667,16.5 H 5.5 c -2.0258333,0 -3.6666667,-1.640833 -3.6666667,-3.666667 0,-1.879166 1.4025,-3.446666 3.2633334,-3.639166 L 6.0775,9.093333 6.5358333,8.2225 C 7.4066667,6.545 9.1116667,5.5 11,5.5 c 2.401667,0 4.473333,1.705 4.940833,4.060833 l 0.275,1.375 1.4025,0.100834 c 1.43,0.09167 2.548334,1.2925 2.548334,2.713333 0,1.5125 -1.2375,2.75 -2.75,2.75 z M 7.3333333,11.916667 h 2.3375 v 2.75 h 2.6583337 v -2.75 h 2.3375 L 11,8.25 Z"
     id="path4"
     inkscape:connector-curvature="0"
     style="stroke-width:0.91666669" />
</svg>
