<svg xmlns="http://www.w3.org/2000/svg" viewBox="0 0 517 512" x="0" y="0" aria-hidden="true" focusable="false" role="img"><path d="M516.23,401.19l-74.91-74.91a9.1,9.1,0,0,0-15.51,6.43v41.61a9.07,9.07,0,0,1-9.08,9.08H346.65A12.71,12.71,0,0,0,334,396.07v23.08a12.71,12.71,0,0,0,12.68,12.67h70.08a9.07,9.07,0,0,1,9.08,9.08v41.61a9.08,9.08,0,0,0,15.51,6.43L516.23,414A9.09,9.09,0,0,0,516.23,401.19Z" fill="currentColor"/><path d="M338.5,464H50.5V48.09h160v104a23.94,23.94,0,0,0,24,24h104v175.3h48V132a48.23,48.23,0,0,0-14.1-34L288.5,14.1A48,48,0,0,0,254.6,0H50.5a48.16,48.16,0,0,0-48,48.09V464a48,48,0,0,0,48,48h288a48,48,0,0,0,48-48v-.13h-48Zm-80-412,76.1,76.08H258.5Z" fill="currentColor"/><path d="M133.7,258.1a20.41,20.41,0,0,1,7.92-3.42,37.35,37.35,0,0,1,7.11-.9,6.84,6.84,0,0,0,6.39-3.69,15.43,15.43,0,0,0,2.07-7.65,13.13,13.13,0,0,0-3.15-8.28q-3.15-4-12.51-4a39.79,39.79,0,0,0-14.13,2.61,49.37,49.37,0,0,0-12.69,7,36.21,36.21,0,0,0-9.18,10.08,22.51,22.51,0,0,0-3.42,11.79,40.54,40.54,0,0,0,.45,5.4q.45,3.24.9,6.57t.9,6.12a28.94,28.94,0,0,1,.45,4.23q0,2.7-1.62,3.69a18.39,18.39,0,0,1-3.78,1.71,8.22,8.22,0,0,0-3.78,2.7q-1.62,2-1.62,6.66,0,4.86,1.62,6.84a8.9,8.9,0,0,0,3.78,2.79,18.52,18.52,0,0,1,3.78,1.89q1.62,1.08,1.62,4,0,1.26-.27,3.87t-.63,5.94q-.36,3.33-.81,6.93t-.72,6.57q-.27,3-.27,4.95a22.51,22.51,0,0,0,5.85,15.3,40,40,0,0,0,14.85,10.44A47,47,0,0,0,141.17,372c5.28,0,9.27-1,12-2.88s4.05-4.92,4.05-9a19.62,19.62,0,0,0-.72-5,11.09,11.09,0,0,0-2.52-4.68,6.7,6.7,0,0,0-5.22-2,39.5,39.5,0,0,1-5.49-.45,34.94,34.94,0,0,1-6.12-1.44,13,13,0,0,1-5-2.88,6.31,6.31,0,0,1-2-4.77q0-1.44.45-5.22t.9-8.46q.45-4.68.9-8.73t.45-5.67a13.47,13.47,0,0,0-2.25-7.56q-2.25-3.42-4.23-4,1.62-.54,4.05-4.14a13.3,13.3,0,0,0,2.43-7.56,32.92,32.92,0,0,0-.45-4.59c-.3-2-.6-4.14-.9-6.49s-.6-4.5-.9-6.47a32.92,32.92,0,0,1-.45-4.59A8.51,8.51,0,0,1,133.7,258.1Z" fill="currentColor"/><path d="M206.06,296.53a13.8,13.8,0,0,0-19.53,0,14,14,0,0,0,0,19.53,13.58,13.58,0,0,0,19.53,0,13.8,13.8,0,0,0,0-19.53Z" fill="currentColor"/><path d="M183.47,380.5a5.73,5.73,0,0,0,3.06,5.22,11.77,11.77,0,0,0,5.94,1.8,7.72,7.72,0,0,0,3.06-.72,4.51,4.51,0,0,0,2.34-2.52q3.94-9.18,6.21-14.67t3.33-8.19a27.93,27.93,0,0,0,1.35-4,10.08,10.08,0,0,0,.27-2,13.15,13.15,0,0,0-4.05-9.63,13.36,13.36,0,0,0-9.81-4.05,13.15,13.15,0,0,0-9.63,4.05,13.36,13.36,0,0,0-4,9.81,13,13,0,0,0,2,7.11,15.81,15.81,0,0,0,5.22,5.13l-4.5,9.72A6.33,6.33,0,0,0,183.47,380.5Z" fill="currentColor"/><path d="M284.8,310.3a18.52,18.52,0,0,1,3.78-1.89,8.9,8.9,0,0,0,3.78-2.79q1.62-2,1.62-6.84,0-4.68-1.62-6.66a8.22,8.22,0,0,0-3.78-2.7,18.39,18.39,0,0,1-3.78-1.71q-1.62-1-1.62-3.69a28.94,28.94,0,0,1,.45-4.23q.45-2.79.9-6.12t.9-6.57a40.54,40.54,0,0,0,.45-5.4,22.51,22.51,0,0,0-3.42-11.79,36.91,36.91,0,0,0-9.08-10.08,47.67,47.67,0,0,0-12.7-7,40.52,40.52,0,0,0-14.22-2.61q-9.36,0-12.51,4a13.13,13.13,0,0,0-3.15,8.28,15.34,15.34,0,0,0,2.08,7.65,6.82,6.82,0,0,0,6.38,3.69,37.54,37.54,0,0,1,7.12.9,20.43,20.43,0,0,1,7.91,3.42,8.51,8.51,0,0,1,3.51,7.38,32.92,32.92,0,0,1-.45,4.59c-.3,2-.6,4.14-.9,6.47s-.6,4.5-.9,6.49a32.92,32.92,0,0,0-.45,4.59,13.3,13.3,0,0,0,2.43,7.56q2.43,3.6,4.05,4.14-1.8.54-4.14,4a13.1,13.1,0,0,0-2.34,7.56q0,1.62.45,5.67t.9,8.73q.45,4.68.9,8.46t.45,5.22a6.31,6.31,0,0,1-2,4.77,13,13,0,0,1-4.94,2.88,35.26,35.26,0,0,1-6.13,1.44,39.5,39.5,0,0,1-5.49.45,6.76,6.76,0,0,0-5.13,2,10.73,10.73,0,0,0-2.61,4.68,19.62,19.62,0,0,0-.72,5q0,6.12,4.14,9c2.76,1.91,6.72,2.88,11.88,2.88a46.79,46.79,0,0,0,18.45-3.78A40.18,40.18,0,0,0,280,357.82a22.51,22.51,0,0,0,5.85-15.3q0-2-.27-4.95T285,331q-.36-3.6-.81-6.93t-.72-5.94q-.27-2.61-.27-3.87Q283.18,311.38,284.8,310.3Z" fill="currentColor"/></svg>