<svg xmlns="http://www.w3.org/2000/svg" viewBox="0 0 512 512" x="0" y="0" aria-hidden="true" focusable="false" role="img"><path d="M327.5,246.59l27.82,40.33L374,268.25A75,75,0,0,0,268.75,161.42l27.8,40.31,5.45-5.45a26.8,26.8,0,0,1,37.91,37.9Z" fill="currentColor"/><path d="M254,140.07,281.9,112.2C298,96.11,321.56,88.54,348.27,90.89c25.5,2.24,49.85,13.25,66.82,30.22S442.94,162.3,445,187.64c2.17,26.5-5.53,50-21.67,66.12l-53.81,53.77,27.82,40.33q30-30,60-60c23.42-23.39,36.05-55.67,36.05-91.64q0-4.41-.25-8.9C491,149.41,475,112.87,449.16,87S386.68,45,348.65,42.71C308.9,40.28,273.1,52.86,247.82,78.13L226.21,99.74Z" fill="currentColor"/><path d="M258.83,315.25l-89.42,89.41a57.42,57.42,0,0,1-81.09,0c-11.11-11.11-19-28.05-21.24-45.31-2.36-18.52,2-34.39,12.33-44.69l106-105.93L157.54,168.4,45.33,280.59c-19.48,19.49-28.86,47.64-26.4,79.27,2.34,30,15.21,58.77,35.31,78.87a105.67,105.67,0,0,0,149.25,0l83.16-83.15Z" fill="currentColor"/><path d="M300.86,376.17,247,430a13.21,13.21,0,0,0-3.89,9.4h0a13.17,13.17,0,0,0,3.9,9.4l15.26,15.27a13.31,13.31,0,0,0,18.8,0l47.63-47.6Z" fill="currentColor"/><path d="M119.63,316a13.22,13.22,0,0,0,3.9,9.4l15.27,15.27a13.31,13.31,0,0,0,18.8,0l70.29-70.28-27.82-40.33-76.54,76.54A13.22,13.22,0,0,0,119.63,316Z" fill="currentColor"/><path d="M452.87,470.62,137.46,13.34a15.35,15.35,0,0,0-21.82-3.28L103,19.61A16.33,16.33,0,0,0,99.49,42L414.9,499.24a15.35,15.35,0,0,0,21.82,3.28L449.38,493A16.33,16.33,0,0,0,452.87,470.62Z" fill="currentColor"/></svg>