<svg xmlns="http://www.w3.org/2000/svg" viewBox="0 0 512 512" x="0" y="0" aria-hidden="true" focusable="false" role="img"><path d="M144,280h70.13L181,232H144a16,16,0,0,0-16,16v16A16,16,0,0,0,144,280Z" fill="currentColor"/><path d="M370,232H299.87L333,280h37a16,16,0,0,0,16-16V248A16,16,0,0,0,370,232Z" fill="currentColor"/><path d="M428,20H150.81l33.11,48H428a16,16,0,0,1,16,16V332a16,16,0,0,1-16,16H377.06l33.1,48H428a64.06,64.06,0,0,0,64-64V84A64.06,64.06,0,0,0,428,20Z" fill="currentColor"/><path d="M384,168V152a16,16,0,0,0-16-16H230.83l33.1,48H368A16,16,0,0,0,384,168Z" fill="currentColor"/><path d="M270.23,361.33,208,408V348H84a16,16,0,0,1-16-16V84a15.88,15.88,0,0,1,3.82-10.33L59.29,55.51a39.87,39.87,0,0,1-7-27A64,64,0,0,0,20,84V332a64.06,64.06,0,0,0,64,64h76v84a12,12,0,0,0,12,12,11.48,11.48,0,0,0,7.1-2.4l118.4-88.73Z" fill="currentColor"/><path d="M432.32,470.4,116.91,13.12A15.35,15.35,0,0,0,95.09,9.84L82.44,19.39A16.32,16.32,0,0,0,79,41.75L394.36,499a15.35,15.35,0,0,0,21.82,3.28l12.66-9.54A16.32,16.32,0,0,0,432.32,470.4Z" fill="currentColor"/></svg>