<svg xmlns="http://www.w3.org/2000/svg" viewBox="0 0 512 512" x="0" y="0" aria-hidden="true" focusable="false" role="img"><path d="M428,20H84A64.06,64.06,0,0,0,20,84V332a64.06,64.06,0,0,0,64,64h76v84a12,12,0,0,0,12,12,11.48,11.48,0,0,0,7.1-2.4L304,396H428a64.06,64.06,0,0,0,64-64V84A64.06,64.06,0,0,0,428,20Zm16,312a16,16,0,0,1-16,16H288l-12.8,9.6L208,408V348H84a16,16,0,0,1-16-16V84A16,16,0,0,1,84,68H428a16,16,0,0,1,16,16ZM368,136H144a16,16,0,0,0-16,16v16a16,16,0,0,0,16,16H368a16,16,0,0,0,16-16V152A16,16,0,0,0,368,136Zm4,96H144a16,16,0,0,0-16,16v16a16,16,0,0,0,16,16H372c8.8,0,13-7.2,13-16V248C385,239.2,380.8,232,372,232Z" fill="currentColor"/></svg>