<svg xmlns="http://www.w3.org/2000/svg" viewBox="0 0 516.39 512" x="0" y="0" aria-hidden="true" focusable="false" role="img"><path d="M513.73,401.19l-74.91-74.91a9.1,9.1,0,0,0-15.51,6.43v41.61a9.07,9.07,0,0,1-9.08,9.08H344.14a12.71,12.71,0,0,0-12.67,12.67v23.08a12.71,12.71,0,0,0,12.67,12.67h70.09a9.07,9.07,0,0,1,9.08,9.08v41.61a9.08,9.08,0,0,0,15.51,6.43L513.73,414A9.09,9.09,0,0,0,513.73,401.19Z" fill="currentColor"/><path d="M336,464H48V48.09H208v104a23.94,23.94,0,0,0,24,24H336v175.3h48V132a48.23,48.23,0,0,0-14.1-34L286,14.1A48,48,0,0,0,252.1,0H48A48.16,48.16,0,0,0,0,48.09V464a48,48,0,0,0,48,48H336a48,48,0,0,0,48-48v-.13H336ZM256,52l76.1,76.08H256Z" fill="currentColor"/><path d="M83,430H302V302l-23-23.5a11.56,11.56,0,0,0-16.62,0L176.86,366l-38.62-39.5a11.56,11.56,0,0,0-16.62,0L83,366Z" fill="currentColor"/><ellipse cx="129.93" cy="238" rx="46.93" ry="48" fill="currentColor"/></svg>