<svg xmlns="http://www.w3.org/2000/svg" viewBox="0 0 517 512" x="0" y="0" aria-hidden="true" focusable="false" role="img"><path d="M332,419.15V396.07a12.71,12.71,0,0,1,12.67-12.67h70.09a9.07,9.07,0,0,0,9.08-9.08V332.71a9.1,9.1,0,0,1,15.51-6.43l74.91,74.91a9.09,9.09,0,0,1,0,12.84l-74.91,74.91a9.08,9.08,0,0,1-15.51-6.43V440.9a9.07,9.07,0,0,0-9.08-9.08H344.64A12.71,12.71,0,0,1,332,419.15Zm4.53,44.73V464H48.5V48.09h160v104a23.94,23.94,0,0,0,24,24h104v175.3h48V132a48.23,48.23,0,0,0-14.1-34L286.5,14.1A48,48,0,0,0,252.6,0H48.5A48.16,48.16,0,0,0,.5,48.09V464a48,48,0,0,0,48,48h288a48,48,0,0,0,48-48v-.13ZM256.5,52l76.1,76.09H256.5ZM69,415.14c-3.43,16.48,22.46,38.64,52.08,6.28C130,411.71,140,397.1,151.76,376.8c26.18-8.63,55-19.41,80.41-23.53,21.48,11.76,46.68,19.51,63.35,19.51,27.16.1,28.34-29.61,18.14-39.81h0c-13.24-13.05-53.93-9-72.27-6.57-20.79-12.56-34.52-29.81-44.23-55.51,4.22-17.65,11.77-46.28,6.28-63.64-4.32-27.56-38.93-24.22-43.74-6.67-4.9,17.95-.29,43.54,8.24,76.29-11.67,27.85-29.12,65.61-41.28,86.89C106.26,374.25,73.6,392.49,69,415.14Zm19.91,5.1c5.79-15.59,28.05-33.73,34.81-40C102,414.85,88.9,420.93,88.9,420.24Zm215.94-67.56s-5.69,6.86-42.66-8.93C302.39,340.81,309,350,304.84,352.68ZM182.26,202.25c8.53,0,7.65,36.77,2.06,46.68C179.22,232.94,179.41,202.25,182.26,202.25Zm.39,93.75c9.51,17.35,21.67,31.08,34.42,40.69-23.83,4.61-44.52,14.81-62.66,21.77C165.49,339.05,175,316.1,182.65,296Z" fill="currentColor"/></svg>