<svg xmlns="http://www.w3.org/2000/svg" viewBox="0 0 576 512" x="0" y="0" aria-hidden="true" focusable="false" role="img"><path d="M404.05,8.39,18,299.1C6.12,308,5.13,326.7,15.76,340.82L131.25,494.2c10.63,14.11,28.86,18.33,40.7,9.41L558,212.9c11.84-8.92,12.83-27.6,2.2-41.72L444.75,17.8C434.12,3.69,415.89-.53,404.05,8.39Zm104.22,181.9L164,449.53,67.73,321.71l32.73-24.64,33.68,44.74c2.66,3.53,7.21,4.58,10.18,2.35L155,336.08c3-2.23,3.21-6.89.55-10.42l-33.68-44.74,40.21-30.28,49.93,66.3c2.66,3.53,7.21,4.59,10.17,2.36l16.09-12.12c3-2.23,3.21-6.89.55-10.43l-49.92-66.3,40.21-30.28,33.69,44.73c2.66,3.53,7.21,4.59,10.17,2.36l10.73-8.08c3-2.23,3.21-6.9.55-10.43L250.6,184l40.22-30.29L340.75,220c2.66,3.53,7.21,4.58,10.17,2.35L367,210.28c3-2.23,3.21-6.9.55-10.43l-49.93-66.31,40.22-30.28L391.54,148c2.65,3.53,7.21,4.58,10.17,2.35l10.72-8.07c3-2.23,3.21-6.9.55-10.43L379.3,87.11,412,62.47Z" fill="currentColor"/></svg>