<svg xmlns="http://www.w3.org/2000/svg" viewBox="0 0 512 512" x="0" y="0" aria-hidden="true" focusable="false" role="img"><path d="M393.54,406.54,379,392H75.56V100.23h361V332.56L452,348l32.52-32.52v-231c0-17.35-14.33-31.42-32-31.42h-393c-17.67,0-32,14.07-32,31.42V407.68c0,17.35,14.33,31.42,32,31.42H361Z" fill="currentColor"/><path d="M485,363.33a6,6,0,0,0-10.21-4.22l-21.34,21.34-47.86-47.86a7.9,7.9,0,0,0-11.18,0l-16.32,16.32a7.9,7.9,0,0,0,0,11.18L426,408l-20.84,20.84A6,6,0,0,0,409.33,439h72.46a3.21,3.21,0,0,0,3.21-3.21Z" fill="currentColor"/></svg>