<svg xmlns="http://www.w3.org/2000/svg" viewBox="0 0 512 512" x="0" y="0" aria-hidden="true" focusable="false" role="img"><path d="M454.15,299.6A102.54,102.54,0,0,0,453,215.12c33.16-67.23,36.73-126.8,3.75-159.77-39.62-39.6-117.53-26.55-201,27.05-83.46-53.57-161.35-66.59-201-27.05S28.2,172.74,81.85,256.16C28.21,339.57,15.18,417.41,54.75,457c61,61,182.86-15.37,201-27,18.19,11.68,139.91,88,201,27C489.33,424.4,486.23,365.85,454.15,299.6Zm-94.1,13.68a54.64,54.64,0,1,1,54.63-54.63A54.7,54.7,0,0,1,360.05,313.28Zm62.7-224c12.87,12.86,12.19,44.12-4.35,85a102.34,102.34,0,0,0-70.53-17.52A614.67,614.67,0,0,0,298.27,113C340.38,88.78,400.5,67.12,422.75,89.29ZM255.73,371c-13-9.62-25.16-19.43-36.78-29.6L233.34,328a10.28,10.28,0,0,0-3.85-17.28l-82.88-25.54a10.29,10.29,0,0,0-13.12,12.24l17.88,86.2a10.28,10.28,0,0,0,17,5l15.29-14.27c11.43,10.23,21.49,18.45,29.62,24.89C153.52,433.54,105.54,439.73,88.73,423s-10.58-64.65,23.71-124.33c.23.3.46.58.7.88a329,329,0,0,1,28.07-42.8l-.44-.6c7.55-10.16,17.8-23.37,31-38.32l14.78,12.75a10.28,10.28,0,0,0,16.76-5.69l16.44-85.16A10.29,10.29,0,0,0,206.19,128l-83.76,27.09a10.28,10.28,0,0,0-3.17,17.42l16.08,13.86c-9.34,10.48-16.94,19.74-22.9,27.23C78.15,153.94,72,106,88.73,89.29,111.07,67,171.4,89,213.2,112.94l-.81.65a378.94,378.94,0,0,1,42.88,27.57l.46-.35a548.41,548.41,0,0,1,43.07,35.53,102.52,102.52,0,0,0-3.09,162.21C283.16,349.73,269.92,360.48,255.73,371Zm167,52c-16.83,16.73-64.8,10.54-124.54-23.75,11.63-9.23,27.25-22.1,45.18-39.34a102.47,102.47,0,0,0,76.55-18C435,380.88,435.21,410.57,422.75,423Z" fill="currentColor"/></svg>