<svg xmlns="http://www.w3.org/2000/svg" viewBox="0 0 576 512" x="0" y="0" aria-hidden="true" focusable="false" role="img"><path d="M318.44,409.91a150.63,150.63,0,0,1-23-46.3,49.27,49.27,0,0,1,1.11-90.39,151.9,151.9,0,0,1,38-61.29c.73-.72,1.43-1.49,2.13-2.29v-24h39.63a33.16,33.16,0,0,0,33.13-33.13V51a33.16,33.16,0,0,0-33.13-33.12H255A33.16,33.16,0,0,0,221.84,51V80.75h-26.7c-.48-.55-1-1.1-1.51-1.63L124.89,10.38a32,32,0,0,0-45.27,0L10.88,79.12a32,32,0,0,0,0,45.27l68.74,68.74c.53.53,1.08,1,1.63,1.51v40.13H41.62A33.16,33.16,0,0,0,8.49,267.9V369.44a33.16,33.16,0,0,0,33.13,33.12H162.89A33.16,33.16,0,0,0,196,369.44V339.67h30.74A91.45,91.45,0,0,0,315.6,410C316.55,410,317.5,409.93,318.44,409.91Zm-54.6-350H367.36v83.79H263.84ZM47.64,101.75l54.61-54.61,54.62,54.61-54.62,54.62ZM154,360.56H50.49V276.77H154Zm72.74-62.89H196V267.9a33.16,33.16,0,0,0-33.12-33.13H123.25V194.64c.56-.48,1.11-1,1.64-1.51l68.74-68.75c.53-.52,1-1.07,1.51-1.63h26.7v29.77A33.16,33.16,0,0,0,255,185.65H294.6v44.17A91.62,91.62,0,0,0,226.75,297.67Z" fill="currentColor"/><path d="M536.39,227.58h0c-51.41-50.79-135-50.79-186.46,0a129.91,129.91,0,0,0-7.07,177.68L293.11,461A30,30,0,0,0,337.89,501l53.81-60.34a133.4,133.4,0,0,0,144.69-27.81,129.95,129.95,0,0,0,0-185.24ZM494.22,370.13a72.91,72.91,0,0,1-102.12,0,69.94,69.94,0,0,1,0-99.87,72.92,72.92,0,0,1,102.12,0,69.94,69.94,0,0,1,0,99.87Z" fill="currentColor"/></svg>