<svg xmlns="http://www.w3.org/2000/svg" viewBox="0 0 512 512" x="0" y="0" aria-hidden="true" focusable="false" role="img"><path d="M493.45,196.2c0,36-12.63,68.25-36.05,91.64Q369.18,375.94,281,464.09a13.31,13.31,0,0,1-18.8,0L247,448.82a13.17,13.17,0,0,1-3.9-9.4h0A13.21,13.21,0,0,1,247,430q88.17-88.14,176.37-176.26c16.14-16.13,23.84-39.62,21.67-66.12-2.07-25.34-13-49.59-29.92-66.53s-41.32-28-66.82-30.22C321.56,88.54,298,96.11,281.9,112.2L79.41,314.66c-10.3,10.3-14.69,26.17-12.33,44.69,2.19,17.26,10.13,34.2,21.24,45.31a57.42,57.42,0,0,0,81.09,0l170.5-170.48A26.8,26.8,0,1,0,302,196.28L157.6,340.66a13.31,13.31,0,0,1-18.8,0l-15.27-15.27a13.28,13.28,0,0,1,0-18.8l144.4-144.38A75,75,0,0,1,374,268.25L203.49,438.73a105.67,105.67,0,0,1-149.25,0c-20.1-20.1-33-48.85-35.31-78.87-2.46-31.63,6.92-59.78,26.4-79.27L247.82,78.13C273.1,52.86,308.9,40.28,348.65,42.71,386.68,45,423.32,61.2,449.16,87s41.88,62.37,44,100.26Q493.46,191.78,493.45,196.2Z" fill="currentColor"/></svg>