<svg xmlns="http://www.w3.org/2000/svg" viewBox="0 0 517 512" x="0" y="0" aria-hidden="true" focusable="false" role="img"><path d="M514.23,414l-74.91,74.91a9.08,9.08,0,0,1-15.51-6.43V440.9a9.07,9.07,0,0,0-9.08-9.08H344.64A12.71,12.71,0,0,1,332,419.15V396.07a12.71,12.71,0,0,1,12.67-12.67h70.09a9.07,9.07,0,0,0,9.08-9.08V332.71a9.1,9.1,0,0,1,15.51-6.43l74.91,74.91A9.09,9.09,0,0,1,514.23,414ZM336.5,463.88h48V464a48,48,0,0,1-48,48H48.5a48,48,0,0,1-48-48V48.09A48.16,48.16,0,0,1,48.5,0H252.6a48,48,0,0,1,33.9,14.1L370.4,98a48.23,48.23,0,0,1,14.1,34v219.4h-48V176.07h-104a23.94,23.94,0,0,1-24-24v-104H48.5V464h288Zm-80-335.81h76.1L256.5,52ZM114.72,334.13a22.77,22.77,0,0,1-6.43.92,20.38,20.38,0,0,1-8.41-1.55,27.31,27.31,0,0,1-6.09-3.68q-2.61-2.11-4.8-3.68a8.09,8.09,0,0,0-4.74-1.55,7.11,7.11,0,0,0-4.88,2,14.51,14.51,0,0,0-3.46,4.74,12.34,12.34,0,0,0-1.28,5.16q0,4.66,4.67,8.83a36.05,36.05,0,0,0,12.44,6.86,51.7,51.7,0,0,0,17,2.69A43.5,43.5,0,0,0,127,351.24a29,29,0,0,0,12.52-10.6q4.59-7,4.59-17.18a32.78,32.78,0,0,0-2.4-13.15,28.28,28.28,0,0,0-6.43-9.34,46.85,46.85,0,0,0-8.84-6.57,96,96,0,0,0-9.55-4.81q-4.74-2-8.76-4a25.74,25.74,0,0,1-6.44-4.1,6.77,6.77,0,0,1-2.4-5.16,6.86,6.86,0,0,1,1.41-4.17,9.89,9.89,0,0,1,4.6-3.11,23.33,23.33,0,0,1,8.13-1.2,24.94,24.94,0,0,1,9.12,1.34,37.89,37.89,0,0,1,5.51,2.69,9,9,0,0,0,4.74,1.34,6.45,6.45,0,0,0,5-2.12,13.63,13.63,0,0,0,2.83-4.88,15.22,15.22,0,0,0,.92-4.59,7.87,7.87,0,0,0-3.25-6.58,22.93,22.93,0,0,0-8-3.75,55.27,55.27,0,0,0-9.41-1.69q-4.66-.43-7.49-.43a53.38,53.38,0,0,0-13.08,1.63,37.6,37.6,0,0,0-11.67,5.09A25.71,25.71,0,0,0,80.29,265a27.38,27.38,0,0,0-3.11,13.5,28.27,28.27,0,0,0,2.4,12.16,27,27,0,0,0,6.44,8.7,46.26,46.26,0,0,0,8.84,6.22q4.8,2.63,9.54,4.81t8.77,4.31a23.54,23.54,0,0,1,6.43,4.74,9,9,0,0,1,2.4,6.29,7.33,7.33,0,0,1-2,5.44A11.82,11.82,0,0,1,114.72,334.13Zm109-82.86a18.32,18.32,0,0,0-6.36-1.2,10.6,10.6,0,0,0-4.6.92,5,5,0,0,0-2.61,3.18l-19.66,72.54-19.79-72.54A4.51,4.51,0,0,0,168.1,251a11.05,11.05,0,0,0-4.67-.92,18.55,18.55,0,0,0-6.29,1.2,17.24,17.24,0,0,0-5.58,3.18,6,6,0,0,0-2.27,4.67,8,8,0,0,0,.29,1.56L176,346.93a8.86,8.86,0,0,0,5.37,5.52,23.47,23.47,0,0,0,18.17,0,8.91,8.91,0,0,0,5.31-5.52l26.3-86.25a7,7,0,0,0,.21-.85,5.6,5.6,0,0,0,.07-.71,6.06,6.06,0,0,0-2.26-4.67A17.47,17.47,0,0,0,223.67,251.27Zm41.64,21.5q3.33-3.47,9.41-3.47t8.69,2.12a8.87,8.87,0,0,1,3.26,5.09,26.71,26.71,0,0,1,.63,5.52,5.46,5.46,0,0,0,3.4,5.23,19,19,0,0,0,7.63,1.41q5.66,0,8.34-2.05c1.79-1.36,2.69-4.17,2.69-8.41q0-9-4.66-15.27A29.77,29.77,0,0,0,292,253.39a47.05,47.05,0,0,0-18.17-3.32,43.49,43.49,0,0,0-17,3.25,26.24,26.24,0,0,0-12.37,10.61q-4.6,7.35-4.6,19.51v37.47q0,12.16,4.6,19.52A26.2,26.2,0,0,0,257,351a45.56,45.56,0,0,0,17.61,3.25A46.08,46.08,0,0,0,292.25,351a26.2,26.2,0,0,0,12.52-10.6q4.59-7.35,4.59-19.52V306.07a7.35,7.35,0,0,0-1.7-4.88,6,6,0,0,0-5-2.05H279a5.54,5.54,0,0,0-4.88,2.68,10.38,10.38,0,0,0-1.77,5.8,10.23,10.23,0,0,0,1.77,5.87,5.59,5.59,0,0,0,4.88,2.62h8.34v4.8q0,7.21-3.39,10.68t-9.33,3.46q-5.94,0-9.27-3.46T262,320.91V283.44Q262,276.23,265.31,272.77Z" fill="currentColor"/></svg>