<svg xmlns="http://www.w3.org/2000/svg" viewBox="0 0 517 512" x="0" y="0" aria-hidden="true" focusable="false" role="img"><path d="M514.23,398.19l-74.91-74.91a9.1,9.1,0,0,0-15.51,6.43v41.61a9.07,9.07,0,0,1-9.08,9.08H344.64A12.71,12.71,0,0,0,332,393.07v23.08a12.71,12.71,0,0,0,12.67,12.67h70.09a9.07,9.07,0,0,1,9.08,9.08v41.61a9.08,9.08,0,0,0,15.51,6.43L514.23,411A9.09,9.09,0,0,0,514.23,398.19Z" fill="currentColor"/><path d="M336.5,461H283.34a92.32,92.32,0,0,0,11.73-113.95A15.71,15.71,0,0,0,306.15,332c0-8.84-7-16-16.91-16H262.1a92.7,92.7,0,0,0-89.89,0H103.73c-9.89,0-16.91,7.16-16.91,16s7,16,16.91,16h35a92.15,92.15,0,0,0-13.55,41.66h-21.4c-9.89,0-16.91,7.17-16.91,16s7,16,16.91,16H128.3A91.69,91.69,0,0,0,151,461H48.5V45.09h160v104a23.94,23.94,0,0,0,24,24h104v175.3h48V129a48.23,48.23,0,0,0-14.1-34L286.5,11.1A48,48,0,0,0,252.6-3H48.5A48.16,48.16,0,0,0,.5,45.09V461a48,48,0,0,0,48,48h288a48,48,0,0,0,48-48v-.13h-48ZM171.65,351.14a64.35,64.35,0,1,1,0,91A64.13,64.13,0,0,1,171.65,351.14ZM256.5,49l76.1,76.08H256.5Z" fill="currentColor"/><path d="M103.73,274.32H289.24c9.89,0,16.91-7.16,16.91-16s-7-16-16.91-16H103.73c-9.89,0-16.91,7.16-16.91,16S93.84,274.32,103.73,274.32Z" fill="currentColor"/><path d="M103.73,200h65.51c9.89,0,16.91-7.16,16.91-16s-7-16-16.91-16H103.73c-9.89,0-16.91,7.16-16.91,16S93.84,200,103.73,200Z" fill="currentColor"/><path d="M187.16,389l13.36,13-.18.19L217.54,419l.25-.26h0l6-6.1,35-35.74,1.47-14.5a3.79,3.79,0,0,0-4.23-4.14L241.59,360l-24.21,24.72-13.35-13-14.5-1.47a3.78,3.78,0,0,0-4.13,4.23Z" fill="currentColor"/></svg>