<svg xmlns="http://www.w3.org/2000/svg" viewBox="0 0 517 512" x="0" y="0" aria-hidden="true" focusable="false" role="img"><path d="M514.23,414l-74.91,74.91a9.08,9.08,0,0,1-15.51-6.43V440.9a9.07,9.07,0,0,0-9.08-9.08H344.64A12.71,12.71,0,0,1,332,419.15V396.07a12.71,12.71,0,0,1,12.67-12.67h70.09a9.07,9.07,0,0,0,9.08-9.08V332.71a9.1,9.1,0,0,1,15.51-6.43l74.91,74.91A9.09,9.09,0,0,1,514.23,414Zm-178,50.38h48v.13a48,48,0,0,1-48,48H48.2a48,48,0,0,1-48-48v-416A48.16,48.16,0,0,1,48.2.44H252.3a48,48,0,0,1,33.9,14.1l83.9,83.9a48.23,48.23,0,0,1,14.1,34V351.88h-48V176.54h-104a23.94,23.94,0,0,1-24-24v-104H48.2v416h288Zm-80-335.87h76.1l-76.1-76.1ZM269,303.22v29.23a55.57,55.57,0,1,1-66.7,64H181.81v21.69a19.55,19.55,0,0,1-19.52,19.52H87.11a19.55,19.55,0,0,1-19.52-19.52V355.23a19.54,19.54,0,0,1,19.52-19.52h27.14V310.49a18.53,18.53,0,0,1-2.86-2.34h0L68.77,265.53a18.83,18.83,0,0,1,0-26.62l42.62-42.62a18.84,18.84,0,0,1,26.62,0l42.62,42.62a19.1,19.1,0,0,1,2.05,2.46h17.18V220.75a19.53,19.53,0,0,1,19.52-19.52h75.18a19.54,19.54,0,0,1,19.52,19.52V283.7a19.55,19.55,0,0,1-19.52,19.52ZM124.7,287.52l35.3-35.3-35.3-35.3-35.3,35.3Zm33.11,72.19H91.59v54h66.22ZM245,332.45V303.22H219.38a19.54,19.54,0,0,1-19.52-19.52V263.08H182.68a19,19,0,0,1-2.05,2.45L138,308.15a18.53,18.53,0,0,1-2.86,2.34v25.22h27.14a19.54,19.54,0,0,1,19.52,19.52v21.69h20.46A55.71,55.71,0,0,1,245,332.45Zm12,22.68a31.58,31.58,0,1,0,31.57,31.57A31.61,31.61,0,0,0,257,355.13Zm33.11-75.91v-54H223.86v54Z" fill="currentColor"/></svg>