<svg xmlns="http://www.w3.org/2000/svg" width="512" height="512.001" viewBox="0 0 512 512.001">
    <path id="link" d="M314.222,197.78c51.091,51.091,54.377,132.287,9.75,187.16-6.242,7.73-2.784,3.865-84.94,86.02A140,140,0,0,1,41.042,272.97c32.773-32.773,51.835-51.9,63.409-63.457,7.463-7.452,20.331-2.354,20.486,8.192.186,12.745-.052,18,2.916,30.4a11.928,11.928,0,0,1-3.2,11.2L78.8,305.14C46.047,337.915,32.194,393.121,75.1,434.43c42.676,43.354,96.182,34.942,129.09,2.055l75.19-75.2c37.673-46.061,32.134-94.736-.643-127.513-6.64-6.652-15.508-15.082-23.97-19.173a12.026,12.026,0,0,1-6.561-12.346c1.356-11.122,3.341-15.333,11.86-23.853l4.375-4.375a11.931,11.931,0,0,1,13.76-2.294,139.209,139.209,0,0,1,36.025,26.049ZM470.958,41.04a139.915,139.915,0,0,0-197.99,0c-82.156,82.156-78.7,78.29-84.94,86.02-44.627,54.873-41.55,132.074,9.541,183.165a139.209,139.209,0,0,0,36.025,26.049,11.934,11.934,0,0,0,13.76-2.294l4.375-4.375c8.52-8.519,9.674-15.079,11.03-26.2a12.026,12.026,0,0,0-6.561-12.346,83.705,83.705,0,0,1-22.814-16.229c-32.777-32.777-47.147-82.322,3.419-129.984l75.19-75.2c32.908-32.887,86.716-34.888,130.1,5.416,41.641,45.468,22.608,102.579-10.147,135.354L386.1,256.255a11.928,11.928,0,0,0-3.2,11.2c2.968,12.4,3.984,14.1,4.17,26.843.155,10.546,13.023,15.644,20.486,8.192,11.574-11.558,30.636-30.684,63.409-63.457a139.913,139.913,0,0,0,0-197.991Z"/>
</svg>
