<svg xmlns="http://www.w3.org/2000/svg" viewBox="0 0 488 512" x="0" y="0" aria-hidden="true" focusable="false" role="img"><path d="M468.94,130.94,354.06,27.06A48,48,0,0,0,320.12,13H52A48,48,0,0,0,4,61V455a48,48,0,0,0,48,48H435a48,48,0,0,0,48-48V164.88A48,48,0,0,0,468.94,130.94ZM148,61H276v80H148ZM435,449a6,6,0,0,1-6,6H58a6,6,0,0,1-6-6V67a6,6,0,0,1,6-6h42V165a24,24,0,0,0,24,24H300a24,24,0,0,0,24-24V64.88l109.24,98.24a6,6,0,0,1,1.76,4.25Z" fill="currentColor"/><path d="M243.75,235a88,88,0,1,0,88,88A88.1,88.1,0,0,0,243.75,235Zm0,128a40,40,0,1,1,40-40A40,40,0,0,1,243.75,363Z" fill="currentColor"/></svg>