<svg xmlns="http://www.w3.org/2000/svg" viewBox="0 0 480 512" x="0" y="0" aria-hidden="true" focusable="false" role="img"><path d="M366.18,320.19a95.46,95.46,0,0,0-66.1,26.4l-98.3-61.5a96.59,96.59,0,0,0,0-57.8l98.3-61.5a96,96,0,1,0-29.9-69.6,97.37,97.37,0,0,0,4.4,28.9l-98.3,61.5a96,96,0,1,0,0,139.2l98.3,61.5a97.86,97.86,0,0,0-4.4,28.9,96,96,0,1,0,96-96Zm0-272a48,48,0,1,1-48,48A48,48,0,0,1,366.18,48.19Zm-256,256a48,48,0,1,1,48-48A48,48,0,0,1,110.18,304.19Zm256,160a48,48,0,1,1,48-48A48,48,0,0,1,366.18,464.19Z" fill="currentColor"/></svg>