<svg xmlns="http://www.w3.org/2000/svg" viewBox="0 0 576 512" x="0" y="0" aria-hidden="true" focusable="false" role="img"><g><path d="M295.1,279.31a119.8,119.8,0,0,0-35.5,5.3,152.46,152.46,0,0,1-89.4,0,123.15,123.15,0,0,0-35.5-5.3c-36.3,0-71.6,16.2-92.3,46.9A116,116,0,0,0,23,390.51v44.8a48,48,0,0,0,48,48H359a48,48,0,0,0,48-48v-44.8a114.59,114.59,0,0,0-19.6-64.3c-20.7-30.7-56-46.9-92.3-46.9Zm63.9,156H71v-44.8a67.42,67.42,0,0,1,44.1-63.1,46.63,46.63,0,0,1,31.9,0,201.63,201.63,0,0,0,68,11.9,203.06,203.06,0,0,0,68.1-11.9,46.63,46.63,0,0,1,31.9,0,67.32,67.32,0,0,1,44.1,63.1v44.8Z" fill="currentColor"/><path d="M215,252.17a112,112,0,1,0-112-112A111.94,111.94,0,0,0,215,252.17Zm0-176a64,64,0,1,1-64,64A64.06,64.06,0,0,1,215,76.17Z" fill="currentColor"/><path d="M430.54,284.07a80,80,0,1,0-80-80A80,80,0,0,0,430.54,284.07Zm0-112a32,32,0,1,1-32,32A32.09,32.09,0,0,1,430.54,172.07Z" fill="currentColor"/><path d="M532.44,351.21c-20.7-30.71-56-46.9-92.3-46.9h0a120.38,120.38,0,0,0-32.22,4.35c.86,1.16,1.71,2.34,2.52,3.55a114.35,114.35,0,0,1,17.1,40.4l.6-.2a46.63,46.63,0,0,1,31.9,0,67.32,67.32,0,0,1,44.1,63.09v20.81H431.33c-3.26,17.76-2.26,40.76-28.27,48H504a48,48,0,0,0,48-48V415.5A114.58,114.58,0,0,0,532.44,351.21Z" fill="currentColor"/></g><g><path d="M295.1,279.31a119.8,119.8,0,0,0-35.5,5.3,152.46,152.46,0,0,1-89.4,0,123.15,123.15,0,0,0-35.5-5.3c-36.3,0-71.6,16.2-92.3,46.9A116,116,0,0,0,23,390.51v44.8a48,48,0,0,0,48,48H359a48,48,0,0,0,48-48v-44.8a114.59,114.59,0,0,0-19.6-64.3c-20.7-30.7-56-46.9-92.3-46.9Zm63.9,156H71v-44.8a67.42,67.42,0,0,1,44.1-63.1,46.63,46.63,0,0,1,31.9,0,201.63,201.63,0,0,0,68,11.9,203.06,203.06,0,0,0,68.1-11.9,46.63,46.63,0,0,1,31.9,0,67.32,67.32,0,0,1,44.1,63.1v44.8Z" fill="currentColor"/><path d="M215,252.17a112,112,0,1,0-112-112A111.94,111.94,0,0,0,215,252.17Zm0-176a64,64,0,1,1-64,64A64.06,64.06,0,0,1,215,76.17Z" fill="currentColor"/><path d="M430.54,284.07a80,80,0,1,0-80-80A80,80,0,0,0,430.54,284.07Zm0-112a32,32,0,1,1-32,32A32.09,32.09,0,0,1,430.54,172.07Z" fill="currentColor"/><path d="M532.44,351.21c-20.7-30.71-56-46.9-92.3-46.9h0a120.38,120.38,0,0,0-32.22,4.35c.86,1.16,1.71,2.34,2.52,3.55a114.35,114.35,0,0,1,17.1,40.4l.6-.2a46.63,46.63,0,0,1,31.9,0,67.32,67.32,0,0,1,44.1,63.09v20.81H431.33c-3.26,17.76-2.26,40.76-28.27,48H504a48,48,0,0,0,48-48V415.5A114.58,114.58,0,0,0,532.44,351.21Z" fill="currentColor"/></g></svg>