<?xml version="1.0" encoding="UTF-8" standalone="no"?>
<svg
   xmlns:dc="http://purl.org/dc/elements/1.1/"
   xmlns:cc="http://creativecommons.org/ns#"
   xmlns:rdf="http://www.w3.org/1999/02/22-rdf-syntax-ns#"
   xmlns:svg="http://www.w3.org/2000/svg"
   xmlns="http://www.w3.org/2000/svg"
   xmlns:sodipodi="http://sodipodi.sourceforge.net/DTD/sodipodi-0.dtd"
   xmlns:inkscape="http://www.inkscape.org/namespaces/inkscape"
   width="21.999998"
   height="21.703703"
   overflow="hidden"
   version="1.1"
   id="svg13"
   sodipodi:docname="search_similar_model.svg"
   style="overflow:hidden"
   inkscape:version="0.92.4 (5da689c313, 2019-01-14)">
  <metadata
     id="metadata17">
    <rdf:RDF>
      <cc:Work
         rdf:about="">
        <dc:format>image/svg+xml</dc:format>
        <dc:type
           rdf:resource="http://purl.org/dc/dcmitype/StillImage" />
      </cc:Work>
    </rdf:RDF>
  </metadata>
  <sodipodi:namedview
     pagecolor="#ffffff"
     bordercolor="#666666"
     borderopacity="1"
     objecttolerance="10"
     gridtolerance="10"
     guidetolerance="10"
     inkscape:pageopacity="0"
     inkscape:pageshadow="2"
     inkscape:window-width="3840"
     inkscape:window-height="1973"
     id="namedview15"
     showgrid="false"
     inkscape:zoom="0.8"
     inkscape:cx="148.50001"
     inkscape:cy="146.5"
     inkscape:window-x="-18"
     inkscape:window-y="-18"
     inkscape:window-maximized="1"
     inkscape:current-layer="svg13" />
  <defs
     id="defs5">
    <clipPath
       id="clip0">
      <path
         d="m 2595,953 h 299 v 295 h -299 z"
         id="path2"
         inkscape:connector-curvature="0"
         style="clip-rule:evenodd;fill-rule:evenodd" />
    </clipPath>
  </defs>
  <g
     clip-path="url(#clip0)"
     transform="matrix(0.07407407,0,0,0.07407407,-192.29629,-70.666663)"
     id="g11">
    <path
       d="m 2646.61,1110.96 -24.5,24.48 24.5,24.48 24.5,-24.48 z m 195.78,-69.88 -24.5,24.48 24.5,24.48 24.5,-24.48 z m 0,-24.87 50.61,50.57 -42.32,42.3 v 55.21 h 18.29 c 12.62,0 22.85,10.23 22.85,22.85 v 37.02 c 0,12.61 -10.23,22.84 -22.85,22.84 h -55.05 c -12.63,0 -22.86,-10.23 -22.86,-22.84 v -33.24 h 18.15 l -0.7,1.04 c -0.65,1.54 -1,3.22 -1,5 v 20.81 c 0,7.09 5.75,12.84 12.85,12.84 h 40.73 c 7.1,0 12.85,-5.75 12.85,-12.84 v -20.81 c 0,-7.1 -5.75,-12.85 -12.85,-12.85 h -26.81 v -92.57 l -8.86,8.86 -33.64,-33.62 z M 2620.03,954 h 55.05 c 12.63,0 22.86,10.228 22.86,22.845 v 35.415 h -19.63 l 2.17,-3.22 c 0.66,-1.54 1.01,-3.22 1.01,-5 v -20.811 c 0,-7.094 -5.75,-12.844 -12.85,-12.844 h -40.73 c -7.1,0 -12.85,5.75 -12.85,12.844 v 20.811 c 0,7.1 5.75,12.85 12.85,12.85 h 27.61 v 94.76 l 9.56,-9.55 32.14,32.12 -50.61,50.57 -50.61,-50.57 42.32,-42.3 v -55.21 h -18.29 c -12.62,0 -22.85,-10.23 -22.85,-22.85 v -37.015 c 0,-12.617 10.23,-22.845 22.85,-22.845 z"
       id="path7"
       inkscape:connector-curvature="0"
       style="fill:#4d4d4d;fill-rule:evenodd" />
    <path
       d="m 2678.49,1089.95 -1.04,-58.35 58.35,1.04 -20.92,20.92 79.41,79.4 20.92,-20.92 1.04,58.36 -58.35,-1.05 20.92,-20.91 -79.41,-79.41 z"
       id="path9"
       inkscape:connector-curvature="0"
       style="fill:#4d4d4d;fill-rule:evenodd" />
  </g>
</svg>
