<svg xmlns="http://www.w3.org/2000/svg" viewBox="0 0 512 512" x="0" y="0" aria-hidden="true" focusable="false" role="img"><circle cx="255.72" cy="255.89" r="86.19" fill="currentColor"/><path d="M505.61,255.89a59.66,59.66,0,1,0-96.51,46.89A160.64,160.64,0,0,1,302.7,408.83a59.62,59.62,0,0,0-93.27-.11,159.8,159.8,0,0,1-92.13-73.9,22.9,22.9,0,0,0-30.86-8.88,23.15,23.15,0,0,0-9.57,31.28l.32.58a206,206,0,0,0,119.62,95.33,59.64,59.64,0,0,0,118.39.24A207,207,0,0,0,453.7,315,59.66,59.66,0,0,0,505.61,255.89Z" fill="currentColor"/><path d="M125.7,255.89a59.56,59.56,0,0,0-22.35-46.54A160.7,160.7,0,0,1,209.29,103.1a59.61,59.61,0,0,0,93.53-.09,159.65,159.65,0,0,1,89.81,69.68l.08.12a23.12,23.12,0,0,0,40.05-23.06c-.24-.44-.49-.88-.71-1.24A205.88,205.88,0,0,0,315.18,58.43a59.64,59.64,0,0,0-118.33.13,207,207,0,0,0-138,138.12,59.65,59.65,0,1,0,66.82,59.21Z" fill="currentColor"/></svg>