<?xml version="1.0" encoding="utf-8"?>
<!-- Generator: Adobe Illustrator 23.0.6, SVG Export Plug-In . SVG Version: 6.00 Build 0)  -->
<svg version="1.1" xmlns="http://www.w3.org/2000/svg" xmlns:xlink="http://www.w3.org/1999/xlink" x="0px" y="0px"
	 viewBox="0 0 370.2 126.7" style="enable-background:new 0 0 370.2 126.7;" xml:space="preserve">
<style type="text/css">
	.st0{fill:#4E4E4F;}
	.st1{fill:#85C7E2;}
	.st2{fill:#F26424;}
	.st3{fill:#C7E1ED;}
	.st4{fill:#BC3C51;}
	.st5{fill:#FAA624;}
	.st6{fill:#ABAEB0;}
</style>
<g id="main">
	<title>Logo Original Colour</title>
	<path class="st0" d="M121,27v28.8h-6.2v-4.1c-2.2,3.1-5.6,4.9-10.1,4.9c-7.8,0-14.3-6.6-14.3-15.1s6.5-15.2,14.3-15.2
		c4.5,0,7.9,1.8,10.1,4.8V27H121z M114.7,41.4c0-5.4-3.9-9.2-9.1-9.2s-9.1,3.9-9.1,9.2s3.9,9.2,9.1,9.2S114.7,46.8,114.7,41.4z"/>
	<path class="st0" d="M158.8,41.4c0,8.6-6.5,15.1-14.3,15.1c-4.5,0-7.9-1.8-10.1-4.8v15.6h-6.2V27h6.2v4.1c2.2-3.1,5.6-4.9,10.1-4.9
		C152.3,26.3,158.8,32.9,158.8,41.4z M152.6,41.4c0-5.4-3.9-9.2-9.1-9.2s-9.1,3.9-9.1,9.2s3.9,9.2,9.1,9.2S152.6,46.8,152.6,41.4z"
		/>
	<path class="st0" d="M179.6,26.5v6.7c-4.1-0.3-8.9,1.6-8.9,8.1v14.5h-6.2V27h6.2v4.8C172.4,28,175.9,26.5,179.6,26.5z"/>
	<path class="st0" d="M181.3,41.4c0-8.4,6.8-15.2,15.1-15.3c8.4,0,15.2,6.8,15.3,15.1c0,8.4-6.8,15.2-15.1,15.3c0,0,0,0-0.1,0
		c-8.3,0.1-15.1-6.6-15.2-14.9C181.2,41.6,181.2,41.5,181.3,41.4z M205.4,41.4c0.2-5-3.7-9.1-8.7-9.3c-5-0.2-9.1,3.7-9.3,8.7
		c0,0.2,0,0.4,0,0.6c0,5.2,3.9,9.1,9,9.1c4.9,0.1,8.9-3.8,9-8.7C205.4,41.7,205.4,41.6,205.4,41.4z"/>
	<path class="st0" d="M259.6,38v17.9h-6.2V38.4c0-4-2.2-6.3-5.6-6.3c-3.7,0-6.3,2.4-6.3,7.6v16.1h-6.2V38.4c0-4-2-6.3-5.4-6.3
		c-3.5,0-6.4,2.4-6.4,7.6v16.1h-6.2V27h6.2v3.5c1.8-2.8,4.7-4.2,8.2-4.2c3.7,0,6.5,1.7,8.2,4.6c1.9-3,5-4.6,8.8-4.6
		C255.3,26.3,259.6,30.8,259.6,38z"/>
	<path class="st0" d="M264.7,41.4c0-8.4,6.7-15.2,15.1-15.3c8.4,0,15.2,6.7,15.3,15.1s-6.7,15.2-15.1,15.3c0,0,0,0-0.1,0
		c-8.3,0.1-15.1-6.6-15.2-14.9C264.7,41.6,264.7,41.5,264.7,41.4z M288.9,41.4c0.2-5-3.7-9.1-8.7-9.3c-5-0.2-9.1,3.7-9.3,8.7
		c0,0.2,0,0.4,0,0.6c-0.1,4.9,3.7,9,8.6,9.1c0.1,0,0.3,0,0.4,0C285,50.5,288.9,46.7,288.9,41.4z"/>
	<path class="st0" d="M315.8,26.5v6.7c-4.1-0.3-8.9,1.6-8.9,8.1v14.5h-6.2V27h6.2v4.8C308.7,28,312.2,26.5,315.8,26.5z"/>
	<path class="st0" d="M333.2,50.9c3.5,0,6-1.6,7.4-3.6l5.1,3c-2.7,3.9-7,6.3-12.6,6.3c-9.5,0-15.7-6.5-15.7-15.1
		c0-8.5,6.2-15.1,15.2-15.1c8.6,0,14.5,6.9,14.5,15.2c0,0.9-0.1,1.7-0.2,2.6H324C325,48.6,328.6,50.9,333.2,50.9z M340.9,39
		c-0.9-5-4.5-7.1-8.2-7.1c-4.7,0-7.8,2.8-8.7,7.1H340.9z"/>
	<path class="st1" d="M43.6,66.1v-2.1c12.2,0,22.1-9.9,22.1-22.1h2.1C67.8,55.3,57,66.1,43.6,66.1z"/>
	<circle class="st2" cx="43.6" cy="66" r="7.5"/>
	<path class="st3" d="M21.5,41.9h-2.1c0-13.3,10.8-24.2,24.2-24.2v2.1C31.4,19.8,21.5,29.7,21.5,41.9z"/>
	<circle class="st4" cx="43.6" cy="41.9" r="10.9"/>
	<circle class="st5" cx="43.6" cy="17.9" r="7.5"/>
	<circle class="st1" cx="67.6" cy="41.9" r="7.5"/>
	<circle class="st3" cx="19.6" cy="41.9" r="7.5"/>
	<path class="st2" d="M43.6,65.1L43.6,65.1c0-0.5-0.4-1-1-1c-7.6-0.3-14.5-4.6-18.3-11.2c-0.3-0.5-0.9-0.7-1.4-0.4l0,0
		c-0.5,0.3-0.7,0.9-0.4,1.4c0,0,0,0,0,0c4.1,7.2,11.6,11.8,19.9,12.2C43.1,66.1,43.6,65.7,43.6,65.1C43.6,65.1,43.6,65.1,43.6,65.1z
		"/>
	<path class="st5" d="M43.6,18.8L43.6,18.8c0,0.5,0.4,1,1,1c7.4,0.3,14.1,4.3,17.9,10.6c0.3,0.5,0.9,0.6,1.4,0.4l0,0
		c0.5-0.3,0.7-0.9,0.4-1.4c0,0,0,0,0-0.1c-4.2-6.9-11.5-11.2-19.5-11.6C44.1,17.8,43.7,18.2,43.6,18.8
		C43.6,18.8,43.6,18.8,43.6,18.8z"/>
	<g>
		<path class="st6" d="M10.2,104.5v1.2H3.1V93h1.3v11.6H10.2z"/>
		<path class="st6" d="M20.2,101.2c0,0.2,0,0.4,0,0.6h-8c0.3,1.9,1.7,3,3.6,3c1.4,0,2.4-0.7,2.9-1.6l1.1,0.6c-0.8,1.2-2.2,2.1-4,2.1
			c-2.9,0-4.9-2-4.9-4.8c0-2.7,1.9-4.8,4.8-4.8C18.4,96.4,20.2,98.7,20.2,101.2z M12.1,100.6h6.8c-0.3-2-1.7-3-3.3-3
			C13.7,97.6,12.3,98.8,12.1,100.6z"/>
		<path class="st6" d="M31.1,96.6v9.1h-1.2v-1.8c-0.8,1.2-2.1,2-3.7,2c-2.6,0-4.7-2.1-4.7-4.8s2.1-4.8,4.7-4.8c1.6,0,2.9,0.8,3.7,2
			v-1.8H31.1z M29.9,101.2c0-2-1.6-3.6-3.6-3.6c-2,0-3.6,1.6-3.6,3.6s1.6,3.6,3.6,3.6C28.4,104.8,29.9,103.2,29.9,101.2z"/>
		<path class="st6" d="M42.7,93v12.8h-1.2v-1.8c-0.8,1.2-2.1,2-3.7,2c-2.6,0-4.7-2.1-4.7-4.8s2.1-4.8,4.7-4.8c1.6,0,2.9,0.8,3.7,2
			V93H42.7z M41.5,101.2c0-2-1.6-3.6-3.6-3.6c-2,0-3.6,1.6-3.6,3.6s1.6,3.6,3.6,3.6C40,104.8,41.5,103.2,41.5,101.2z"/>
		<path class="st6" d="M45,93.8c0-0.5,0.4-0.9,0.9-0.9c0.5,0,0.9,0.4,0.9,0.9c0,0.5-0.4,0.9-0.9,0.9C45.4,94.7,45,94.3,45,93.8z
			 M45.3,96.6h1.2v9.1h-1.2V96.6z"/>
		<path class="st6" d="M56.9,100.1v5.6h-1.2v-5.6c0-1.6-0.9-2.6-2.5-2.6c-1.6,0-3,0.9-3,3.4v4.8h-1.2v-9.1h1.2V98
			c0.7-1.1,1.8-1.6,3.1-1.6C55.6,96.4,56.9,97.8,56.9,100.1z"/>
		<path class="st6" d="M68.3,96.6v8.8c0,2.8-2.2,4.2-4.6,4.2c-2.1,0-3.6-0.8-4.3-2.2l1.1-0.6c0.5,0.9,1.3,1.7,3.3,1.7
			c2.1,0,3.4-1.2,3.4-3.1v-1.4c-0.8,1.2-2.1,2-3.7,2c-2.6,0-4.7-2.1-4.7-4.8s2.1-4.8,4.7-4.8c1.6,0,2.9,0.8,3.7,2v-1.8H68.3z
			 M67.1,101.2c0-2-1.6-3.6-3.6-3.6c-2,0-3.6,1.6-3.6,3.6s1.6,3.6,3.6,3.6C65.5,104.8,67.1,103.2,67.1,101.2z"/>
		<path class="st6" d="M71,99.5h6.6v1.2H71V99.5z"/>
		<path class="st6" d="M89.1,101.2c0,0.2,0,0.4,0,0.6h-8c0.3,1.9,1.7,3,3.6,3c1.4,0,2.4-0.7,2.9-1.6l1.1,0.6c-0.8,1.2-2.2,2.1-4,2.1
			c-2.9,0-4.9-2-4.9-4.8c0-2.7,1.9-4.8,4.8-4.8C87.3,96.4,89.1,98.7,89.1,101.2z M81,100.6h6.8c-0.3-2-1.7-3-3.3-3
			C82.6,97.6,81.3,98.8,81,100.6z"/>
		<path class="st6" d="M100.1,93v12.8h-1.2v-1.8c-0.8,1.2-2.1,2-3.7,2c-2.6,0-4.7-2.1-4.7-4.8s2.1-4.8,4.7-4.8c1.6,0,2.9,0.8,3.7,2
			V93H100.1z M98.8,101.2c0-2-1.6-3.6-3.6-3.6c-2,0-3.6,1.6-3.6,3.6s1.6,3.6,3.6,3.6C97.3,104.8,98.8,103.2,98.8,101.2z"/>
		<path class="st6" d="M111.7,96.6v8.8c0,2.8-2.2,4.2-4.6,4.2c-2.1,0-3.6-0.8-4.3-2.2l1.1-0.6c0.5,0.9,1.3,1.7,3.3,1.7
			c2.1,0,3.4-1.2,3.4-3.1v-1.4c-0.8,1.2-2.1,2-3.7,2c-2.6,0-4.7-2.1-4.7-4.8s2.1-4.8,4.7-4.8c1.6,0,2.9,0.8,3.7,2v-1.8H111.7z
			 M110.5,101.2c0-2-1.6-3.6-3.6-3.6c-2,0-3.6,1.6-3.6,3.6s1.6,3.6,3.6,3.6C108.9,104.8,110.5,103.2,110.5,101.2z"/>
		<path class="st6" d="M123,101.2c0,0.2,0,0.4,0,0.6h-8c0.3,1.9,1.7,3,3.6,3c1.4,0,2.4-0.7,2.9-1.6l1.1,0.6c-0.8,1.2-2.2,2.1-4,2.1
			c-2.9,0-4.9-2-4.9-4.8c0-2.7,1.9-4.8,4.8-4.8C121.2,96.4,123,98.7,123,101.2z M114.9,100.6h6.8c-0.3-2-1.7-3-3.3-3
			C116.5,97.6,115.2,98.8,114.9,100.6z"/>
		<path class="st6" d="M125.1,108.3H124l0.7-4.1h1.5L125.1,108.3z"/>
		<path class="st6" d="M132.5,101.2c0-2.7,2.1-4.8,4.8-4.8c2.7,0,4.8,2.1,4.8,4.8s-2.1,4.8-4.8,4.8
			C134.7,105.9,132.5,103.9,132.5,101.2z M140.9,101.2c0-2-1.6-3.6-3.6-3.6c-2,0-3.6,1.6-3.6,3.6s1.6,3.6,3.6,3.6
			C139.4,104.8,140.9,103.2,140.9,101.2z"/>
		<path class="st6" d="M153.8,101.2c0,2.7-2.1,4.8-4.7,4.8c-1.6,0-2.9-0.8-3.7-2v5.4h-1.2V96.6h1.2v1.8c0.8-1.2,2.1-2,3.7-2
			C151.6,96.4,153.8,98.5,153.8,101.2z M152.6,101.2c0-2-1.6-3.6-3.6-3.6c-2,0-3.6,1.6-3.6,3.6s1.6,3.6,3.6,3.6
			C151,104.8,152.6,103.2,152.6,101.2z"/>
		<path class="st6" d="M164.5,101.2c0,0.2,0,0.4,0,0.6h-8c0.3,1.9,1.7,3,3.6,3c1.4,0,2.4-0.7,2.9-1.6l1.1,0.6
			c-0.8,1.2-2.2,2.1-4,2.1c-2.9,0-4.9-2-4.9-4.8c0-2.7,1.9-4.8,4.8-4.8C162.8,96.4,164.5,98.7,164.5,101.2z M156.5,100.6h6.8
			c-0.3-2-1.7-3-3.3-3C158.1,97.6,156.7,98.8,156.5,100.6z"/>
		<path class="st6" d="M174.3,100.1v5.6h-1.2v-5.6c0-1.6-0.9-2.6-2.5-2.6c-1.6,0-3,0.9-3,3.4v4.8h-1.2v-9.1h1.2V98
			c0.7-1.1,1.8-1.6,3.1-1.6C172.9,96.4,174.3,97.8,174.3,100.1z"/>
		<path class="st6" d="M176.8,99.5h6.6v1.2h-6.6V99.5z"/>
		<path class="st6" d="M192.4,103.3c0,1.6-1.4,2.6-3.3,2.6c-1.8,0-3.1-0.9-3.5-2.1l1-0.6c0.3,0.9,1.3,1.5,2.5,1.5
			c1.1,0,2.1-0.4,2.1-1.5c0-2.3-5.3-1-5.3-4.3c0-1.5,1.3-2.6,3.1-2.6c1.5,0,2.7,0.7,3.2,1.9l-1,0.6c-0.4-0.9-1.3-1.3-2.2-1.3
			c-0.9,0-1.9,0.5-1.9,1.4C187.1,101.3,192.4,100,192.4,103.3z"/>
		<path class="st6" d="M193.6,101.2c0-2.7,2.1-4.8,4.8-4.8c2.7,0,4.8,2.1,4.8,4.8s-2.1,4.8-4.8,4.8
			C195.7,105.9,193.6,103.9,193.6,101.2z M202,101.2c0-2-1.6-3.6-3.6-3.6c-2,0-3.6,1.6-3.6,3.6s1.6,3.6,3.6,3.6
			C200.4,104.8,202,103.2,202,101.2z"/>
		<path class="st6" d="M212.8,96.6v9.1h-1.2v-1.4c-0.7,1.2-1.8,1.6-3.1,1.6c-2.2,0-3.6-1.5-3.6-3.7v-5.6h1.2v5.6
			c0,1.6,0.9,2.6,2.5,2.6c1.6,0,3-0.9,3-3.4v-4.8H212.8z"/>
		<path class="st6" d="M219.5,96.5v1.2c-1.5,0-2.9,0.8-2.9,3v5.1h-1.2v-9.1h1.2v1.5C217.2,96.8,218.3,96.5,219.5,96.5z"/>
		<path class="st6" d="M220,101.2c0-2.7,2-4.8,4.8-4.8c1.8,0,3.3,0.9,4,2.4l-1,0.6c-0.5-1.1-1.6-1.8-3-1.8c-2,0-3.6,1.6-3.6,3.6
			s1.6,3.6,3.6,3.6c1.4,0,2.5-0.7,3.1-1.8l1,0.6c-0.7,1.4-2.3,2.4-4.1,2.4C222,105.9,220,103.9,220,101.2z"/>
		<path class="st6" d="M239.3,101.2c0,0.2,0,0.4,0,0.6h-8c0.3,1.9,1.7,3,3.6,3c1.4,0,2.4-0.7,2.9-1.6l1.1,0.6
			c-0.8,1.2-2.2,2.1-4,2.1c-2.9,0-4.9-2-4.9-4.8c0-2.7,1.9-4.8,4.8-4.8C237.5,96.4,239.3,98.7,239.3,101.2z M231.2,100.6h6.8
			c-0.3-2-1.7-3-3.3-3C232.8,97.6,231.5,98.8,231.2,100.6z"/>
		<path class="st6" d="M255.4,101.2c0,2.7-2.1,4.8-4.7,4.8c-1.6,0-2.9-0.8-3.7-2v5.4h-1.2V96.6h1.2v1.8c0.8-1.2,2.1-2,3.7-2
			C253.2,96.4,255.4,98.5,255.4,101.2z M254.2,101.2c0-2-1.6-3.6-3.6-3.6c-2,0-3.6,1.6-3.6,3.6s1.6,3.6,3.6,3.6
			C252.6,104.8,254.2,103.2,254.2,101.2z"/>
		<path class="st6" d="M261.5,96.5v1.2c-1.5,0-2.9,0.8-2.9,3v5.1h-1.2v-9.1h1.2v1.5C259.2,96.8,260.3,96.5,261.5,96.5z"/>
		<path class="st6" d="M262,101.2c0-2.7,2.1-4.8,4.8-4.8c2.7,0,4.8,2.1,4.8,4.8s-2.1,4.8-4.8,4.8C264.1,105.9,262,103.9,262,101.2z
			 M270.4,101.2c0-2-1.6-3.6-3.6-3.6c-2,0-3.6,1.6-3.6,3.6s1.6,3.6,3.6,3.6C268.8,104.8,270.4,103.2,270.4,101.2z"/>
		<path class="st6" d="M273.1,101.2c0-2.7,2-4.8,4.8-4.8c1.8,0,3.3,0.9,4,2.4l-1,0.6c-0.5-1.1-1.6-1.8-3-1.8c-2,0-3.6,1.6-3.6,3.6
			s1.6,3.6,3.6,3.6c1.4,0,2.5-0.7,3.1-1.8l1,0.6c-0.7,1.4-2.3,2.4-4.1,2.4C275.1,105.9,273.1,103.9,273.1,101.2z"/>
		<path class="st6" d="M292.3,101.2c0,0.2,0,0.4,0,0.6h-8c0.3,1.9,1.7,3,3.6,3c1.4,0,2.4-0.7,2.9-1.6l1.1,0.6
			c-0.8,1.2-2.2,2.1-4,2.1c-2.9,0-4.9-2-4.9-4.8c0-2.7,1.9-4.8,4.8-4.8C290.6,96.4,292.3,98.7,292.3,101.2z M284.3,100.6h6.8
			c-0.3-2-1.7-3-3.3-3C285.9,97.6,284.5,98.8,284.3,100.6z"/>
		<path class="st6" d="M300.2,103.3c0,1.6-1.4,2.6-3.3,2.6c-1.8,0-3.1-0.9-3.5-2.1l1-0.6c0.3,0.9,1.3,1.5,2.5,1.5
			c1.1,0,2.1-0.4,2.1-1.5c0-2.3-5.3-1-5.3-4.3c0-1.5,1.3-2.6,3.1-2.6c1.5,0,2.7,0.7,3.2,1.9l-1,0.6c-0.4-0.9-1.3-1.3-2.2-1.3
			c-0.9,0-1.9,0.5-1.9,1.4C294.8,101.3,300.2,100,300.2,103.3z"/>
		<path class="st6" d="M307.9,103.3c0,1.6-1.4,2.6-3.3,2.6c-1.8,0-3.1-0.9-3.5-2.1l1-0.6c0.3,0.9,1.3,1.5,2.5,1.5
			c1.1,0,2.1-0.4,2.1-1.5c0-2.3-5.3-1-5.3-4.3c0-1.5,1.3-2.6,3.1-2.6c1.5,0,2.7,0.7,3.2,1.9l-1,0.6c-0.4-0.9-1.3-1.3-2.2-1.3
			c-0.9,0-1.9,0.5-1.9,1.4C302.6,101.3,307.9,100,307.9,103.3z"/>
		<path class="st6" d="M327.6,100v5.7h-1.2V100c0-1.6-0.9-2.5-2.2-2.5c-1.4,0-2.5,0.9-2.5,3.1v5.1h-1.2V100c0-1.6-0.8-2.5-2.1-2.5
			c-1.3,0-2.6,0.9-2.6,3.1v5.1h-1.2v-9.1h1.2v1.3c0.7-1.1,1.7-1.6,2.8-1.6c1.3,0,2.3,0.6,2.8,1.7c0.7-1.1,1.8-1.7,3-1.7
			C326.2,96.4,327.6,97.8,327.6,100z"/>
		<path class="st6" d="M329.7,93.8c0-0.5,0.4-0.9,0.9-0.9c0.5,0,0.9,0.4,0.9,0.9c0,0.5-0.4,0.9-0.9,0.9
			C330.1,94.7,329.7,94.3,329.7,93.8z M330,96.6h1.2v9.1H330V96.6z"/>
		<path class="st6" d="M341.6,100.1v5.6h-1.2v-5.6c0-1.6-0.9-2.6-2.5-2.6c-1.6,0-3,0.9-3,3.4v4.8h-1.2v-9.1h1.2V98
			c0.7-1.1,1.8-1.6,3.1-1.6C340.2,96.4,341.6,97.8,341.6,100.1z"/>
		<path class="st6" d="M343.6,93.8c0-0.5,0.4-0.9,0.9-0.9c0.5,0,0.9,0.4,0.9,0.9c0,0.5-0.4,0.9-0.9,0.9
			C344,94.7,343.6,94.3,343.6,93.8z M343.9,96.6h1.2v9.1h-1.2V96.6z"/>
		<path class="st6" d="M355.5,100.1v5.6h-1.2v-5.6c0-1.6-0.9-2.6-2.5-2.6c-1.6,0-3,0.9-3,3.4v4.8h-1.2v-9.1h1.2V98
			c0.7-1.1,1.8-1.6,3.1-1.6C354.2,96.4,355.5,97.8,355.5,100.1z"/>
		<path class="st6" d="M366.9,96.6v8.8c0,2.8-2.2,4.2-4.6,4.2c-2.1,0-3.6-0.8-4.3-2.2l1.1-0.6c0.5,0.9,1.3,1.7,3.3,1.7
			c2.1,0,3.4-1.2,3.4-3.1v-1.4c-0.8,1.2-2.1,2-3.7,2c-2.6,0-4.7-2.1-4.7-4.8s2.1-4.8,4.7-4.8c1.6,0,2.9,0.8,3.7,2v-1.8H366.9z
			 M365.7,101.2c0-2-1.6-3.6-3.6-3.6c-2,0-3.6,1.6-3.6,3.6s1.6,3.6,3.6,3.6C364.1,104.8,365.7,103.2,365.7,101.2z"/>
	</g>
</g>
<g id="Layer_2">
</g>
</svg>
