<svg xmlns="http://www.w3.org/2000/svg" viewBox="0 0 116.07 116.07"><defs><style>.cls-1{fill:#fff;}</style></defs><title>Asset 1</title><g id="Layer_2" data-name="Layer 2"><g id="main"><path class="cls-1" d="M58.1,102.43V98.65A40.69,40.69,0,0,0,98.75,58h3.77A44.47,44.47,0,0,1,58.1,102.43Z"/><circle class="cls-1" cx="58.04" cy="102.2" r="13.87"/><path class="cls-1" d="M17.45,58H13.68A44.47,44.47,0,0,1,58.1,13.59v3.77A40.7,40.7,0,0,0,17.45,58Z"/><circle class="cls-1" cx="57.97" cy="58.01" r="20.04"/><circle class="cls-1" cx="58.04" cy="13.87" r="13.87"/><circle class="cls-1" cx="102.2" cy="58.01" r="13.87"/><circle class="cls-1" cx="13.87" cy="58.01" r="13.87"/><path class="cls-1" d="M58.08,100.5h0a1.88,1.88,0,0,0-1.8-1.87A40.67,40.67,0,0,1,22.74,78.06a1.87,1.87,0,0,0-2.51-.72h0a1.89,1.89,0,0,0-.78,2.56l0,0A44.5,44.5,0,0,0,56.1,102.39a1.91,1.91,0,0,0,2-1.84Z"/><path class="cls-1" d="M58.1,15.52h0a1.89,1.89,0,0,0,1.79,1.88A40.66,40.66,0,0,1,92.78,36.85a1.89,1.89,0,0,0,2.49.67h0A1.9,1.9,0,0,0,96.05,35l-.06-.1A44.46,44.46,0,0,0,60.08,13.63a1.9,1.9,0,0,0-2,1.8Z"/></g></g></svg>