<?xml version="1.0" encoding="utf-8"?>
<svg version="1.1"
     id="main"
     xmlns="http://www.w3.org/2000/svg"
     viewBox="0 0 126.7 126.7">
  <style type="text/css">
    .dark-grey{fill:#4D4D4D;}
    .oceanic{fill:#84C7E3;}
    .sunset{fill:#F96100;}
    .soft-blue{fill:#C7E1EE;}
    .maroon{fill:#BB3A50;}
    .orange{fill:#FBA525;}
  </style>
  <title>apromore</title>
  <circle class="maroon"
          cx="64.3"
          cy="63.8"
          r="20">
    <animate attributeType="CSS" attributeName="opacity"
             values="0; 1; 0" dur="2s" begin="0s" repeatCount="indefinite" />
  </circle>
  <circle class="oceanic"
          cx="108.6"
          cy="63.8"
          r="13.9">
    <animate attributeName="cx" values="63.35;108.6;108.6" dur="2s"
             repeatCount="indefinite" />
    <animate attributeType="CSS" attributeName="opacity"
             values="0; 1; 1; 0" dur="2s" begin="0s" repeatCount="indefinite" />
    <animateTransform attributeType="xml" attributeName="transform" type="rotate" values="90 63.35 63.35; 0  63.35 63.35; -90 63.35 63.35;" dur="2s" begin="0s" additive="sum" repeatCount="indefinite" />
  </circle>
  <path class="oceanic"
        d="M64.5,108.2v-3.8c22.4,0,40.6-18.2,40.7-40.6h3.8C108.9,88.3,89,108.2,64.5,108.2z">
    <animateTransform attributeType="xml" attributeName="transform" type="rotate" values="90 63.35 63.35; 0  63.35 63.35; -90 63.35 63.35;" dur="2s" begin="0s" additive="sum" repeatCount="indefinite" />
    <animate attributeType="CSS" attributeName="opacity"
             values="0; 1; 0" dur="2s" begin="0s" repeatCount="indefinite" />
  </path>
  <circle class="sunset"
          cx="64.4"
          cy="108"
          r="13.9">
    <animate attributeName="cy" values="63.35;108;108" dur="2s"
             repeatCount="indefinite" />
    <animate attributeType="CSS" attributeName="opacity"
             values="0; 1; 1; 0" dur="2s" begin="0s" repeatCount="indefinite" />
    <animateTransform attributeType="xml" attributeName="transform" type="rotate" values="90 63.35 63.35; 0  63.35 63.35; -90 63.35 63.35;" dur="2s" begin="0s" additive="sum" repeatCount="indefinite" />
  </circle>
  <path class="sunset"
        d="M64.5,106.3L64.5,106.3c0-1-0.8-1.8-1.8-1.9c-14-0.6-26.6-8.4-33.5-20.6c-0.5-0.9-1.6-1.2-2.5-0.7l0,0
	c-0.9,0.5-1.3,1.6-0.8,2.6c0,0,0,0,0,0c7.5,13.3,21.4,21.7,36.6,22.5C63.5,108.2,64.4,107.4,64.5,106.3
           C64.5,106.3,64.5,106.3,64.5,106.3z">
    <animateTransform attributeType="xml" attributeName="transform" type="rotate" values="90 63.35 63.35; 0  63.35 63.35; -90 63.35 63.35;" dur="2s" begin="0s" additive="sum" repeatCount="indefinite" />
    <animate attributeType="CSS" attributeName="opacity"
             values="0; 1; 0" dur="2s" begin="0s" repeatCount="indefinite" />
  </path>
  <path class="soft-blue"
        d="M23.8,63.8h-3.8c0-24.5,19.9-44.4,44.4-44.4v3.8C42,23.2,23.9,41.4,23.8,63.8z">
    <animate attributeType="CSS" attributeName="opacity"
             values="0; 1; 0" dur="2s" begin="0s" repeatCount="indefinite" />
    <animateTransform attributeType="xml" attributeName="transform" type="rotate" values="90 63.35 63.35; 0  63.35 63.35; -90 63.35 63.35;" dur="2s" begin="0s" additive="sum" repeatCount="indefinite" />
  </path>
  <circle class="soft-blue"
          cx="20.2"
          cy="63.8"
          r="13.9">
    <animate attributeName="cx" values="63.35;20.2;20.2" dur="2s"
             repeatCount="indefinite" />
    <animate attributeType="CSS" attributeName="opacity"
             values="0; 1; 0" dur="2s" begin="0s" repeatCount="indefinite" />
    <animateTransform attributeType="xml" attributeName="transform" type="rotate" values="90 63.35 63.35; 0 63.35 63.35; -90 63.35 63.35;" dur="2s" begin="0s" additive="sum" repeatCount="indefinite" /></circle>
  <circle class="orange"
          cx="64.4"
          cy="19.6"
          r="13.9">
    <animate attributeName="cy" values="63.35;19.6;19.6" dur="2s"
             repeatCount="indefinite" />
    <animate attributeType="CSS" attributeName="opacity"
             values="0; 1; 1; 0" dur="2s" begin="0s" repeatCount="indefinite" />
    <animateTransform attributeType="xml" attributeName="transform" type="rotate" values="90 63.35 63.35; 0  63.35 63.35; -90 63.35 63.35;" dur="2s" begin="0s" additive="sum" repeatCount="indefinite" /></circle>
  <path class="orange"
        d="M64.5,21.3L64.5,21.3c0,1,0.8,1.8,1.8,1.9c13.5,0.6,25.8,7.9,32.9,19.5c0.5,0.8,1.6,1.1,2.5,0.7l0,0
	c0.9-0.5,1.3-1.6,0.8-2.6c0,0,0-0.1-0.1-0.1C94.7,28,81.2,20.1,66.5,19.4C65.4,19.4,64.5,20.2,64.5,21.3
           C64.5,21.2,64.5,21.3,64.5,21.3z"><animateTransform attributeType="xml" attributeName="transform" type="rotate" values="90 63.35 63.35; 0  63.35 63.35; -90 63.35 63.35;" dur="2s" begin="0s" additive="sum" repeatCount="indefinite" />
    <animate attributeType="CSS" attributeName="opacity"
             values="0; 1; 0" dur="2s" begin="0s" repeatCount="indefinite" /> </path>
</svg>
