<svg xmlns="http://www.w3.org/2000/svg" viewBox="0 0 370.19 126.72"><defs><style>.cls-1{fill:#4e4e4f;}.cls-2{fill:#85c7e2;}.cls-3{fill:#f26424;}.cls-4{fill:#c7e1ed;}.cls-5{fill:#bc3c51;}.cls-6{fill:#faa624;}.cls-7{fill:#abaeb0;}.cls-8{fill:#3ac16d;}</style></defs><title>Artboard 1</title><g id="main"><path class="cls-1" d="M121,27v28.8h-6.22V51.68a11.81,11.81,0,0,1-10.08,4.9c-7.83,0-14.33-6.63-14.33-15.15s6.5-15.15,14.33-15.15a11.92,11.92,0,0,1,10.08,4.84V27Zm-6.22,14.39a9.1,9.1,0,1,0-18.2,0,9.1,9.1,0,1,0,18.2,0Z"/><path class="cls-1" d="M158.85,41.42c0,8.59-6.53,15.15-14.34,15.15a11.92,11.92,0,0,1-10.08-4.84V67.34h-6.22V27h6.22v4.15a11.8,11.8,0,0,1,10.08-4.9C152.34,26.28,158.85,32.91,158.85,41.42Zm-6.22,0a9.1,9.1,0,1,0-18.2,0,9.1,9.1,0,1,0,18.2,0Z"/><path class="cls-1" d="M179.58,26.51v6.74c-4.09-.29-8.87,1.63-8.87,8.06V55.83h-6.22V27h6.25v4.84C172.44,28,176,26.51,179.58,26.51Z"/><path class="cls-1" d="M181.25,41.42a15.2,15.2,0,1,1,15.26,15.15h-.06a15,15,0,0,1-15.2-14.85Zm24.19,0a9,9,0,0,0-18-.62c0,.21,0,.42,0,.62a9,9,0,0,0,18,.4Z"/><path class="cls-1" d="M259.63,38V55.83h-6.22V38.38c0-4-2.18-6.28-5.59-6.28-3.68,0-6.27,2.36-6.27,7.62V55.83h-6.23V38.38c0-4-2-6.28-5.44-6.28s-6.39,2.36-6.39,7.62V55.83H217.3V27h6.24v3.45a9.26,9.26,0,0,1,8.23-4.2,8.86,8.86,0,0,1,8.16,4.55,9.9,9.9,0,0,1,8.82-4.55C255.25,26.28,259.63,30.77,259.63,38Z"/><path class="cls-1" d="M264.69,41.42A15.21,15.21,0,1,1,280,56.57h-.06a15,15,0,0,1-15.2-14.86A2.71,2.71,0,0,1,264.69,41.42Zm24.19,0a9,9,0,1,0-18-.62c0,.21,0,.42,0,.62a8.84,8.84,0,0,0,8.59,9.1h.4A8.84,8.84,0,0,0,288.88,41.42Z"/><path class="cls-1" d="M315.84,26.51v6.74C311.75,33,307,34.88,307,41.31V55.83h-6.22V27H307v4.84C308.69,28,312.21,26.51,315.84,26.51Z"/><path class="cls-1" d="M333.23,50.87a8.8,8.8,0,0,0,7.43-3.57l5.12,3c-2.65,3.91-7,6.27-12.61,6.27-9.5,0-15.66-6.53-15.66-15.15s6.17-15.14,15.2-15.14c8.58,0,14.45,6.91,14.45,15.2a18.73,18.73,0,0,1-.22,2.59H324C325,48.59,328.62,50.87,333.23,50.87ZM340.89,39a8,8,0,0,0-8.24-7.08A8.39,8.39,0,0,0,324,39Z"/><path class="cls-2" d="M43.64,66.12V64.07A22.14,22.14,0,0,0,65.76,42h2.06A24.21,24.21,0,0,1,43.64,66.12Z"/><circle class="cls-3" cx="43.61" cy="66" r="7.55"/><path class="cls-4" d="M21.51,42H19.46A24.21,24.21,0,0,1,43.64,17.77v2.05A22.16,22.16,0,0,0,21.51,42Z"/><circle class="cls-5" cx="43.57" cy="41.95" r="10.91"/><circle class="cls-6" cx="43.61" cy="17.92" r="7.55"/><circle class="cls-2" cx="67.64" cy="41.95" r="7.55"/><circle class="cls-4" cx="19.56" cy="41.95" r="7.55"/><path class="cls-3" d="M43.63,65.07h0a1,1,0,0,0-1-1,22.17,22.17,0,0,1-18.26-11.2A1,1,0,0,0,23,52.47h0a1,1,0,0,0-.43,1.39v0A24.21,24.21,0,0,0,42.55,66.1a1,1,0,0,0,1.08-1Z"/><path class="cls-6" d="M43.64,18.82h0a1,1,0,0,0,1,1,22.11,22.11,0,0,1,17.9,10.59,1,1,0,0,0,1.36.36h0a1,1,0,0,0,.42-1.39l0,0A24.2,24.2,0,0,0,44.72,17.79a1,1,0,0,0-1.08,1Z"/><path class="cls-7" d="M10.23,104.53v1.2H3.11V93H4.39v11.57Z"/><path class="cls-7" d="M20.16,101.2a5.27,5.27,0,0,1,0,.57h-8a3.43,3.43,0,0,0,3.63,3,3.22,3.22,0,0,0,2.94-1.55l1.06.62a4.57,4.57,0,0,1-4,2.1,4.79,4.79,0,1,1,4.44-4.75Zm-8-.6h6.81a3.27,3.27,0,0,0-3.29-3A3.41,3.41,0,0,0,12.11,100.6Z"/><path class="cls-7" d="M31.13,96.61v9.12H29.92v-1.79a4.21,4.21,0,0,1-3.68,2,4.78,4.78,0,0,1,0-9.56,4.22,4.22,0,0,1,3.68,2V96.61Zm-1.21,4.56a3.6,3.6,0,1,0-3.59,3.61A3.56,3.56,0,0,0,29.92,101.17Z"/><path class="cls-7" d="M42.74,93v12.77H41.53v-1.79a4.21,4.21,0,0,1-3.68,2,4.78,4.78,0,0,1,0-9.56,4.22,4.22,0,0,1,3.68,2V93Zm-1.21,8.21a3.6,3.6,0,1,0-3.59,3.61A3.56,3.56,0,0,0,41.53,101.17Z"/><path class="cls-7" d="M45,93.8a.88.88,0,1,1,.88.87A.87.87,0,0,1,45,93.8Zm.27,2.81H46.5v9.12H45.29Z"/><path class="cls-7" d="M56.9,100.13v5.6H55.7v-5.6a2.31,2.31,0,0,0-2.48-2.58c-1.61,0-3,1-3,3.4v4.78H49.05V96.61h1.21V98a3.36,3.36,0,0,1,3.06-1.64A3.4,3.4,0,0,1,56.9,100.13Z"/><path class="cls-7" d="M68.29,96.61v8.76c0,2.77-2.22,4.23-4.58,4.23-2.1,0-3.61-.8-4.32-2.23l1-.6c.46.93,1.3,1.66,3.27,1.66s3.38-1.2,3.38-3.06v-1.43a4.23,4.23,0,0,1-3.69,2,4.78,4.78,0,0,1,0-9.56,4.25,4.25,0,0,1,3.69,2V96.61Zm-1.2,4.56a3.6,3.6,0,1,0-3.6,3.61A3.56,3.56,0,0,0,67.09,101.17Z"/><path class="cls-7" d="M71,99.51H77.6v1.17H71Z"/><path class="cls-7" d="M89.08,101.2c0,.19,0,.39,0,.57H81a3.44,3.44,0,0,0,3.64,3,3.2,3.2,0,0,0,2.93-1.55l1.06.62a4.56,4.56,0,0,1-4,2.1,4.78,4.78,0,1,1-.09-9.56A4.58,4.58,0,0,1,89.08,101.2Zm-8-.6h6.81a3.26,3.26,0,0,0-3.28-3A3.42,3.42,0,0,0,81,100.6Z"/><path class="cls-7" d="M100.05,93v12.77h-1.2v-1.79a4.22,4.22,0,0,1-3.69,2,4.78,4.78,0,0,1,0-9.56,4.24,4.24,0,0,1,3.69,2V93Zm-1.2,8.21a3.6,3.6,0,1,0-3.6,3.61A3.56,3.56,0,0,0,98.85,101.17Z"/><path class="cls-7" d="M111.66,96.61v8.76c0,2.77-2.22,4.23-4.58,4.23-2.1,0-3.61-.8-4.32-2.23l1-.6c.46.93,1.3,1.66,3.27,1.66,2.12,0,3.38-1.2,3.38-3.06v-1.43a4.22,4.22,0,0,1-3.69,2,4.78,4.78,0,0,1,0-9.56,4.24,4.24,0,0,1,3.69,2V96.61Zm-1.2,4.56a3.6,3.6,0,1,0-3.6,3.61A3.56,3.56,0,0,0,110.46,101.17Z"/><path class="cls-7" d="M123,101.2a5.27,5.27,0,0,1,0,.57h-8a3.44,3.44,0,0,0,3.63,3,3.21,3.21,0,0,0,2.94-1.55l1.06.62a4.56,4.56,0,0,1-4,2.1,4.78,4.78,0,1,1-.09-9.56A4.58,4.58,0,0,1,123,101.2Zm-8-.6h6.81a3.27,3.27,0,0,0-3.28-3A3.42,3.42,0,0,0,114.91,100.6Z"/><path class="cls-7" d="M125.06,108.29H124l.73-4.11h1.46Z"/><path class="cls-7" d="M132.55,101.17a4.8,4.8,0,1,1,4.8,4.78A4.74,4.74,0,0,1,132.55,101.17Zm8.39,0a3.6,3.6,0,1,0-3.59,3.61A3.56,3.56,0,0,0,140.94,101.17Z"/><path class="cls-7" d="M153.75,101.17a4.72,4.72,0,0,1-4.7,4.78,4.22,4.22,0,0,1-3.69-2v5.44h-1.2V96.61h1.2v1.78a4.24,4.24,0,0,1,3.69-2A4.72,4.72,0,0,1,153.75,101.17Zm-1.2,0a3.6,3.6,0,1,0-3.59,3.61A3.56,3.56,0,0,0,152.55,101.17Z"/><path class="cls-7" d="M164.51,101.2a5.27,5.27,0,0,1,0,.57h-8a3.43,3.43,0,0,0,3.63,3,3.22,3.22,0,0,0,2.94-1.55l1.06.62a4.57,4.57,0,0,1-4,2.1,4.79,4.79,0,1,1,4.44-4.75Zm-8-.6h6.81a3.27,3.27,0,0,0-3.29-3A3.41,3.41,0,0,0,156.46,100.6Z"/><path class="cls-7" d="M174.27,100.13v5.6h-1.2v-5.6a2.31,2.31,0,0,0-2.48-2.58c-1.61,0-3,1-3,3.4v4.78h-1.2V96.61h1.2V98a3.61,3.61,0,0,1,6.64,2.1Z"/><path class="cls-7" d="M176.79,99.51h6.57v1.17h-6.57Z"/><path class="cls-7" d="M192.38,103.32c0,1.55-1.35,2.63-3.3,2.63a3.56,3.56,0,0,1-3.52-2.1l1-.6a2.49,2.49,0,0,0,2.5,1.53c1.07,0,2.1-.38,2.1-1.46,0-2.26-5.33-1-5.33-4.32,0-1.46,1.29-2.61,3.12-2.61a3.38,3.38,0,0,1,3.19,1.86l-1,.58A2.25,2.25,0,0,0,189,97.55c-.95,0-1.92.46-1.92,1.45C187.05,101.26,192.38,100,192.38,103.32Z"/><path class="cls-7" d="M193.57,101.17a4.8,4.8,0,1,1,4.8,4.78A4.74,4.74,0,0,1,193.57,101.17Zm8.39,0a3.6,3.6,0,1,0-3.59,3.61A3.56,3.56,0,0,0,202,101.17Z"/><path class="cls-7" d="M212.81,96.61v9.12H211.6v-1.42a3.36,3.36,0,0,1-3.06,1.64,3.4,3.4,0,0,1-3.58-3.74v-5.6h1.2v5.6a2.3,2.3,0,0,0,2.48,2.57c1.61,0,3-1,3-3.39V96.61Z"/><path class="cls-7" d="M219.45,96.46v1.17a2.69,2.69,0,0,0-2.88,3v5.07h-1.21V96.61h1.21v1.51A2.94,2.94,0,0,1,219.45,96.46Z"/><path class="cls-7" d="M220,101.17a4.69,4.69,0,0,1,4.8-4.78,4.3,4.3,0,0,1,4,2.39l-1,.56a3.24,3.24,0,0,0-3-1.79,3.62,3.62,0,0,0,0,7.23,3.44,3.44,0,0,0,3.08-1.79l1,.59A4.54,4.54,0,0,1,224.8,106,4.69,4.69,0,0,1,220,101.17Z"/><path class="cls-7" d="M239.27,101.2a5.3,5.3,0,0,1,0,.57h-8a3.42,3.42,0,0,0,3.63,3,3.23,3.23,0,0,0,2.94-1.55l1,.62a4.56,4.56,0,0,1-4,2.1,4.78,4.78,0,1,1-.09-9.56A4.58,4.58,0,0,1,239.27,101.2Zm-8-.6H238a3.26,3.26,0,0,0-3.28-3A3.4,3.4,0,0,0,231.23,100.6Z"/><path class="cls-7" d="M255.36,101.17a4.73,4.73,0,0,1-4.71,4.78,4.22,4.22,0,0,1-3.69-2v5.44h-1.2V96.61H247v1.78a4.24,4.24,0,0,1,3.69-2A4.73,4.73,0,0,1,255.36,101.17Zm-1.21,0a3.6,3.6,0,1,0-3.59,3.61A3.56,3.56,0,0,0,254.15,101.17Z"/><path class="cls-7" d="M261.45,96.46v1.17a2.69,2.69,0,0,0-2.88,3v5.07h-1.2V96.61h1.2v1.51A2.94,2.94,0,0,1,261.45,96.46Z"/><path class="cls-7" d="M262,101.17a4.8,4.8,0,1,1,4.8,4.78A4.75,4.75,0,0,1,262,101.17Zm8.4,0a3.6,3.6,0,1,0-3.6,3.61A3.56,3.56,0,0,0,270.4,101.17Z"/><path class="cls-7" d="M273.06,101.17a4.69,4.69,0,0,1,4.8-4.78,4.3,4.3,0,0,1,4,2.39l-1,.56a3.24,3.24,0,0,0-3-1.79,3.62,3.62,0,0,0,0,7.23A3.47,3.47,0,0,0,281,103l1,.59a4.54,4.54,0,0,1-4.09,2.37A4.69,4.69,0,0,1,273.06,101.17Z"/><path class="cls-7" d="M292.34,101.2a5.27,5.27,0,0,1,0,.57h-8a3.43,3.43,0,0,0,3.63,3,3.22,3.22,0,0,0,2.94-1.55l1.06.62a4.57,4.57,0,0,1-4,2.1,4.79,4.79,0,1,1,4.44-4.75Zm-8-.6h6.81a3.27,3.27,0,0,0-3.29-3A3.41,3.41,0,0,0,284.29,100.6Z"/><path class="cls-7" d="M300.17,103.32c0,1.55-1.35,2.63-3.3,2.63a3.59,3.59,0,0,1-3.53-2.1l1-.6a2.49,2.49,0,0,0,2.5,1.53c1.07,0,2.09-.38,2.09-1.46,0-2.26-5.32-1-5.32-4.32,0-1.46,1.29-2.61,3.12-2.61A3.38,3.38,0,0,1,300,98.25l-1,.58a2.25,2.25,0,0,0-2.19-1.28c-.95,0-1.92.46-1.92,1.45C294.84,101.26,300.17,100,300.17,103.32Z"/><path class="cls-7" d="M307.91,103.32c0,1.55-1.35,2.63-3.31,2.63a3.58,3.58,0,0,1-3.52-2.1l1-.6a2.5,2.5,0,0,0,2.5,1.53c1.08,0,2.1-.38,2.1-1.46,0-2.26-5.32-1-5.32-4.32,0-1.46,1.29-2.61,3.12-2.61a3.38,3.38,0,0,1,3.19,1.86l-1,.58a2.25,2.25,0,0,0-2.19-1.28c-.95,0-1.92.46-1.92,1.45C302.58,101.26,307.91,100,307.91,103.32Z"/><path class="cls-7" d="M327.62,100v5.69h-1.2V100a2.19,2.19,0,0,0-2.23-2.49c-1.4,0-2.54.86-2.54,3.13v5h-1.2V100c0-1.63-.84-2.49-2.14-2.49s-2.62.86-2.62,3.13v5h-1.21V96.61h1.21v1.33a3.14,3.14,0,0,1,2.79-1.55,2.91,2.91,0,0,1,2.77,1.66,3.36,3.36,0,0,1,3-1.66A3.31,3.31,0,0,1,327.62,100Z"/><path class="cls-7" d="M329.69,93.8a.88.88,0,1,1,.87.87A.87.87,0,0,1,329.69,93.8Zm.27,2.81h1.21v9.12H330Z"/><path class="cls-7" d="M341.57,100.13v5.6h-1.21v-5.6a2.3,2.3,0,0,0-2.48-2.58c-1.6,0-2.95,1-2.95,3.4v4.78h-1.21V96.61h1.21V98A3.36,3.36,0,0,1,338,96.39,3.4,3.4,0,0,1,341.57,100.13Z"/><path class="cls-7" d="M343.63,93.8a.88.88,0,1,1,1.75,0,.88.88,0,0,1-1.75,0Zm.28,2.81h1.2v9.12h-1.2Z"/><path class="cls-7" d="M355.51,100.13v5.6h-1.2v-5.6a2.3,2.3,0,0,0-2.48-2.58c-1.61,0-3,1-3,3.4v4.78h-1.2V96.61h1.2V98a3.61,3.61,0,0,1,6.64,2.1Z"/><path class="cls-7" d="M366.9,96.61v8.76c0,2.77-2.22,4.23-4.58,4.23-2.1,0-3.61-.8-4.32-2.23l1.06-.6c.45.93,1.29,1.66,3.26,1.66,2.12,0,3.38-1.2,3.38-3.06v-1.43a4.22,4.22,0,0,1-3.69,2,4.78,4.78,0,0,1,0-9.56,4.24,4.24,0,0,1,3.69,2V96.61Zm-1.2,4.56a3.6,3.6,0,1,0-3.6,3.61A3.56,3.56,0,0,0,365.7,101.17Z"/></g><g id="Layer_3" data-name="Layer 3"><path class="cls-8" d="M242.4,66.35A4.25,4.25,0,0,1,246.76,62a4.19,4.19,0,0,1,3.61,2l-1.43.83a2.42,2.42,0,0,0-2.18-1.2,2.76,2.76,0,0,0,0,5.51,2.42,2.42,0,0,0,2.18-1.19l1.43.83a4.15,4.15,0,0,1-3.61,2A4.26,4.26,0,0,1,242.4,66.35Z"/><path class="cls-8" d="M251.05,67.55a3.17,3.17,0,1,1,3.16,3.17A3.13,3.13,0,0,1,251.05,67.55Zm4.79,0a1.63,1.63,0,1,0-1.63,1.66A1.59,1.59,0,0,0,255.84,67.55Z"/><path class="cls-8" d="M267.39,66.85v3.7h-1.55V67c0-.71-.36-1.14-1-1.14s-1.11.46-1.11,1.36v3.37h-1.55V67c0-.71-.36-1.14-1-1.14s-1.13.46-1.13,1.36v3.37h-1.54v-6H260v.64a1.89,1.89,0,0,1,1.67-.81,1.8,1.8,0,0,1,1.63.87,2.06,2.06,0,0,1,1.79-.87A2.24,2.24,0,0,1,267.39,66.85Z"/><path class="cls-8" d="M277.61,66.85v3.7h-1.55V67c0-.71-.36-1.14-1-1.14s-1.12.46-1.12,1.36v3.37h-1.55V67c0-.71-.36-1.14-1-1.14s-1.13.46-1.13,1.36v3.37h-1.55v-6h1.55v.64a1.87,1.87,0,0,1,1.66-.81,1.82,1.82,0,0,1,1.64.87,2,2,0,0,1,1.78-.87A2.24,2.24,0,0,1,277.61,66.85Z"/><path class="cls-8" d="M284.44,64.55v6h-1.55v-.67a2,2,0,0,1-1.78.84,2.24,2.24,0,0,1-2.27-2.49V64.55h1.55V68a1.12,1.12,0,0,0,1.18,1.24c.76,0,1.32-.45,1.32-1.49V64.55Z"/><path class="cls-8" d="M291.46,66.87v3.68h-1.55V67.06a1.12,1.12,0,0,0-1.18-1.24c-.76,0-1.32.45-1.32,1.49v3.24h-1.55v-6h1.55v.67a2,2,0,0,1,1.78-.84A2.25,2.25,0,0,1,291.46,66.87Z"/><path class="cls-8" d="M292.6,62.89a1,1,0,1,1,.95.94A1,1,0,0,1,292.6,62.89Zm.18,1.66h1.55v6h-1.55Z"/><path class="cls-8" d="M297.82,66v2.49c0,.65.47.66,1.36.62v1.4c-2.17.24-2.91-.4-2.91-2V66h-1V64.55h1V63.34l1.55-.47v1.68h1.36V66Z"/><path class="cls-8" d="M306,64.55l-2.19,6c-.62,1.73-1.64,2.48-3.16,2.4V71.51a1.47,1.47,0,0,0,1.57-1.15l-2.46-5.81h1.69l1.56,4,1.33-4Z"/><path class="cls-8" d="M315,69v1.58h-5.2v-8.4h5.14v1.59h-3.48v1.78h3.18v1.56h-3.18V69Z"/><path class="cls-8" d="M322,62.15v8.4h-1.54v-.71a2.36,2.36,0,0,1-2,.88,3.18,3.18,0,0,1,0-6.34,2.36,2.36,0,0,1,2,.88V62.15Zm-1.54,5.4a1.67,1.67,0,1,0-1.66,1.69A1.61,1.61,0,0,0,320.48,67.55Z"/><path class="cls-8" d="M323.26,62.89a1,1,0,1,1,.95.94A1,1,0,0,1,323.26,62.89Zm.18,1.66H325v6h-1.55Z"/><path class="cls-8" d="M328.48,66v2.49c0,.65.47.66,1.36.62v1.4c-2.17.24-2.91-.4-2.91-2V66h-1V64.55h1V63.34l1.55-.47v1.68h1.36V66Z"/><path class="cls-8" d="M330.75,62.89a1,1,0,1,1,.95.94A1,1,0,0,1,330.75,62.89Zm.18,1.66h1.55v6h-1.55Z"/><path class="cls-8" d="M333.58,67.55a3.18,3.18,0,1,1,3.17,3.17A3.13,3.13,0,0,1,333.58,67.55Zm4.8,0a1.63,1.63,0,1,0-1.63,1.66A1.59,1.59,0,0,0,338.38,67.55Z"/><path class="cls-8" d="M346.62,66.87v3.68h-1.54V67.06a1.12,1.12,0,0,0-1.19-1.24c-.76,0-1.32.45-1.32,1.49v3.24H341v-6h1.55v.67a2,2,0,0,1,1.79-.84A2.24,2.24,0,0,1,346.62,66.87Z"/></g></svg>