<?xml version="1.0" encoding="utf-8"?>
<!-- Generator: Adobe Illustrator 23.0.6, SVG Export Plug-In . SVG Version: 6.00 Build 0)  -->
<svg version="1.1" id="Layer_1" xmlns="http://www.w3.org/2000/svg" xmlns:xlink="http://www.w3.org/1999/xlink" x="0px" y="0px"
	 viewBox="0 0 629.8 126.7" style="enable-background:new 0 0 629.8 126.7;" xml:space="preserve">
<style type="text/css">
	.st0{fill:#FFFFFF;}
</style>
<title>Logo Original Colour White</title>
<path class="st0" d="M206.5,36.4v52.9h-11.4v-7.6c-4,5.6-10.3,9-18.5,9c-14.4,0-26.3-12.2-26.3-27.8S162.2,35,176.6,35
	c8.3,0,14.5,3.4,18.5,8.9v-7.5H206.5z M195.1,62.8c0-9.8-7.2-16.9-16.7-16.9s-16.7,7.1-16.7,16.9s7.2,16.9,16.7,16.9
	S195.1,72.7,195.1,62.8z"/>
<path class="st0" d="M276.1,62.8c0,15.8-12,27.8-26.4,27.8c-8.2,0-14.5-3.4-18.5-8.9v28.7h-11.4v-74h11.4V44c4-5.6,10.3-9,18.5-9
	C264.2,35,276.1,47.2,276.1,62.8z M264.7,62.8c0-9.8-7.2-16.9-16.7-16.9s-16.7,7.1-16.7,16.9s7.2,16.9,16.7,16.9
	C257.5,79.8,264.7,72.7,264.7,62.8z"/>
<path class="st0" d="M314.2,35.4v12.4c-7.5-0.5-16.3,3-16.3,14.8v26.7h-11.4V36.4H298v8.9C301.1,38.1,307.6,35.4,314.2,35.4z"/>
<path class="st0" d="M317.3,62.8c-0.1-15.4,12.4-28,27.8-28c15.4-0.1,28,12.4,28,27.8c0.1,15.4-12.4,28-27.8,28h-0.1
	c-15.2,0.2-27.8-12-27.9-27.3C317.3,63.2,317.3,63,317.3,62.8z M361.8,62.8c0.3-9.1-6.8-16.8-15.9-17.1s-16.8,6.8-17.1,15.9
	c0,0.4,0,0.8,0,1.1c0,9.6,7.2,16.7,16.5,16.7c9,0.1,16.4-7,16.5-16C361.8,63.3,361.8,63.1,361.8,62.8z"/>
<path class="st0" d="M461.3,56.5v32.8h-11.4V57.2c0-7.4-4-11.5-10.3-11.5c-6.8,0-11.5,4.3-11.5,14v29.6h-11.4V57.2
	c0-7.4-3.7-11.5-10-11.5c-6.5,0-11.7,4.3-11.7,14v29.6h-11.4V36.4H395v6.3c3.4-5.2,8.6-7.7,15.1-7.7c6.9,0,12,3.1,15,8.4
	c3.5-5.5,9.1-8.4,16.2-8.4C453.3,35,461.3,43.3,461.3,56.5z"/>
<path class="st0" d="M470.6,62.8c-0.1-15.4,12.4-28,27.8-28c15.4-0.1,28,12.4,28,27.8s-12.4,28-27.8,28h-0.1
	c-15.3,0.2-27.8-12-27.9-27.3C470.6,63.2,470.6,63,470.6,62.8z M515.1,62.8c0.3-9.1-6.8-16.8-15.9-17.1s-16.8,6.8-17.1,15.9
	c0,0.4,0,0.8,0,1.1c-0.3,9,6.8,16.5,15.8,16.7c0.2,0,0.5,0,0.7,0C507.9,79.5,515.1,72.5,515.1,62.8z"/>
<path class="st0" d="M564.6,35.4v12.4c-7.5-0.5-16.3,3-16.3,14.8v26.7h-11.4V36.4h11.4v8.9C551.5,38.1,557.9,35.4,564.6,35.4z"/>
<path class="st0" d="M596.5,80.2c6.3,0,11.1-2.9,13.6-6.6l9.4,5.5c-4.9,7.2-12.8,11.5-23.2,11.5c-17.5,0-28.8-12-28.8-27.8
	c0-15.7,11.4-27.8,27.9-27.8c15.8,0,26.6,12.7,26.6,27.9c0,1.6-0.2,3.2-0.4,4.8h-42.1C581.4,76,588.1,80.2,596.5,80.2z M610.6,58.4
	c-1.6-9.1-8.3-13-15.1-13c-8.6,0-14.4,5.1-16,13H610.6z"/>
<path class="st0" d="M64.5,108.2v-3.8c22.4,0,40.6-18.2,40.7-40.6h3.8C108.9,88.3,89,108.2,64.5,108.2z"/>
<circle class="st0" cx="64.4" cy="108" r="13.9"/>
<path class="st0" d="M23.8,63.8H20c0-24.5,19.9-44.4,44.4-44.4v3.8C42,23.2,23.9,41.4,23.8,63.8z"/>
<circle class="st0" cx="64.3" cy="63.8" r="20"/>
<circle class="st0" cx="64.4" cy="19.6" r="13.9"/>
<circle class="st0" cx="108.6" cy="63.8" r="13.9"/>
<circle class="st0" cx="20.2" cy="63.8" r="13.9"/>
<path class="st0" d="M64.5,106.3L64.5,106.3c0-1-0.8-1.8-1.8-1.9c-14-0.6-26.6-8.4-33.5-20.6c-0.5-0.9-1.6-1.2-2.5-0.7l0,0
	c-0.9,0.5-1.3,1.6-0.8,2.6l0,0c7.5,13.3,21.4,21.7,36.6,22.5C63.5,108.2,64.4,107.4,64.5,106.3L64.5,106.3z"/>
<path class="st0" d="M64.5,21.3L64.5,21.3c0,1,0.8,1.8,1.8,1.9c13.5,0.6,25.8,7.9,32.9,19.5c0.5,0.8,1.6,1.1,2.5,0.7l0,0
	c0.9-0.5,1.3-1.6,0.8-2.6c0,0,0-0.1-0.1-0.1C94.7,28,81.2,20.1,66.5,19.4C65.4,19.4,64.5,20.2,64.5,21.3
	C64.5,21.2,64.5,21.3,64.5,21.3z"/>
</svg>
