<?xml version="1.0" encoding="UTF-8" standalone="no"?>
<svg
   xmlns="http://www.w3.org/2000/svg"
   xmlns:svg="http://www.w3.org/2000/svg"
   xmlns:oryx="http://www.b3mn.org/oryx"
   xmlns:xlink="http://www.w3.org/1999/xlink"
   width="100"
   height="80"
   version="1.0">
  <defs></defs>
  <oryx:magnets>
  	<oryx:magnet oryx:cx="0" oryx:cy="40" oryx:anchors="left" />
  	<oryx:magnet oryx:cx="50" oryx:cy="80" oryx:anchors="bottom" />
  	<oryx:magnet oryx:cx="100" oryx:cy="40" oryx:anchors="right" />
  	<oryx:magnet oryx:cx="50" oryx:cy="0" oryx:anchors="top" />
  	<oryx:magnet oryx:cx="50" oryx:cy="40" oryx:default="yes" />
  </oryx:magnets>
  <g pointer-events="fill" oryx:minimumSize="80 60">
	  	<defs>
			<radialGradient id="background" cx="10%" cy="10%" r="100%" fx="10%" fy="10%">
				<stop offset="0%" stop-color="#ffffff" stop-opacity="1"/>
				<stop id="fill_el" offset="100%" stop-color="#ffffcc" stop-opacity="1"/>
			</radialGradient>
		</defs>
		
		<rect id="text_frame" oryx:anchors="bottom top right left" x="1" y="1" width="94" height="79" rx="10" ry="10" stroke="none" stroke-width="0" fill="none" />
	    <rect id="bg_frame" oryx:anchors="bottom top right left" oryx:resize="vertical horizontal" x="0" y="0" width="100" height="80" rx="10" ry="10" stroke="black" stroke-width="1" stroke-dasharray="2,2,2" fill="url(#background) white" />
    	<text 
			font-size="12"
			id="text_name" 
			x="50" 
			y="40" 
			oryx:align="middle center"
			oryx:fittoelem="text_frame"
			stroke="black">
		</text>
    
	<g transform="scale(0.8,0.8) translate(5,5)">
	
		<!-- general border for all event-symbols -->
		<g>
			<circle id="frame" oryx:anchors="top left" cx="16" cy="16" r="15" stroke="black" fill="none" stroke-width="1"/>
			
			<circle 
				id="frame2"
				oryx:anchors="top left"
		    	cx="16" 
		    	cy="16" 
		    	r="15" 
		    	stroke="black" 
		    	fill="none" 
		    	stroke-width="1"
		    	style="stroke-dasharray: 5.5, 3" />
		</g>
		
		<!-- message start-event -->
		<g id="message">    
		    <path id="messagepath" oryx:anchors="top left" stroke="black" fill="none" stroke-width="1" d="M8,11 L8,21 L24,21 L24,11z M8,11 L16,17 L24,11" />
		</g>
			
		<!-- timer start-event -->
		<g id="timer">
		    <path id="timerpath" oryx:anchors="top left" d="	M 16 6 L 16 9
		    		M 21 7 L 19.5 10
		    		M 25 11 L 22 12.5
		    		M 26 16 L 23 16
		    		M 25 21 L 22 19.5
		    		M 21 25 L 19.5 22
		    		M 16 26 L 16 23
		    		M 11 25 L 12.5 22
		    		M 7 21 L 10 19.5
		    		M 6 16 L 9 16
		    		M 7 11 L 10 12.5
		    		M 11 7 L 12.5 10
		    		M 18 9 L 16 16 L 20 16" fill="none" stroke="black" />
		</g>	
		
		<!-- escalation start-event -->
		<g id="escalation">
			<path
			   oryx:anchors="top left"
		       d="M 16,8.75 L22,23.75 L16,17 L10,23.75z "
		       id="path9"
		       stroke="black"
		       style="fill:none;stroke-width:1" />
		</g>
			
		<!-- conditional start-event -->
		<g id="conditional">
			<rect id="conditionalrect" oryx:anchors="top left" x="8" y="8" width="16" height="16" stroke="black" stroke-width="1" fill="none" />
		    <path id="conditionalpath" oryx:anchors="top left" d="	M 10 10 L 22 10
		    		M 10 14 L 22 14
		    		M 10 18 L 22 18
		    		M 10 22 L 22 22" fill="none" stroke="black" />
		</g>
		
		<!-- error start-event -->
		<g id="error">
		    <circle id="errorcircle" oryx:anchors="top left" cx="16" cy="16" r="15" stroke="black" fill="none" stroke-width="1"/>
		    <path
				oryx:anchors="top left"
		         stroke="black"
		         style="fill:none;stroke-width:1.5;stroke-linecap:butt;stroke-linejoin:miter;stroke-miterlimit:10"
		         d="M 22.820839,11.171502 L 19.36734,24.58992 L 13.54138,14.281819 L 9.3386512,20.071607 L 13.048949,6.8323057 L 18.996148,16.132659 L 22.820839,11.171502 z"
		         id="errorPolygon" />
		</g>
			
		<!-- compensation start-event -->
		<g id="compensationStart">
			<circle id="compensationcircle" oryx:anchors="top left" cx="16" cy="16" r="15" stroke="black" fill="none" stroke-width="1"/>
		    <polygon id="compensationpolygon1" oryx:anchors="top left" stroke="black" fill="none" stroke-width="1.4" points="15,9 15,23 8,16" stroke-linecap="butt" stroke-linejoin="miter" stroke-miterlimit="10" />
		    <polygon id="compensationpolygon2" oryx:anchors="top left" stroke="black" fill="none" stroke-width="1.4" points="22,9 22,23 15,16" stroke-linecap="butt" stroke-linejoin="miter" stroke-miterlimit="10" />
		</g>
		
		<!-- signal start-event -->
		<g id="signal">
			<path
				oryx:anchors="top left"
		       d="M 8.7124971,21.247342 L 23.333334,21.247342 L 16.022915,8.5759512 L 8.7124971,21.247342 z"
		       id="triangle"
		       stroke="black"
		       style="fill:none;stroke-width:1.4;stroke-miterlimit:4;stroke-dasharray:none" />
		</g>
		
		<!-- multiple start-event -->
		<g id="multiple">
			<path 
				oryx:anchors="top left"
				stroke="black"
				style="fill:none;
				fill-opacity:1;
				stroke-width:1.4;
				stroke-linejoin:bevel;
				stroke-opacity:1"
		       	d="M 20.834856,22.874369 L 10.762008,22.873529 L 7.650126,13.293421 L 15.799725,7.3734296 L 23.948336,13.294781 L 20.834856,22.874369 z"
		       id="middlepolygon" />
		</g>
		
		<!-- multiple (parallel) start-event -->
		<g id="multipleParallel">
			<path
				oryx:anchors="top left"
				d="M 6.75,13 L6.75,19 L13,19 L13,25.75 L19,25.75 L19,19 L25.75,19 L25.75,13 L19,13 L19,6.75 L13,6.75 L13,13z"
				id="path92"
				stroke="black"
				style="fill:none;stroke-width:1" />
		</g>
	
	</g>
		
	 	
	 	<g 	id="b" 
			oryx:anchors="bottom"
			transform="translate(1)">
			
		 	<rect id="plusborder" oryx:anchors="bottom" x="43" y="66" width="14" height="14" fill="none" stroke="black" stroke-width="1" />
			<path id="plus" oryx:anchors="bottom" fill="none" stroke="black" d="M50 68 v10 M 45 73 h10" stroke-width="1"/>
		
		</g>
		
	<g id="none"></g>
	<g id="loop">
		<path
			oryx:anchors="bottom"
			stroke="black"
	       	style="opacity:1;fill:none;fill-opacity:1;stroke-width:1.5;stroke-linecap:round;stroke-linejoin:round;stroke-miterlimit:2.0999999;stroke-dasharray:none;stroke-opacity:1"
			id="path2396"
			d="M 49.5,72 L 49.5,75 L 46.5,75 M 49.5,75 A 4.875,4.875 0 1 1 53.5,75"
			transform="translate(-15.5)"
	         />
	</g>
	
	<g id="parallel">
		<path id="parallelpath" oryx:anchors="bottom" fill="none" stroke="black" d="M46 65 v10 M50 65 v10 M54 65 v10" stroke-width="2" transform="translate(-14)" />
	</g>
	<g id="sequential">
		<path id="sequentialpath" oryx:anchors="bottom" fill="none" stroke="#000000" stroke-width="2" d="M45,67 h10 M45,71 h10 M45,75 h10" transform="translate(-14)"/>
	</g>
	
	
	<g id="adhoc" transform="translate(16)">
		<path
			id="adhocpath"
			d="m 55,70 0,2.0343 c -0.54305,0.60192 -1.04853,1.0324 -1.51647,1.29142 -0.46216,0.25908 -0.94744,0.38857 -1.4558,0.38857 -0.57194,0 -1.23628,-0.22473 -1.99307,-0.67428 -0.0577,-0.0306 -0.10111,-0.0534 -0.12999,-0.0687 -0.0346,-0.0228 -0.0896,-0.0533 -0.16464,-0.0915 -0.80878,-0.47234 -1.4558,-0.70857 -1.94107,-0.70857 -0.46217,0 -0.91566,0.14858 -1.36047,0.44576 -0.44485,0.2895 -0.92434,0.75046 -1.43849,1.38285 l 0,-2.03429 c 0.54881,-0.60194 1.05431,-1.0324 1.51647,-1.29147 0.46793,-0.26666 0.9532,-0.39999 1.45581,-0.39999 0.57191,0 1.24205,0.22856 2.01039,0.68574 0.0461,0.0308 0.0838,0.0533 0.11266,0.0687 0.0404,0.0228 0.0982,0.0533 0.1733,0.0913 0.803,0.4724 1.45002,0.70861 1.94108,0.70857 0.44481,4e-5 0.88676,-0.14475 1.32581,-0.43429 0.43905,-0.2895 0.9272,-0.75425 1.46448,-1.39428"
			oryx:anchors="bottom"
			stroke="black" 
			fill="black"
			stroke-width="1"
		/>
	</g>
	<g id="compensation">
		<path id="compensationpath" oryx:anchors="bottom" fill="none" stroke="black" d="M 50 70 L 55 65 L 55 75z M44.7 70 L49.7 75 L 49.7 65z" stroke-width="1"
		transform="translate(-27,0)" />
	</g>
  </g>
</svg>